# Created by Kenney (www.kenney.nl)

mtllib arrows.mtl

g arrows

v 0.035 0.1 0.035 1 1 1
v 0.035 0.1 -0.035 1 1 1
v -0.035 0.1 0.035 1 1 1
v -0.035 0.1 -0.035 1 1 1
v 0.02555 0.9 -0.02555 1 1 1
v 0.02555 0.9 0.02555 1 1 1
v -0.02555 0.9 -0.02555 1 1 1
v -0.02555 0.9 0.02555 1 1 1
v -0.031 0 -0.05599999 1 1 1
v 0.031 0 -0.05599999 1 1 1
v -0.031 0.1 -0.05599999 1 1 1
v 0.031 0.1 -0.05599999 1 1 1
v -0.056 0 -0.031 1 1 1
v -0.056 0.1 -0.031 1 1 1
v -0.056 0 0.031 1 1 1
v -0.056 0.1 0.031 1 1 1
v 0.031 0 0.05599999 1 1 1
v -0.031 0 0.05599999 1 1 1
v 0.031 0.1 0.05599999 1 1 1
v -0.031 0.1 0.05599999 1 1 1
v 0.056 0.1 -0.031 1 1 1
v 0.056 0 -0.031 1 1 1
v 0.056 0.1 0.031 1 1 1
v 0.056 0 0.031 1 1 1
v 0.1043551 0.3003633 -0.006431455 1 1 1
v 0.09582148 0.3651829 -0.006431455 1 1 1
v 0.1043551 0.3003633 0.08627206 1 1 1
v 0.09582148 0.3651829 0.08627206 1 1 1
v 0.2509007 0.4697404 0.02446966 1 1 1
v 0.2509007 0.4697404 0.05537077 1 1 1
v 0.07404421 0.5305976 0.08627206 1 1 1
v 0.06551054 0.5954173 0.08627206 1 1 1
v 0.07404421 0.5305976 -0.006431455 1 1 1
v -0.2148605 0.5162946 -0.006431463 1 1 1
v -0.2148605 0.5162946 0.08627205 1 1 1
v -0.1869409 0.3042246 0.08627205 1 1 1
v 0.06551054 0.5954173 -0.006431455 1 1 1
v -0.1869409 0.3042246 -0.006431463 1 1 1
v -0.1016598 0.5988656 -0.006431455 1 1 1
v -0.25143 0.7653982 0.02446966 1 1 1
v -0.1016598 0.5988656 0.08627206 1 1 1
v -0.25143 0.7653982 0.05537077 1 1 1
v -0.06848669 0.894611 0.08627206 1 1 1
v -0.06848669 0.894611 -0.006431455 1 1 1
v 0.2133516 0.8208853 0.08627205 1 1 1
v -0.0757744 0.8296395 0.08627206 1 1 1
v 0.2133516 0.8208853 -0.006431463 1 1 1
v -0.0757744 0.8296395 -0.006431455 1 1 1
v -0.09437212 0.6638372 -0.006431455 1 1 1
v 0.1895084 0.6083183 -0.006431463 1 1 1
v 0.1895084 0.6083183 0.08627205 1 1 1
v -0.09437209 0.6638372 0.08627206 1 1 1

vn 0 -1 0
vn 0 1 0
vn 0 0.01181168 0.9999303
vn 0.9999303 0.01181168 0
vn -0.9999303 0.01181168 0
vn 0 0.01181168 -0.9999303
vn -0.3826834 0 -0.9238795
vn 0.3826834 0 -0.9238795
vn -0.9238795 0 -0.3826834
vn -0.9238795 0 0.3826834
vn 0.3826834 0 0.9238795
vn -0.3826834 0 0.9238795
vn 0.9238795 0 -0.3826834
vn 0.9238795 0 0.3826834
vn -0.9914449 -0.1305262 0
vn 0.7562367 -0.6542982 0
vn 0.9914449 0.1305262 0
vn 0.1799756 0.02369424 0.9833856
vn 0.1183907 0.01558643 0.9928448
vn 0.1183907 0.01558643 0.9928448
vn -0.04944711 0.9987767 0
vn 0 0 1
vn 0.1799746 0.02369411 -0.9833859
vn 0.11839 0.01558635 -0.9928448
vn 0.11839 0.01558635 -0.9928448
vn 0.5611236 0.827732 0
vn 0 0 -1
vn 0.2107399 -0.9775422 0
vn -0.7435364 -0.6686954 0
vn -0.9937679 0.1114689 0
vn -0.5769106 0.8168073 0
vn 0.03026437 0.999542 0
vn -0.1803963 0.02023469 -0.9833859
vn -0.1186674 0.01331068 -0.9928448
vn -0.1186674 0.01331069 -0.9928448
vn 0.9937679 -0.1114689 0
vn -0.1186681 0.01331076 0.9928448
vn -0.1803973 0.0202348 0.9833856
vn -0.1919351 -0.9814076 0

vt 0.84375 0.025
vt 0.84375 0.225
vt 0.84375 0.075
vt 0.84375 0.175
vt 0.71875 0.025
vt 0.71875 0.06893743
vt 0.71875 0.1398109
vt 0.71875 0.1810625
vt 0.71875 0.225
vt 0.71875 0.1713673
vt 0.71875 0.02761733
vt 0.71875 0.1376189
vt 0.71875 0.1751425
vt 0.71875 0.1810625
vt 0.71875 0.0689375
vt 0.71875 0.03139246

usemtl colormap

f 3/1/1 2/1/1 1/1/1
f 2/1/1 3/1/1 4/1/1
f 7/2/2 6/2/2 5/2/2
f 6/2/2 7/2/2 8/2/2
f 6/2/3 3/1/3 1/1/3
f 3/1/3 6/2/3 8/2/3
f 5/2/4 1/1/4 2/1/4
f 1/1/4 5/2/4 6/2/4
f 3/1/5 7/2/5 4/1/5
f 7/2/5 3/1/5 8/2/5
f 7/2/6 2/1/6 4/1/6
f 2/1/6 7/2/6 5/2/6
f 11/4/7 10/3/8 9/3/7
f 10/3/8 11/4/7 12/4/8
f 15/3/10 14/4/9 13/3/9
f 14/4/9 15/3/10 16/4/10
f 19/4/11 18/3/12 17/3/11
f 18/3/12 19/4/11 20/4/12
f 23/4/14 22/3/13 21/4/13
f 22/3/13 23/4/14 24/3/14
f 19/4/11 24/3/14 23/4/14
f 24/3/14 19/4/11 17/3/11
f 18/3/12 16/4/10 15/3/10
f 16/4/10 18/3/12 20/4/12
f 21/4/13 10/3/8 12/4/8
f 10/3/8 21/4/13 22/3/13
f 13/3/9 11/4/7 9/3/7
f 11/4/7 13/3/9 14/4/9
f 12/4/2 23/4/2 21/4/2
f 23/4/2 12/4/2 19/4/2
f 19/4/2 12/4/2 11/4/2
f 19/4/2 11/4/2 20/4/2
f 20/4/2 11/4/2 14/4/2
f 20/4/2 14/4/2 16/4/2
f 17/3/1 22/3/1 24/3/1
f 22/3/1 17/3/1 10/3/1
f 10/3/1 17/3/1 18/3/1
f 10/3/1 18/3/1 9/3/1
f 9/3/1 18/3/1 15/3/1
f 9/3/1 15/3/1 13/3/1
f 27/5/15 26/6/15 25/5/15
f 26/6/15 27/5/15 28/6/15
f 29/7/17 27/5/16 25/5/16
f 27/5/16 29/7/17 30/7/17
f 30/7/18 28/6/19 27/5/18
f 28/6/19 30/7/18 31/8/20
f 31/8/20 30/7/18 32/9/18
f 34/10/21 31/8/21 33/8/21
f 31/8/21 34/10/21 35/10/21
f 28/6/19 35/10/22 36/11/22
f 35/10/22 28/6/19 31/8/20
f 26/6/24 29/7/23 25/5/23
f 29/7/23 26/6/24 33/8/25
f 29/7/23 33/8/25 37/9/23
f 31/8/15 37/9/15 33/8/15
f 37/9/15 31/8/15 32/9/15
f 36/11/15 34/10/15 38/11/15
f 34/10/15 36/11/15 35/10/15
f 37/9/26 30/7/17 29/7/17
f 30/7/17 37/9/26 32/9/26
f 34/10/27 26/6/24 38/11/27
f 26/6/24 34/10/27 33/8/25
f 28/6/28 38/11/28 26/6/28
f 38/11/28 28/6/28 36/11/28
f 41/5/29 40/12/30 39/5/29
f 40/12/30 41/5/29 42/12/30
f 44/9/31 42/12/30 43/9/31
f 42/12/30 44/9/31 40/12/30
f 47/13/32 46/14/32 45/13/32
f 46/14/32 47/13/32 48/14/32
f 40/12/33 49/15/34 39/5/33
f 49/15/34 40/12/33 48/14/35
f 48/14/35 40/12/33 44/9/33
f 45/13/36 50/16/36 47/13/36
f 50/16/36 45/13/36 51/16/36
f 52/15/36 39/5/36 49/15/36
f 39/5/36 52/15/36 41/5/36
f 45/13/22 52/15/37 51/16/22
f 52/15/37 45/13/22 46/14/37
f 49/15/34 47/13/27 50/16/27
f 47/13/27 49/15/34 48/14/35
f 43/9/36 48/14/36 44/9/36
f 48/14/36 43/9/36 46/14/36
f 52/15/37 42/12/38 41/5/38
f 42/12/38 52/15/37 46/14/37
f 42/12/38 46/14/37 43/9/38
f 52/15/39 50/16/39 51/16/39
f 50/16/39 52/15/39 49/15/39

g arrows




usemtl colormap

f 3/1/1 2/1/1 1/1/1
f 2/1/1 3/1/1 4/1/1
f 7/2/2 6/2/2 5/2/2
f 6/2/2 7/2/2 8/2/2
f 6/2/3 3/1/3 1/1/3
f 3/1/3 6/2/3 8/2/3
f 5/2/4 1/1/4 2/1/4
f 1/1/4 5/2/4 6/2/4
f 3/1/5 7/2/5 4/1/5
f 7/2/5 3/1/5 8/2/5
f 7/2/6 2/1/6 4/1/6
f 2/1/6 7/2/6 5/2/6
f 11/4/7 10/3/8 9/3/7
f 10/3/8 11/4/7 12/4/8
f 15/3/10 14/4/9 13/3/9
f 14/4/9 15/3/10 16/4/10
f 19/4/11 18/3/12 17/3/11
f 18/3/12 19/4/11 20/4/12
f 23/4/14 22/3/13 21/4/13
f 22/3/13 23/4/14 24/3/14
f 19/4/11 24/3/14 23/4/14
f 24/3/14 19/4/11 17/3/11
f 18/3/12 16/4/10 15/3/10
f 16/4/10 18/3/12 20/4/12
f 21/4/13 10/3/8 12/4/8
f 10/3/8 21/4/13 22/3/13
f 13/3/9 11/4/7 9/3/7
f 11/4/7 13/3/9 14/4/9
f 12/4/2 23/4/2 21/4/2
f 23/4/2 12/4/2 19/4/2
f 19/4/2 12/4/2 11/4/2
f 19/4/2 11/4/2 20/4/2
f 20/4/2 11/4/2 14/4/2
f 20/4/2 14/4/2 16/4/2
f 17/3/1 22/3/1 24/3/1
f 22/3/1 17/3/1 10/3/1
f 10/3/1 17/3/1 18/3/1
f 10/3/1 18/3/1 9/3/1
f 9/3/1 18/3/1 15/3/1
f 9/3/1 15/3/1 13/3/1
f 27/5/15 26/6/15 25/5/15
f 26/6/15 27/5/15 28/6/15
f 29/7/17 27/5/16 25/5/16
f 27/5/16 29/7/17 30/7/17
f 30/7/18 28/6/19 27/5/18
f 28/6/19 30/7/18 31/8/20
f 31/8/20 30/7/18 32/9/18
f 34/10/21 31/8/21 33/8/21
f 31/8/21 34/10/21 35/10/21
f 28/6/19 35/10/22 36/11/22
f 35/10/22 28/6/19 31/8/20
f 26/6/24 29/7/23 25/5/23
f 29/7/23 26/6/24 33/8/25
f 29/7/23 33/8/25 37/9/23
f 31/8/15 37/9/15 33/8/15
f 37/9/15 31/8/15 32/9/15
f 36/11/15 34/10/15 38/11/15
f 34/10/15 36/11/15 35/10/15
f 37/9/26 30/7/17 29/7/17
f 30/7/17 37/9/26 32/9/26
f 34/10/27 26/6/24 38/11/27
f 26/6/24 34/10/27 33/8/25
f 28/6/28 38/11/28 26/6/28
f 38/11/28 28/6/28 36/11/28
f 41/5/29 40/12/30 39/5/29
f 40/12/30 41/5/29 42/12/30
f 44/9/31 42/12/30 43/9/31
f 42/12/30 44/9/31 40/12/30
f 47/13/32 46/14/32 45/13/32
f 46/14/32 47/13/32 48/14/32
f 40/12/33 49/15/34 39/5/33
f 49/15/34 40/12/33 48/14/35
f 48/14/35 40/12/33 44/9/33
f 45/13/36 50/16/36 47/13/36
f 50/16/36 45/13/36 51/16/36
f 52/15/36 39/5/36 49/15/36
f 39/5/36 52/15/36 41/5/36
f 45/13/22 52/15/37 51/16/22
f 52/15/37 45/13/22 46/14/37
f 49/15/34 47/13/27 50/16/27
f 47/13/27 49/15/34 48/14/35
f 43/9/36 48/14/36 44/9/36
f 48/14/36 43/9/36 46/14/36
f 52/15/37 42/12/38 41/5/38
f 42/12/38 52/15/37 46/14/37
f 42/12/38 46/14/37 43/9/38
f 52/15/39 50/16/39 51/16/39
f 50/16/39 52/15/39 49/15/39

