# Created by Kenney (www.kenney.nl)

mtllib block-grass-overhang-large-slope-steep.mtl

g block-grass-overhang-large-slope-steep

v 1 0.3201281 0.691451 1 1 1
v 0.9198205 0.2233429 0.8590878 1 1 1
v 1 1.046378 -0.566451 1 1 1
v 0.9198205 1.143163 -0.7340878 1 1 1
v 0.7262501 0.1832531 0.9285254 1 1 1
v 0.7262501 1.183253 -0.8035254 1 1 1
v -0.7262501 0.1832531 0.9285254 1 1 1
v -0.7262501 1.183253 -0.8035254 1 1 1
v -0.9198205 0.2233429 0.8590878 1 1 1
v -0.9198205 1.143163 -0.7340878 1 1 1
v -1 0.3201281 0.691451 1 1 1
v -1 1.046378 -0.566451 1 1 1
v 1.041062 0.9518125 -0.6526583 1 1 1
v 1 0.8298718 -0.691451 1 1 1
v 1.041062 0.1981875 0.6526583 1 1 1
v 1 0.1036218 0.566451 1 1 1
v -0.7262501 0.9667469 -0.9285254 1 1 1
v 0.7262501 0.9667469 -0.9285254 1 1 1
v -0.753625 1.095531 -0.9015864 1 1 1
v 0.753625 1.095531 -0.9015864 1 1 1
v -0.956874 1.053437 -0.8286771 1 1 1
v -1.041062 0.9518125 -0.6526583 1 1 1
v -0.9198205 0.9266571 -0.8590878 1 1 1
v -1 0.8298718 -0.691451 1 1 1
v 0.9198205 0.006836563 0.7340878 1 1 1
v 0.7262501 -0.03325325 0.8035254 1 1 1
v 0.956874 0.09656298 0.8286771 1 1 1
v 0.753625 0.05446875 0.9015864 1 1 1
v 0.9198205 0.9266571 -0.8590878 1 1 1
v 0.956874 1.053437 -0.8286771 1 1 1
v -1.041062 0.1981875 0.6526583 1 1 1
v -1 0.1036218 0.566451 1 1 1
v -0.7262501 -0.03325325 0.8035254 1 1 1
v -0.9198205 0.006836563 0.7340878 1 1 1
v -0.753625 0.05446875 0.9015864 1 1 1
v -0.956874 0.09656298 0.8286771 1 1 1
v 1.041062 0.06367683 0.5004139 1 1 1
v 1.041062 0.1981874 0.6526583 1 1 1
v 1.041062 0.085886 0.2977507 1 1 1
v 1.041062 0.250293 0.1771853 1 1 1
v 1.041062 0.4493958 0.2175528 1 1 1
v 1.041062 0.3148851 0.06530836 1 1 1
v 1.041062 0.3370943 -0.1373549 1 1 1
v 1.041062 0.5015013 -0.2579202 1 1 1
v 1.041062 0.7006041 -0.2175528 1 1 1
v 1.041062 0.9518125 -0.6526584 1 1 1
v 1.041062 0.7527096 -0.6930258 1 1 1
v 1.041062 0.5883027 -0.5724605 1 1 1
v 1.041062 0.5660934 -0.3697972 1 1 1
v 1.01829 0.001949459 0.6028429 1 1 1
v 0.956874 0.09656294 0.8286771 1 1 1
v 0.956874 -0.1413427 0.6913222 1 1 1
v -4.012346E-13 -0.1834369 0.7642315 1 1 1
v -0.1866161 -0.112338 0.8052804 1 1 1
v 0.1866161 -0.112338 0.8052804 1 1 1
v -0.2512083 0.05446872 0.9015864 1 1 1
v 0.2512083 0.05446872 0.9015864 1 1 1
v 0.753625 0.05446872 0.9015864 1 1 1
v 0.6890328 -0.112338 0.8052804 1 1 1
v 0.3158005 -0.112338 0.8052804 1 1 1
v 0.5024167 -0.1834369 0.7642315 1 1 1
v -0.753625 0.05446872 0.9015864 1 1 1
v -0.6890328 -0.112338 0.8052804 1 1 1
v -0.3158005 -0.112338 0.8052804 1 1 1
v -0.5024167 -0.1834369 0.7642315 1 1 1
v 0.8086026 -0.1028943 0.7844376 1 1 1
v -1.041062 0.1981874 0.6526583 1 1 1
v -0.956874 0.09656294 0.8286771 1 1 1
v -1.01829 0.001949459 0.6028429 1 1 1
v -0.956874 -0.1413427 0.6913222 1 1 1
v -0.8086026 -0.1028943 0.7844376 1 1 1
v -1.041062 0.9518125 -0.6526584 1 1 1
v -1.041062 0.7006041 -0.2175528 1 1 1
v -1.041062 0.7527096 -0.6930258 1 1 1
v -1.041062 0.5883027 -0.5724605 1 1 1
v -1.041062 0.5660935 -0.3697972 1 1 1
v -1.041062 0.4493958 0.2175528 1 1 1
v -1.041062 0.5015013 -0.2579202 1 1 1
v -1.041062 0.3370943 -0.1373549 1 1 1
v -1.041062 0.3148851 0.06530836 1 1 1
v -1.041062 0.250293 0.1771853 1 1 1
v -1.041062 0.085886 0.2977507 1 1 1
v -1.041062 0.06367683 0.5004139 1 1 1
v -0.956874 0.8155314 -0.966032 1 1 1
v -1.01829 0.810552 -0.7976977 1 1 1
v 4.282687E-09 0.8576256 -1.038941 1 1 1
v 0.1866161 0.9287244 -0.9978924 1 1 1
v -0.1866161 0.9287244 -0.9978924 1 1 1
v 0.2512083 1.095531 -0.9015865 1 1 1
v -0.2512083 1.095531 -0.9015865 1 1 1
v -0.753625 1.095531 -0.9015865 1 1 1
v -0.6890328 0.9287244 -0.9978924 1 1 1
v -0.3158005 0.9287244 -0.9978924 1 1 1
v -0.5024167 0.8576256 -1.038941 1 1 1
v 0.753625 1.095531 -0.9015865 1 1 1
v 0.6890328 0.9287244 -0.9978924 1 1 1
v 0.3158005 0.9287244 -0.9978924 1 1 1
v 0.5024167 0.8576256 -1.038941 1 1 1
v 0.956874 0.8155314 -0.966032 1 1 1
v 1.01829 0.810552 -0.7976977 1 1 1
v 0.8086026 0.9153959 -0.9792925 1 1 1
v -0.8086026 0.9153959 -0.9792925 1 1 1
v -0.7262501 0 -0.9285254 1 1 1
v 0.7262501 0 -0.9285254 1 1 1
v -0.7262501 0.9667469 -0.9285254 1 1 1
v 0.7262501 0.9667469 -0.9285254 1 1 1
v -0.9198205 0 -0.8590879 1 1 1
v -0.9198205 0.9266571 -0.8590879 1 1 1
v -1 -1.790961E-16 -0.691451 1 1 1
v 0.9198205 0.9266571 -0.8590879 1 1 1
v 0.9198205 0 -0.8590879 1 1 1
v 1 -1.790961E-16 -0.691451 1 1 1
v 1 0.1036218 0.566451 1 1 1
v 1 -2.470291E-17 0.566451 1 1 1
v -1 -2.470291E-17 0.566451 1 1 1
v -1 0.1036218 0.566451 1 1 1
v 0.7262501 -2.470291E-17 0.7402009 1 1 1
v -0.7262501 -2.470291E-17 0.7402009 1 1 1
v 0.7262501 0.1036218 0.7402009 1 1 1
v -0.7262501 0.1036218 0.7402009 1 1 1
v -0.9198205 -2.470291E-17 0.6600214 1 1 1
v -0.9198205 0.1036218 0.6600214 1 1 1
v 0.9198205 -2.470291E-17 0.6600214 1 1 1
v 0.9198205 0.1036218 0.6600214 1 1 1

vn 0 0.8660253 0.5
vn 0.9774452 0.1055944 -0.1828948
vn 0.9254633 -0.2116966 -0.3141689
vn 0.9774452 -0.1055944 0.1828948
vn 0.9254633 -0.3779265 -0.02625018
vn -0.16623 0.1679201 -0.9716842
vn 0.16623 0.1679201 -0.9716842
vn -0.2111887 0.4887226 -0.8464924
vn 0.2111887 0.4887226 -0.8464924
vn -0.7071068 0.3535534 -0.6123724
vn -0.9774452 0.1055944 -0.1828948
vn -0.652123 -0.008757144 -0.7580627
vn -0.9254633 -0.2116966 -0.3141689
vn 0.652123 -0.6608801 0.3714474
vn 0.16623 -0.7575432 0.6312652
vn 0.7071068 -0.3535534 0.6123724
vn 0.2111887 -0.4887226 0.8464924
vn 0.652123 -0.008757144 -0.7580627
vn 0.7071068 0.3535534 -0.6123724
vn -0.9774452 -0.1055944 0.1828948
vn -0.9254633 -0.3779265 -0.02625018
vn -0.16623 -0.7575432 0.6312652
vn -0.652123 -0.6608801 0.3714474
vn -0.2111887 -0.4887226 0.8464924
vn -0.7071068 -0.3535534 0.6123724
vn -0.9254633 0.3779265 0.02625018
vn -0.9254633 0.2116966 0.3141689
vn -0.652123 0.008757144 0.7580627
vn -0.16623 -0.1679201 0.9716842
vn 0.16623 -0.1679201 0.9716842
vn 0.9254633 0.3779265 0.02625018
vn 0.9254633 0.2116966 0.3141689
vn 0.16623 0.7575432 -0.6312652
vn 0.652123 0.6608801 -0.3714474
vn -0.16623 0.7575432 -0.6312652
vn -0.652123 0.6608801 -0.3714474
vn 0.652123 0.008757144 0.7580627
vn 0 -0.8660253 -0.5
vn 1 0 0
vn 0.9238795 -0.1913417 0.3314135
vn 0 -0.5 0.8660253
vn 0.3826834 -0.4619398 0.8001031
vn -0.9238795 -0.1913417 0.3314135
vn -0.3826834 -0.4619398 0.8001031
vn -1 0 0
vn -0.9238795 0.1913417 -0.3314135
vn 0 0.5 -0.8660253
vn 0.9238795 0.1913417 -0.3314135
vn 0.3826834 0.4619398 -0.8001031
vn -0.3826834 0.4619398 -0.8001031
vn -0.1713608 0 -0.9852083
vn 0.1713608 0 -0.9852083
vn -0.1601632 0 -0.9870905
vn 0.1601632 0 -0.9870905
vn -0.6702482 0 -0.742137
vn -0.5955263 0 -0.8033358
vn -0.9752238 0 -0.2212204
vn -0.956386 0 -0.2921059
vn 0.5955263 0 -0.8033358
vn 0.6702482 0 -0.742137
vn 0.956386 0 -0.2921059
vn 0.9752238 0 -0.2212204
vn 0.9549056 0 0.2969095
vn 0.9379104 0 0.3468777
vn -0.9379104 0 0.3468777
vn -0.9549056 0 0.2969095
vn 0.1950903 0 0.9807853
vn -0.1950903 0 0.9807853
vn -0.5871291 0 0.8094933
vn 0.5871291 0 0.8094933
vn 0 -1 0

vt 0.21875 0.475
vt 0.21875 0.375
vt 0.21875 0.275
vt 0.21875 0.3048853
vt 0.21875 0.3040689
vt 0.71875 0.225
vt 0.71875 0.025
vt 0.71875 0.03329374
vt 0.71875 0.05331664
vt 0.71875 0.2035628

usemtl colormap

f 3/1/1 2/1/1 1/1/1
f 2/1/1 3/1/1 4/1/1
f 2/1/1 4/1/1 5/1/1
f 5/1/1 4/1/1 6/1/1
f 5/1/1 6/1/1 7/1/1
f 7/1/1 6/1/1 8/1/1
f 7/1/1 8/1/1 9/1/1
f 9/1/1 8/1/1 10/1/1
f 9/1/1 10/1/1 11/1/1
f 11/1/1 10/1/1 12/1/1
f 15/2/4 14/3/3 13/2/2
f 14/3/3 15/2/4 16/3/5
f 19/2/8 18/3/7 17/3/6
f 18/3/7 19/2/8 20/2/9
f 23/3/12 22/2/11 21/2/10
f 22/2/11 23/3/12 24/3/13
f 27/2/16 26/3/15 25/3/14
f 26/3/15 27/2/16 28/2/17
f 20/2/9 29/3/18 18/3/7
f 29/3/18 20/2/9 30/2/19
f 24/3/13 31/2/20 22/2/11
f 31/2/20 24/3/13 32/3/21
f 35/2/24 34/3/23 33/3/22
f 34/3/23 35/2/24 36/2/25
f 26/3/15 35/2/24 33/3/22
f 35/2/24 26/3/15 28/2/17
f 23/3/12 19/2/8 17/3/6
f 19/2/8 23/3/12 21/2/10
f 34/3/23 31/2/20 32/3/21
f 31/2/20 34/3/23 36/2/25
f 13/2/2 29/3/18 30/2/19
f 29/3/18 13/2/2 14/3/3
f 15/2/4 25/3/14 16/3/5
f 25/3/14 15/2/4 27/2/16
f 31/2/20 12/1/26 22/2/11
f 12/1/26 31/2/20 11/1/27
f 31/2/20 9/1/28 11/1/27
f 9/1/28 31/2/20 36/2/25
f 7/1/29 36/2/25 35/2/24
f 36/2/25 7/1/29 9/1/28
f 28/2/17 7/1/29 35/2/24
f 7/1/29 28/2/17 5/1/30
f 3/1/31 15/2/4 13/2/2
f 15/2/4 3/1/31 1/1/32
f 6/1/33 30/2/19 20/2/9
f 30/2/19 6/1/33 4/1/34
f 19/2/8 6/1/33 20/2/9
f 6/1/33 19/2/8 8/1/35
f 4/1/34 13/2/2 30/2/19
f 13/2/2 4/1/34 3/1/31
f 10/1/36 19/2/8 21/2/10
f 19/2/8 10/1/36 8/1/35
f 22/2/11 10/1/36 21/2/10
f 10/1/36 22/2/11 12/1/26
f 2/1/37 28/2/17 27/2/16
f 28/2/17 2/1/37 5/1/30
f 2/1/37 15/2/4 1/1/32
f 15/2/4 2/1/37 27/2/16
f 25/3/38 14/3/38 16/3/38
f 14/3/38 25/3/38 29/3/38
f 29/3/38 25/3/38 26/3/38
f 29/3/38 26/3/38 18/3/38
f 18/3/38 26/3/38 33/3/38
f 18/3/38 33/3/38 17/3/38
f 17/3/38 33/3/38 34/3/38
f 17/3/38 34/3/38 23/3/38
f 23/3/38 34/3/38 32/3/38
f 23/3/38 32/3/38 24/3/38
f 39/3/39 38/2/39 37/4/39
f 40/4/39 38/2/39 39/3/39
f 38/2/39 40/4/39 41/2/39
f 43/3/39 41/2/39 42/4/39
f 44/4/39 41/2/39 43/3/39
f 41/2/39 44/4/39 45/2/39
f 45/2/39 47/4/39 46/2/39
f 47/4/39 45/2/39 48/3/39
f 48/3/39 45/2/39 49/4/39
f 51/2/16 50/5/40 38/2/40
f 50/5/40 51/2/16 52/3/16
f 55/4/41 54/4/41 53/3/41
f 54/4/41 55/4/41 56/2/41
f 56/2/41 55/4/41 57/2/41
f 57/2/41 59/4/41 58/2/41
f 60/4/41 59/4/41 57/2/41
f 59/4/41 60/4/41 61/3/41
f 63/4/41 56/2/41 62/2/41
f 63/4/41 64/4/41 56/2/41
f 64/4/41 63/4/41 65/3/41
f 51/2/16 66/5/42 52/3/16
f 66/5/42 51/2/16 58/2/42
f 69/5/43 68/2/25 67/2/43
f 68/2/25 69/5/43 70/3/25
f 71/5/44 68/2/25 70/3/25
f 68/2/25 71/5/44 62/2/44
f 74/4/45 73/2/45 72/2/45
f 73/2/45 74/4/45 75/3/45
f 73/2/45 75/3/45 76/4/45
f 78/4/45 77/2/45 73/2/45
f 77/2/45 78/4/45 79/3/45
f 77/2/45 79/3/45 80/4/45
f 81/4/45 67/2/45 77/2/45
f 67/2/45 81/4/45 82/3/45
f 67/2/45 82/3/45 83/4/45
f 84/3/10 72/2/46 21/2/10
f 72/2/46 84/3/10 85/5/46
f 88/4/47 87/4/47 86/3/47
f 87/4/47 88/4/47 89/2/47
f 89/2/47 88/4/47 90/2/47
f 90/2/47 92/4/47 91/2/47
f 93/4/47 92/4/47 90/2/47
f 92/4/47 93/4/47 94/3/47
f 96/4/47 89/2/47 95/2/47
f 96/4/47 97/4/47 89/2/47
f 97/4/47 96/4/47 98/3/47
f 46/2/48 99/3/19 30/2/19
f 99/3/19 46/2/48 100/5/48
f 101/5/49 30/2/19 99/3/19
f 30/2/19 101/5/49 95/2/49
f 21/2/10 102/5/50 84/3/10
f 102/5/50 21/2/10 91/2/50
f 105/7/53 104/6/52 103/6/51
f 104/6/52 105/7/53 106/7/54
f 109/6/57 108/8/56 107/6/55
f 108/8/56 109/6/57 24/9/58
f 14/9/61 111/6/60 110/8/59
f 111/6/60 14/9/61 112/6/62
f 108/8/56 103/6/51 107/6/55
f 103/6/51 108/8/56 105/7/53
f 106/7/54 111/6/60 104/6/52
f 111/6/60 106/7/54 110/8/59
f 113/10/63 112/6/62 14/9/61
f 112/6/62 113/10/63 114/6/64
f 115/6/65 24/9/58 109/6/57
f 24/9/58 115/6/65 116/10/66
f 119/10/67 118/6/68 117/6/67
f 118/6/68 119/10/67 120/10/68
f 121/6/69 116/10/66 115/6/65
f 116/10/66 121/6/69 122/10/69
f 124/10/70 117/6/67 123/6/70
f 117/6/67 124/10/70 119/10/67
f 120/10/68 121/6/69 118/6/68
f 121/6/69 120/10/68 122/10/69
f 124/10/70 114/6/64 113/10/63
f 114/6/64 124/10/70 123/6/70
f 123/6/71 112/6/71 114/6/71
f 112/6/71 123/6/71 111/6/71
f 111/6/71 123/6/71 117/6/71
f 111/6/71 117/6/71 104/6/71
f 104/6/71 117/6/71 118/6/71
f 104/6/71 118/6/71 103/6/71
f 103/6/71 118/6/71 121/6/71
f 103/6/71 121/6/71 107/6/71
f 107/6/71 121/6/71 115/6/71
f 107/6/71 115/6/71 109/6/71

g block-grass-overhang-large-slope-steep




usemtl colormap

f 3/1/1 2/1/1 1/1/1
f 2/1/1 3/1/1 4/1/1
f 2/1/1 4/1/1 5/1/1
f 5/1/1 4/1/1 6/1/1
f 5/1/1 6/1/1 7/1/1
f 7/1/1 6/1/1 8/1/1
f 7/1/1 8/1/1 9/1/1
f 9/1/1 8/1/1 10/1/1
f 9/1/1 10/1/1 11/1/1
f 11/1/1 10/1/1 12/1/1
f 15/2/4 14/3/3 13/2/2
f 14/3/3 15/2/4 16/3/5
f 19/2/8 18/3/7 17/3/6
f 18/3/7 19/2/8 20/2/9
f 23/3/12 22/2/11 21/2/10
f 22/2/11 23/3/12 24/3/13
f 27/2/16 26/3/15 25/3/14
f 26/3/15 27/2/16 28/2/17
f 20/2/9 29/3/18 18/3/7
f 29/3/18 20/2/9 30/2/19
f 24/3/13 31/2/20 22/2/11
f 31/2/20 24/3/13 32/3/21
f 35/2/24 34/3/23 33/3/22
f 34/3/23 35/2/24 36/2/25
f 26/3/15 35/2/24 33/3/22
f 35/2/24 26/3/15 28/2/17
f 23/3/12 19/2/8 17/3/6
f 19/2/8 23/3/12 21/2/10
f 34/3/23 31/2/20 32/3/21
f 31/2/20 34/3/23 36/2/25
f 13/2/2 29/3/18 30/2/19
f 29/3/18 13/2/2 14/3/3
f 15/2/4 25/3/14 16/3/5
f 25/3/14 15/2/4 27/2/16
f 31/2/20 12/1/26 22/2/11
f 12/1/26 31/2/20 11/1/27
f 31/2/20 9/1/28 11/1/27
f 9/1/28 31/2/20 36/2/25
f 7/1/29 36/2/25 35/2/24
f 36/2/25 7/1/29 9/1/28
f 28/2/17 7/1/29 35/2/24
f 7/1/29 28/2/17 5/1/30
f 3/1/31 15/2/4 13/2/2
f 15/2/4 3/1/31 1/1/32
f 6/1/33 30/2/19 20/2/9
f 30/2/19 6/1/33 4/1/34
f 19/2/8 6/1/33 20/2/9
f 6/1/33 19/2/8 8/1/35
f 4/1/34 13/2/2 30/2/19
f 13/2/2 4/1/34 3/1/31
f 10/1/36 19/2/8 21/2/10
f 19/2/8 10/1/36 8/1/35
f 22/2/11 10/1/36 21/2/10
f 10/1/36 22/2/11 12/1/26
f 2/1/37 28/2/17 27/2/16
f 28/2/17 2/1/37 5/1/30
f 2/1/37 15/2/4 1/1/32
f 15/2/4 2/1/37 27/2/16
f 25/3/38 14/3/38 16/3/38
f 14/3/38 25/3/38 29/3/38
f 29/3/38 25/3/38 26/3/38
f 29/3/38 26/3/38 18/3/38
f 18/3/38 26/3/38 33/3/38
f 18/3/38 33/3/38 17/3/38
f 17/3/38 33/3/38 34/3/38
f 17/3/38 34/3/38 23/3/38
f 23/3/38 34/3/38 32/3/38
f 23/3/38 32/3/38 24/3/38
f 39/3/39 38/2/39 37/4/39
f 40/4/39 38/2/39 39/3/39
f 38/2/39 40/4/39 41/2/39
f 43/3/39 41/2/39 42/4/39
f 44/4/39 41/2/39 43/3/39
f 41/2/39 44/4/39 45/2/39
f 45/2/39 47/4/39 46/2/39
f 47/4/39 45/2/39 48/3/39
f 48/3/39 45/2/39 49/4/39
f 51/2/16 50/5/40 38/2/40
f 50/5/40 51/2/16 52/3/16
f 55/4/41 54/4/41 53/3/41
f 54/4/41 55/4/41 56/2/41
f 56/2/41 55/4/41 57/2/41
f 57/2/41 59/4/41 58/2/41
f 60/4/41 59/4/41 57/2/41
f 59/4/41 60/4/41 61/3/41
f 63/4/41 56/2/41 62/2/41
f 63/4/41 64/4/41 56/2/41
f 64/4/41 63/4/41 65/3/41
f 51/2/16 66/5/42 52/3/16
f 66/5/42 51/2/16 58/2/42
f 69/5/43 68/2/25 67/2/43
f 68/2/25 69/5/43 70/3/25
f 71/5/44 68/2/25 70/3/25
f 68/2/25 71/5/44 62/2/44
f 74/4/45 73/2/45 72/2/45
f 73/2/45 74/4/45 75/3/45
f 73/2/45 75/3/45 76/4/45
f 78/4/45 77/2/45 73/2/45
f 77/2/45 78/4/45 79/3/45
f 77/2/45 79/3/45 80/4/45
f 81/4/45 67/2/45 77/2/45
f 67/2/45 81/4/45 82/3/45
f 67/2/45 82/3/45 83/4/45
f 84/3/10 72/2/46 21/2/10
f 72/2/46 84/3/10 85/5/46
f 88/4/47 87/4/47 86/3/47
f 87/4/47 88/4/47 89/2/47
f 89/2/47 88/4/47 90/2/47
f 90/2/47 92/4/47 91/2/47
f 93/4/47 92/4/47 90/2/47
f 92/4/47 93/4/47 94/3/47
f 96/4/47 89/2/47 95/2/47
f 96/4/47 97/4/47 89/2/47
f 97/4/47 96/4/47 98/3/47
f 46/2/48 99/3/19 30/2/19
f 99/3/19 46/2/48 100/5/48
f 101/5/49 30/2/19 99/3/19
f 30/2/19 101/5/49 95/2/49
f 21/2/10 102/5/50 84/3/10
f 102/5/50 21/2/10 91/2/50
f 105/7/53 104/6/52 103/6/51
f 104/6/52 105/7/53 106/7/54
f 109/6/57 108/8/56 107/6/55
f 108/8/56 109/6/57 24/9/58
f 14/9/61 111/6/60 110/8/59
f 111/6/60 14/9/61 112/6/62
f 108/8/56 103/6/51 107/6/55
f 103/6/51 108/8/56 105/7/53
f 106/7/54 111/6/60 104/6/52
f 111/6/60 106/7/54 110/8/59
f 113/10/63 112/6/62 14/9/61
f 112/6/62 113/10/63 114/6/64
f 115/6/65 24/9/58 109/6/57
f 24/9/58 115/6/65 116/10/66
f 119/10/67 118/6/68 117/6/67
f 118/6/68 119/10/67 120/10/68
f 121/6/69 116/10/66 115/6/65
f 116/10/66 121/6/69 122/10/69
f 124/10/70 117/6/67 123/6/70
f 117/6/67 124/10/70 119/10/67
f 120/10/68 121/6/69 118/6/68
f 121/6/69 120/10/68 122/10/69
f 124/10/70 114/6/64 113/10/63
f 114/6/64 124/10/70 123/6/70
f 123/6/71 112/6/71 114/6/71
f 112/6/71 123/6/71 111/6/71
f 111/6/71 123/6/71 117/6/71
f 111/6/71 117/6/71 104/6/71
f 104/6/71 117/6/71 118/6/71
f 104/6/71 118/6/71 103/6/71
f 103/6/71 118/6/71 121/6/71
f 103/6/71 121/6/71 107/6/71
f 107/6/71 121/6/71 115/6/71
f 107/6/71 115/6/71 109/6/71

