# Created by Kenney (www.kenney.nl)

mtllib block-grass-low-hexagon.mtl

g block-grass-low-hexagon

v 0.5 0.5 -0.288675 1 1 1
v 0.5 0.5 0.2886752 1 1 1
v 5.197762E-14 0.5 -0.5773501 1 1 1
v 5.197762E-14 0.5 0.5773501 1 1 1
v -0.5 0.5 -0.288675 1 1 1
v -0.5 0.5 0.2886752 1 1 1
v 0.55 0.375 -0.3175425 1 1 1
v 0.55 0.375 0.3175428 1 1 1
v 5.197762E-14 0.375 0.6350852 1 1 1
v -0.55 0.375 0.3175428 1 1 1
v -0.55 0.375 -0.3175425 1 1 1
v 5.197762E-14 0.375 -0.6350852 1 1 1
v -0.5 0.25 -0.288675 1 1 1
v -0.5 0.25 0.2886752 1 1 1
v 5.197762E-14 0.25 -0.5773501 1 1 1
v 0.5 0.25 -0.288675 1 1 1
v 0.5 0.25 0.2886752 1 1 1
v 5.197762E-14 0.25 0.5773501 1 1 1
v 4.908998E-14 2.003707E-30 0.5773501 1 1 1
v -0.5 2.003707E-30 0.2886752 1 1 1
v 4.908998E-14 0.25 0.5773501 1 1 1
v 0.5 2.003707E-30 0.2886752 1 1 1
v 0.5 2.003707E-30 -0.288675 1 1 1
v 4.908998E-14 2.003707E-30 -0.5773501 1 1 1
v -0.5 2.003707E-30 -0.288675 1 1 1
v 4.908998E-14 0.25 -0.5773501 1 1 1

vn 0 1 0
vn 0.8660254 0 -0.5
vn 0.8660253 0 0.5000002
vn 0.7862136 0.4193139 -0.4539206
vn 0.7862135 0.419314 0.4539208
vn 0 0 1
vn -0.8660253 0 0.5000002
vn 0 0.4193138 0.9078413
vn -0.7862135 0.419314 0.4539208
vn -0.8660254 0 -0.5
vn 0 0 -1
vn -0.7862136 0.4193139 -0.4539206
vn 0 0.4193138 -0.9078413
vn -0.7862136 -0.4193139 -0.4539206
vn -0.7862135 -0.419314 0.4539208
vn 0 -0.4193138 -0.9078413
vn 0.7862136 -0.4193139 -0.4539206
vn 0.7862135 -0.419314 0.4539208
vn 0 -0.4193138 0.9078413
vn -0.4999998 0 0.8660256
vn 0 -1 0
vn 0.4999998 0 0.8660256
vn -0.5000001 0 -0.8660254
vn 0.5000001 0 -0.8660254
vn -1 0 0
vn 1 0 0

vt 0.21875 0.475
vt 0.21875 0.375
vt 0.21875 0.275
vt 0.71875 0.225
vt 0.71875 0.025

usemtl colormap

f 3/1/1 2/1/1 1/1/1
f 2/1/1 3/1/1 4/1/1
f 4/1/1 3/1/1 5/1/1
f 4/1/1 5/1/1 6/1/1
f 1/1/4 8/2/3 7/2/2
f 8/2/3 1/1/4 2/1/5
f 4/1/8 10/2/7 9/2/6
f 10/2/7 4/1/8 6/1/9
f 5/1/12 12/2/11 11/2/10
f 12/2/11 5/1/12 3/1/13
f 13/3/14 10/2/7 11/2/10
f 10/2/7 13/3/14 14/3/15
f 10/2/7 5/1/12 11/2/10
f 5/1/12 10/2/7 6/1/9
f 11/2/10 15/3/16 13/3/14
f 15/3/16 11/2/10 12/2/11
f 3/1/13 7/2/2 12/2/11
f 7/2/2 3/1/13 1/1/4
f 8/2/3 16/3/17 7/2/2
f 16/3/17 8/2/3 17/3/18
f 9/2/6 14/3/15 18/3/19
f 14/3/15 9/2/6 10/2/7
f 12/2/11 16/3/17 15/3/16
f 16/3/17 12/2/11 7/2/2
f 2/1/5 9/2/6 8/2/3
f 9/2/6 2/1/5 4/1/8
f 8/2/3 18/3/19 17/3/18
f 18/3/19 8/2/3 9/2/6
f 21/5/20 20/4/20 19/4/20
f 20/4/20 21/5/20 14/5/20
f 19/4/21 23/4/21 22/4/21
f 23/4/21 19/4/21 24/4/21
f 24/4/21 19/4/21 20/4/21
f 24/4/21 20/4/21 25/4/21
f 17/5/22 19/4/22 22/4/22
f 19/4/22 17/5/22 21/5/22
f 13/5/23 24/4/23 25/4/23
f 24/4/23 13/5/23 26/5/23
f 26/5/24 23/4/24 24/4/24
f 23/4/24 26/5/24 16/5/24
f 20/4/25 13/5/25 25/4/25
f 13/5/25 20/4/25 14/5/25
f 17/5/26 23/4/26 16/5/26
f 23/4/26 17/5/26 22/4/26

g block-grass-low-hexagon




usemtl colormap

f 3/1/1 2/1/1 1/1/1
f 2/1/1 3/1/1 4/1/1
f 4/1/1 3/1/1 5/1/1
f 4/1/1 5/1/1 6/1/1
f 1/1/4 8/2/3 7/2/2
f 8/2/3 1/1/4 2/1/5
f 4/1/8 10/2/7 9/2/6
f 10/2/7 4/1/8 6/1/9
f 5/1/12 12/2/11 11/2/10
f 12/2/11 5/1/12 3/1/13
f 13/3/14 10/2/7 11/2/10
f 10/2/7 13/3/14 14/3/15
f 10/2/7 5/1/12 11/2/10
f 5/1/12 10/2/7 6/1/9
f 11/2/10 15/3/16 13/3/14
f 15/3/16 11/2/10 12/2/11
f 3/1/13 7/2/2 12/2/11
f 7/2/2 3/1/13 1/1/4
f 8/2/3 16/3/17 7/2/2
f 16/3/17 8/2/3 17/3/18
f 9/2/6 14/3/15 18/3/19
f 14/3/15 9/2/6 10/2/7
f 12/2/11 16/3/17 15/3/16
f 16/3/17 12/2/11 7/2/2
f 2/1/5 9/2/6 8/2/3
f 9/2/6 2/1/5 4/1/8
f 8/2/3 18/3/19 17/3/18
f 18/3/19 8/2/3 9/2/6
f 21/5/20 20/4/20 19/4/20
f 20/4/20 21/5/20 14/5/20
f 19/4/21 23/4/21 22/4/21
f 23/4/21 19/4/21 24/4/21
f 24/4/21 19/4/21 20/4/21
f 24/4/21 20/4/21 25/4/21
f 17/5/22 19/4/22 22/4/22
f 19/4/22 17/5/22 21/5/22
f 13/5/23 24/4/23 25/4/23
f 24/4/23 13/5/23 26/5/23
f 26/5/24 23/4/24 24/4/24
f 23/4/24 26/5/24 16/5/24
f 20/4/25 13/5/25 25/4/25
f 13/5/25 20/4/25 14/5/25
f 17/5/26 23/4/26 16/5/26
f 23/4/26 17/5/26 22/4/26

