# Created by Kenney (www.kenney.nl)

mtllib block-snow-overhang-hexagon.mtl

g block-snow-overhang-hexagon

v 0.5 1 -0.288675 1 1 1
v 0.5 1 0.2886752 1 1 1
v 5.197762E-14 1 -0.5773501 1 1 1
v 5.197762E-14 1 0.5773501 1 1 1
v -0.5 1 -0.288675 1 1 1
v -0.5 1 0.2886752 1 1 1
v 0.55 0.875 -0.3175425 1 1 1
v 0.55 0.875 0.3175428 1 1 1
v 5.197762E-14 0.875 0.6350852 1 1 1
v -0.55 0.875 0.3175428 1 1 1
v -0.55 0.875 -0.3175425 1 1 1
v 5.197762E-14 0.875 -0.6350852 1 1 1
v -0.5 0.75 -0.288675 1 1 1
v -0.5 0.75 0.2886752 1 1 1
v 5.197762E-14 0.75 -0.5773501 1 1 1
v 0.5 0.75 -0.288675 1 1 1
v 0.5 0.75 0.2886752 1 1 1
v 5.197762E-14 0.75 0.5773501 1 1 1
v 0.55 0.875 -0.1403382 1 1 1
v 0.55 0.7992171 -0.1261269 1 1 1
v 0.55 0.875 0.1403385 1 1 1
v 0.55 0.7422545 -0.07416277 1 1 1
v 0.55 0.7211626 1.485E-07 1 1 1
v 0.55 0.7422545 0.07416307 1 1 1
v 0.55 0.7992171 0.1261272 1 1 1
v 0.275 0.6552322 0.4763139 1 1 1
v 0.1832472 0.6853636 0.5292875 1 1 1
v 0.3667528 0.6853636 0.4233404 1 1 1
v 0.4310418 0.7667387 0.3862232 1 1 1
v 0.1189582 0.7667387 0.5664046 1 1 1
v 0.4486237 0.875 0.3760723 1 1 1
v 0.1013763 0.875 0.5765556 1 1 1
v -0.55 0.875 -0.1403382 1 1 1
v -0.55 0.875 0.1403385 1 1 1
v -0.55 0.7992171 -0.1261269 1 1 1
v -0.55 0.7422545 -0.07416277 1 1 1
v -0.55 0.7211626 1.485E-07 1 1 1
v -0.55 0.7422545 0.07416307 1 1 1
v -0.55 0.7992171 0.1261272 1 1 1
v -0.275 0.6552322 -0.4763138 1 1 1
v -0.1832472 0.6853636 -0.5292873 1 1 1
v -0.3667528 0.6853636 -0.4233403 1 1 1
v -0.4310418 0.7667387 -0.3862231 1 1 1
v -0.1189582 0.7667387 -0.5664045 1 1 1
v -0.4486237 0.875 -0.3760722 1 1 1
v -0.1013763 0.875 -0.5765554 1 1 1
v 4.908998E-14 0 0.5773501 1 1 1
v -0.5 0 0.2886752 1 1 1
v 4.908998E-14 0.75 0.5773501 1 1 1
v 0.5 0 0.2886752 1 1 1
v 0.5 0 -0.288675 1 1 1
v 4.908998E-14 0 -0.5773501 1 1 1
v -0.5 0 -0.288675 1 1 1
v 4.908998E-14 0.75 -0.5773501 1 1 1

vn 0 1 0
vn 0.8660254 0 -0.5
vn 0.8660253 0 0.5000002
vn 0.7862136 0.4193139 -0.4539206
vn 0.7862135 0.419314 0.4539208
vn 0 0 1
vn -0.8660253 0 0.5000002
vn 0 0.4193138 0.9078413
vn -0.7862135 0.419314 0.4539208
vn -0.8660254 0 -0.5
vn 0 0 -1
vn -0.7862136 0.4193139 -0.4539206
vn 0 0.4193138 -0.9078413
vn -0.7862136 -0.4193139 -0.4539206
vn -0.7862135 -0.419314 0.4539208
vn 0 -0.4193138 -0.9078413
vn 0.7862136 -0.4193139 -0.4539206
vn 0.7862135 -0.419314 0.4539208
vn 0 -0.4193138 0.9078413
vn 1 0 0
vn 0.4999998 0 0.8660256
vn -1 0 0
vn -0.4999998 0 -0.8660256
vn -0.4999998 0 0.8660256
vn 0 -1 0
vn -0.5000001 0 -0.8660254
vn 0.5000001 0 -0.8660254

vt 0.59375 0.225
vt 0.59375 0.125
vt 0.59375 0.025
vt 0.59375 0.09741345
vt 0.59375 0.0766779
vt 0.59375 0.069
vt 0.59375 0.045
vt 0.59375 0.05596844
vt 0.59375 0.08559066
vt 0.71875 0.225
vt 0.71875 0.025

usemtl colormap

f 3/1/1 2/1/1 1/1/1
f 2/1/1 3/1/1 4/1/1
f 4/1/1 3/1/1 5/1/1
f 4/1/1 5/1/1 6/1/1
f 1/1/4 8/2/3 7/2/2
f 8/2/3 1/1/4 2/1/5
f 4/1/8 10/2/7 9/2/6
f 10/2/7 4/1/8 6/1/9
f 5/1/12 12/2/11 11/2/10
f 12/2/11 5/1/12 3/1/13
f 13/3/14 10/2/7 11/2/10
f 10/2/7 13/3/14 14/3/15
f 10/2/7 5/1/12 11/2/10
f 5/1/12 10/2/7 6/1/9
f 11/2/10 15/3/16 13/3/14
f 15/3/16 11/2/10 12/2/11
f 3/1/13 7/2/2 12/2/11
f 7/2/2 3/1/13 1/1/4
f 8/2/3 16/3/17 7/2/2
f 16/3/17 8/2/3 17/3/18
f 9/2/6 14/3/15 18/3/19
f 14/3/15 9/2/6 10/2/7
f 12/2/11 16/3/17 15/3/16
f 16/3/17 12/2/11 7/2/2
f 2/1/5 9/2/6 8/2/3
f 9/2/6 2/1/5 4/1/8
f 8/2/3 18/3/19 17/3/18
f 18/3/19 8/2/3 9/2/6
f 21/2/20 20/4/20 19/2/20
f 20/4/20 21/2/20 22/5/20
f 22/5/20 21/2/20 23/6/20
f 23/6/20 21/2/20 24/5/20
f 24/5/20 21/2/20 25/4/20
f 28/8/21 27/8/21 26/7/21
f 27/8/21 28/8/21 29/9/21
f 27/8/21 29/9/21 30/9/21
f 30/9/21 29/9/21 31/2/21
f 30/9/21 31/2/21 32/2/21
f 35/4/22 34/2/22 33/2/22
f 34/2/22 35/4/22 36/5/22
f 34/2/22 36/5/22 37/6/22
f 34/2/22 37/6/22 38/5/22
f 34/2/22 38/5/22 39/4/22
f 42/8/23 41/8/23 40/7/23
f 41/8/23 42/8/23 43/9/23
f 41/8/23 43/9/23 44/9/23
f 44/9/23 43/9/23 45/2/23
f 44/9/23 45/2/23 46/2/23
f 49/11/24 48/10/24 47/10/24
f 48/10/24 49/11/24 14/11/24
f 47/10/25 51/10/25 50/10/25
f 51/10/25 47/10/25 52/10/25
f 52/10/25 47/10/25 48/10/25
f 52/10/25 48/10/25 53/10/25
f 17/11/21 47/10/21 50/10/21
f 47/10/21 17/11/21 49/11/21
f 13/11/26 52/10/26 53/10/26
f 52/10/26 13/11/26 54/11/26
f 54/11/27 51/10/27 52/10/27
f 51/10/27 54/11/27 16/11/27
f 48/10/22 13/11/22 53/10/22
f 13/11/22 48/10/22 14/11/22
f 17/11/20 51/10/20 16/11/20
f 51/10/20 17/11/20 50/10/20

g block-snow-overhang-hexagon




usemtl colormap

f 3/1/1 2/1/1 1/1/1
f 2/1/1 3/1/1 4/1/1
f 4/1/1 3/1/1 5/1/1
f 4/1/1 5/1/1 6/1/1
f 1/1/4 8/2/3 7/2/2
f 8/2/3 1/1/4 2/1/5
f 4/1/8 10/2/7 9/2/6
f 10/2/7 4/1/8 6/1/9
f 5/1/12 12/2/11 11/2/10
f 12/2/11 5/1/12 3/1/13
f 13/3/14 10/2/7 11/2/10
f 10/2/7 13/3/14 14/3/15
f 10/2/7 5/1/12 11/2/10
f 5/1/12 10/2/7 6/1/9
f 11/2/10 15/3/16 13/3/14
f 15/3/16 11/2/10 12/2/11
f 3/1/13 7/2/2 12/2/11
f 7/2/2 3/1/13 1/1/4
f 8/2/3 16/3/17 7/2/2
f 16/3/17 8/2/3 17/3/18
f 9/2/6 14/3/15 18/3/19
f 14/3/15 9/2/6 10/2/7
f 12/2/11 16/3/17 15/3/16
f 16/3/17 12/2/11 7/2/2
f 2/1/5 9/2/6 8/2/3
f 9/2/6 2/1/5 4/1/8
f 8/2/3 18/3/19 17/3/18
f 18/3/19 8/2/3 9/2/6
f 21/2/20 20/4/20 19/2/20
f 20/4/20 21/2/20 22/5/20
f 22/5/20 21/2/20 23/6/20
f 23/6/20 21/2/20 24/5/20
f 24/5/20 21/2/20 25/4/20
f 28/8/21 27/8/21 26/7/21
f 27/8/21 28/8/21 29/9/21
f 27/8/21 29/9/21 30/9/21
f 30/9/21 29/9/21 31/2/21
f 30/9/21 31/2/21 32/2/21
f 35/4/22 34/2/22 33/2/22
f 34/2/22 35/4/22 36/5/22
f 34/2/22 36/5/22 37/6/22
f 34/2/22 37/6/22 38/5/22
f 34/2/22 38/5/22 39/4/22
f 42/8/23 41/8/23 40/7/23
f 41/8/23 42/8/23 43/9/23
f 41/8/23 43/9/23 44/9/23
f 44/9/23 43/9/23 45/2/23
f 44/9/23 45/2/23 46/2/23
f 49/11/24 48/10/24 47/10/24
f 48/10/24 49/11/24 14/11/24
f 47/10/25 51/10/25 50/10/25
f 51/10/25 47/10/25 52/10/25
f 52/10/25 47/10/25 48/10/25
f 52/10/25 48/10/25 53/10/25
f 17/11/21 47/10/21 50/10/21
f 47/10/21 17/11/21 49/11/21
f 13/11/26 52/10/26 53/10/26
f 52/10/26 13/11/26 54/11/26
f 54/11/27 51/10/27 52/10/27
f 51/10/27 54/11/27 16/11/27
f 48/10/22 13/11/22 53/10/22
f 13/11/22 48/10/22 14/11/22
f 17/11/20 51/10/20 16/11/20
f 51/10/20 17/11/20 50/10/20

