# Created by Kenney (www.kenney.nl)

mtllib block-grass-overhang-large-slope.mtl

g block-grass-overhang-large-slope

v 1 0.3123332 0.7321343 1 1 1
v 0.9198205 0.2622335 0.919109 1 1 1
v 1 0.6882679 -0.6708731 1 1 1
v 0.9198205 0.7383676 -0.8578478 1 1 1
v 0.7262501 0.2414815 0.9965565 1 1 1
v 0.7262501 0.7591196 -0.9352953 1 1 1
v -0.7262501 0.2414815 0.9965565 1 1 1
v -0.7262501 0.7591196 -0.9352953 1 1 1
v -0.9198205 0.2622335 0.919109 1 1 1
v -0.9198205 0.7383676 -0.8578478 1 1 1
v -1 0.3123332 0.7321343 1 1 1
v -1 0.6882679 -0.6708731 1 1 1
v 1.041062 0.5746123 -0.7296677 1 1 1
v 1 0.4467864 -0.7355779 1 1 1
v 1.041062 0.1845073 0.7262241 1 1 1
v 1 0.0708517 0.6674295 1 1 1
v -0.7262501 0.5176381 -1 1 1 1
v 0.7262501 0.5176381 -1 1 1 1
v -0.753625 0.6490066 -1.007311 1 1 1
v 0.753625 0.6490066 -1.007311 1 1 1
v -0.956874 0.627217 -0.9259911 1 1 1
v -1.041062 0.5746123 -0.7296677 1 1 1
v -0.9198205 0.4968861 -0.9225526 1 1 1
v -1 0.4467864 -0.7355779 1 1 1
v 0.9198205 0.02075198 0.8544042 1 1 1
v 0.7262501 0 0.9318517 1 1 1
v 0.956874 0.1319026 0.9225475 1 1 1
v 0.753625 0.110113 1.003867 1 1 1
v 0.9198205 0.4968861 -0.9225526 1 1 1
v 0.956874 0.627217 -0.9259911 1 1 1
v -1.041062 0.1845073 0.7262241 1 1 1
v -1 0.0708517 0.6674295 1 1 1
v -0.7262501 0 0.9318517 1 1 1
v -0.9198205 0.02075198 0.8544042 1 1 1
v -0.753625 0.110113 1.003867 1 1 1
v -0.956874 0.1319026 0.9225475 1 1 1
v 1.041062 0.01517621 0.6139812 1 1 1
v 1.041062 -0.01582449 0.4124753 1 1 1
v 1.041062 0.1117758 0.2534665 1 1 1
v 1.041062 0.3145423 0.2409268 1 1 1
v 1.041062 0.1452112 0.128684 1 1 1
v 1.041062 0.1142105 -0.07282192 1 1 1
v 1.041062 0.2418108 -0.2318308 1 1 1
v 1.041062 0.4445773 -0.2443704 1 1 1
v 1.041062 0.3718458 -0.717128 1 1 1
v 1.041062 0.2442455 -0.5581192 1 1 1
v 1.041062 0.2752462 -0.3566133 1 1 1
v 1.01829 -0.01793725 0.7288962 1 1 1
v 0.956874 -0.1334467 0.8514474 1 1 1
v -3.98348E-13 -0.1552363 0.9327672 1 1 1
v -0.1866161 -0.07593577 0.9540157 1 1 1
v 0.1866161 -0.07593577 0.9540157 1 1 1
v -0.2512083 0.110113 1.003867 1 1 1
v 0.2512083 0.110113 1.003867 1 1 1
v 0.753625 0.110113 1.003867 1 1 1
v 0.6890328 -0.07593577 0.9540157 1 1 1
v 0.3158005 -0.07593577 0.9540157 1 1 1
v 0.5024167 -0.1552363 0.9327672 1 1 1
v -0.753625 0.110113 1.003867 1 1 1
v -0.6890328 -0.07593577 0.9540157 1 1 1
v -0.3158005 -0.07593577 0.9540157 1 1 1
v -0.5024167 -0.1552363 0.9327672 1 1 1
v 0.8086026 -0.07220838 0.9314389 1 1 1
v -1.01829 -0.01793725 0.7288962 1 1 1
v -0.956874 -0.1334467 0.8514474 1 1 1
v -0.8086026 -0.07220838 0.9314389 1 1 1
v -1.041062 0.4445773 -0.2443704 1 1 1
v -1.041062 0.3718458 -0.717128 1 1 1
v -1.041062 0.2442455 -0.5581192 1 1 1
v -1.041062 0.2752462 -0.3566133 1 1 1
v -1.041062 0.3145423 0.2409268 1 1 1
v -1.041062 0.2418108 -0.2318308 1 1 1
v -1.041062 0.1142105 -0.07282192 1 1 1
v -1.041062 0.1452112 0.128684 1 1 1
v -1.041062 0.1117758 0.2534665 1 1 1
v -1.041062 -0.01582449 0.4124753 1 1 1
v -1.041062 0.01517621 0.6139812 1 1 1
v -0.956874 0.6272169 -0.9259911 1 1 1
v -0.956874 0.3618677 -0.9970912 1 1 1
v -1.01829 0.4006262 -0.8332041 1 1 1
v 4.28269E-09 0.3836573 -1.078411 1 1 1
v 0.1866161 0.4629578 -1.057163 1 1 1
v -0.1866161 0.4629578 -1.057163 1 1 1
v 0.2512083 0.6490065 -1.007311 1 1 1
v -0.2512083 0.6490065 -1.007311 1 1 1
v -0.753625 0.6490065 -1.007311 1 1 1
v -0.6890328 0.4629578 -1.057163 1 1 1
v -0.3158005 0.4629578 -1.057163 1 1 1
v -0.5024167 0.3836573 -1.078411 1 1 1
v 0.753625 0.6490065 -1.007311 1 1 1
v 0.6890328 0.4629578 -1.057163 1 1 1
v 0.3158005 0.4629578 -1.057163 1 1 1
v 0.5024167 0.3836573 -1.078411 1 1 1
v 0.956874 0.6272169 -0.9259911 1 1 1
v 0.956874 0.3618677 -0.9970912 1 1 1
v 1.01829 0.4006262 -0.8332041 1 1 1
v 0.8086026 0.4548974 -1.035747 1 1 1
v -0.8086026 0.4548974 -1.035747 1 1 1
v 0.9198205 -1.127987E-17 0.761 1 1 1
v 0.7262501 -1.127987E-17 0.8411794 1 1 1
v 0.9198205 0.07085171 0.761 1 1 1
v 0.7262501 0.07085171 0.8411794 1 1 1
v -0.7262501 -1.127987E-17 0.8411794 1 1 1
v -0.7262501 0.07085171 0.8411794 1 1 1
v -0.7262501 1.286017E-31 -1 1 1 1
v 0.7262501 1.286017E-31 -1 1 1 1
v -0.7262501 0.5176381 -1 1 1 1
v 0.7262501 0.5176381 -1 1 1 1
v -0.9198205 -1.127987E-17 0.761 1 1 1
v -0.9198205 0.07085171 0.761 1 1 1
v 1 0.07085171 0.6674294 1 1 1
v 1 -1.127987E-17 0.6674294 1 1 1
v -1 -1.127987E-17 0.5674294 1 1 1
v -1 0.07085171 0.5674294 1 1 1
v 1 0.4467864 -0.7355778 1 1 1
v 1 -3.038117E-32 -0.7355778 1 1 1
v -1 -9.023893E-17 -0.7383099 1 1 1
v -1 0.4467864 -0.7383099 1 1 1
v -0.9198205 -9.023893E-17 -0.9225525 1 1 1
v -0.9198205 0.4968861 -0.9225525 1 1 1
v 0.9198205 0.4968861 -0.9225525 1 1 1
v 0.9198205 -9.023893E-17 -0.9225525 1 1 1

vn 0 0.9659259 0.258819
vn 0.9774452 0.05465967 -0.2039927
vn 0.9254633 -0.2857961 -0.2486728
vn 0.9774452 -0.05465967 0.2039927
vn 0.9254633 -0.3718431 0.07245888
vn -0.16623 -0.08929206 -0.9820359
vn 0.16623 -0.08929206 -0.9820359
vn -0.2111887 0.2529815 -0.9441397
vn 0.2111887 0.2529815 -0.9441397
vn -0.7071068 0.1830127 -0.6830127
vn -0.9774452 0.05465967 -0.2039927
vn -0.652123 -0.2046598 -0.7299659
vn -0.9254633 -0.2857961 -0.2486728
vn 0.652123 -0.5422236 0.5298391
vn 0.16623 -0.5683472 0.805822
vn 0.7071068 -0.1830127 0.6830127
vn 0.2111887 -0.2529815 0.9441397
vn 0.652123 -0.2046598 -0.7299659
vn 0.7071068 0.1830127 -0.6830127
vn -0.9774452 -0.05465967 0.2039927
vn -0.9254633 -0.3718431 0.07245888
vn -0.16623 -0.5683472 0.805822
vn -0.652123 -0.5422236 0.5298391
vn -0.2111887 -0.2529815 0.9441397
vn -0.7071068 -0.1830127 0.6830127
vn -0.9254633 0.3718431 -0.07245888
vn -0.9254633 0.2857961 0.2486728
vn -0.652123 0.2046598 0.7299659
vn -0.16623 0.08929206 0.9820359
vn 0.16623 0.08929206 0.9820359
vn 0.9254633 0.3718431 -0.07245888
vn 0.9254633 0.2857961 0.2486728
vn 0.652123 0.5422236 -0.5298391
vn 0.16623 0.5683472 -0.805822
vn -0.16623 0.5683472 -0.805822
vn -0.652123 0.5422236 -0.5298391
vn 0.652123 0.2046598 0.7299659
vn 0 -0.9659259 -0.258819
vn 1 0 0
vn 0.9238795 -0.09904576 0.3696438
vn 0 -0.258819 0.9659259
vn 0.3826834 -0.2391176 0.8923991
vn -0.9238795 -0.09904575 0.3696438
vn -0.3826834 -0.2391176 0.8923991
vn -1 0 0
vn -0.9238795 0.09904576 -0.3696438
vn 0 0.258819 -0.9659259
vn 0.9238795 0.09904575 -0.3696438
vn 0.3826834 0.2391176 -0.8923991
vn -0.3826834 0.2391176 -0.8923991
vn 0.5871292 0 0.8094933
vn 0.1950903 0 0.9807853
vn -0.1950903 0 0.9807853
vn -0.1891497 0 -0.9819483
vn 0.1891497 0 -0.9819483
vn -0.1229975 0 -0.992407
vn 0.1229975 0 -0.992407
vn -0.7071068 0 0.7071068
vn 0.9688026 0 0.2478335
vn 0.9379104 0 0.3468776
vn -0.9807853 0 0.1950903
vn -0.9902617 0 0.139218
vn 0.9352413 0 -0.3540109
vn 0.9795561 0 -0.201171
vn -0.9790136 0 -0.2037948
vn -0.9325874 0 -0.3609442
vn -0.6964666 0 -0.7175891
vn -0.4588985 0 -0.8884888
vn 0.4602793 0 -0.8877742
vn 0.6983868 0 -0.7157205
vn 0 -1 0

vt 0.21875 0.475
vt 0.21875 0.375
vt 0.21875 0.275
vt 0.21875 0.3048853
vt 0.21875 0.3040689
vt 0.71875 0.225
vt 0.71875 0.197625
vt 0.71875 0.025
vt 0.71875 0.05237502
vt 0.71875 0.03301796

usemtl colormap

f 3/1/1 2/1/1 1/1/1
f 2/1/1 3/1/1 4/1/1
f 2/1/1 4/1/1 5/1/1
f 5/1/1 4/1/1 6/1/1
f 5/1/1 6/1/1 7/1/1
f 7/1/1 6/1/1 8/1/1
f 7/1/1 8/1/1 9/1/1
f 9/1/1 8/1/1 10/1/1
f 9/1/1 10/1/1 11/1/1
f 11/1/1 10/1/1 12/1/1
f 15/2/4 14/3/3 13/2/2
f 14/3/3 15/2/4 16/3/5
f 19/2/8 18/3/7 17/3/6
f 18/3/7 19/2/8 20/2/9
f 23/3/12 22/2/11 21/2/10
f 22/2/11 23/3/12 24/3/13
f 27/2/16 26/3/15 25/3/14
f 26/3/15 27/2/16 28/2/17
f 20/2/9 29/3/18 18/3/7
f 29/3/18 20/2/9 30/2/19
f 24/3/13 31/2/20 22/2/11
f 31/2/20 24/3/13 32/3/21
f 35/2/24 34/3/23 33/3/22
f 34/3/23 35/2/24 36/2/25
f 28/2/17 33/3/22 26/3/15
f 33/3/22 28/2/17 35/2/24
f 23/3/12 19/2/8 17/3/6
f 19/2/8 23/3/12 21/2/10
f 34/3/23 31/2/20 32/3/21
f 31/2/20 34/3/23 36/2/25
f 13/2/2 29/3/18 30/2/19
f 29/3/18 13/2/2 14/3/3
f 15/2/4 25/3/14 16/3/5
f 25/3/14 15/2/4 27/2/16
f 31/2/20 12/1/26 22/2/11
f 12/1/26 31/2/20 11/1/27
f 31/2/20 9/1/28 11/1/27
f 9/1/28 31/2/20 36/2/25
f 35/2/24 9/1/28 36/2/25
f 9/1/28 35/2/24 7/1/29
f 28/2/17 7/1/29 35/2/24
f 7/1/29 28/2/17 5/1/30
f 3/1/31 15/2/4 13/2/2
f 15/2/4 3/1/31 1/1/32
f 20/2/9 4/1/33 30/2/19
f 4/1/33 20/2/9 6/1/34
f 8/1/35 20/2/9 19/2/8
f 20/2/9 8/1/35 6/1/34
f 4/1/33 13/2/2 30/2/19
f 13/2/2 4/1/33 3/1/31
f 10/1/36 19/2/8 21/2/10
f 19/2/8 10/1/36 8/1/35
f 22/2/11 10/1/36 21/2/10
f 10/1/36 22/2/11 12/1/26
f 2/1/37 28/2/17 27/2/16
f 28/2/17 2/1/37 5/1/30
f 2/1/37 15/2/4 1/1/32
f 15/2/4 2/1/37 27/2/16
f 25/3/38 14/3/38 16/3/38
f 14/3/38 25/3/38 29/3/38
f 29/3/38 25/3/38 26/3/38
f 29/3/38 26/3/38 18/3/38
f 18/3/38 26/3/38 33/3/38
f 18/3/38 33/3/38 17/3/38
f 17/3/38 33/3/38 34/3/38
f 17/3/38 34/3/38 23/3/38
f 23/3/38 34/3/38 32/3/38
f 23/3/38 32/3/38 24/3/38
f 38/3/39 15/2/39 37/4/39
f 39/4/39 15/2/39 38/3/39
f 15/2/39 39/4/39 40/2/39
f 42/3/39 40/2/39 41/4/39
f 43/4/39 40/2/39 42/3/39
f 40/2/39 43/4/39 44/2/39
f 44/2/39 45/4/39 13/2/39
f 45/4/39 44/2/39 46/3/39
f 46/3/39 44/2/39 47/4/39
f 27/2/16 48/5/40 15/2/40
f 48/5/40 27/2/16 49/3/16
f 52/4/41 51/4/41 50/3/41
f 51/4/41 52/4/41 53/2/41
f 53/2/41 52/4/41 54/2/41
f 54/2/41 56/4/41 55/2/41
f 57/4/41 56/4/41 54/2/41
f 56/4/41 57/4/41 58/3/41
f 60/4/41 53/2/41 59/2/41
f 60/4/41 61/4/41 53/2/41
f 61/4/41 60/4/41 62/3/41
f 27/2/16 63/5/42 49/3/16
f 63/5/42 27/2/16 55/2/42
f 64/5/43 36/2/25 31/2/43
f 36/2/25 64/5/43 65/3/25
f 66/5/44 36/2/25 65/3/25
f 36/2/25 66/5/44 59/2/44
f 68/4/45 67/2/45 22/2/45
f 67/2/45 68/4/45 69/3/45
f 67/2/45 69/3/45 70/4/45
f 72/4/45 71/2/45 67/2/45
f 71/2/45 72/4/45 73/3/45
f 71/2/45 73/3/45 74/4/45
f 75/4/45 31/2/45 71/2/45
f 31/2/45 75/4/45 76/3/45
f 31/2/45 76/3/45 77/4/45
f 79/3/10 22/2/46 78/2/10
f 22/2/46 79/3/10 80/5/46
f 83/4/47 82/4/47 81/3/47
f 82/4/47 83/4/47 84/2/47
f 84/2/47 83/4/47 85/2/47
f 85/2/47 87/4/47 86/2/47
f 88/4/47 87/4/47 85/2/47
f 87/4/47 88/4/47 89/3/47
f 91/4/47 84/2/47 90/2/47
f 91/4/47 92/4/47 84/2/47
f 92/4/47 91/4/47 93/3/47
f 13/2/48 95/3/19 94/2/19
f 95/3/19 13/2/48 96/5/48
f 97/5/49 94/2/19 95/3/19
f 94/2/19 97/5/49 90/2/49
f 78/2/10 98/5/50 79/3/10
f 98/5/50 78/2/10 86/2/50
f 101/7/51 100/6/52 99/6/51
f 100/6/52 101/7/51 102/7/52
f 102/7/52 103/6/53 100/6/52
f 103/6/53 102/7/52 104/7/53
f 107/8/56 106/6/55 105/6/54
f 106/6/55 107/8/56 108/8/57
f 104/7/53 109/6/58 103/6/53
f 109/6/58 104/7/53 110/7/58
f 101/7/51 112/6/60 111/7/59
f 112/6/60 101/7/51 99/6/51
f 109/6/58 114/7/62 113/6/61
f 114/7/62 109/6/58 110/7/58
f 111/7/59 116/6/64 115/9/63
f 116/6/64 111/7/59 112/6/60
f 113/6/61 118/9/66 117/6/65
f 118/9/66 113/6/61 114/7/62
f 117/6/65 120/10/68 119/6/67
f 120/10/68 117/6/65 118/9/66
f 115/9/63 122/6/70 121/10/69
f 122/6/70 115/9/63 116/6/64
f 99/6/71 116/6/71 112/6/71
f 116/6/71 99/6/71 122/6/71
f 122/6/71 99/6/71 100/6/71
f 122/6/71 100/6/71 106/6/71
f 106/6/71 100/6/71 103/6/71
f 106/6/71 103/6/71 105/6/71
f 105/6/71 103/6/71 109/6/71
f 105/6/71 109/6/71 119/6/71
f 119/6/71 109/6/71 113/6/71
f 119/6/71 113/6/71 117/6/71
f 120/10/68 105/6/54 119/6/67
f 105/6/54 120/10/68 107/8/56
f 106/6/55 121/10/69 122/6/70
f 121/10/69 106/6/55 108/8/57

g block-grass-overhang-large-slope




usemtl colormap

f 3/1/1 2/1/1 1/1/1
f 2/1/1 3/1/1 4/1/1
f 2/1/1 4/1/1 5/1/1
f 5/1/1 4/1/1 6/1/1
f 5/1/1 6/1/1 7/1/1
f 7/1/1 6/1/1 8/1/1
f 7/1/1 8/1/1 9/1/1
f 9/1/1 8/1/1 10/1/1
f 9/1/1 10/1/1 11/1/1
f 11/1/1 10/1/1 12/1/1
f 15/2/4 14/3/3 13/2/2
f 14/3/3 15/2/4 16/3/5
f 19/2/8 18/3/7 17/3/6
f 18/3/7 19/2/8 20/2/9
f 23/3/12 22/2/11 21/2/10
f 22/2/11 23/3/12 24/3/13
f 27/2/16 26/3/15 25/3/14
f 26/3/15 27/2/16 28/2/17
f 20/2/9 29/3/18 18/3/7
f 29/3/18 20/2/9 30/2/19
f 24/3/13 31/2/20 22/2/11
f 31/2/20 24/3/13 32/3/21
f 35/2/24 34/3/23 33/3/22
f 34/3/23 35/2/24 36/2/25
f 28/2/17 33/3/22 26/3/15
f 33/3/22 28/2/17 35/2/24
f 23/3/12 19/2/8 17/3/6
f 19/2/8 23/3/12 21/2/10
f 34/3/23 31/2/20 32/3/21
f 31/2/20 34/3/23 36/2/25
f 13/2/2 29/3/18 30/2/19
f 29/3/18 13/2/2 14/3/3
f 15/2/4 25/3/14 16/3/5
f 25/3/14 15/2/4 27/2/16
f 31/2/20 12/1/26 22/2/11
f 12/1/26 31/2/20 11/1/27
f 31/2/20 9/1/28 11/1/27
f 9/1/28 31/2/20 36/2/25
f 35/2/24 9/1/28 36/2/25
f 9/1/28 35/2/24 7/1/29
f 28/2/17 7/1/29 35/2/24
f 7/1/29 28/2/17 5/1/30
f 3/1/31 15/2/4 13/2/2
f 15/2/4 3/1/31 1/1/32
f 20/2/9 4/1/33 30/2/19
f 4/1/33 20/2/9 6/1/34
f 8/1/35 20/2/9 19/2/8
f 20/2/9 8/1/35 6/1/34
f 4/1/33 13/2/2 30/2/19
f 13/2/2 4/1/33 3/1/31
f 10/1/36 19/2/8 21/2/10
f 19/2/8 10/1/36 8/1/35
f 22/2/11 10/1/36 21/2/10
f 10/1/36 22/2/11 12/1/26
f 2/1/37 28/2/17 27/2/16
f 28/2/17 2/1/37 5/1/30
f 2/1/37 15/2/4 1/1/32
f 15/2/4 2/1/37 27/2/16
f 25/3/38 14/3/38 16/3/38
f 14/3/38 25/3/38 29/3/38
f 29/3/38 25/3/38 26/3/38
f 29/3/38 26/3/38 18/3/38
f 18/3/38 26/3/38 33/3/38
f 18/3/38 33/3/38 17/3/38
f 17/3/38 33/3/38 34/3/38
f 17/3/38 34/3/38 23/3/38
f 23/3/38 34/3/38 32/3/38
f 23/3/38 32/3/38 24/3/38
f 38/3/39 15/2/39 37/4/39
f 39/4/39 15/2/39 38/3/39
f 15/2/39 39/4/39 40/2/39
f 42/3/39 40/2/39 41/4/39
f 43/4/39 40/2/39 42/3/39
f 40/2/39 43/4/39 44/2/39
f 44/2/39 45/4/39 13/2/39
f 45/4/39 44/2/39 46/3/39
f 46/3/39 44/2/39 47/4/39
f 27/2/16 48/5/40 15/2/40
f 48/5/40 27/2/16 49/3/16
f 52/4/41 51/4/41 50/3/41
f 51/4/41 52/4/41 53/2/41
f 53/2/41 52/4/41 54/2/41
f 54/2/41 56/4/41 55/2/41
f 57/4/41 56/4/41 54/2/41
f 56/4/41 57/4/41 58/3/41
f 60/4/41 53/2/41 59/2/41
f 60/4/41 61/4/41 53/2/41
f 61/4/41 60/4/41 62/3/41
f 27/2/16 63/5/42 49/3/16
f 63/5/42 27/2/16 55/2/42
f 64/5/43 36/2/25 31/2/43
f 36/2/25 64/5/43 65/3/25
f 66/5/44 36/2/25 65/3/25
f 36/2/25 66/5/44 59/2/44
f 68/4/45 67/2/45 22/2/45
f 67/2/45 68/4/45 69/3/45
f 67/2/45 69/3/45 70/4/45
f 72/4/45 71/2/45 67/2/45
f 71/2/45 72/4/45 73/3/45
f 71/2/45 73/3/45 74/4/45
f 75/4/45 31/2/45 71/2/45
f 31/2/45 75/4/45 76/3/45
f 31/2/45 76/3/45 77/4/45
f 79/3/10 22/2/46 78/2/10
f 22/2/46 79/3/10 80/5/46
f 83/4/47 82/4/47 81/3/47
f 82/4/47 83/4/47 84/2/47
f 84/2/47 83/4/47 85/2/47
f 85/2/47 87/4/47 86/2/47
f 88/4/47 87/4/47 85/2/47
f 87/4/47 88/4/47 89/3/47
f 91/4/47 84/2/47 90/2/47
f 91/4/47 92/4/47 84/2/47
f 92/4/47 91/4/47 93/3/47
f 13/2/48 95/3/19 94/2/19
f 95/3/19 13/2/48 96/5/48
f 97/5/49 94/2/19 95/3/19
f 94/2/19 97/5/49 90/2/49
f 78/2/10 98/5/50 79/3/10
f 98/5/50 78/2/10 86/2/50
f 101/7/51 100/6/52 99/6/51
f 100/6/52 101/7/51 102/7/52
f 102/7/52 103/6/53 100/6/52
f 103/6/53 102/7/52 104/7/53
f 107/8/56 106/6/55 105/6/54
f 106/6/55 107/8/56 108/8/57
f 104/7/53 109/6/58 103/6/53
f 109/6/58 104/7/53 110/7/58
f 101/7/51 112/6/60 111/7/59
f 112/6/60 101/7/51 99/6/51
f 109/6/58 114/7/62 113/6/61
f 114/7/62 109/6/58 110/7/58
f 111/7/59 116/6/64 115/9/63
f 116/6/64 111/7/59 112/6/60
f 113/6/61 118/9/66 117/6/65
f 118/9/66 113/6/61 114/7/62
f 117/6/65 120/10/68 119/6/67
f 120/10/68 117/6/65 118/9/66
f 115/9/63 122/6/70 121/10/69
f 122/6/70 115/9/63 116/6/64
f 99/6/71 116/6/71 112/6/71
f 116/6/71 99/6/71 122/6/71
f 122/6/71 99/6/71 100/6/71
f 122/6/71 100/6/71 106/6/71
f 106/6/71 100/6/71 103/6/71
f 106/6/71 103/6/71 105/6/71
f 105/6/71 103/6/71 109/6/71
f 105/6/71 109/6/71 119/6/71
f 119/6/71 109/6/71 113/6/71
f 119/6/71 113/6/71 117/6/71
f 120/10/68 105/6/54 119/6/67
f 105/6/54 120/10/68 107/8/56
f 106/6/55 121/10/69 122/6/70
f 121/10/69 106/6/55 108/8/57

