# Created by Kenney (www.kenney.nl)

mtllib block-grass-low-large.mtl

g block-grass-low-large

v 1 0.5 0.7262501 1 1 1
v 0.9198205 0.5 0.9198205 1 1 1
v 1 0.5 -0.7262501 1 1 1
v 0.9198205 0.5 -0.9198205 1 1 1
v 0.7262501 0.5 1 1 1 1
v 0.7262501 0.5 -1 1 1 1
v -0.7262501 0.5 1 1 1 1
v -0.7262501 0.5 -1 1 1 1
v -0.9198205 0.5 0.9198205 1 1 1
v -0.9198205 0.5 -0.9198205 1 1 1
v -1 0.5 0.7262501 1 1 1
v -1 0.5 -0.7262501 1 1 1
v 1.041062 0.375 -0.753625 1 1 1
v 1 0.25 -0.7262501 1 1 1
v 1.041062 0.375 0.753625 1 1 1
v 1 0.25 0.7262501 1 1 1
v -0.7262501 0.25 -1 1 1 1
v 0.7262501 0.25 -1 1 1 1
v -0.753625 0.375 -1.041062 1 1 1
v 0.753625 0.375 -1.041062 1 1 1
v -0.956874 0.375 -0.956874 1 1 1
v -1.041062 0.375 -0.753625 1 1 1
v -0.9198205 0.25 -0.9198205 1 1 1
v -1 0.25 -0.7262501 1 1 1
v 0.9198205 0.25 0.9198205 1 1 1
v 0.7262501 0.25 1 1 1 1
v 0.956874 0.375 0.956874 1 1 1
v 0.753625 0.375 1.041062 1 1 1
v 0.9198205 0.25 -0.9198205 1 1 1
v 0.956874 0.375 -0.956874 1 1 1
v -1.041062 0.375 0.753625 1 1 1
v -1 0.25 0.7262501 1 1 1
v -0.7262501 0.25 1 1 1 1
v -0.9198205 0.25 0.9198205 1 1 1
v -0.753625 0.375 1.041062 1 1 1
v -0.956874 0.375 0.956874 1 1 1
v 0.7262501 1.219735E-31 -1 1 1 1
v 0.9198205 1.219735E-31 -0.9198205 1 1 1
v 0.7262501 0.25 -1 1 1 1
v 0.9198205 0.25 -0.9198205 1 1 1
v -0.9198205 1.219735E-31 -0.9198205 1 1 1
v -0.9198205 0.25 -0.9198205 1 1 1
v -1 1.219735E-31 -0.7262501 1 1 1
v -1 0.25 -0.7262501 1 1 1
v 0.9198205 0 0.9198205 1 1 1
v 0.7262501 0 1 1 1 1
v 0.9198205 0.25 0.9198205 1 1 1
v 0.7262501 0.25 1 1 1 1
v -0.7262501 0 1 1 1 1
v -0.7262501 0.25 1 1 1 1
v 1 0 0.7262501 1 1 1
v 1 1.219735E-31 -0.7262501 1 1 1
v -0.7262501 1.219735E-31 -1 1 1 1
v -0.9198205 0 0.9198205 1 1 1
v -1 0 0.7262501 1 1 1
v -0.7262501 0.25 -1 1 1 1
v -0.9198205 0.25 0.9198205 1 1 1
v 1 0.25 0.7262501 1 1 1
v -1 0.25 0.7262501 1 1 1
v 1 0.25 -0.7262501 1 1 1

vn 0 1 0
vn 0.9774452 0 -0.2111887
vn 0.9254633 -0.3404191 -0.16623
vn 0.9774452 0 0.2111887
vn 0.9254633 -0.3404191 0.16623
vn -0.16623 -0.3404191 -0.9254633
vn 0.16623 -0.3404191 -0.9254633
vn -0.2111887 0 -0.9774452
vn 0.2111887 0 -0.9774452
vn -0.7071068 0 -0.7071068
vn -0.9774452 0 -0.2111887
vn -0.652123 -0.3866153 -0.652123
vn -0.9254633 -0.3404191 -0.16623
vn 0.652123 -0.3866153 0.652123
vn 0.16623 -0.3404191 0.9254633
vn 0.7071068 0 0.7071068
vn 0.2111887 0 0.9774452
vn 0.652123 -0.3866153 -0.652123
vn 0.7071068 0 -0.7071068
vn -0.9774452 0 0.2111887
vn -0.9254633 -0.3404191 0.16623
vn -0.16623 -0.3404191 0.9254633
vn -0.652123 -0.3866153 0.652123
vn -0.2111887 0 0.9774452
vn -0.7071068 0 0.7071068
vn -0.9254633 0.3404191 -0.16623
vn -0.9254633 0.3404191 0.16623
vn -0.652123 0.3866153 0.652123
vn -0.16623 0.3404191 0.9254633
vn 0.16623 0.3404191 0.9254633
vn 0.9254633 0.3404191 -0.16623
vn 0.9254633 0.3404191 0.16623
vn 0.16623 0.3404191 -0.9254633
vn 0.652123 0.3866153 -0.652123
vn -0.16623 0.3404191 -0.9254633
vn -0.652123 0.3866153 -0.652123
vn 0.652123 0.3866153 0.652123
vn 0.1950903 0 -0.9807853
vn -0.9807853 0 -0.1950903
vn 0.1950903 0 0.9807853
vn -0.1950903 0 0.9807853
vn 0 -1 0
vn -0.1950903 0 -0.9807853
vn 0.9807853 0 0.1950903
vn -0.9807853 0 0.1950903
vn 0.9807853 0 -0.1950903

vt 0.21875 0.475
vt 0.21875 0.375
vt 0.21875 0.275
vt 0.71875 0.225
vt 0.71875 0.025

usemtl colormap

f 3/1/1 2/1/1 1/1/1
f 2/1/1 3/1/1 4/1/1
f 2/1/1 4/1/1 5/1/1
f 5/1/1 4/1/1 6/1/1
f 5/1/1 6/1/1 7/1/1
f 7/1/1 6/1/1 8/1/1
f 7/1/1 8/1/1 9/1/1
f 9/1/1 8/1/1 10/1/1
f 9/1/1 10/1/1 11/1/1
f 11/1/1 10/1/1 12/1/1
f 15/2/4 14/3/3 13/2/2
f 14/3/3 15/2/4 16/3/5
f 19/2/8 18/3/7 17/3/6
f 18/3/7 19/2/8 20/2/9
f 23/3/12 22/2/11 21/2/10
f 22/2/11 23/3/12 24/3/13
f 27/2/16 26/3/15 25/3/14
f 26/3/15 27/2/16 28/2/17
f 20/2/9 29/3/18 18/3/7
f 29/3/18 20/2/9 30/2/19
f 24/3/13 31/2/20 22/2/11
f 31/2/20 24/3/13 32/3/21
f 35/2/24 34/3/23 33/3/22
f 34/3/23 35/2/24 36/2/25
f 26/3/15 35/2/24 33/3/22
f 35/2/24 26/3/15 28/2/17
f 21/2/10 17/3/6 23/3/12
f 17/3/6 21/2/10 19/2/8
f 34/3/23 31/2/20 32/3/21
f 31/2/20 34/3/23 36/2/25
f 13/2/2 29/3/18 30/2/19
f 29/3/18 13/2/2 14/3/3
f 15/2/4 25/3/14 16/3/5
f 25/3/14 15/2/4 27/2/16
f 31/2/20 12/1/26 22/2/11
f 12/1/26 31/2/20 11/1/27
f 31/2/20 9/1/28 11/1/27
f 9/1/28 31/2/20 36/2/25
f 7/1/29 36/2/25 35/2/24
f 36/2/25 7/1/29 9/1/28
f 28/2/17 7/1/29 35/2/24
f 7/1/29 28/2/17 5/1/30
f 3/1/31 15/2/4 13/2/2
f 15/2/4 3/1/31 1/1/32
f 6/1/33 30/2/19 20/2/9
f 30/2/19 6/1/33 4/1/34
f 8/1/35 20/2/9 19/2/8
f 20/2/9 8/1/35 6/1/33
f 4/1/34 13/2/2 30/2/19
f 13/2/2 4/1/34 3/1/31
f 10/1/36 19/2/8 21/2/10
f 19/2/8 10/1/36 8/1/35
f 22/2/11 10/1/36 21/2/10
f 10/1/36 22/2/11 12/1/26
f 2/1/37 28/2/17 27/2/16
f 28/2/17 2/1/37 5/1/30
f 2/1/37 15/2/4 1/1/32
f 15/2/4 2/1/37 27/2/16
f 39/5/38 38/4/19 37/4/38
f 38/4/19 39/5/38 40/5/19
f 43/4/39 42/5/10 41/4/10
f 42/5/10 43/4/39 44/5/39
f 47/5/16 46/4/40 45/4/16
f 46/4/40 47/5/16 48/5/40
f 46/4/40 50/5/41 49/4/41
f 50/5/41 46/4/40 48/5/40
f 45/4/42 52/4/42 51/4/42
f 52/4/42 45/4/42 38/4/42
f 38/4/42 45/4/42 46/4/42
f 38/4/42 46/4/42 37/4/42
f 37/4/42 46/4/42 49/4/42
f 37/4/42 49/4/42 53/4/42
f 53/4/42 49/4/42 54/4/42
f 53/4/42 54/4/42 41/4/42
f 41/4/42 54/4/42 55/4/42
f 41/4/42 55/4/42 43/4/42
f 56/5/43 37/4/38 53/4/43
f 37/4/38 56/5/43 39/5/38
f 50/5/41 54/4/25 49/4/41
f 54/4/25 50/5/41 57/5/25
f 47/5/16 51/4/44 58/5/44
f 51/4/44 47/5/16 45/4/16
f 55/4/45 44/5/39 43/4/39
f 44/5/39 55/4/45 59/5/45
f 54/4/25 59/5/45 55/4/45
f 59/5/45 54/4/25 57/5/25
f 58/5/44 52/4/46 60/5/46
f 52/4/46 58/5/44 51/4/44
f 42/5/10 53/4/43 41/4/10
f 53/4/43 42/5/10 56/5/43
f 60/5/46 38/4/19 40/5/19
f 38/4/19 60/5/46 52/4/46

g block-grass-low-large




usemtl colormap

f 3/1/1 2/1/1 1/1/1
f 2/1/1 3/1/1 4/1/1
f 2/1/1 4/1/1 5/1/1
f 5/1/1 4/1/1 6/1/1
f 5/1/1 6/1/1 7/1/1
f 7/1/1 6/1/1 8/1/1
f 7/1/1 8/1/1 9/1/1
f 9/1/1 8/1/1 10/1/1
f 9/1/1 10/1/1 11/1/1
f 11/1/1 10/1/1 12/1/1
f 15/2/4 14/3/3 13/2/2
f 14/3/3 15/2/4 16/3/5
f 19/2/8 18/3/7 17/3/6
f 18/3/7 19/2/8 20/2/9
f 23/3/12 22/2/11 21/2/10
f 22/2/11 23/3/12 24/3/13
f 27/2/16 26/3/15 25/3/14
f 26/3/15 27/2/16 28/2/17
f 20/2/9 29/3/18 18/3/7
f 29/3/18 20/2/9 30/2/19
f 24/3/13 31/2/20 22/2/11
f 31/2/20 24/3/13 32/3/21
f 35/2/24 34/3/23 33/3/22
f 34/3/23 35/2/24 36/2/25
f 26/3/15 35/2/24 33/3/22
f 35/2/24 26/3/15 28/2/17
f 21/2/10 17/3/6 23/3/12
f 17/3/6 21/2/10 19/2/8
f 34/3/23 31/2/20 32/3/21
f 31/2/20 34/3/23 36/2/25
f 13/2/2 29/3/18 30/2/19
f 29/3/18 13/2/2 14/3/3
f 15/2/4 25/3/14 16/3/5
f 25/3/14 15/2/4 27/2/16
f 31/2/20 12/1/26 22/2/11
f 12/1/26 31/2/20 11/1/27
f 31/2/20 9/1/28 11/1/27
f 9/1/28 31/2/20 36/2/25
f 7/1/29 36/2/25 35/2/24
f 36/2/25 7/1/29 9/1/28
f 28/2/17 7/1/29 35/2/24
f 7/1/29 28/2/17 5/1/30
f 3/1/31 15/2/4 13/2/2
f 15/2/4 3/1/31 1/1/32
f 6/1/33 30/2/19 20/2/9
f 30/2/19 6/1/33 4/1/34
f 8/1/35 20/2/9 19/2/8
f 20/2/9 8/1/35 6/1/33
f 4/1/34 13/2/2 30/2/19
f 13/2/2 4/1/34 3/1/31
f 10/1/36 19/2/8 21/2/10
f 19/2/8 10/1/36 8/1/35
f 22/2/11 10/1/36 21/2/10
f 10/1/36 22/2/11 12/1/26
f 2/1/37 28/2/17 27/2/16
f 28/2/17 2/1/37 5/1/30
f 2/1/37 15/2/4 1/1/32
f 15/2/4 2/1/37 27/2/16
f 39/5/38 38/4/19 37/4/38
f 38/4/19 39/5/38 40/5/19
f 43/4/39 42/5/10 41/4/10
f 42/5/10 43/4/39 44/5/39
f 47/5/16 46/4/40 45/4/16
f 46/4/40 47/5/16 48/5/40
f 46/4/40 50/5/41 49/4/41
f 50/5/41 46/4/40 48/5/40
f 45/4/42 52/4/42 51/4/42
f 52/4/42 45/4/42 38/4/42
f 38/4/42 45/4/42 46/4/42
f 38/4/42 46/4/42 37/4/42
f 37/4/42 46/4/42 49/4/42
f 37/4/42 49/4/42 53/4/42
f 53/4/42 49/4/42 54/4/42
f 53/4/42 54/4/42 41/4/42
f 41/4/42 54/4/42 55/4/42
f 41/4/42 55/4/42 43/4/42
f 56/5/43 37/4/38 53/4/43
f 37/4/38 56/5/43 39/5/38
f 50/5/41 54/4/25 49/4/41
f 54/4/25 50/5/41 57/5/25
f 47/5/16 51/4/44 58/5/44
f 51/4/44 47/5/16 45/4/16
f 55/4/45 44/5/39 43/4/39
f 44/5/39 55/4/45 59/5/45
f 54/4/25 59/5/45 55/4/45
f 59/5/45 54/4/25 57/5/25
f 58/5/44 52/4/46 60/5/46
f 52/4/46 58/5/44 51/4/44
f 42/5/10 53/4/43 41/4/10
f 53/4/43 42/5/10 56/5/43
f 60/5/46 38/4/19 40/5/19
f 38/4/19 60/5/46 52/4/46

