# Created by Kenney (www.kenney.nl)

mtllib block-moving.mtl

g block-moving

v 0.4 0.3 -0.3779256 1 1 1
v 0.4 0.3 0.3779256 1 1 1
v 0.3779256 0.3 -0.4 1 1 1
v 0.3779256 0.3 0.4 1 1 1
v 0.3 0.3 -0.3 1 1 1
v -0.3779256 0.3 -0.4 1 1 1
v 0.3 0.3 0.3 1 1 1
v -0.3 0.3 -0.3 1 1 1
v -0.3779256 0.3 0.4 1 1 1
v -0.3 0.3 0.3 1 1 1
v -0.4 0.3 0.3779256 1 1 1
v -0.4 0.3 -0.3779256 1 1 1
v 0.5 0 0.4 1 1 1
v 0.5 0 -0.4 1 1 1
v 0.4683013 0 0.4683013 1 1 1
v 0.4683013 0 -0.4683013 1 1 1
v 0.4 0 0.5 1 1 1
v 0.4 0 -0.5 1 1 1
v -0.4 0 0.5 1 1 1
v -0.4 0 -0.5 1 1 1
v -0.4683013 0 0.4683013 1 1 1
v -0.4683013 0 -0.4683013 1 1 1
v -0.5 0 0.4 1 1 1
v -0.5 0 -0.4 1 1 1
v 0.5 0.1 -0.4 1 1 1
v 0.5 0.1 0.4 1 1 1
v 0.4683013 0.1 -0.4683013 1 1 1
v 0.4683013 0.1 0.4683013 1 1 1
v 0.4 0.1 -0.5 1 1 1
v 0.4 0.1 0.5 1 1 1
v -0.4 0.1 -0.5 1 1 1
v -0.4 0.1 0.5 1 1 1
v -0.4683013 0.1 -0.4683013 1 1 1
v -0.4683013 0.1 0.4683013 1 1 1
v -0.5 0.1 -0.4 1 1 1
v -0.5 0.1 0.4 1 1 1
v 0.5 0.2 0.4 1 1 1
v 0.5 0.2 -0.4 1 1 1
v 0.4683013 0.2 0.4683013 1 1 1
v 0.4683013 0.2 -0.4683013 1 1 1
v 0.4 0.2 0.5 1 1 1
v 0.4 0.2 -0.5 1 1 1
v -0.4 0.2 0.5 1 1 1
v -0.4 0.2 -0.5 1 1 1
v -0.4683013 0.2 0.4683013 1 1 1
v -0.4683013 0.2 -0.4683013 1 1 1
v -0.5 0.2 0.4 1 1 1
v -0.5 0.2 -0.4 1 1 1
v 0.4 0.3 -0.5 1 1 1
v 0.4683013 0.3 -0.4683013 1 1 1
v 0.5 0.3 -0.4 1 1 1
v 0.5 0.3 0.4 1 1 1
v 0.4683013 0.3 0.4683013 1 1 1
v 0.4 0.3 0.5 1 1 1
v -0.4 0.3 -0.5 1 1 1
v -0.4 0.3 0.5 1 1 1
v -0.4683013 0.3 -0.4683013 1 1 1
v -0.4683013 0.3 0.4683013 1 1 1
v -0.5 0.3 -0.4 1 1 1
v -0.5 0.3 0.4 1 1 1
v 0.3889628 0.1 -0.45 1 1 1
v 0.430652 0.1 -0.430652 1 1 1
v 0.3889628 0.2 -0.45 1 1 1
v 0.430652 0.2 -0.430652 1 1 1
v -0.3889628 0.1 -0.45 1 1 1
v -0.3889628 0.2 -0.45 1 1 1
v -0.430652 0.1 -0.430652 1 1 1
v -0.430652 0.2 -0.430652 1 1 1
v -0.45 0.1 -0.3889628 1 1 1
v -0.45 0.2 -0.3889628 1 1 1
v -0.45 0.1 0.3889628 1 1 1
v -0.45 0.2 0.3889628 1 1 1
v -0.430652 0.1 0.430652 1 1 1
v -0.430652 0.2 0.430652 1 1 1
v -0.3889628 0.1 0.45 1 1 1
v -0.3889628 0.2 0.45 1 1 1
v 0.3889628 0.1 0.45 1 1 1
v 0.3889628 0.2 0.45 1 1 1
v 0.430652 0.1 0.430652 1 1 1
v 0.430652 0.2 0.430652 1 1 1
v 0.45 0.2 0.3889628 1 1 1
v 0.45 0.1 0.3889628 1 1 1
v 0.45 0.2 -0.3889628 1 1 1
v 0.45 0.1 -0.3889628 1 1 1

vn 0 1 0
vn 0 -1 0
vn 0.2155542 0 0.9764919
vn -0.2155542 0 0.9764919
vn -0.7071068 0 0.7071068
vn -0.9764919 0 0.2155542
vn -0.9764919 0 -0.2155542
vn -0.7071068 0 -0.7071068
vn -0.2155542 0 -0.9764919
vn 0.2155542 0 -0.9764919
vn 0.7071068 0 -0.7071068
vn 0.9764919 0 -0.2155542
vn 0.9764919 0 0.2155542
vn 0.7071068 0 0.7071068

vt 0.34375 0.275
vt 0.34375 0.325
vt 0.34375 0.425
vt 0.71875 0.225
vt 0.71875 0.025

usemtl colormap

f 3/1/1 2/1/1 1/1/1
f 2/1/1 3/1/1 4/1/1
f 4/1/1 3/1/1 5/1/1
f 5/1/1 3/1/1 6/1/1
f 7/1/1 4/1/1 5/1/1
f 5/1/1 6/1/1 8/1/1
f 4/1/1 7/1/1 9/1/1
f 9/1/1 7/1/1 10/1/1
f 8/1/1 6/1/1 10/1/1
f 10/1/1 6/1/1 9/1/1
f 9/1/1 6/1/1 11/1/1
f 11/1/1 6/1/1 12/1/1
f 15/2/2 14/2/2 13/2/2
f 14/2/2 15/2/2 16/2/2
f 16/2/2 15/2/2 17/2/2
f 16/2/2 17/2/2 18/2/2
f 18/2/2 17/2/2 19/2/2
f 18/2/2 19/2/2 20/2/2
f 20/2/2 19/2/2 21/2/2
f 20/2/2 21/2/2 22/2/2
f 22/2/2 21/2/2 23/2/2
f 22/2/2 23/2/2 24/2/2
f 27/3/1 26/3/1 25/3/1
f 26/3/1 27/3/1 28/3/1
f 28/3/1 27/3/1 29/3/1
f 28/3/1 29/3/1 30/3/1
f 30/3/1 29/3/1 31/3/1
f 30/3/1 31/3/1 32/3/1
f 32/3/1 31/3/1 33/3/1
f 32/3/1 33/3/1 34/3/1
f 34/3/1 33/3/1 35/3/1
f 34/3/1 35/3/1 36/3/1
f 30/3/3 19/2/4 17/2/3
f 19/2/4 30/3/3 32/3/4
f 32/3/4 21/2/5 19/2/4
f 21/2/5 32/3/4 34/3/5
f 21/2/5 36/3/6 23/2/6
f 36/3/6 21/2/5 34/3/5
f 23/2/6 35/3/7 24/2/7
f 35/3/7 23/2/6 36/3/6
f 24/2/7 33/3/8 22/2/8
f 33/3/8 24/2/7 35/3/7
f 33/3/8 20/2/9 22/2/8
f 20/2/9 33/3/8 31/3/9
f 31/3/9 18/2/10 20/2/9
f 18/2/10 31/3/9 29/3/10
f 29/3/10 16/2/11 18/2/10
f 16/2/11 29/3/10 27/3/11
f 25/3/12 16/2/11 27/3/11
f 16/2/11 25/3/12 14/2/12
f 26/3/13 14/2/12 25/3/12
f 14/2/12 26/3/13 13/2/13
f 28/3/14 13/2/13 26/3/13
f 13/2/13 28/3/14 15/2/14
f 28/3/14 17/2/3 15/2/14
f 17/2/3 28/3/14 30/3/3
f 39/2/2 38/2/2 37/2/2
f 38/2/2 39/2/2 40/2/2
f 40/2/2 39/2/2 41/2/2
f 40/2/2 41/2/2 42/2/2
f 42/2/2 41/2/2 43/2/2
f 42/2/2 43/2/2 44/2/2
f 44/2/2 43/2/2 45/2/2
f 44/2/2 45/2/2 46/2/2
f 46/2/2 45/2/2 47/2/2
f 46/2/2 47/2/2 48/2/2
f 49/3/10 40/2/11 42/2/10
f 40/2/11 49/3/10 50/3/11
f 50/3/1 52/3/1 51/3/1
f 52/3/1 50/3/1 53/3/1
f 53/3/1 50/3/1 49/3/1
f 53/3/1 49/3/1 1/3/1
f 1/3/1 49/3/1 3/3/1
f 2/3/1 53/3/1 1/3/1
f 53/3/1 2/3/1 54/3/1
f 54/3/1 2/3/1 4/3/1
f 3/3/1 49/3/1 55/3/1
f 3/3/1 55/3/1 6/3/1
f 6/3/1 55/3/1 12/3/1
f 54/3/1 4/3/1 56/3/1
f 56/3/1 4/3/1 9/3/1
f 12/3/1 55/3/1 57/3/1
f 56/3/1 9/3/1 11/3/1
f 12/3/1 57/3/1 11/3/1
f 56/3/1 11/3/1 58/3/1
f 58/3/1 11/3/1 57/3/1
f 58/3/1 57/3/1 59/3/1
f 58/3/1 59/3/1 60/3/1
f 53/3/14 37/2/13 52/3/13
f 37/2/13 53/3/14 39/2/14
f 47/2/6 59/3/7 48/2/7
f 59/3/7 47/2/6 60/3/6
f 57/3/8 44/2/9 46/2/8
f 44/2/9 57/3/8 55/3/9
f 56/3/4 45/2/5 43/2/4
f 45/2/5 56/3/4 58/3/5
f 45/2/5 60/3/6 47/2/6
f 60/3/6 45/2/5 58/3/5
f 51/3/12 40/2/11 50/3/11
f 40/2/11 51/3/12 38/2/12
f 48/2/7 57/3/8 46/2/8
f 57/3/8 48/2/7 59/3/7
f 52/3/13 38/2/12 51/3/12
f 38/2/12 52/3/13 37/2/13
f 8/3/1 7/3/1 5/3/1
f 7/3/1 8/3/1 10/3/1
f 53/3/14 41/2/3 39/2/14
f 41/2/3 53/3/14 54/3/3
f 54/3/3 43/2/4 41/2/3
f 43/2/4 54/3/3 56/3/4
f 55/3/9 42/2/10 44/2/9
f 42/2/10 55/3/9 49/3/10
f 63/5/10 62/4/11 61/4/10
f 62/4/11 63/5/10 64/5/11
f 66/5/9 61/4/10 65/4/9
f 61/4/10 66/5/9 63/5/10
f 68/5/8 65/4/9 67/4/8
f 65/4/9 68/5/8 66/5/9
f 69/4/7 68/5/8 67/4/8
f 68/5/8 69/4/7 70/5/7
f 71/4/6 70/5/7 69/4/7
f 70/5/7 71/4/6 72/5/6
f 73/4/5 72/5/6 71/4/6
f 72/5/6 73/4/5 74/5/5
f 76/5/4 73/4/5 75/4/4
f 73/4/5 76/5/4 74/5/5
f 78/5/3 75/4/4 77/4/3
f 75/4/4 78/5/3 76/5/4
f 80/5/14 77/4/3 79/4/14
f 77/4/3 80/5/14 78/5/3
f 80/5/14 82/4/13 81/5/13
f 82/4/13 80/5/14 79/4/14
f 81/5/13 84/4/12 83/5/12
f 84/4/12 81/5/13 82/4/13
f 83/5/12 62/4/11 64/5/11
f 62/4/11 83/5/12 84/4/12

g block-moving




usemtl colormap

f 3/1/1 2/1/1 1/1/1
f 2/1/1 3/1/1 4/1/1
f 4/1/1 3/1/1 5/1/1
f 5/1/1 3/1/1 6/1/1
f 7/1/1 4/1/1 5/1/1
f 5/1/1 6/1/1 8/1/1
f 4/1/1 7/1/1 9/1/1
f 9/1/1 7/1/1 10/1/1
f 8/1/1 6/1/1 10/1/1
f 10/1/1 6/1/1 9/1/1
f 9/1/1 6/1/1 11/1/1
f 11/1/1 6/1/1 12/1/1
f 15/2/2 14/2/2 13/2/2
f 14/2/2 15/2/2 16/2/2
f 16/2/2 15/2/2 17/2/2
f 16/2/2 17/2/2 18/2/2
f 18/2/2 17/2/2 19/2/2
f 18/2/2 19/2/2 20/2/2
f 20/2/2 19/2/2 21/2/2
f 20/2/2 21/2/2 22/2/2
f 22/2/2 21/2/2 23/2/2
f 22/2/2 23/2/2 24/2/2
f 27/3/1 26/3/1 25/3/1
f 26/3/1 27/3/1 28/3/1
f 28/3/1 27/3/1 29/3/1
f 28/3/1 29/3/1 30/3/1
f 30/3/1 29/3/1 31/3/1
f 30/3/1 31/3/1 32/3/1
f 32/3/1 31/3/1 33/3/1
f 32/3/1 33/3/1 34/3/1
f 34/3/1 33/3/1 35/3/1
f 34/3/1 35/3/1 36/3/1
f 30/3/3 19/2/4 17/2/3
f 19/2/4 30/3/3 32/3/4
f 32/3/4 21/2/5 19/2/4
f 21/2/5 32/3/4 34/3/5
f 21/2/5 36/3/6 23/2/6
f 36/3/6 21/2/5 34/3/5
f 23/2/6 35/3/7 24/2/7
f 35/3/7 23/2/6 36/3/6
f 24/2/7 33/3/8 22/2/8
f 33/3/8 24/2/7 35/3/7
f 33/3/8 20/2/9 22/2/8
f 20/2/9 33/3/8 31/3/9
f 31/3/9 18/2/10 20/2/9
f 18/2/10 31/3/9 29/3/10
f 29/3/10 16/2/11 18/2/10
f 16/2/11 29/3/10 27/3/11
f 25/3/12 16/2/11 27/3/11
f 16/2/11 25/3/12 14/2/12
f 26/3/13 14/2/12 25/3/12
f 14/2/12 26/3/13 13/2/13
f 28/3/14 13/2/13 26/3/13
f 13/2/13 28/3/14 15/2/14
f 28/3/14 17/2/3 15/2/14
f 17/2/3 28/3/14 30/3/3
f 39/2/2 38/2/2 37/2/2
f 38/2/2 39/2/2 40/2/2
f 40/2/2 39/2/2 41/2/2
f 40/2/2 41/2/2 42/2/2
f 42/2/2 41/2/2 43/2/2
f 42/2/2 43/2/2 44/2/2
f 44/2/2 43/2/2 45/2/2
f 44/2/2 45/2/2 46/2/2
f 46/2/2 45/2/2 47/2/2
f 46/2/2 47/2/2 48/2/2
f 49/3/10 40/2/11 42/2/10
f 40/2/11 49/3/10 50/3/11
f 50/3/1 52/3/1 51/3/1
f 52/3/1 50/3/1 53/3/1
f 53/3/1 50/3/1 49/3/1
f 53/3/1 49/3/1 1/3/1
f 1/3/1 49/3/1 3/3/1
f 2/3/1 53/3/1 1/3/1
f 53/3/1 2/3/1 54/3/1
f 54/3/1 2/3/1 4/3/1
f 3/3/1 49/3/1 55/3/1
f 3/3/1 55/3/1 6/3/1
f 6/3/1 55/3/1 12/3/1
f 54/3/1 4/3/1 56/3/1
f 56/3/1 4/3/1 9/3/1
f 12/3/1 55/3/1 57/3/1
f 56/3/1 9/3/1 11/3/1
f 12/3/1 57/3/1 11/3/1
f 56/3/1 11/3/1 58/3/1
f 58/3/1 11/3/1 57/3/1
f 58/3/1 57/3/1 59/3/1
f 58/3/1 59/3/1 60/3/1
f 53/3/14 37/2/13 52/3/13
f 37/2/13 53/3/14 39/2/14
f 47/2/6 59/3/7 48/2/7
f 59/3/7 47/2/6 60/3/6
f 57/3/8 44/2/9 46/2/8
f 44/2/9 57/3/8 55/3/9
f 56/3/4 45/2/5 43/2/4
f 45/2/5 56/3/4 58/3/5
f 45/2/5 60/3/6 47/2/6
f 60/3/6 45/2/5 58/3/5
f 51/3/12 40/2/11 50/3/11
f 40/2/11 51/3/12 38/2/12
f 48/2/7 57/3/8 46/2/8
f 57/3/8 48/2/7 59/3/7
f 52/3/13 38/2/12 51/3/12
f 38/2/12 52/3/13 37/2/13
f 8/3/1 7/3/1 5/3/1
f 7/3/1 8/3/1 10/3/1
f 53/3/14 41/2/3 39/2/14
f 41/2/3 53/3/14 54/3/3
f 54/3/3 43/2/4 41/2/3
f 43/2/4 54/3/3 56/3/4
f 55/3/9 42/2/10 44/2/9
f 42/2/10 55/3/9 49/3/10
f 63/5/10 62/4/11 61/4/10
f 62/4/11 63/5/10 64/5/11
f 66/5/9 61/4/10 65/4/9
f 61/4/10 66/5/9 63/5/10
f 68/5/8 65/4/9 67/4/8
f 65/4/9 68/5/8 66/5/9
f 69/4/7 68/5/8 67/4/8
f 68/5/8 69/4/7 70/5/7
f 71/4/6 70/5/7 69/4/7
f 70/5/7 71/4/6 72/5/6
f 73/4/5 72/5/6 71/4/6
f 72/5/6 73/4/5 74/5/5
f 76/5/4 73/4/5 75/4/4
f 73/4/5 76/5/4 74/5/5
f 78/5/3 75/4/4 77/4/3
f 75/4/4 78/5/3 76/5/4
f 80/5/14 77/4/3 79/4/14
f 77/4/3 80/5/14 78/5/3
f 80/5/14 82/4/13 81/5/13
f 82/4/13 80/5/14 79/4/14
f 81/5/13 84/4/12 83/5/12
f 84/4/12 81/5/13 82/4/13
f 83/5/12 62/4/11 64/5/11
f 62/4/11 83/5/12 84/4/12

