# Created by Kenney (www.kenney.nl)

mtllib block-grass-overhang-narrow.mtl

g block-grass-overhang-narrow

v 0.35 1 -0.07625 1 1 1
v 0.35 1 0.07625 1 1 1
v 0.2698205 1 -0.2698205 1 1 1
v 0.2698205 1 0.2698205 1 1 1
v 0.07625 1 0.35 1 1 1
v 0.07625 1 -0.35 1 1 1
v -0.07625 1 -0.35 1 1 1
v -0.07625 1 0.35 1 1 1
v -0.2698205 1 -0.2698205 1 1 1
v -0.2698205 1 0.2698205 1 1 1
v -0.35 1 0.07625 1 1 1
v -0.35 1 -0.07625 1 1 1
v 0.3910625 0.875 -0.103625 1 1 1
v 0.35 0.75 -0.07625 1 1 1
v 0.3910625 0.875 0.103625 1 1 1
v 0.35 0.75 0.07625 1 1 1
v -0.07625 0.75 -0.35 1 1 1
v 0.07625 0.75 -0.35 1 1 1
v -0.103625 0.875 -0.3910625 1 1 1
v 0.103625 0.875 -0.3910625 1 1 1
v -0.306874 0.875 -0.306874 1 1 1
v -0.3910625 0.875 -0.103625 1 1 1
v -0.2698205 0.75 -0.2698205 1 1 1
v -0.35 0.75 -0.07625 1 1 1
v 0.2698205 0.75 0.2698205 1 1 1
v 0.07625 0.75 0.35 1 1 1
v 0.306874 0.875 0.306874 1 1 1
v 0.103625 0.875 0.3910625 1 1 1
v 0.2698205 0.75 -0.2698205 1 1 1
v 0.306874 0.875 -0.306874 1 1 1
v -0.3910625 0.875 0.103625 1 1 1
v -0.35 0.75 0.07625 1 1 1
v -0.07625 0.75 0.35 1 1 1
v -0.2698205 0.75 0.2698205 1 1 1
v -0.103625 0.875 0.3910625 1 1 1
v -0.306874 0.875 0.306874 1 1 1
v -0.306874 0.6002902 -0.306874 1 1 1
v -0.1586026 0.6801452 -0.36829 1 1 1
v -0.103625 0.875 -0.3910625 1 1 1
v -0.3910625 0.875 -0.103625 1 1 1
v -0.36829 0.6801452 -0.1586026 1 1 1
v -0.3910625 0.875 0.103625 1 1 1
v -0.36829 0.6801452 0.1586026 1 1 1
v -0.306874 0.6002902 0.306874 1 1 1
v -0.1586026 0.6801452 0.36829 1 1 1
v -0.103625 0.875 0.3910625 1 1 1
v 0.306874 0.6002902 0.306874 1 1 1
v 0.1586026 0.6801452 0.36829 1 1 1
v 0.306874 0.875 0.306874 1 1 1
v 0.103625 0.875 0.3910625 1 1 1
v 0.306874 0.6002902 -0.306874 1 1 1
v 0.306874 0.875 -0.306874 1 1 1
v 0.1586026 0.6801452 -0.36829 1 1 1
v 0.103625 0.875 -0.3910625 1 1 1
v 0.3910625 0.875 0.103625 1 1 1
v 0.3682901 0.6801452 0.1586026 1 1 1
v 0.3910625 0.875 -0.103625 1 1 1
v 0.3682901 0.6801452 -0.1586026 1 1 1
v 1.490116E-08 0.7101741 0.3910625 1 1 1
v -0.07698032 0.7594329 0.3910625 1 1 1
v 0.07698032 0.7594329 0.3910625 1 1 1
v 0.3910626 0.7594329 -0.07698031 1 1 1
v 0.3910626 0.7101741 0 1 1 1
v 0.3910625 0.7594329 0.07698034 1 1 1
v 1.490116E-08 0.7101741 -0.3910625 1 1 1
v 0.07698032 0.7594329 -0.3910625 1 1 1
v -0.07698032 0.7594329 -0.3910625 1 1 1
v -0.3910625 0.7594329 -0.07698033 1 1 1
v -0.3910625 0.7101741 0 1 1 1
v -0.3910625 0.7594329 0.07698031 1 1 1
v 0.07625 0 -0.35 1 1 1
v 0.2698205 0 -0.2698205 1 1 1
v 0.07625 0.7500001 -0.35 1 1 1
v 0.2698205 0.7500001 -0.2698205 1 1 1
v -0.2698205 0 -0.2698205 1 1 1
v -0.2698205 0.7500001 -0.2698205 1 1 1
v -0.35 0 -0.07625 1 1 1
v -0.35 0.7500001 -0.07625 1 1 1
v 0.2698205 0 0.2698205 1 1 1
v 0.07625 0 0.35 1 1 1
v 0.2698205 0.7500001 0.2698205 1 1 1
v 0.07625 0.7500001 0.35 1 1 1
v -0.07625 0 0.35 1 1 1
v -0.07625 0.7500001 0.35 1 1 1
v 0.35 0 0.07625 1 1 1
v 0.35 0 -0.07625 1 1 1
v -0.07625 0 -0.35 1 1 1
v -0.2698205 0 0.2698205 1 1 1
v -0.35 0 0.07625 1 1 1
v -0.07625 0.7500001 -0.35 1 1 1
v -0.2698205 0.7500001 0.2698205 1 1 1
v 0.35 0.7500001 0.07625 1 1 1
v -0.35 0.7500001 0.07625 1 1 1
v 0.35 0.7500001 -0.07625 1 1 1

vn 0 1 0
vn 0.9774452 0 -0.2111887
vn 0.9254633 -0.3404191 -0.16623
vn 0.9774452 0 0.2111887
vn 0.9254633 -0.3404191 0.16623
vn -0.16623 -0.3404191 -0.9254633
vn 0.16623 -0.3404191 -0.9254633
vn -0.2111887 0 -0.9774452
vn 0.2111887 0 -0.9774452
vn -0.7071068 0 -0.7071068
vn -0.9774452 0 -0.2111887
vn -0.652123 -0.3866153 -0.652123
vn -0.9254633 -0.3404191 -0.16623
vn 0.652123 -0.3866153 0.652123
vn 0.16623 -0.3404191 0.9254633
vn 0.7071068 0 0.7071068
vn 0.2111887 0 0.9774452
vn 0.652123 -0.3866153 -0.652123
vn 0.7071068 0 -0.7071068
vn -0.9774452 0 0.2111887
vn -0.9254633 -0.3404191 0.16623
vn -0.16623 -0.3404191 0.9254633
vn -0.652123 -0.3866153 0.652123
vn -0.2111887 0 0.9774452
vn -0.7071068 0 0.7071068
vn -0.9254633 0.3404191 -0.16623
vn -0.9254633 0.3404191 0.16623
vn -0.652123 0.3866153 0.652123
vn -0.16623 0.3404191 0.9254633
vn 0.16623 0.3404191 0.9254633
vn 0.9254633 0.3404191 -0.16623
vn 0.9254633 0.3404191 0.16623
vn 0.16623 0.3404191 -0.9254633
vn 0.652123 0.3866153 -0.652123
vn -0.16623 0.3404191 -0.9254633
vn -0.652123 0.3866153 -0.652123
vn 0.652123 0.3866153 0.652123
vn -0.3826834 0 -0.9238795
vn -0.9238795 0 -0.3826834
vn -0.9238795 0 0.3826834
vn -0.3826834 0 0.9238795
vn 0.7071067 0 0.7071068
vn 0.3826834 0 0.9238795
vn 0.7071068 0 -0.7071067
vn 0.3826834 0 -0.9238795
vn 0.9238795 0 0.3826834
vn 0.9238795 0 -0.3826834
vn 0 0 1
vn 1 0 0
vn 0 0 -1
vn -1 0 0
vn 0.1950903 0 -0.9807853
vn -0.9807853 0 -0.1950903
vn 0.1950903 0 0.9807853
vn -0.1950903 0 0.9807853
vn 0 -1 0
vn -0.1950903 0 -0.9807853
vn 0.9807853 0 0.1950903
vn -0.9807853 0 0.1950903
vn 0.9807853 0 -0.1950903

vt 0.21875 0.475
vt 0.21875 0.375
vt 0.21875 0.275
vt 0.21875 0.3040689
vt 0.21875 0.315
vt 0.21875 0.3329312
vt 0.71875 0.225
vt 0.71875 0.025

usemtl colormap

f 3/1/1 2/1/1 1/1/1
f 2/1/1 3/1/1 4/1/1
f 4/1/1 3/1/1 5/1/1
f 5/1/1 3/1/1 6/1/1
f 5/1/1 6/1/1 7/1/1
f 5/1/1 7/1/1 8/1/1
f 8/1/1 7/1/1 9/1/1
f 8/1/1 9/1/1 10/1/1
f 10/1/1 9/1/1 11/1/1
f 11/1/1 9/1/1 12/1/1
f 15/2/4 14/3/3 13/2/2
f 14/3/3 15/2/4 16/3/5
f 19/2/8 18/3/7 17/3/6
f 18/3/7 19/2/8 20/2/9
f 23/3/12 22/2/11 21/2/10
f 22/2/11 23/3/12 24/3/13
f 27/2/16 26/3/15 25/3/14
f 26/3/15 27/2/16 28/2/17
f 20/2/9 29/3/18 18/3/7
f 29/3/18 20/2/9 30/2/19
f 24/3/13 31/2/20 22/2/11
f 31/2/20 24/3/13 32/3/21
f 35/2/24 34/3/23 33/3/22
f 34/3/23 35/2/24 36/2/25
f 28/2/17 33/3/22 26/3/15
f 33/3/22 28/2/17 35/2/24
f 21/2/10 17/3/6 23/3/12
f 17/3/6 21/2/10 19/2/8
f 34/3/23 31/2/20 32/3/21
f 31/2/20 34/3/23 36/2/25
f 13/2/2 29/3/18 30/2/19
f 29/3/18 13/2/2 14/3/3
f 15/2/4 25/3/14 16/3/5
f 25/3/14 15/2/4 27/2/16
f 31/2/20 12/1/26 22/2/11
f 12/1/26 31/2/20 11/1/27
f 31/2/20 10/1/28 11/1/27
f 10/1/28 31/2/20 36/2/25
f 8/1/29 36/2/25 35/2/24
f 36/2/25 8/1/29 10/1/28
f 28/2/17 8/1/29 35/2/24
f 8/1/29 28/2/17 5/1/30
f 1/1/31 15/2/4 13/2/2
f 15/2/4 1/1/31 2/1/32
f 6/1/33 30/2/19 20/2/9
f 30/2/19 6/1/33 3/1/34
f 7/1/35 20/2/9 19/2/8
f 20/2/9 7/1/35 6/1/33
f 3/1/34 13/2/2 30/2/19
f 13/2/2 3/1/34 1/1/31
f 9/1/36 19/2/8 21/2/10
f 19/2/8 9/1/36 7/1/35
f 22/2/11 9/1/36 21/2/10
f 9/1/36 22/2/11 12/1/26
f 4/1/37 28/2/17 27/2/16
f 28/2/17 4/1/37 5/1/30
f 4/1/37 15/2/4 2/1/32
f 15/2/4 4/1/37 27/2/16
f 21/2/10 38/4/38 37/3/10
f 38/4/38 21/2/10 39/2/38
f 37/3/10 40/2/39 21/2/10
f 40/2/39 37/3/10 41/4/39
f 43/4/40 36/2/25 42/2/40
f 36/2/25 43/4/40 44/3/25
f 45/4/41 36/2/25 44/3/25
f 36/2/25 45/4/41 46/2/41
f 49/2/42 48/4/43 47/3/42
f 48/4/43 49/2/42 50/2/43
f 53/4/45 52/2/44 51/3/44
f 52/2/44 53/4/45 54/2/45
f 49/2/42 56/4/46 55/2/46
f 56/4/46 49/2/42 47/3/42
f 57/2/47 51/3/44 52/2/44
f 51/3/44 57/2/47 58/4/47
f 61/6/48 60/6/48 59/5/48
f 60/6/48 61/6/48 46/2/48
f 46/2/48 61/6/48 50/2/48
f 55/2/49 62/6/49 57/2/49
f 62/6/49 55/2/49 63/5/49
f 63/5/49 55/2/49 64/6/49
f 67/6/50 66/6/50 65/5/50
f 66/6/50 67/6/50 54/2/50
f 54/2/50 67/6/50 39/2/50
f 68/6/51 42/2/51 40/2/51
f 42/2/51 68/6/51 69/5/51
f 42/2/51 69/5/51 70/6/51
f 73/8/52 72/7/19 71/7/52
f 72/7/19 73/8/52 74/8/19
f 77/7/53 76/8/10 75/7/10
f 76/8/10 77/7/53 78/8/53
f 81/8/16 80/7/54 79/7/16
f 80/7/54 81/8/16 82/8/54
f 82/8/54 83/7/55 80/7/54
f 83/7/55 82/8/54 84/8/55
f 79/7/56 86/7/56 85/7/56
f 86/7/56 79/7/56 72/7/56
f 72/7/56 79/7/56 80/7/56
f 72/7/56 80/7/56 71/7/56
f 71/7/56 80/7/56 83/7/56
f 71/7/56 83/7/56 87/7/56
f 87/7/56 83/7/56 88/7/56
f 87/7/56 88/7/56 75/7/56
f 75/7/56 88/7/56 89/7/56
f 75/7/56 89/7/56 77/7/56
f 90/8/57 71/7/52 87/7/57
f 71/7/52 90/8/57 73/8/52
f 84/8/55 88/7/25 83/7/55
f 88/7/25 84/8/55 91/8/25
f 81/8/16 85/7/58 92/8/58
f 85/7/58 81/8/16 79/7/16
f 89/7/59 78/8/53 77/7/53
f 78/8/53 89/7/59 93/8/59
f 88/7/25 93/8/59 89/7/59
f 93/8/59 88/7/25 91/8/25
f 92/8/58 86/7/60 94/8/60
f 86/7/60 92/8/58 85/7/58
f 76/8/10 87/7/57 75/7/10
f 87/7/57 76/8/10 90/8/57
f 94/8/60 72/7/19 74/8/19
f 72/7/19 94/8/60 86/7/60

g block-grass-overhang-narrow




usemtl colormap

f 3/1/1 2/1/1 1/1/1
f 2/1/1 3/1/1 4/1/1
f 4/1/1 3/1/1 5/1/1
f 5/1/1 3/1/1 6/1/1
f 5/1/1 6/1/1 7/1/1
f 5/1/1 7/1/1 8/1/1
f 8/1/1 7/1/1 9/1/1
f 8/1/1 9/1/1 10/1/1
f 10/1/1 9/1/1 11/1/1
f 11/1/1 9/1/1 12/1/1
f 15/2/4 14/3/3 13/2/2
f 14/3/3 15/2/4 16/3/5
f 19/2/8 18/3/7 17/3/6
f 18/3/7 19/2/8 20/2/9
f 23/3/12 22/2/11 21/2/10
f 22/2/11 23/3/12 24/3/13
f 27/2/16 26/3/15 25/3/14
f 26/3/15 27/2/16 28/2/17
f 20/2/9 29/3/18 18/3/7
f 29/3/18 20/2/9 30/2/19
f 24/3/13 31/2/20 22/2/11
f 31/2/20 24/3/13 32/3/21
f 35/2/24 34/3/23 33/3/22
f 34/3/23 35/2/24 36/2/25
f 28/2/17 33/3/22 26/3/15
f 33/3/22 28/2/17 35/2/24
f 21/2/10 17/3/6 23/3/12
f 17/3/6 21/2/10 19/2/8
f 34/3/23 31/2/20 32/3/21
f 31/2/20 34/3/23 36/2/25
f 13/2/2 29/3/18 30/2/19
f 29/3/18 13/2/2 14/3/3
f 15/2/4 25/3/14 16/3/5
f 25/3/14 15/2/4 27/2/16
f 31/2/20 12/1/26 22/2/11
f 12/1/26 31/2/20 11/1/27
f 31/2/20 10/1/28 11/1/27
f 10/1/28 31/2/20 36/2/25
f 8/1/29 36/2/25 35/2/24
f 36/2/25 8/1/29 10/1/28
f 28/2/17 8/1/29 35/2/24
f 8/1/29 28/2/17 5/1/30
f 1/1/31 15/2/4 13/2/2
f 15/2/4 1/1/31 2/1/32
f 6/1/33 30/2/19 20/2/9
f 30/2/19 6/1/33 3/1/34
f 7/1/35 20/2/9 19/2/8
f 20/2/9 7/1/35 6/1/33
f 3/1/34 13/2/2 30/2/19
f 13/2/2 3/1/34 1/1/31
f 9/1/36 19/2/8 21/2/10
f 19/2/8 9/1/36 7/1/35
f 22/2/11 9/1/36 21/2/10
f 9/1/36 22/2/11 12/1/26
f 4/1/37 28/2/17 27/2/16
f 28/2/17 4/1/37 5/1/30
f 4/1/37 15/2/4 2/1/32
f 15/2/4 4/1/37 27/2/16
f 21/2/10 38/4/38 37/3/10
f 38/4/38 21/2/10 39/2/38
f 37/3/10 40/2/39 21/2/10
f 40/2/39 37/3/10 41/4/39
f 43/4/40 36/2/25 42/2/40
f 36/2/25 43/4/40 44/3/25
f 45/4/41 36/2/25 44/3/25
f 36/2/25 45/4/41 46/2/41
f 49/2/42 48/4/43 47/3/42
f 48/4/43 49/2/42 50/2/43
f 53/4/45 52/2/44 51/3/44
f 52/2/44 53/4/45 54/2/45
f 49/2/42 56/4/46 55/2/46
f 56/4/46 49/2/42 47/3/42
f 57/2/47 51/3/44 52/2/44
f 51/3/44 57/2/47 58/4/47
f 61/6/48 60/6/48 59/5/48
f 60/6/48 61/6/48 46/2/48
f 46/2/48 61/6/48 50/2/48
f 55/2/49 62/6/49 57/2/49
f 62/6/49 55/2/49 63/5/49
f 63/5/49 55/2/49 64/6/49
f 67/6/50 66/6/50 65/5/50
f 66/6/50 67/6/50 54/2/50
f 54/2/50 67/6/50 39/2/50
f 68/6/51 42/2/51 40/2/51
f 42/2/51 68/6/51 69/5/51
f 42/2/51 69/5/51 70/6/51
f 73/8/52 72/7/19 71/7/52
f 72/7/19 73/8/52 74/8/19
f 77/7/53 76/8/10 75/7/10
f 76/8/10 77/7/53 78/8/53
f 81/8/16 80/7/54 79/7/16
f 80/7/54 81/8/16 82/8/54
f 82/8/54 83/7/55 80/7/54
f 83/7/55 82/8/54 84/8/55
f 79/7/56 86/7/56 85/7/56
f 86/7/56 79/7/56 72/7/56
f 72/7/56 79/7/56 80/7/56
f 72/7/56 80/7/56 71/7/56
f 71/7/56 80/7/56 83/7/56
f 71/7/56 83/7/56 87/7/56
f 87/7/56 83/7/56 88/7/56
f 87/7/56 88/7/56 75/7/56
f 75/7/56 88/7/56 89/7/56
f 75/7/56 89/7/56 77/7/56
f 90/8/57 71/7/52 87/7/57
f 71/7/52 90/8/57 73/8/52
f 84/8/55 88/7/25 83/7/55
f 88/7/25 84/8/55 91/8/25
f 81/8/16 85/7/58 92/8/58
f 85/7/58 81/8/16 79/7/16
f 89/7/59 78/8/53 77/7/53
f 78/8/53 89/7/59 93/8/59
f 88/7/25 93/8/59 89/7/59
f 93/8/59 88/7/25 91/8/25
f 92/8/58 86/7/60 94/8/60
f 86/7/60 92/8/58 85/7/58
f 76/8/10 87/7/57 75/7/10
f 87/7/57 76/8/10 90/8/57
f 94/8/60 72/7/19 74/8/19
f 72/7/19 94/8/60 86/7/60

