# Created by Kenney (www.kenney.nl)

mtllib block-snow-corner-overhang.mtl

g block-snow-corner-overhang

v -0.2260932 0.875 -0.5272182 1 1 1
v 0.2716568 0.875 -0.5272182 1 1 1
v -0.2055393 1 -0.4792893 1 1 1
v 0.2469607 1 -0.4792893 1 1 1
v -0.4390208 0.875 -0.4390208 1 1 1
v -0.3991098 1 -0.3991098 1 1 1
v 0.4845843 0.875 -0.4390208 1 1 1
v 0.5272182 0.875 -0.3360932 1 1 1
v 0.4405311 1 -0.3991098 1 1 1
v 0.4792893 1 -0.3055393 1 1 1
v -0.4792893 0.75 0.2469607 1 1 1
v -0.5272182 0.875 0.2716568 1 1 1
v -0.3991098 0.75 0.4405311 1 1 1
v -0.4390208 0.875 0.4845843 1 1 1
v -0.4792893 1 0.2469607 1 1 1
v -0.3991098 1 0.4405311 1 1 1
v -0.5272182 0.875 -0.2260932 1 1 1
v -0.4792893 1 -0.2055393 1 1 1
v -0.4792893 0.75 -0.2055393 1 1 1
v -0.3991098 0.75 -0.3991098 1 1 1
v -0.2055393 0.75 -0.4792893 1 1 1
v 0.4405311 0.75 -0.3991098 1 1 1
v 0.4792893 0.75 -0.3055393 1 1 1
v 0.444174 1 -0.1290026 1 1 1
v -0.1290026 1 0.444174 1 1 1
v -0.3055393 1 0.4792893 1 1 1
v 0.4885914 0.875 -0.1419029 1 1 1
v 0.444174 0.75 -0.1290026 1 1 1
v 0.2469607 0.75 -0.4792893 1 1 1
v -0.1419029 0.875 0.4885914 1 1 1
v -0.3360932 0.875 0.5272182 1 1 1
v -0.1290026 0.75 0.444174 1 1 1
v -0.3055393 0.75 0.4792893 1 1 1
v -0.009 0.6689677 0.3556885 1 1 1
v -0.07923363 0.6972159 0.4259222 1 1 1
v 0.06123363 0.6972159 0.2854549 1 1 1
v 0.1104446 0.773505 0.2362439 1 1 1
v -0.1284446 0.773505 0.4751331 1 1 1
v 0.1239029 0.875 0.2227855 1 1 1
v -0.1419029 0.875 0.4885914 1 1 1
v 0.3999894 0.7376451 -0.05330092 1 1 1
v 0.353167 0.7564772 -0.006478518 1 1 1
v 0.4468119 0.7564772 -0.1001233 1 1 1
v 0.4796192 0.8073367 -0.1329307 1 1 1
v 0.3203597 0.8073367 0.02632882 1 1 1
v 0.4885914 0.875 -0.1419028 1 1 1
v 0.3113875 0.875 0.03530103 1 1 1
v -0.5272183 0.875 -0.2260932 1 1 1
v -0.5272183 0.875 0.02451091 1 1 1
v -0.5272183 0.8073367 -0.2134046 1 1 1
v -0.5272183 0.7564772 -0.1670081 1 1 1
v -0.5272183 0.7376451 -0.1007912 1 1 1
v -0.5272183 0.7564772 -0.03457429 1 1 1
v -0.5272183 0.8073367 0.01182228 1 1 1
v 0.1463547 0.7376451 -0.5272183 1 1 1
v 0.2125716 0.7564772 -0.5272183 1 1 1
v 0.08013779 0.7564772 -0.5272182 1 1 1
v 0.03374121 0.8073367 -0.5272182 1 1 1
v 0.2589682 0.8073367 -0.5272182 1 1 1
v 0.02105259 0.875 -0.5272182 1 1 1
v 0.2716568 0.875 -0.5272182 1 1 1
v -0.3991098 0 -0.3991098 1 1 1
v -0.4792893 0 -0.2055393 1 1 1
v -0.4792893 0.75 -0.2055393 1 1 1
v 0.4405311 0 -0.3991098 1 1 1
v 0.4792893 0 -0.3055393 1 1 1
v 0.444174 0 -0.1290026 1 1 1
v -0.1290026 0 0.444174 1 1 1
v 0.2469607 0 -0.4792893 1 1 1
v -0.2055393 0 -0.4792893 1 1 1
v -0.3055394 0 0.4792893 1 1 1
v -0.3991098 0 0.4405312 1 1 1
v -0.4792893 0 0.2469607 1 1 1
v -0.4792893 0.75 0.2469607 1 1 1
v 0.2469607 0.75 -0.4792893 1 1 1
v -0.2055393 0.75 -0.4792893 1 1 1
v -0.3991098 0.75 0.4405312 1 1 1
v 0.444174 0.75 -0.1290026 1 1 1
v -0.3055394 0.75 0.4792893 1 1 1

vn -0.2041873 0 -0.9789318
vn 0.2075395 0 -0.9782266
vn -0.170995 0.3771308 -0.9102379
vn 0.1670611 0.3815875 -0.9091103
vn -0.7071068 0 -0.7071068
vn -0.6444537 0.4115325 -0.6444537
vn 0.7102627 0 -0.7039367
vn 0.9915926 0 -0.1293986
vn 0.6348521 0.4289249 -0.6426401
vn 0.9277033 0.3692102 -0.0552286
vn -0.9091103 -0.3815875 0.1670611
vn -0.9782266 0 0.2075395
vn -0.6426401 -0.4289249 0.6348521
vn -0.7039367 0 0.7102627
vn -0.9091103 0.3815875 0.1670611
vn -0.6426401 0.4289249 0.6348521
vn -0.9789318 0 -0.2041873
vn -0.9102379 0.3771308 -0.170995
vn -0.9102379 -0.3771308 -0.170995
vn -0.3531832 -0.3850109 -0.8526595
vn -0.170995 -0.3771308 -0.9102379
vn 0.6348521 -0.4289249 -0.6426401
vn 0.9277033 -0.3692102 -0.0552286
vn 0 1 0
vn 0.9010634 0 0.4336874
vn 0.832027 -0.24425 0.4980694
vn 0.1670611 -0.3815875 -0.9091103
vn 0.4336874 0 0.9010634
vn 0.832027 0.24425 0.4980694
vn 0.4980694 0.24425 0.832027
vn -0.1293986 0 0.9915926
vn -0.0552286 0.3692102 0.9277033
vn 0.4980694 -0.24425 0.832027
vn -0.0552286 -0.3692102 0.9277033
vn -0.8526595 -0.3850109 -0.3531832
vn 0.7071068 0 0.7071068
vn -1 0 -2.980232E-08
vn 2.980232E-08 0 -1
vn -0.9807853 0 -0.1950903
vn 0.7071068 0 -0.7071068
vn 0.9951847 0 -0.09801714
vn 0 -1 0
vn -0.9807853 0 0.1950903
vn 0.1950903 0 -0.9807853
vn -0.1950903 0 -0.9807853
vn -0.7071068 0 0.7071068
vn 0.8819212 0 0.4713967
vn 0.4713967 0 0.8819212
vn -0.09801714 0 0.9951847

vt 0.59375 0.125
vt 0.59375 0.225
vt 0.59375 0.025
vt 0.59375 0.05
vt 0.59375 0.06028292
vt 0.59375 0.08805375
vt 0.59375 0.075
vt 0.59375 0.08185527
vt 0.59375 0.1003692
vt 0.71875 0.225
vt 0.71875 0.025

usemtl colormap

f 3/2/3 2/1/2 1/1/1
f 2/1/2 3/2/3 4/2/4
f 6/2/6 1/1/1 5/1/5
f 1/1/1 6/2/6 3/2/3
f 9/2/9 8/1/8 7/1/7
f 8/1/8 9/2/9 10/2/10
f 13/3/13 12/1/12 11/3/11
f 12/1/12 13/3/13 14/1/14
f 12/1/12 16/2/16 15/2/15
f 16/2/16 12/1/12 14/1/14
f 17/1/17 6/2/6 5/1/5
f 6/2/6 17/1/17 18/2/18
f 12/1/12 18/2/18 17/1/17
f 18/2/18 12/1/12 15/2/15
f 19/3/19 12/1/12 17/1/17
f 12/1/12 19/3/19 11/3/11
f 5/1/5 21/3/21 20/3/20
f 21/3/21 5/1/5 1/1/1
f 8/1/8 22/3/22 7/1/7
f 22/3/22 8/1/8 23/3/23
f 9/2/24 24/2/24 10/2/24
f 24/2/24 9/2/24 25/2/24
f 25/2/24 9/2/24 4/2/24
f 25/2/24 4/2/24 3/2/24
f 25/2/24 3/2/24 26/2/24
f 26/2/24 3/2/24 6/2/24
f 26/2/24 6/2/24 16/2/24
f 16/2/24 6/2/24 18/2/24
f 16/2/24 18/2/24 15/2/24
f 27/1/25 23/3/23 8/1/8
f 23/3/23 27/1/25 28/3/26
f 1/1/1 29/3/27 21/3/21
f 29/3/27 1/1/1 2/1/2
f 24/2/29 30/1/28 27/1/25
f 30/1/28 24/2/29 25/2/30
f 25/2/30 31/1/31 30/1/28
f 31/1/31 25/2/30 26/2/32
f 10/2/10 27/1/25 8/1/8
f 27/1/25 10/2/10 24/2/29
f 26/2/32 14/1/14 31/1/31
f 14/1/14 26/2/32 16/2/16
f 30/1/28 33/3/34 32/3/33
f 33/3/34 30/1/28 31/1/31
f 27/1/25 32/3/33 28/3/26
f 32/3/33 27/1/25 30/1/28
f 31/1/31 13/3/13 33/3/34
f 13/3/13 31/1/31 14/1/14
f 2/1/2 22/3/22 29/3/27
f 22/3/22 2/1/2 7/1/7
f 4/2/4 7/1/7 2/1/2
f 7/1/7 4/2/4 9/2/9
f 20/3/35 17/1/17 5/1/5
f 17/1/17 20/3/35 19/3/19
f 36/5/36 35/5/36 34/4/36
f 35/5/36 36/5/36 37/6/36
f 35/5/36 37/6/36 38/6/36
f 38/6/36 37/6/36 39/1/36
f 38/6/36 39/1/36 40/1/36
f 43/8/36 42/8/36 41/7/36
f 42/8/36 43/8/36 44/9/36
f 42/8/36 44/9/36 45/9/36
f 45/9/36 44/9/36 46/1/36
f 45/9/36 46/1/36 47/1/36
f 50/9/37 49/1/37 48/1/37
f 49/1/37 50/9/37 51/8/37
f 49/1/37 51/8/37 52/7/37
f 49/1/37 52/7/37 53/8/37
f 49/1/37 53/8/37 54/9/37
f 57/8/38 56/8/38 55/7/38
f 56/8/38 57/8/38 58/9/38
f 56/8/38 58/9/38 59/9/38
f 59/9/38 58/9/38 60/1/38
f 59/9/38 60/1/38 61/1/38
f 63/10/39 20/11/5 62/10/5
f 20/11/5 63/10/39 64/11/39
f 23/11/41 65/10/40 22/11/40
f 65/10/40 23/11/41 66/10/41
f 67/10/42 65/10/42 66/10/42
f 65/10/42 67/10/42 68/10/42
f 65/10/42 68/10/42 69/10/42
f 69/10/42 68/10/42 70/10/42
f 70/10/42 68/10/42 71/10/42
f 70/10/42 71/10/42 62/10/42
f 62/10/42 71/10/42 72/10/42
f 62/10/42 72/10/42 63/10/42
f 63/10/42 72/10/42 73/10/42
f 73/10/43 64/11/39 63/10/39
f 64/11/39 73/10/43 74/11/43
f 75/11/44 65/10/40 69/10/44
f 65/10/40 75/11/44 22/11/40
f 76/11/45 69/10/44 70/10/45
f 69/10/44 76/11/45 75/11/44
f 72/10/46 74/11/43 73/10/43
f 74/11/43 72/10/46 77/11/46
f 20/11/5 70/10/45 62/10/5
f 70/10/45 20/11/5 76/11/45
f 78/11/47 66/10/41 23/11/41
f 66/10/41 78/11/47 67/10/47
f 78/11/47 68/10/48 67/10/47
f 68/10/48 78/11/47 32/11/48
f 79/11/49 72/10/46 71/10/49
f 72/10/46 79/11/49 77/11/46
f 32/11/48 71/10/49 68/10/48
f 71/10/49 32/11/48 79/11/49

g block-snow-corner-overhang




usemtl colormap

f 3/2/3 2/1/2 1/1/1
f 2/1/2 3/2/3 4/2/4
f 6/2/6 1/1/1 5/1/5
f 1/1/1 6/2/6 3/2/3
f 9/2/9 8/1/8 7/1/7
f 8/1/8 9/2/9 10/2/10
f 13/3/13 12/1/12 11/3/11
f 12/1/12 13/3/13 14/1/14
f 12/1/12 16/2/16 15/2/15
f 16/2/16 12/1/12 14/1/14
f 17/1/17 6/2/6 5/1/5
f 6/2/6 17/1/17 18/2/18
f 12/1/12 18/2/18 17/1/17
f 18/2/18 12/1/12 15/2/15
f 19/3/19 12/1/12 17/1/17
f 12/1/12 19/3/19 11/3/11
f 5/1/5 21/3/21 20/3/20
f 21/3/21 5/1/5 1/1/1
f 8/1/8 22/3/22 7/1/7
f 22/3/22 8/1/8 23/3/23
f 9/2/24 24/2/24 10/2/24
f 24/2/24 9/2/24 25/2/24
f 25/2/24 9/2/24 4/2/24
f 25/2/24 4/2/24 3/2/24
f 25/2/24 3/2/24 26/2/24
f 26/2/24 3/2/24 6/2/24
f 26/2/24 6/2/24 16/2/24
f 16/2/24 6/2/24 18/2/24
f 16/2/24 18/2/24 15/2/24
f 27/1/25 23/3/23 8/1/8
f 23/3/23 27/1/25 28/3/26
f 1/1/1 29/3/27 21/3/21
f 29/3/27 1/1/1 2/1/2
f 24/2/29 30/1/28 27/1/25
f 30/1/28 24/2/29 25/2/30
f 25/2/30 31/1/31 30/1/28
f 31/1/31 25/2/30 26/2/32
f 10/2/10 27/1/25 8/1/8
f 27/1/25 10/2/10 24/2/29
f 26/2/32 14/1/14 31/1/31
f 14/1/14 26/2/32 16/2/16
f 30/1/28 33/3/34 32/3/33
f 33/3/34 30/1/28 31/1/31
f 27/1/25 32/3/33 28/3/26
f 32/3/33 27/1/25 30/1/28
f 31/1/31 13/3/13 33/3/34
f 13/3/13 31/1/31 14/1/14
f 2/1/2 22/3/22 29/3/27
f 22/3/22 2/1/2 7/1/7
f 4/2/4 7/1/7 2/1/2
f 7/1/7 4/2/4 9/2/9
f 20/3/35 17/1/17 5/1/5
f 17/1/17 20/3/35 19/3/19
f 36/5/36 35/5/36 34/4/36
f 35/5/36 36/5/36 37/6/36
f 35/5/36 37/6/36 38/6/36
f 38/6/36 37/6/36 39/1/36
f 38/6/36 39/1/36 40/1/36
f 43/8/36 42/8/36 41/7/36
f 42/8/36 43/8/36 44/9/36
f 42/8/36 44/9/36 45/9/36
f 45/9/36 44/9/36 46/1/36
f 45/9/36 46/1/36 47/1/36
f 50/9/37 49/1/37 48/1/37
f 49/1/37 50/9/37 51/8/37
f 49/1/37 51/8/37 52/7/37
f 49/1/37 52/7/37 53/8/37
f 49/1/37 53/8/37 54/9/37
f 57/8/38 56/8/38 55/7/38
f 56/8/38 57/8/38 58/9/38
f 56/8/38 58/9/38 59/9/38
f 59/9/38 58/9/38 60/1/38
f 59/9/38 60/1/38 61/1/38
f 63/10/39 20/11/5 62/10/5
f 20/11/5 63/10/39 64/11/39
f 23/11/41 65/10/40 22/11/40
f 65/10/40 23/11/41 66/10/41
f 67/10/42 65/10/42 66/10/42
f 65/10/42 67/10/42 68/10/42
f 65/10/42 68/10/42 69/10/42
f 69/10/42 68/10/42 70/10/42
f 70/10/42 68/10/42 71/10/42
f 70/10/42 71/10/42 62/10/42
f 62/10/42 71/10/42 72/10/42
f 62/10/42 72/10/42 63/10/42
f 63/10/42 72/10/42 73/10/42
f 73/10/43 64/11/39 63/10/39
f 64/11/39 73/10/43 74/11/43
f 75/11/44 65/10/40 69/10/44
f 65/10/40 75/11/44 22/11/40
f 76/11/45 69/10/44 70/10/45
f 69/10/44 76/11/45 75/11/44
f 72/10/46 74/11/43 73/10/43
f 74/11/43 72/10/46 77/11/46
f 20/11/5 70/10/45 62/10/5
f 70/10/45 20/11/5 76/11/45
f 78/11/47 66/10/41 23/11/41
f 66/10/41 78/11/47 67/10/47
f 78/11/47 68/10/48 67/10/47
f 68/10/48 78/11/47 32/11/48
f 79/11/49 72/10/46 71/10/49
f 72/10/46 79/11/49 77/11/46
f 32/11/48 71/10/49 68/10/48
f 71/10/49 32/11/48 79/11/49

