# Created by Kenney (www.kenney.nl)

mtllib block-grass-large-slope-narrow.mtl

g block-grass-large-slope-narrow

v 0.5000001 0.3229609 0.7338561 1 1 1
v 0.4198205 0.2728612 0.9208308 1 1 1
v 0.5000001 0.6988956 -0.6691513 1 1 1
v 0.4198205 0.7489953 -0.856126 1 1 1
v 0.22625 0.2521092 0.9982783 1 1 1
v 0.22625 0.7697473 -0.9335735 1 1 1
v -0.22625 0.2521092 0.9982783 1 1 1
v -0.22625 0.7697473 -0.9335735 1 1 1
v -0.4198205 0.2728612 0.9208308 1 1 1
v -0.4198205 0.7489953 -0.856126 1 1 1
v -0.5000001 0.3229609 0.7338561 1 1 1
v -0.5000001 0.6988956 -0.6691513 1 1 1
v 0.5410625 0.58524 -0.7279459 1 1 1
v 0.5000001 0.4574142 -0.7338561 1 1 1
v 0.5410625 0.195135 0.7279459 1 1 1
v 0.5000001 0.08147945 0.6691513 1 1 1
v -0.22625 0.5282658 -0.9982783 1 1 1
v 0.22625 0.5282658 -0.9982783 1 1 1
v -0.253625 0.6596344 -1.005589 1 1 1
v 0.253625 0.6596344 -1.005589 1 1 1
v -0.456874 0.6378447 -0.9242693 1 1 1
v -0.5410625 0.58524 -0.7279459 1 1 1
v -0.4198205 0.5075139 -0.9208308 1 1 1
v -0.5000001 0.4574142 -0.7338561 1 1 1
v 0.4198205 0.03137973 0.856126 1 1 1
v 0.22625 0.01062775 0.9335735 1 1 1
v 0.456874 0.1425303 0.9242693 1 1 1
v 0.253625 0.1207407 1.005589 1 1 1
v 0.4198205 0.5075139 -0.9208308 1 1 1
v 0.456874 0.6378447 -0.9242693 1 1 1
v -0.5410625 0.195135 0.7279459 1 1 1
v -0.5000001 0.08147945 0.6691513 1 1 1
v -0.22625 0.01062775 0.9335735 1 1 1
v -0.4198205 0.03137973 0.856126 1 1 1
v -0.253625 0.1207407 1.005589 1 1 1
v -0.456874 0.1425303 0.9242693 1 1 1
v 0.4198205 0.01062776 0.7627218 1 1 1
v 0.22625 0.01062776 0.8429013 1 1 1
v 0.4198205 0.08147947 0.7627218 1 1 1
v 0.22625 0.08147947 0.8429013 1 1 1
v -0.22625 0.01062776 0.8429013 1 1 1
v -0.22625 0.08147947 0.8429013 1 1 1
v -0.22625 0.01062776 -0.9982783 1 1 1
v 0.22625 0.01062776 -0.9982783 1 1 1
v -0.22625 0.5282659 -0.9982783 1 1 1
v 0.22625 0.5282659 -0.9982783 1 1 1
v -0.4198205 0.01062776 0.7627218 1 1 1
v -0.4198205 0.08147947 0.7627218 1 1 1
v 0.5000001 0.08147947 0.6691513 1 1 1
v 0.5000001 0.01062776 0.6691513 1 1 1
v -0.5000001 0.01062776 0.5691513 1 1 1
v -0.5000001 0.08147947 0.5691513 1 1 1
v 0.5000001 0.4574141 -0.733856 1 1 1
v 0.5000001 0.01062776 -0.733856 1 1 1
v -0.5000001 0.01062776 -0.7365881 1 1 1
v -0.5000001 0.4574141 -0.7365881 1 1 1
v -0.4198205 0.01062776 -0.9208307 1 1 1
v -0.4198205 0.5075139 -0.9208307 1 1 1
v 0.4198205 0.5075139 -0.9208307 1 1 1
v 0.4198205 0.01062776 -0.9208307 1 1 1

vn 0 0.9659259 0.258819
vn 0.9774452 0.05465967 -0.2039927
vn 0.9254633 -0.2857961 -0.2486728
vn 0.9774452 -0.05465967 0.2039927
vn 0.9254633 -0.3718431 0.07245888
vn -0.16623 -0.08929206 -0.9820359
vn 0.16623 -0.08929206 -0.9820359
vn -0.2111887 0.2529815 -0.9441397
vn 0.2111887 0.2529815 -0.9441397
vn -0.7071068 0.1830127 -0.6830127
vn -0.9774452 0.05465967 -0.2039927
vn -0.652123 -0.2046598 -0.7299659
vn -0.9254633 -0.2857961 -0.2486728
vn 0.652123 -0.5422236 0.5298391
vn 0.16623 -0.5683472 0.805822
vn 0.7071068 -0.1830127 0.6830127
vn 0.2111887 -0.2529815 0.9441397
vn 0.652123 -0.2046598 -0.7299659
vn 0.7071068 0.1830127 -0.6830127
vn -0.9774452 -0.05465967 0.2039927
vn -0.9254633 -0.3718431 0.07245888
vn -0.16623 -0.5683472 0.805822
vn -0.652123 -0.5422236 0.5298391
vn -0.2111887 -0.2529815 0.9441397
vn -0.7071068 -0.1830127 0.6830127
vn -0.9254633 0.3718431 -0.07245888
vn -0.9254633 0.2857961 0.2486728
vn -0.652123 0.2046598 0.7299659
vn -0.16623 0.08929206 0.9820359
vn 0.16623 0.08929206 0.9820359
vn 0.9254633 0.3718431 -0.07245888
vn 0.9254633 0.2857961 0.2486728
vn 0.652123 0.5422236 -0.5298391
vn 0.16623 0.5683472 -0.805822
vn -0.16623 0.5683472 -0.805822
vn -0.652123 0.5422236 -0.5298391
vn 0.652123 0.2046598 0.7299659
vn 0 -0.9659259 -0.258819
vn 0.5871292 0 0.8094933
vn 0.1950903 0 0.9807853
vn -0.1950903 0 0.9807853
vn -0.1891497 0 -0.9819483
vn 0.1891497 0 -0.9819483
vn -0.1229975 0 -0.992407
vn 0.1229975 0 -0.992407
vn -0.7071068 0 0.7071068
vn 0.9688026 0 0.2478335
vn 0.9379104 0 0.3468776
vn -0.9807853 0 0.1950903
vn -0.9902617 0 0.139218
vn 0.9352413 0 -0.3540109
vn 0.9795561 0 -0.201171
vn -0.9790136 0 -0.2037948
vn -0.9325874 0 -0.3609442
vn -0.6964666 0 -0.7175891
vn -0.4588985 0 -0.8884888
vn 0.4602793 0 -0.8877742
vn 0.6983868 0 -0.7157205
vn 0 -1 0

vt 0.21875 0.475
vt 0.21875 0.375
vt 0.21875 0.275
vt 0.71875 0.225
vt 0.71875 0.197625
vt 0.71875 0.025
vt 0.71875 0.05237502
vt 0.71875 0.03301796

usemtl colormap

f 3/1/1 2/1/1 1/1/1
f 2/1/1 3/1/1 4/1/1
f 2/1/1 4/1/1 5/1/1
f 5/1/1 4/1/1 6/1/1
f 5/1/1 6/1/1 7/1/1
f 7/1/1 6/1/1 8/1/1
f 7/1/1 8/1/1 9/1/1
f 9/1/1 8/1/1 10/1/1
f 9/1/1 10/1/1 11/1/1
f 11/1/1 10/1/1 12/1/1
f 15/2/4 14/3/3 13/2/2
f 14/3/3 15/2/4 16/3/5
f 19/2/8 18/3/7 17/3/6
f 18/3/7 19/2/8 20/2/9
f 23/3/12 22/2/11 21/2/10
f 22/2/11 23/3/12 24/3/13
f 27/2/16 26/3/15 25/3/14
f 26/3/15 27/2/16 28/2/17
f 20/2/9 29/3/18 18/3/7
f 29/3/18 20/2/9 30/2/19
f 24/3/13 31/2/20 22/2/11
f 31/2/20 24/3/13 32/3/21
f 35/2/24 34/3/23 33/3/22
f 34/3/23 35/2/24 36/2/25
f 28/2/17 33/3/22 26/3/15
f 33/3/22 28/2/17 35/2/24
f 23/3/12 19/2/8 17/3/6
f 19/2/8 23/3/12 21/2/10
f 34/3/23 31/2/20 32/3/21
f 31/2/20 34/3/23 36/2/25
f 13/2/2 29/3/18 30/2/19
f 29/3/18 13/2/2 14/3/3
f 15/2/4 25/3/14 16/3/5
f 25/3/14 15/2/4 27/2/16
f 31/2/20 12/1/26 22/2/11
f 12/1/26 31/2/20 11/1/27
f 31/2/20 9/1/28 11/1/27
f 9/1/28 31/2/20 36/2/25
f 35/2/24 9/1/28 36/2/25
f 9/1/28 35/2/24 7/1/29
f 5/1/30 35/2/24 28/2/17
f 35/2/24 5/1/30 7/1/29
f 3/1/31 15/2/4 13/2/2
f 15/2/4 3/1/31 1/1/32
f 20/2/9 4/1/33 30/2/19
f 4/1/33 20/2/9 6/1/34
f 8/1/35 20/2/9 19/2/8
f 20/2/9 8/1/35 6/1/34
f 4/1/33 13/2/2 30/2/19
f 13/2/2 4/1/33 3/1/31
f 21/2/10 8/1/35 19/2/8
f 8/1/35 21/2/10 10/1/36
f 22/2/11 10/1/36 21/2/10
f 10/1/36 22/2/11 12/1/26
f 2/1/37 28/2/17 27/2/16
f 28/2/17 2/1/37 5/1/30
f 2/1/37 15/2/4 1/1/32
f 15/2/4 2/1/37 27/2/16
f 25/3/38 14/3/38 16/3/38
f 14/3/38 25/3/38 29/3/38
f 29/3/38 25/3/38 26/3/38
f 29/3/38 26/3/38 18/3/38
f 18/3/38 26/3/38 33/3/38
f 18/3/38 33/3/38 17/3/38
f 17/3/38 33/3/38 34/3/38
f 17/3/38 34/3/38 23/3/38
f 23/3/38 34/3/38 32/3/38
f 23/3/38 32/3/38 24/3/38
f 39/5/39 38/4/40 37/4/39
f 38/4/40 39/5/39 40/5/40
f 40/5/40 41/4/41 38/4/40
f 41/4/41 40/5/40 42/5/41
f 45/6/44 44/4/43 43/4/42
f 44/4/43 45/6/44 46/6/45
f 42/5/41 47/4/46 41/4/41
f 47/4/46 42/5/41 48/5/46
f 39/5/39 50/4/48 49/5/47
f 50/4/48 39/5/39 37/4/39
f 47/4/46 52/5/50 51/4/49
f 52/5/50 47/4/46 48/5/46
f 49/5/47 54/4/52 53/7/51
f 54/4/52 49/5/47 50/4/48
f 51/4/49 56/7/54 55/4/53
f 56/7/54 51/4/49 52/5/50
f 55/4/53 58/8/56 57/4/55
f 58/8/56 55/4/53 56/7/54
f 53/7/51 60/4/58 59/8/57
f 60/4/58 53/7/51 54/4/52
f 37/4/59 54/4/59 50/4/59
f 54/4/59 37/4/59 60/4/59
f 60/4/59 37/4/59 38/4/59
f 60/4/59 38/4/59 44/4/59
f 44/4/59 38/4/59 41/4/59
f 44/4/59 41/4/59 43/4/59
f 43/4/59 41/4/59 47/4/59
f 43/4/59 47/4/59 57/4/59
f 57/4/59 47/4/59 51/4/59
f 57/4/59 51/4/59 55/4/59
f 58/8/56 43/4/42 57/4/55
f 43/4/42 58/8/56 45/6/44
f 44/4/43 59/8/57 60/4/58
f 59/8/57 44/4/43 46/6/45

g block-grass-large-slope-narrow




usemtl colormap

f 3/1/1 2/1/1 1/1/1
f 2/1/1 3/1/1 4/1/1
f 2/1/1 4/1/1 5/1/1
f 5/1/1 4/1/1 6/1/1
f 5/1/1 6/1/1 7/1/1
f 7/1/1 6/1/1 8/1/1
f 7/1/1 8/1/1 9/1/1
f 9/1/1 8/1/1 10/1/1
f 9/1/1 10/1/1 11/1/1
f 11/1/1 10/1/1 12/1/1
f 15/2/4 14/3/3 13/2/2
f 14/3/3 15/2/4 16/3/5
f 19/2/8 18/3/7 17/3/6
f 18/3/7 19/2/8 20/2/9
f 23/3/12 22/2/11 21/2/10
f 22/2/11 23/3/12 24/3/13
f 27/2/16 26/3/15 25/3/14
f 26/3/15 27/2/16 28/2/17
f 20/2/9 29/3/18 18/3/7
f 29/3/18 20/2/9 30/2/19
f 24/3/13 31/2/20 22/2/11
f 31/2/20 24/3/13 32/3/21
f 35/2/24 34/3/23 33/3/22
f 34/3/23 35/2/24 36/2/25
f 28/2/17 33/3/22 26/3/15
f 33/3/22 28/2/17 35/2/24
f 23/3/12 19/2/8 17/3/6
f 19/2/8 23/3/12 21/2/10
f 34/3/23 31/2/20 32/3/21
f 31/2/20 34/3/23 36/2/25
f 13/2/2 29/3/18 30/2/19
f 29/3/18 13/2/2 14/3/3
f 15/2/4 25/3/14 16/3/5
f 25/3/14 15/2/4 27/2/16
f 31/2/20 12/1/26 22/2/11
f 12/1/26 31/2/20 11/1/27
f 31/2/20 9/1/28 11/1/27
f 9/1/28 31/2/20 36/2/25
f 35/2/24 9/1/28 36/2/25
f 9/1/28 35/2/24 7/1/29
f 5/1/30 35/2/24 28/2/17
f 35/2/24 5/1/30 7/1/29
f 3/1/31 15/2/4 13/2/2
f 15/2/4 3/1/31 1/1/32
f 20/2/9 4/1/33 30/2/19
f 4/1/33 20/2/9 6/1/34
f 8/1/35 20/2/9 19/2/8
f 20/2/9 8/1/35 6/1/34
f 4/1/33 13/2/2 30/2/19
f 13/2/2 4/1/33 3/1/31
f 21/2/10 8/1/35 19/2/8
f 8/1/35 21/2/10 10/1/36
f 22/2/11 10/1/36 21/2/10
f 10/1/36 22/2/11 12/1/26
f 2/1/37 28/2/17 27/2/16
f 28/2/17 2/1/37 5/1/30
f 2/1/37 15/2/4 1/1/32
f 15/2/4 2/1/37 27/2/16
f 25/3/38 14/3/38 16/3/38
f 14/3/38 25/3/38 29/3/38
f 29/3/38 25/3/38 26/3/38
f 29/3/38 26/3/38 18/3/38
f 18/3/38 26/3/38 33/3/38
f 18/3/38 33/3/38 17/3/38
f 17/3/38 33/3/38 34/3/38
f 17/3/38 34/3/38 23/3/38
f 23/3/38 34/3/38 32/3/38
f 23/3/38 32/3/38 24/3/38
f 39/5/39 38/4/40 37/4/39
f 38/4/40 39/5/39 40/5/40
f 40/5/40 41/4/41 38/4/40
f 41/4/41 40/5/40 42/5/41
f 45/6/44 44/4/43 43/4/42
f 44/4/43 45/6/44 46/6/45
f 42/5/41 47/4/46 41/4/41
f 47/4/46 42/5/41 48/5/46
f 39/5/39 50/4/48 49/5/47
f 50/4/48 39/5/39 37/4/39
f 47/4/46 52/5/50 51/4/49
f 52/5/50 47/4/46 48/5/46
f 49/5/47 54/4/52 53/7/51
f 54/4/52 49/5/47 50/4/48
f 51/4/49 56/7/54 55/4/53
f 56/7/54 51/4/49 52/5/50
f 55/4/53 58/8/56 57/4/55
f 58/8/56 55/4/53 56/7/54
f 53/7/51 60/4/58 59/8/57
f 60/4/58 53/7/51 54/4/52
f 37/4/59 54/4/59 50/4/59
f 54/4/59 37/4/59 60/4/59
f 60/4/59 37/4/59 38/4/59
f 60/4/59 38/4/59 44/4/59
f 44/4/59 38/4/59 41/4/59
f 44/4/59 41/4/59 43/4/59
f 43/4/59 41/4/59 47/4/59
f 43/4/59 47/4/59 57/4/59
f 57/4/59 47/4/59 51/4/59
f 57/4/59 51/4/59 55/4/59
f 58/8/56 43/4/42 57/4/55
f 43/4/42 58/8/56 45/6/44
f 44/4/43 59/8/57 60/4/58
f 59/8/57 44/4/43 46/6/45

