# Created by Kenney (www.kenney.nl)

mtllib block-snow-curve-low.mtl

g block-snow-curve-low

v -0.7242293 4.286349E-16 0.4 1 1 1
v -0.7242293 4.286349E-16 0.5 1 1 1
v -0.671919 0.05510199 0.4 1 1 1
v -0.671919 0.05510199 0.5 1 1 1
v -0.46897 0.1879401 0.5 1 1 1
v -0.46897 0.1879401 0.4 1 1 1
v 5.775291E-15 0.2986489 -0.4 1 1 1
v 5.775291E-15 0.2986489 -0.5 1 1 1
v -0.2409301 0.2705965 -0.4 1 1 1
v -0.2409301 0.2705965 -0.5 1 1 1
v -0.435698 0.2 -0.4 1 1 1
v -0.435698 0.2 -0.5 1 1 1
v -0.46897 0.1879401 -0.4 1 1 1
v -0.46897 0.1879401 -0.5 1 1 1
v -0.2409301 0.2705965 0.5 1 1 1
v -0.2409301 0.2705965 0.4 1 1 1
v -0.435698 0.2 0.5 1 1 1
v -0.435698 0.2 0.4 1 1 1
v -0.671919 0.05510199 -0.5 1 1 1
v -0.7242293 4.286349E-16 -0.5 1 1 1
v -0.671919 0.05510199 -0.4 1 1 1
v -0.7242293 4.286349E-16 -0.4 1 1 1
v 0.8621146 4.060752E-16 0.5 1 1 1
v 0.7242293 4.060752E-16 0.5 1 1 1
v 0.7364267 0.1323958 0.5 1 1 1
v 0.671919 0.05510199 0.5 1 1 1
v 0.46897 0.1879401 0.5 1 1 1
v 0.5139935 0.277987 0.5 1 1 1
v 0.435698 0.2 0.5 1 1 1
v 0.2409301 0.2705965 0.5 1 1 1
v 0 0.2986489 0.5 1 1 1
v 0.2640606 0.3685789 0.5 1 1 1
v -0.2640606 0.3685789 0.5 1 1 1
v 0 0.3993244 0.5 1 1 1
v -0.5139935 0.277987 0.5 1 1 1
v -0.7364267 0.1323958 0.5 1 1 1
v -0.8621146 4.060752E-16 0.5 1 1 1
v 0.2409301 0.2705965 -0.4 1 1 1
v 0.2409301 0.2705965 -0.5 1 1 1
v 0.46897 0.1879401 -0.4 1 1 1
v 0.46897 0.1879401 -0.5 1 1 1
v 0.435698 0.2 -0.4 1 1 1
v 0.435698 0.2 -0.5 1 1 1
v 0.671919 0.05510199 -0.4 1 1 1
v 0.671919 0.05510199 -0.5 1 1 1
v 0.7242293 4.060752E-16 -0.5 1 1 1
v 0.7242293 4.060752E-16 -0.4 1 1 1
v 0.46897 0.1879401 0.4 1 1 1
v 0.435698 0.2 0.4 1 1 1
v 0.2409301 0.2705965 0.4 1 1 1
v 0.671919 0.05510199 0.4 1 1 1
v 0.7242293 4.060752E-16 0.4 1 1 1
v 0 0.2986489 0.4 1 1 1
v 0.8009343 0.2096897 -0.4 1 1 1
v 0.8009343 0.2096897 0.4 1 1 1
v 0.559017 0.368034 -0.4 1 1 1
v 0.559017 0.368034 0.4 1 1 1
v 0.2871912 0.4665613 -0.4 1 1 1
v 0.2871912 0.4665613 0.4 1 1 1
v 2.887646E-15 0.5 -0.4 1 1 1
v 0 0.5 0.4 1 1 1
v 1 0 -0.4 1 1 1
v 1 4.511946E-17 0.4 1 1 1
v -1 2.932765E-16 -0.4 1 1 1
v -0.8009343 0.2096897 -0.4 1 1 1
v -1 4.737544E-16 0.4 1 1 1
v -0.8009343 0.2096897 0.4 1 1 1
v -0.8621146 4.060752E-16 -0.5 1 1 1
v -0.7364267 0.1323958 -0.5 1 1 1
v -0.5139935 0.277987 -0.5 1 1 1
v -0.2640606 0.3685789 -0.5 1 1 1
v 0.2640606 0.3685789 -0.5 1 1 1
v 2.887646E-15 0.3993244 -0.5 1 1 1
v 0.5139935 0.277987 -0.5 1 1 1
v 0.7364267 0.1323958 -0.5 1 1 1
v 0.8621146 4.060752E-16 -0.5 1 1 1
v -0.2871912 0.4665613 -0.4 1 1 1
v -0.2871912 0.4665613 0.4 1 1 1
v -0.559017 0.368034 -0.4 1 1 1
v -0.559017 0.368034 0.4 1 1 1
v 0.7242293 0 0.4 1 1 1
v -0.7242293 5.639933E-18 0.4 1 1 1
v 1.443823E-15 0.2986489 0.4 1 1 1
v 0.7242293 0 -0.4 1 1 1
v -0.7242293 5.639933E-18 -0.4 1 1 1

vn 0.7252402 -0.6884958 0
vn 0.6407474 -0.7677518 0
vn 0.4472136 -0.8944272 0
vn 0 -1 0
vn 0.2297529 -0.973249 0
vn 0.3407699 -0.9401467 0
vn 0 0 1
vn -0.2297529 -0.973249 0
vn -0.4472136 -0.8944272 0
vn -0.3407699 -0.9401467 0
vn -0.6407474 -0.7677518 0
vn -0.7252402 -0.6884958 0
vn 0.5941055 0.7118648 -0.3745492
vn 0.5941055 0.7118648 0.3745492
vn 0.4146596 0.8293192 -0.3745492
vn 0.4146596 0.8293192 0.3745492
vn 0.2130285 0.9024034 -0.3745492
vn 0.2130285 0.9024034 0.3745492
vn 0 0.9272071 -0.3745492
vn 0 0.9272071 0.3745492
vn 0.6934933 0.6583573 -0.2926306
vn 0.6934933 0.6583573 0.2926306
vn -0.6934933 0.6583573 -0.2926306
vn -0.5941055 0.7118648 -0.3745492
vn -0.6934933 0.6583573 0.2926306
vn -0.5941055 0.7118648 0.3745492
vn 0 0 -1
vn -0.2130285 0.9024034 -0.3745492
vn -0.2130285 0.9024034 0.3745492
vn -0.4146596 0.8293192 -0.3745492
vn -0.4146596 0.8293192 0.3745492
vn 0.5128223 0.4868401 0.7071068
vn 0.4515491 0.5410518 0.7094832
vn 0.3151614 0.6303229 0.7094832
vn 0.161912 0.6858703 0.7094831
vn 0 0.7047223 0.7094832
vn -0.3151614 0.6303229 -0.7094832
vn -0.161912 0.6858703 -0.7094831
vn -0.5128223 0.4868401 0.7071068
vn -0.4515491 0.5410518 0.7094832
vn -0.161912 0.6858703 0.7094831
vn 0.161912 0.6858703 -0.7094831
vn 0 0.7047223 -0.7094832
vn 0.5128223 0.4868401 -0.7071068
vn 0.4515491 0.5410518 -0.7094832
vn -0.4515491 0.5410518 -0.7094832
vn -0.3151614 0.6303229 0.7094832
vn 0.3151614 0.6303229 -0.7094832
vn -0.5128223 0.4868401 -0.7071068

vt 0.59375 0.025
vt 0.59375 0.0470408
vt 0.59375 0.100176
vt 0.59375 0.1444595
vt 0.59375 0.1332386
vt 0.59375 0.105
vt 0.59375 0.07795833
vt 0.59375 0.1361948
vt 0.59375 0.1724315
vt 0.59375 0.1847298
vt 0.59375 0.1088759
vt 0.59375 0.1722136
vt 0.59375 0.2116245
vt 0.59375 0.225
vt 0.71875 0.025
vt 0.71875 0.225
vt 0.71875 0.1880991
vt 0.71875 0.09913977
vt 0.71875 0.09106345
vt 0.71875 0.04378621

usemtl colormap

f 3/2/2 2/1/1 1/1/1
f 2/1/1 3/2/2 4/2/2
f 4/2/2 6/3/3 5/3/3
f 6/3/3 4/2/2 3/2/2
f 9/5/5 8/4/4 7/4/4
f 8/4/4 9/5/5 10/5/5
f 11/6/6 10/5/5 9/5/5
f 10/5/5 11/6/6 12/6/6
f 12/6/6 11/6/6 13/3/3
f 12/6/6 13/3/3 14/3/3
f 17/6/6 16/5/5 15/5/5
f 16/5/5 17/6/6 18/6/6
f 18/6/6 17/6/6 5/3/3
f 18/6/6 5/3/3 6/3/3
f 21/2/2 20/1/1 19/2/2
f 20/1/1 21/2/2 22/1/1
f 25/7/7 24/1/7 23/1/7
f 24/1/7 25/7/7 26/2/7
f 26/2/7 25/7/7 27/3/7
f 27/3/7 25/7/7 28/8/7
f 27/3/7 28/8/7 29/6/7
f 29/6/7 28/8/7 30/5/7
f 30/5/7 28/8/7 31/4/7
f 31/4/7 28/8/7 32/9/7
f 33/9/7 31/4/7 32/9/7
f 33/9/7 32/9/7 34/10/7
f 35/8/7 31/4/7 33/9/7
f 35/8/7 15/5/7 31/4/7
f 35/8/7 17/6/7 15/5/7
f 35/8/7 5/3/7 17/6/7
f 36/7/7 5/3/7 35/8/7
f 36/7/7 4/2/7 5/3/7
f 36/7/7 2/1/7 4/2/7
f 2/1/7 36/7/7 37/1/7
f 21/2/2 14/3/3 13/3/3
f 14/3/3 21/2/2 19/2/2
f 7/4/4 39/5/8 38/5/8
f 39/5/8 7/4/4 8/4/4
f 42/6/10 41/3/9 40/3/9
f 41/3/9 42/6/10 43/6/10
f 43/6/10 42/6/10 38/5/8
f 43/6/10 38/5/8 39/5/8
f 40/3/9 45/2/11 44/2/11
f 45/2/11 40/3/9 41/3/9
f 47/1/12 45/2/11 46/1/12
f 45/2/11 47/1/12 44/2/11
f 29/6/10 48/3/9 27/3/9
f 48/3/9 29/6/10 49/6/10
f 49/6/10 29/6/10 30/5/8
f 49/6/10 30/5/8 50/5/8
f 27/3/9 51/2/11 26/2/11
f 51/2/11 27/3/9 48/3/9
f 24/1/12 51/2/11 52/1/12
f 51/2/11 24/1/12 26/2/11
f 31/4/4 50/5/8 30/5/8
f 50/5/8 31/4/4 53/4/4
f 15/5/5 53/4/4 31/4/4
f 53/4/4 15/5/5 16/5/5
f 56/12/15 55/11/14 54/11/13
f 55/11/14 56/12/15 57/12/16
f 60/14/19 59/13/18 58/13/17
f 59/13/18 60/14/19 61/14/20
f 58/13/17 57/12/16 56/12/15
f 57/12/16 58/13/17 59/13/18
f 54/11/13 63/1/22 62/1/21
f 63/1/22 54/11/13 55/11/14
f 66/1/25 65/11/24 64/1/23
f 65/11/24 66/1/25 67/11/26
f 69/7/27 20/1/27 68/1/27
f 20/1/27 69/7/27 19/2/27
f 19/2/27 69/7/27 14/3/27
f 14/3/27 69/7/27 70/8/27
f 14/3/27 70/8/27 12/6/27
f 12/6/27 70/8/27 10/5/27
f 10/5/27 70/8/27 8/4/27
f 8/4/27 70/8/27 71/9/27
f 72/9/27 8/4/27 71/9/27
f 72/9/27 71/9/27 73/10/27
f 74/8/27 8/4/27 72/9/27
f 74/8/27 39/5/27 8/4/27
f 74/8/27 43/6/27 39/5/27
f 74/8/27 41/3/27 43/6/27
f 75/7/27 41/3/27 74/8/27
f 75/7/27 45/2/27 41/3/27
f 76/1/27 45/2/27 75/7/27
f 45/2/27 76/1/27 46/1/27
f 79/12/30 78/13/29 77/13/28
f 78/13/29 79/12/30 80/12/31
f 65/11/24 80/12/31 79/12/30
f 80/12/31 65/11/24 67/11/26
f 77/13/28 61/14/20 60/14/19
f 61/14/20 77/13/28 78/13/29
f 55/11/14 23/1/32 63/1/22
f 23/1/32 55/11/14 25/7/33
f 55/11/14 28/8/34 25/7/33
f 28/8/34 55/11/14 57/12/16
f 57/12/16 32/9/35 28/8/34
f 32/9/35 57/12/16 59/13/18
f 59/13/18 34/10/36 32/9/35
f 34/10/36 59/13/18 61/14/20
f 79/12/30 71/9/38 70/8/37
f 71/9/38 79/12/30 77/13/28
f 36/7/40 66/1/25 37/1/39
f 66/1/25 36/7/40 67/11/26
f 34/10/36 78/13/29 33/9/41
f 78/13/29 34/10/36 61/14/20
f 73/10/43 58/13/17 72/9/42
f 58/13/17 73/10/43 60/14/19
f 76/1/44 54/11/13 62/1/21
f 54/11/13 76/1/44 75/7/45
f 65/11/24 70/8/37 69/7/46
f 70/8/37 65/11/24 79/12/30
f 33/9/41 80/12/31 35/8/47
f 80/12/31 33/9/41 78/13/29
f 35/8/47 67/11/26 36/7/40
f 67/11/26 35/8/47 80/12/31
f 74/8/48 54/11/13 75/7/45
f 54/11/13 74/8/48 56/12/15
f 72/9/42 56/12/15 74/8/48
f 56/12/15 72/9/42 58/13/17
f 77/13/28 73/10/43 71/9/38
f 73/10/43 77/13/28 60/14/19
f 65/11/24 68/1/49 64/1/23
f 68/1/49 65/11/24 69/7/46
f 37/15/4 1/15/4 2/15/4
f 1/15/4 37/15/4 68/15/4
f 68/15/4 37/15/4 64/15/4
f 64/15/4 37/15/4 66/15/4
f 20/15/4 1/15/4 68/15/4
f 22/15/4 1/15/4 20/15/4
f 47/15/4 1/15/4 22/15/4
f 1/15/4 47/15/4 52/15/4
f 46/15/4 52/15/4 47/15/4
f 46/15/4 24/15/4 52/15/4
f 76/15/4 24/15/4 46/15/4
f 76/15/4 23/15/4 24/15/4
f 62/15/4 23/15/4 76/15/4
f 23/15/4 62/15/4 63/15/4
f 51/17/7 82/16/7 81/16/7
f 82/16/7 51/17/7 3/17/7
f 3/17/7 51/17/7 48/18/7
f 3/17/7 48/18/7 6/18/7
f 6/18/7 48/18/7 49/19/7
f 6/18/7 49/19/7 18/19/7
f 18/19/7 49/19/7 50/20/7
f 18/19/7 50/20/7 16/20/7
f 16/20/7 50/20/7 83/15/7
f 85/16/27 44/17/27 84/16/27
f 44/17/27 85/16/27 21/17/27
f 44/17/27 21/17/27 13/18/27
f 44/17/27 13/18/27 40/18/27
f 40/18/27 13/18/27 11/19/27
f 40/18/27 11/19/27 42/19/27
f 42/19/27 11/19/27 9/20/27
f 42/19/27 9/20/27 38/20/27
f 38/20/27 9/20/27 7/15/27

g block-snow-curve-low




usemtl colormap

f 3/2/2 2/1/1 1/1/1
f 2/1/1 3/2/2 4/2/2
f 4/2/2 6/3/3 5/3/3
f 6/3/3 4/2/2 3/2/2
f 9/5/5 8/4/4 7/4/4
f 8/4/4 9/5/5 10/5/5
f 11/6/6 10/5/5 9/5/5
f 10/5/5 11/6/6 12/6/6
f 12/6/6 11/6/6 13/3/3
f 12/6/6 13/3/3 14/3/3
f 17/6/6 16/5/5 15/5/5
f 16/5/5 17/6/6 18/6/6
f 18/6/6 17/6/6 5/3/3
f 18/6/6 5/3/3 6/3/3
f 21/2/2 20/1/1 19/2/2
f 20/1/1 21/2/2 22/1/1
f 25/7/7 24/1/7 23/1/7
f 24/1/7 25/7/7 26/2/7
f 26/2/7 25/7/7 27/3/7
f 27/3/7 25/7/7 28/8/7
f 27/3/7 28/8/7 29/6/7
f 29/6/7 28/8/7 30/5/7
f 30/5/7 28/8/7 31/4/7
f 31/4/7 28/8/7 32/9/7
f 33/9/7 31/4/7 32/9/7
f 33/9/7 32/9/7 34/10/7
f 35/8/7 31/4/7 33/9/7
f 35/8/7 15/5/7 31/4/7
f 35/8/7 17/6/7 15/5/7
f 35/8/7 5/3/7 17/6/7
f 36/7/7 5/3/7 35/8/7
f 36/7/7 4/2/7 5/3/7
f 36/7/7 2/1/7 4/2/7
f 2/1/7 36/7/7 37/1/7
f 21/2/2 14/3/3 13/3/3
f 14/3/3 21/2/2 19/2/2
f 7/4/4 39/5/8 38/5/8
f 39/5/8 7/4/4 8/4/4
f 42/6/10 41/3/9 40/3/9
f 41/3/9 42/6/10 43/6/10
f 43/6/10 42/6/10 38/5/8
f 43/6/10 38/5/8 39/5/8
f 40/3/9 45/2/11 44/2/11
f 45/2/11 40/3/9 41/3/9
f 47/1/12 45/2/11 46/1/12
f 45/2/11 47/1/12 44/2/11
f 29/6/10 48/3/9 27/3/9
f 48/3/9 29/6/10 49/6/10
f 49/6/10 29/6/10 30/5/8
f 49/6/10 30/5/8 50/5/8
f 27/3/9 51/2/11 26/2/11
f 51/2/11 27/3/9 48/3/9
f 24/1/12 51/2/11 52/1/12
f 51/2/11 24/1/12 26/2/11
f 31/4/4 50/5/8 30/5/8
f 50/5/8 31/4/4 53/4/4
f 15/5/5 53/4/4 31/4/4
f 53/4/4 15/5/5 16/5/5
f 56/12/15 55/11/14 54/11/13
f 55/11/14 56/12/15 57/12/16
f 60/14/19 59/13/18 58/13/17
f 59/13/18 60/14/19 61/14/20
f 58/13/17 57/12/16 56/12/15
f 57/12/16 58/13/17 59/13/18
f 54/11/13 63/1/22 62/1/21
f 63/1/22 54/11/13 55/11/14
f 66/1/25 65/11/24 64/1/23
f 65/11/24 66/1/25 67/11/26
f 69/7/27 20/1/27 68/1/27
f 20/1/27 69/7/27 19/2/27
f 19/2/27 69/7/27 14/3/27
f 14/3/27 69/7/27 70/8/27
f 14/3/27 70/8/27 12/6/27
f 12/6/27 70/8/27 10/5/27
f 10/5/27 70/8/27 8/4/27
f 8/4/27 70/8/27 71/9/27
f 72/9/27 8/4/27 71/9/27
f 72/9/27 71/9/27 73/10/27
f 74/8/27 8/4/27 72/9/27
f 74/8/27 39/5/27 8/4/27
f 74/8/27 43/6/27 39/5/27
f 74/8/27 41/3/27 43/6/27
f 75/7/27 41/3/27 74/8/27
f 75/7/27 45/2/27 41/3/27
f 76/1/27 45/2/27 75/7/27
f 45/2/27 76/1/27 46/1/27
f 79/12/30 78/13/29 77/13/28
f 78/13/29 79/12/30 80/12/31
f 65/11/24 80/12/31 79/12/30
f 80/12/31 65/11/24 67/11/26
f 77/13/28 61/14/20 60/14/19
f 61/14/20 77/13/28 78/13/29
f 55/11/14 23/1/32 63/1/22
f 23/1/32 55/11/14 25/7/33
f 55/11/14 28/8/34 25/7/33
f 28/8/34 55/11/14 57/12/16
f 57/12/16 32/9/35 28/8/34
f 32/9/35 57/12/16 59/13/18
f 59/13/18 34/10/36 32/9/35
f 34/10/36 59/13/18 61/14/20
f 79/12/30 71/9/38 70/8/37
f 71/9/38 79/12/30 77/13/28
f 36/7/40 66/1/25 37/1/39
f 66/1/25 36/7/40 67/11/26
f 34/10/36 78/13/29 33/9/41
f 78/13/29 34/10/36 61/14/20
f 73/10/43 58/13/17 72/9/42
f 58/13/17 73/10/43 60/14/19
f 76/1/44 54/11/13 62/1/21
f 54/11/13 76/1/44 75/7/45
f 65/11/24 70/8/37 69/7/46
f 70/8/37 65/11/24 79/12/30
f 33/9/41 80/12/31 35/8/47
f 80/12/31 33/9/41 78/13/29
f 35/8/47 67/11/26 36/7/40
f 67/11/26 35/8/47 80/12/31
f 74/8/48 54/11/13 75/7/45
f 54/11/13 74/8/48 56/12/15
f 72/9/42 56/12/15 74/8/48
f 56/12/15 72/9/42 58/13/17
f 77/13/28 73/10/43 71/9/38
f 73/10/43 77/13/28 60/14/19
f 65/11/24 68/1/49 64/1/23
f 68/1/49 65/11/24 69/7/46
f 37/15/4 1/15/4 2/15/4
f 1/15/4 37/15/4 68/15/4
f 68/15/4 37/15/4 64/15/4
f 64/15/4 37/15/4 66/15/4
f 20/15/4 1/15/4 68/15/4
f 22/15/4 1/15/4 20/15/4
f 47/15/4 1/15/4 22/15/4
f 1/15/4 47/15/4 52/15/4
f 46/15/4 52/15/4 47/15/4
f 46/15/4 24/15/4 52/15/4
f 76/15/4 24/15/4 46/15/4
f 76/15/4 23/15/4 24/15/4
f 62/15/4 23/15/4 76/15/4
f 23/15/4 62/15/4 63/15/4
f 51/17/7 82/16/7 81/16/7
f 82/16/7 51/17/7 3/17/7
f 3/17/7 51/17/7 48/18/7
f 3/17/7 48/18/7 6/18/7
f 6/18/7 48/18/7 49/19/7
f 6/18/7 49/19/7 18/19/7
f 18/19/7 49/19/7 50/20/7
f 18/19/7 50/20/7 16/20/7
f 16/20/7 50/20/7 83/15/7
f 85/16/27 44/17/27 84/16/27
f 44/17/27 85/16/27 21/17/27
f 44/17/27 21/17/27 13/18/27
f 44/17/27 13/18/27 40/18/27
f 40/18/27 13/18/27 11/19/27
f 40/18/27 11/19/27 42/19/27
f 42/19/27 11/19/27 9/20/27
f 42/19/27 9/20/27 38/20/27
f 38/20/27 9/20/27 7/15/27

