# Created by Kenney (www.kenney.nl)

mtllib block-grass-overhang-low-long.mtl

g block-grass-overhang-low-long

v 1 0.5 -0.22625 1 1 1
v 1 0.5 0.22625 1 1 1
v 0.9198205 0.5 -0.4198205 1 1 1
v 0.9198205 0.5 0.4198205 1 1 1
v 0.7262501 0.5 0.5000001 1 1 1
v 0.7262501 0.5 -0.5000001 1 1 1
v -0.7262501 0.5 -0.5000001 1 1 1
v -0.7262501 0.5 0.5000001 1 1 1
v -0.9198205 0.5 -0.4198205 1 1 1
v -0.9198205 0.5 0.4198205 1 1 1
v -1 0.5 0.22625 1 1 1
v -1 0.5 -0.22625 1 1 1
v 1.041062 0.375 -0.253625 1 1 1
v 1 0.25 -0.22625 1 1 1
v 1.041062 0.375 0.253625 1 1 1
v 1 0.25 0.22625 1 1 1
v -0.7262501 0.25 -0.5000001 1 1 1
v 0.7262501 0.25 -0.5000001 1 1 1
v -0.753625 0.375 -0.5410625 1 1 1
v 0.753625 0.375 -0.5410625 1 1 1
v -0.956874 0.375 -0.456874 1 1 1
v -1.041062 0.375 -0.253625 1 1 1
v -0.9198205 0.25 -0.4198205 1 1 1
v -1 0.25 -0.22625 1 1 1
v 0.9198205 0.25 0.4198205 1 1 1
v 0.7262501 0.25 0.5000001 1 1 1
v 0.956874 0.375 0.456874 1 1 1
v 0.753625 0.375 0.5410625 1 1 1
v 0.9198205 0.25 -0.4198205 1 1 1
v 0.956874 0.375 -0.456874 1 1 1
v -1.041062 0.375 0.253625 1 1 1
v -1 0.25 0.22625 1 1 1
v -0.7262501 0.25 0.5000001 1 1 1
v -0.9198205 0.25 0.4198205 1 1 1
v -0.753625 0.375 0.5410625 1 1 1
v -0.956874 0.375 0.456874 1 1 1
v 1.041062 0.375 0.253625 1 1 1
v 1.01829 0.1801452 0.3086026 1 1 1
v 0.956874 0.1002902 0.456874 1 1 1
v -3.293395E-09 0.1002902 0.5410625 1 1 1
v -0.1866161 0.1823882 0.5410625 1 1 1
v 0.1866161 0.1823882 0.5410625 1 1 1
v -0.2512083 0.375 0.5410625 1 1 1
v 0.2512083 0.375 0.5410625 1 1 1
v 0.6890328 0.1823882 0.5410625 1 1 1
v 0.3158005 0.1823882 0.5410625 1 1 1
v 0.5024167 0.1002902 0.5410625 1 1 1
v -0.6890328 0.1823882 0.5410625 1 1 1
v -0.3158005 0.1823882 0.5410625 1 1 1
v -0.5024167 0.1002902 0.5410625 1 1 1
v 0.8086026 0.1801452 0.5182902 1 1 1
v -1.041062 0.375 0.253625 1 1 1
v -1.01829 0.1801452 0.3086026 1 1 1
v -0.956874 0.1002902 0.456874 1 1 1
v -0.8086026 0.1801452 0.5182902 1 1 1
v 0.956874 0.1002902 -0.456874 1 1 1
v 0.8086026 0.1801452 -0.51829 1 1 1
v -0.5024167 0.1002902 -0.5410625 1 1 1
v -0.3158005 0.1823882 -0.5410625 1 1 1
v -0.6890328 0.1823882 -0.5410625 1 1 1
v -0.2512083 0.375 -0.5410625 1 1 1
v -0.1866161 0.1823882 -0.5410625 1 1 1
v 0.2512083 0.375 -0.5410625 1 1 1
v 0.1866161 0.1823882 -0.5410625 1 1 1
v -3.293398E-09 0.1002902 -0.5410625 1 1 1
v 0.6890328 0.1823882 -0.5410625 1 1 1
v 0.3158005 0.1823882 -0.5410625 1 1 1
v 0.5024167 0.1002902 -0.5410625 1 1 1
v 1.01829 0.1801452 -0.3086026 1 1 1
v -0.956874 0.1002902 -0.456874 1 1 1
v -0.8086026 0.1801452 -0.51829 1 1 1
v -1.01829 0.1801452 -0.3086026 1 1 1
v -1.041062 0.1823882 -0.1884114 1 1 1
v -1.041062 0.1002902 5.960464E-08 1 1 1
v -1.041062 0.1823882 0.1884115 1 1 1
v 1.041062 0.1823882 -0.1884114 1 1 1
v 1.041062 0.1002902 5.960464E-08 1 1 1
v 1.041062 0.1823882 0.1884115 1 1 1
v 0.7262501 5.398336E-32 -0.5000001 1 1 1
v 0.9198205 5.398336E-32 -0.4198205 1 1 1
v 0.7262501 0.25 -0.5000001 1 1 1
v 0.9198205 0.25 -0.4198205 1 1 1
v -0.9198205 5.398336E-32 -0.4198205 1 1 1
v -0.9198205 0.25 -0.4198205 1 1 1
v -1 5.398336E-32 -0.22625 1 1 1
v -1 0.25 -0.22625 1 1 1
v 0.9198205 0 0.4198205 1 1 1
v 0.7262501 0 0.5000001 1 1 1
v 0.9198205 0.25 0.4198205 1 1 1
v 0.7262501 0.25 0.5000001 1 1 1
v -0.7262501 0 0.5000001 1 1 1
v -0.7262501 0.25 0.5000001 1 1 1
v 1 0 0.22625 1 1 1
v 1 5.398336E-32 -0.22625 1 1 1
v -0.7262501 5.398336E-32 -0.5000001 1 1 1
v -0.9198205 0 0.4198205 1 1 1
v -1 0 0.22625 1 1 1
v -0.7262501 0.25 -0.5000001 1 1 1
v -0.9198205 0.25 0.4198205 1 1 1
v 1 0.25 0.22625 1 1 1
v -1 0.25 0.22625 1 1 1
v 1 0.25 -0.22625 1 1 1

vn 0 1 0
vn 0.9774452 0 -0.2111887
vn 0.9254633 -0.3404191 -0.16623
vn 0.9774452 0 0.2111887
vn 0.9254633 -0.3404191 0.16623
vn -0.16623 -0.3404191 -0.9254633
vn 0.16623 -0.3404191 -0.9254633
vn -0.2111887 0 -0.9774452
vn 0.2111887 0 -0.9774452
vn -0.7071068 0 -0.7071068
vn -0.9774452 0 -0.2111887
vn -0.652123 -0.3866153 -0.652123
vn -0.9254633 -0.3404191 -0.16623
vn 0.652123 -0.3866153 0.652123
vn 0.16623 -0.3404191 0.9254633
vn 0.7071068 0 0.7071068
vn 0.2111887 0 0.9774452
vn 0.652123 -0.3866153 -0.652123
vn 0.7071068 0 -0.7071068
vn -0.9774452 0 0.2111887
vn -0.9254633 -0.3404191 0.16623
vn -0.16623 -0.3404191 0.9254633
vn -0.652123 -0.3866153 0.652123
vn -0.2111887 0 0.9774452
vn -0.7071068 0 0.7071068
vn -0.9254633 0.3404191 -0.16623
vn -0.9254633 0.3404191 0.16623
vn -0.652123 0.3866153 0.652123
vn -0.16623 0.3404191 0.9254633
vn 0.16623 0.3404191 0.9254633
vn 0.9254633 0.3404191 -0.16623
vn 0.9254633 0.3404191 0.16623
vn 0.16623 0.3404191 -0.9254633
vn 0.652123 0.3866153 -0.652123
vn -0.16623 0.3404191 -0.9254633
vn -0.652123 0.3866153 -0.652123
vn 0.652123 0.3866153 0.652123
vn 0.9238795 0 0.3826834
vn 0 0 1
vn 0.3826834 0 0.9238795
vn -0.9238795 0 0.3826834
vn -0.3826834 0 0.9238795
vn 0.3826834 0 -0.9238795
vn 0 0 -1
vn 0.9238795 0 -0.3826834
vn -0.3826834 0 -0.9238795
vn -0.9238795 0 -0.3826834
vn -1 0 0
vn 1 0 0
vn 0.1950903 0 -0.9807853
vn -0.9807853 0 -0.1950903
vn 0.1950903 0 0.9807853
vn -0.1950903 0 0.9807853
vn 0 -1 0
vn -0.1950903 0 -0.9807853
vn 0.9807853 0 0.1950903
vn -0.9807853 0 0.1950903
vn 0.9807853 0 -0.1950903

vt 0.21875 0.475
vt 0.21875 0.375
vt 0.21875 0.275
vt 0.21875 0.3040689
vt 0.21875 0.3048853
vt 0.71875 0.225
vt 0.71875 0.025

usemtl colormap

f 3/1/1 2/1/1 1/1/1
f 2/1/1 3/1/1 4/1/1
f 4/1/1 3/1/1 5/1/1
f 5/1/1 3/1/1 6/1/1
f 5/1/1 6/1/1 7/1/1
f 5/1/1 7/1/1 8/1/1
f 8/1/1 7/1/1 9/1/1
f 8/1/1 9/1/1 10/1/1
f 10/1/1 9/1/1 11/1/1
f 11/1/1 9/1/1 12/1/1
f 15/2/4 14/3/3 13/2/2
f 14/3/3 15/2/4 16/3/5
f 19/2/8 18/3/7 17/3/6
f 18/3/7 19/2/8 20/2/9
f 23/3/12 22/2/11 21/2/10
f 22/2/11 23/3/12 24/3/13
f 27/2/16 26/3/15 25/3/14
f 26/3/15 27/2/16 28/2/17
f 20/2/9 29/3/18 18/3/7
f 29/3/18 20/2/9 30/2/19
f 24/3/13 31/2/20 22/2/11
f 31/2/20 24/3/13 32/3/21
f 35/2/24 34/3/23 33/3/22
f 34/3/23 35/2/24 36/2/25
f 26/3/15 35/2/24 33/3/22
f 35/2/24 26/3/15 28/2/17
f 21/2/10 17/3/6 23/3/12
f 17/3/6 21/2/10 19/2/8
f 34/3/23 31/2/20 32/3/21
f 31/2/20 34/3/23 36/2/25
f 13/2/2 29/3/18 30/2/19
f 29/3/18 13/2/2 14/3/3
f 15/2/4 25/3/14 16/3/5
f 25/3/14 15/2/4 27/2/16
f 31/2/20 12/1/26 22/2/11
f 12/1/26 31/2/20 11/1/27
f 31/2/20 10/1/28 11/1/27
f 10/1/28 31/2/20 36/2/25
f 8/1/29 36/2/25 35/2/24
f 36/2/25 8/1/29 10/1/28
f 28/2/17 8/1/29 35/2/24
f 8/1/29 28/2/17 5/1/30
f 1/1/31 15/2/4 13/2/2
f 15/2/4 1/1/31 2/1/32
f 6/1/33 30/2/19 20/2/9
f 30/2/19 6/1/33 3/1/34
f 7/1/35 20/2/9 19/2/8
f 20/2/9 7/1/35 6/1/33
f 3/1/34 13/2/2 30/2/19
f 13/2/2 3/1/34 1/1/31
f 9/1/36 19/2/8 21/2/10
f 19/2/8 9/1/36 7/1/35
f 22/2/11 9/1/36 21/2/10
f 9/1/36 22/2/11 12/1/26
f 4/1/37 28/2/17 27/2/16
f 28/2/17 4/1/37 5/1/30
f 4/1/37 15/2/4 2/1/32
f 15/2/4 4/1/37 27/2/16
f 27/2/16 38/4/38 37/2/38
f 38/4/38 27/2/16 39/3/16
f 42/5/39 41/5/39 40/3/39
f 41/5/39 42/5/39 43/2/39
f 43/2/39 42/5/39 44/2/39
f 44/2/39 45/5/39 28/2/39
f 46/5/39 45/5/39 44/2/39
f 45/5/39 46/5/39 47/3/39
f 48/5/39 43/2/39 35/2/39
f 48/5/39 49/5/39 43/2/39
f 49/5/39 48/5/39 50/3/39
f 27/2/16 51/4/40 39/3/16
f 51/4/40 27/2/16 28/2/40
f 53/4/41 36/2/25 52/2/41
f 36/2/25 53/4/41 54/3/25
f 55/4/42 36/2/25 54/3/25
f 36/2/25 55/4/42 35/2/42
f 57/4/43 30/2/19 56/3/19
f 30/2/19 57/4/43 20/2/43
f 60/5/44 59/5/44 58/3/44
f 59/5/44 60/5/44 61/2/44
f 61/2/44 60/5/44 19/2/44
f 63/2/44 62/5/44 61/2/44
f 64/5/44 62/5/44 63/2/44
f 62/5/44 64/5/44 65/3/44
f 66/5/44 63/2/44 20/2/44
f 66/5/44 67/5/44 63/2/44
f 67/5/44 66/5/44 68/3/44
f 13/2/45 56/3/19 30/2/19
f 56/3/19 13/2/45 69/4/45
f 21/2/10 71/4/46 70/3/10
f 71/4/46 21/2/10 19/2/46
f 70/3/10 22/2/47 21/2/10
f 22/2/47 70/3/10 72/4/47
f 73/5/48 52/2/48 22/2/48
f 52/2/48 73/5/48 74/3/48
f 52/2/48 74/3/48 75/5/48
f 37/2/49 76/5/49 13/2/49
f 76/5/49 37/2/49 77/3/49
f 77/3/49 37/2/49 78/5/49
f 81/7/50 80/6/19 79/6/50
f 80/6/19 81/7/50 82/7/19
f 85/6/51 84/7/10 83/6/10
f 84/7/10 85/6/51 86/7/51
f 89/7/16 88/6/52 87/6/16
f 88/6/52 89/7/16 90/7/52
f 88/6/52 92/7/53 91/6/53
f 92/7/53 88/6/52 90/7/52
f 87/6/54 94/6/54 93/6/54
f 94/6/54 87/6/54 80/6/54
f 80/6/54 87/6/54 88/6/54
f 80/6/54 88/6/54 79/6/54
f 79/6/54 88/6/54 91/6/54
f 79/6/54 91/6/54 95/6/54
f 95/6/54 91/6/54 96/6/54
f 95/6/54 96/6/54 83/6/54
f 83/6/54 96/6/54 97/6/54
f 83/6/54 97/6/54 85/6/54
f 98/7/55 79/6/50 95/6/55
f 79/6/50 98/7/55 81/7/50
f 92/7/53 96/6/25 91/6/53
f 96/6/25 92/7/53 99/7/25
f 89/7/16 93/6/56 100/7/56
f 93/6/56 89/7/16 87/6/16
f 97/6/57 86/7/51 85/6/51
f 86/7/51 97/6/57 101/7/57
f 96/6/25 101/7/57 97/6/57
f 101/7/57 96/6/25 99/7/25
f 100/7/56 94/6/58 102/7/58
f 94/6/58 100/7/56 93/6/56
f 84/7/10 95/6/55 83/6/10
f 95/6/55 84/7/10 98/7/55
f 102/7/58 80/6/19 82/7/19
f 80/6/19 102/7/58 94/6/58

g block-grass-overhang-low-long




usemtl colormap

f 3/1/1 2/1/1 1/1/1
f 2/1/1 3/1/1 4/1/1
f 4/1/1 3/1/1 5/1/1
f 5/1/1 3/1/1 6/1/1
f 5/1/1 6/1/1 7/1/1
f 5/1/1 7/1/1 8/1/1
f 8/1/1 7/1/1 9/1/1
f 8/1/1 9/1/1 10/1/1
f 10/1/1 9/1/1 11/1/1
f 11/1/1 9/1/1 12/1/1
f 15/2/4 14/3/3 13/2/2
f 14/3/3 15/2/4 16/3/5
f 19/2/8 18/3/7 17/3/6
f 18/3/7 19/2/8 20/2/9
f 23/3/12 22/2/11 21/2/10
f 22/2/11 23/3/12 24/3/13
f 27/2/16 26/3/15 25/3/14
f 26/3/15 27/2/16 28/2/17
f 20/2/9 29/3/18 18/3/7
f 29/3/18 20/2/9 30/2/19
f 24/3/13 31/2/20 22/2/11
f 31/2/20 24/3/13 32/3/21
f 35/2/24 34/3/23 33/3/22
f 34/3/23 35/2/24 36/2/25
f 26/3/15 35/2/24 33/3/22
f 35/2/24 26/3/15 28/2/17
f 21/2/10 17/3/6 23/3/12
f 17/3/6 21/2/10 19/2/8
f 34/3/23 31/2/20 32/3/21
f 31/2/20 34/3/23 36/2/25
f 13/2/2 29/3/18 30/2/19
f 29/3/18 13/2/2 14/3/3
f 15/2/4 25/3/14 16/3/5
f 25/3/14 15/2/4 27/2/16
f 31/2/20 12/1/26 22/2/11
f 12/1/26 31/2/20 11/1/27
f 31/2/20 10/1/28 11/1/27
f 10/1/28 31/2/20 36/2/25
f 8/1/29 36/2/25 35/2/24
f 36/2/25 8/1/29 10/1/28
f 28/2/17 8/1/29 35/2/24
f 8/1/29 28/2/17 5/1/30
f 1/1/31 15/2/4 13/2/2
f 15/2/4 1/1/31 2/1/32
f 6/1/33 30/2/19 20/2/9
f 30/2/19 6/1/33 3/1/34
f 7/1/35 20/2/9 19/2/8
f 20/2/9 7/1/35 6/1/33
f 3/1/34 13/2/2 30/2/19
f 13/2/2 3/1/34 1/1/31
f 9/1/36 19/2/8 21/2/10
f 19/2/8 9/1/36 7/1/35
f 22/2/11 9/1/36 21/2/10
f 9/1/36 22/2/11 12/1/26
f 4/1/37 28/2/17 27/2/16
f 28/2/17 4/1/37 5/1/30
f 4/1/37 15/2/4 2/1/32
f 15/2/4 4/1/37 27/2/16
f 27/2/16 38/4/38 37/2/38
f 38/4/38 27/2/16 39/3/16
f 42/5/39 41/5/39 40/3/39
f 41/5/39 42/5/39 43/2/39
f 43/2/39 42/5/39 44/2/39
f 44/2/39 45/5/39 28/2/39
f 46/5/39 45/5/39 44/2/39
f 45/5/39 46/5/39 47/3/39
f 48/5/39 43/2/39 35/2/39
f 48/5/39 49/5/39 43/2/39
f 49/5/39 48/5/39 50/3/39
f 27/2/16 51/4/40 39/3/16
f 51/4/40 27/2/16 28/2/40
f 53/4/41 36/2/25 52/2/41
f 36/2/25 53/4/41 54/3/25
f 55/4/42 36/2/25 54/3/25
f 36/2/25 55/4/42 35/2/42
f 57/4/43 30/2/19 56/3/19
f 30/2/19 57/4/43 20/2/43
f 60/5/44 59/5/44 58/3/44
f 59/5/44 60/5/44 61/2/44
f 61/2/44 60/5/44 19/2/44
f 63/2/44 62/5/44 61/2/44
f 64/5/44 62/5/44 63/2/44
f 62/5/44 64/5/44 65/3/44
f 66/5/44 63/2/44 20/2/44
f 66/5/44 67/5/44 63/2/44
f 67/5/44 66/5/44 68/3/44
f 13/2/45 56/3/19 30/2/19
f 56/3/19 13/2/45 69/4/45
f 21/2/10 71/4/46 70/3/10
f 71/4/46 21/2/10 19/2/46
f 70/3/10 22/2/47 21/2/10
f 22/2/47 70/3/10 72/4/47
f 73/5/48 52/2/48 22/2/48
f 52/2/48 73/5/48 74/3/48
f 52/2/48 74/3/48 75/5/48
f 37/2/49 76/5/49 13/2/49
f 76/5/49 37/2/49 77/3/49
f 77/3/49 37/2/49 78/5/49
f 81/7/50 80/6/19 79/6/50
f 80/6/19 81/7/50 82/7/19
f 85/6/51 84/7/10 83/6/10
f 84/7/10 85/6/51 86/7/51
f 89/7/16 88/6/52 87/6/16
f 88/6/52 89/7/16 90/7/52
f 88/6/52 92/7/53 91/6/53
f 92/7/53 88/6/52 90/7/52
f 87/6/54 94/6/54 93/6/54
f 94/6/54 87/6/54 80/6/54
f 80/6/54 87/6/54 88/6/54
f 80/6/54 88/6/54 79/6/54
f 79/6/54 88/6/54 91/6/54
f 79/6/54 91/6/54 95/6/54
f 95/6/54 91/6/54 96/6/54
f 95/6/54 96/6/54 83/6/54
f 83/6/54 96/6/54 97/6/54
f 83/6/54 97/6/54 85/6/54
f 98/7/55 79/6/50 95/6/55
f 79/6/50 98/7/55 81/7/50
f 92/7/53 96/6/25 91/6/53
f 96/6/25 92/7/53 99/7/25
f 89/7/16 93/6/56 100/7/56
f 93/6/56 89/7/16 87/6/16
f 97/6/57 86/7/51 85/6/51
f 86/7/51 97/6/57 101/7/57
f 96/6/25 101/7/57 97/6/57
f 101/7/57 96/6/25 99/7/25
f 100/7/56 94/6/58 102/7/58
f 94/6/58 100/7/56 93/6/56
f 84/7/10 95/6/55 83/6/10
f 95/6/55 84/7/10 98/7/55
f 102/7/58 80/6/19 82/7/19
f 80/6/19 102/7/58 94/6/58

