# Created by Kenney (www.kenney.nl)

mtllib block-snow-large-slope-steep.mtl

g block-snow-large-slope-steep

v 1 0.3201281 0.691451 1 1 1
v 0.9198205 0.2233429 0.8590878 1 1 1
v 1 1.046378 -0.566451 1 1 1
v 0.9198205 1.143163 -0.7340878 1 1 1
v 0.7262501 0.1832531 0.9285254 1 1 1
v 0.7262501 1.183253 -0.8035254 1 1 1
v -0.7262501 0.1832531 0.9285254 1 1 1
v -0.7262501 1.183253 -0.8035254 1 1 1
v -0.9198205 0.2233429 0.8590878 1 1 1
v -0.9198205 1.143163 -0.7340878 1 1 1
v -1 0.3201281 0.691451 1 1 1
v -1 1.046378 -0.566451 1 1 1
v 1.041062 0.9518125 -0.6526583 1 1 1
v 1 0.8298718 -0.691451 1 1 1
v 1.041062 0.1981875 0.6526583 1 1 1
v 1 0.1036218 0.566451 1 1 1
v -0.7262501 0.9667469 -0.9285254 1 1 1
v 0.7262501 0.9667469 -0.9285254 1 1 1
v -0.753625 1.095531 -0.9015864 1 1 1
v 0.753625 1.095531 -0.9015864 1 1 1
v -0.956874 1.053437 -0.8286771 1 1 1
v -1.041062 0.9518125 -0.6526583 1 1 1
v -0.9198205 0.9266571 -0.8590878 1 1 1
v -1 0.8298718 -0.691451 1 1 1
v 0.9198205 0.006836563 0.7340878 1 1 1
v 0.7262501 -0.03325325 0.8035254 1 1 1
v 0.956874 0.09656298 0.8286771 1 1 1
v 0.753625 0.05446875 0.9015864 1 1 1
v 0.9198205 0.9266571 -0.8590878 1 1 1
v 0.956874 1.053437 -0.8286771 1 1 1
v -1.041062 0.1981875 0.6526583 1 1 1
v -1 0.1036218 0.566451 1 1 1
v -0.7262501 -0.03325325 0.8035254 1 1 1
v -0.9198205 0.006836563 0.7340878 1 1 1
v -0.753625 0.05446875 0.9015864 1 1 1
v -0.956874 0.09656298 0.8286771 1 1 1
v -0.7262501 0 -0.9285254 1 1 1
v 0.7262501 0 -0.9285254 1 1 1
v -0.7262501 0.9667469 -0.9285254 1 1 1
v 0.7262501 0.9667469 -0.9285254 1 1 1
v -0.9198205 0 -0.8590879 1 1 1
v -0.9198205 0.9266571 -0.8590879 1 1 1
v -1 -1.790961E-16 -0.691451 1 1 1
v 0.9198205 0.9266571 -0.8590879 1 1 1
v 0.9198205 0 -0.8590879 1 1 1
v 1 -1.790961E-16 -0.691451 1 1 1
v 1 0.1036218 0.566451 1 1 1
v 1 -2.470291E-17 0.566451 1 1 1
v -1 -2.470291E-17 0.566451 1 1 1
v -1 0.1036218 0.566451 1 1 1
v 0.7262501 -2.470291E-17 0.7402009 1 1 1
v -0.7262501 -2.470291E-17 0.7402009 1 1 1
v 0.7262501 0.1036218 0.7402009 1 1 1
v -0.7262501 0.1036218 0.7402009 1 1 1
v -0.9198205 -2.470291E-17 0.6600214 1 1 1
v -0.9198205 0.1036218 0.6600214 1 1 1
v 0.9198205 -2.470291E-17 0.6600214 1 1 1
v 0.9198205 0.1036218 0.6600214 1 1 1

vn 0 0.8660253 0.5
vn 0.9774452 0.1055944 -0.1828948
vn 0.9254633 -0.2116966 -0.3141689
vn 0.9774452 -0.1055944 0.1828948
vn 0.9254633 -0.3779265 -0.02625018
vn -0.16623 0.1679201 -0.9716842
vn 0.16623 0.1679201 -0.9716842
vn -0.2111887 0.4887226 -0.8464924
vn 0.2111887 0.4887226 -0.8464924
vn -0.7071068 0.3535534 -0.6123724
vn -0.9774452 0.1055944 -0.1828948
vn -0.652123 -0.008757144 -0.7580627
vn -0.9254633 -0.2116966 -0.3141689
vn 0.652123 -0.6608801 0.3714474
vn 0.16623 -0.7575432 0.6312652
vn 0.7071068 -0.3535534 0.6123724
vn 0.2111887 -0.4887226 0.8464924
vn 0.652123 -0.008757144 -0.7580627
vn 0.7071068 0.3535534 -0.6123724
vn -0.9774452 -0.1055944 0.1828948
vn -0.9254633 -0.3779265 -0.02625018
vn -0.16623 -0.7575432 0.6312652
vn -0.652123 -0.6608801 0.3714474
vn -0.2111887 -0.4887226 0.8464924
vn -0.7071068 -0.3535534 0.6123724
vn -0.9254633 0.3779265 0.02625018
vn -0.9254633 0.2116966 0.3141689
vn -0.652123 0.008757144 0.7580627
vn -0.16623 -0.1679201 0.9716842
vn 0.16623 -0.1679201 0.9716842
vn 0.9254633 0.3779265 0.02625018
vn 0.9254633 0.2116966 0.3141689
vn 0.16623 0.7575432 -0.6312652
vn 0.652123 0.6608801 -0.3714474
vn -0.16623 0.7575432 -0.6312652
vn -0.652123 0.6608801 -0.3714474
vn 0.652123 0.008757144 0.7580627
vn 0 -0.8660253 -0.5
vn -0.1713608 0 -0.9852083
vn 0.1713608 0 -0.9852083
vn -0.1601632 0 -0.9870905
vn 0.1601632 0 -0.9870905
vn -0.6702482 0 -0.742137
vn -0.5955263 0 -0.8033358
vn -0.9752238 0 -0.2212204
vn -0.956386 0 -0.2921059
vn 0.5955263 0 -0.8033358
vn 0.6702482 0 -0.742137
vn 0.956386 0 -0.2921059
vn 0.9752238 0 -0.2212204
vn 0.9549056 0 0.2969095
vn 0.9379104 0 0.3468777
vn -0.9379104 0 0.3468777
vn -0.9549056 0 0.2969095
vn 0.1950903 0 0.9807853
vn -0.1950903 0 0.9807853
vn -0.5871291 0 0.8094933
vn 0.5871291 0 0.8094933
vn 0 -1 0

vt 0.59375 0.225
vt 0.59375 0.125
vt 0.59375 0.025
vt 0.71875 0.225
vt 0.71875 0.025
vt 0.71875 0.03329374
vt 0.71875 0.05331664
vt 0.71875 0.2035628

usemtl colormap

f 3/1/1 2/1/1 1/1/1
f 2/1/1 3/1/1 4/1/1
f 2/1/1 4/1/1 5/1/1
f 5/1/1 4/1/1 6/1/1
f 5/1/1 6/1/1 7/1/1
f 7/1/1 6/1/1 8/1/1
f 7/1/1 8/1/1 9/1/1
f 9/1/1 8/1/1 10/1/1
f 9/1/1 10/1/1 11/1/1
f 11/1/1 10/1/1 12/1/1
f 15/2/4 14/3/3 13/2/2
f 14/3/3 15/2/4 16/3/5
f 19/2/8 18/3/7 17/3/6
f 18/3/7 19/2/8 20/2/9
f 23/3/12 22/2/11 21/2/10
f 22/2/11 23/3/12 24/3/13
f 27/2/16 26/3/15 25/3/14
f 26/3/15 27/2/16 28/2/17
f 20/2/9 29/3/18 18/3/7
f 29/3/18 20/2/9 30/2/19
f 24/3/13 31/2/20 22/2/11
f 31/2/20 24/3/13 32/3/21
f 35/2/24 34/3/23 33/3/22
f 34/3/23 35/2/24 36/2/25
f 26/3/15 35/2/24 33/3/22
f 35/2/24 26/3/15 28/2/17
f 23/3/12 19/2/8 17/3/6
f 19/2/8 23/3/12 21/2/10
f 34/3/23 31/2/20 32/3/21
f 31/2/20 34/3/23 36/2/25
f 13/2/2 29/3/18 30/2/19
f 29/3/18 13/2/2 14/3/3
f 15/2/4 25/3/14 16/3/5
f 25/3/14 15/2/4 27/2/16
f 31/2/20 12/1/26 22/2/11
f 12/1/26 31/2/20 11/1/27
f 31/2/20 9/1/28 11/1/27
f 9/1/28 31/2/20 36/2/25
f 7/1/29 36/2/25 35/2/24
f 36/2/25 7/1/29 9/1/28
f 28/2/17 7/1/29 35/2/24
f 7/1/29 28/2/17 5/1/30
f 3/1/31 15/2/4 13/2/2
f 15/2/4 3/1/31 1/1/32
f 6/1/33 30/2/19 20/2/9
f 30/2/19 6/1/33 4/1/34
f 19/2/8 6/1/33 20/2/9
f 6/1/33 19/2/8 8/1/35
f 4/1/34 13/2/2 30/2/19
f 13/2/2 4/1/34 3/1/31
f 10/1/36 19/2/8 21/2/10
f 19/2/8 10/1/36 8/1/35
f 22/2/11 10/1/36 21/2/10
f 10/1/36 22/2/11 12/1/26
f 2/1/37 28/2/17 27/2/16
f 28/2/17 2/1/37 5/1/30
f 2/1/37 15/2/4 1/1/32
f 15/2/4 2/1/37 27/2/16
f 25/3/38 14/3/38 16/3/38
f 14/3/38 25/3/38 29/3/38
f 29/3/38 25/3/38 26/3/38
f 29/3/38 26/3/38 18/3/38
f 18/3/38 26/3/38 33/3/38
f 18/3/38 33/3/38 17/3/38
f 17/3/38 33/3/38 34/3/38
f 17/3/38 34/3/38 23/3/38
f 23/3/38 34/3/38 32/3/38
f 23/3/38 32/3/38 24/3/38
f 39/5/41 38/4/40 37/4/39
f 38/4/40 39/5/41 40/5/42
f 43/4/45 42/6/44 41/4/43
f 42/6/44 43/4/45 24/7/46
f 14/7/49 45/4/48 44/6/47
f 45/4/48 14/7/49 46/4/50
f 42/6/44 37/4/39 41/4/43
f 37/4/39 42/6/44 39/5/41
f 40/5/42 45/4/48 38/4/40
f 45/4/48 40/5/42 44/6/47
f 47/8/51 46/4/50 14/7/49
f 46/4/50 47/8/51 48/4/52
f 49/4/53 24/7/46 43/4/45
f 24/7/46 49/4/53 50/8/54
f 53/8/55 52/4/56 51/4/55
f 52/4/56 53/8/55 54/8/56
f 55/4/57 50/8/54 49/4/53
f 50/8/54 55/4/57 56/8/57
f 58/8/58 51/4/55 57/4/58
f 51/4/55 58/8/58 53/8/55
f 54/8/56 55/4/57 52/4/56
f 55/4/57 54/8/56 56/8/57
f 58/8/58 48/4/52 47/8/51
f 48/4/52 58/8/58 57/4/58
f 57/4/59 46/4/59 48/4/59
f 46/4/59 57/4/59 45/4/59
f 45/4/59 57/4/59 51/4/59
f 45/4/59 51/4/59 38/4/59
f 38/4/59 51/4/59 52/4/59
f 38/4/59 52/4/59 37/4/59
f 37/4/59 52/4/59 55/4/59
f 37/4/59 55/4/59 41/4/59
f 41/4/59 55/4/59 49/4/59
f 41/4/59 49/4/59 43/4/59

g block-snow-large-slope-steep




usemtl colormap

f 3/1/1 2/1/1 1/1/1
f 2/1/1 3/1/1 4/1/1
f 2/1/1 4/1/1 5/1/1
f 5/1/1 4/1/1 6/1/1
f 5/1/1 6/1/1 7/1/1
f 7/1/1 6/1/1 8/1/1
f 7/1/1 8/1/1 9/1/1
f 9/1/1 8/1/1 10/1/1
f 9/1/1 10/1/1 11/1/1
f 11/1/1 10/1/1 12/1/1
f 15/2/4 14/3/3 13/2/2
f 14/3/3 15/2/4 16/3/5
f 19/2/8 18/3/7 17/3/6
f 18/3/7 19/2/8 20/2/9
f 23/3/12 22/2/11 21/2/10
f 22/2/11 23/3/12 24/3/13
f 27/2/16 26/3/15 25/3/14
f 26/3/15 27/2/16 28/2/17
f 20/2/9 29/3/18 18/3/7
f 29/3/18 20/2/9 30/2/19
f 24/3/13 31/2/20 22/2/11
f 31/2/20 24/3/13 32/3/21
f 35/2/24 34/3/23 33/3/22
f 34/3/23 35/2/24 36/2/25
f 26/3/15 35/2/24 33/3/22
f 35/2/24 26/3/15 28/2/17
f 23/3/12 19/2/8 17/3/6
f 19/2/8 23/3/12 21/2/10
f 34/3/23 31/2/20 32/3/21
f 31/2/20 34/3/23 36/2/25
f 13/2/2 29/3/18 30/2/19
f 29/3/18 13/2/2 14/3/3
f 15/2/4 25/3/14 16/3/5
f 25/3/14 15/2/4 27/2/16
f 31/2/20 12/1/26 22/2/11
f 12/1/26 31/2/20 11/1/27
f 31/2/20 9/1/28 11/1/27
f 9/1/28 31/2/20 36/2/25
f 7/1/29 36/2/25 35/2/24
f 36/2/25 7/1/29 9/1/28
f 28/2/17 7/1/29 35/2/24
f 7/1/29 28/2/17 5/1/30
f 3/1/31 15/2/4 13/2/2
f 15/2/4 3/1/31 1/1/32
f 6/1/33 30/2/19 20/2/9
f 30/2/19 6/1/33 4/1/34
f 19/2/8 6/1/33 20/2/9
f 6/1/33 19/2/8 8/1/35
f 4/1/34 13/2/2 30/2/19
f 13/2/2 4/1/34 3/1/31
f 10/1/36 19/2/8 21/2/10
f 19/2/8 10/1/36 8/1/35
f 22/2/11 10/1/36 21/2/10
f 10/1/36 22/2/11 12/1/26
f 2/1/37 28/2/17 27/2/16
f 28/2/17 2/1/37 5/1/30
f 2/1/37 15/2/4 1/1/32
f 15/2/4 2/1/37 27/2/16
f 25/3/38 14/3/38 16/3/38
f 14/3/38 25/3/38 29/3/38
f 29/3/38 25/3/38 26/3/38
f 29/3/38 26/3/38 18/3/38
f 18/3/38 26/3/38 33/3/38
f 18/3/38 33/3/38 17/3/38
f 17/3/38 33/3/38 34/3/38
f 17/3/38 34/3/38 23/3/38
f 23/3/38 34/3/38 32/3/38
f 23/3/38 32/3/38 24/3/38
f 39/5/41 38/4/40 37/4/39
f 38/4/40 39/5/41 40/5/42
f 43/4/45 42/6/44 41/4/43
f 42/6/44 43/4/45 24/7/46
f 14/7/49 45/4/48 44/6/47
f 45/4/48 14/7/49 46/4/50
f 42/6/44 37/4/39 41/4/43
f 37/4/39 42/6/44 39/5/41
f 40/5/42 45/4/48 38/4/40
f 45/4/48 40/5/42 44/6/47
f 47/8/51 46/4/50 14/7/49
f 46/4/50 47/8/51 48/4/52
f 49/4/53 24/7/46 43/4/45
f 24/7/46 49/4/53 50/8/54
f 53/8/55 52/4/56 51/4/55
f 52/4/56 53/8/55 54/8/56
f 55/4/57 50/8/54 49/4/53
f 50/8/54 55/4/57 56/8/57
f 58/8/58 51/4/55 57/4/58
f 51/4/55 58/8/58 53/8/55
f 54/8/56 55/4/57 52/4/56
f 55/4/57 54/8/56 56/8/57
f 58/8/58 48/4/52 47/8/51
f 48/4/52 58/8/58 57/4/58
f 57/4/59 46/4/59 48/4/59
f 46/4/59 57/4/59 45/4/59
f 45/4/59 57/4/59 51/4/59
f 45/4/59 51/4/59 38/4/59
f 38/4/59 51/4/59 52/4/59
f 38/4/59 52/4/59 37/4/59
f 37/4/59 52/4/59 55/4/59
f 37/4/59 55/4/59 41/4/59
f 41/4/59 55/4/59 49/4/59
f 41/4/59 49/4/59 43/4/59

