# Created by Kenney (www.kenney.nl)

mtllib block-grass-curve-half.mtl

g block-grass-curve-half

v -1.732587E-14 0.8991371 0 1 1 1
v -1.732587E-14 0.7982742 0 1 1 1
v -1.732587E-14 1 0.1 1 1 1
v -1.732587E-14 0.7982742 0.1 1 1 1
v -1.732587E-14 1 0.9 1 1 1
v -2.021352E-14 0.7982742 0.9 1 1 1
v 0 0.7982742 1 1 1 1
v -1.732587E-14 0.8991371 1 1 1 1
v -0.6357859 0.6357859 1 1 1 1
v -0.7071068 0.7071068 0.9 1 1 1
v -0.4495685 0.7786756 1 1 1 1
v -0.5 0.8660254 0.9 1 1 1
v -0.4495685 0.7786756 0 1 1 1
v -0.2327138 0.8684998 0 1 1 1
v -0.5 0.8660254 0.1 1 1 1
v -0.258819 0.9659258 0.1 1 1 1
v -1 3.778599E-18 0.9 1 1 1
v -0.9659258 0.258819 0.9 1 1 1
v -0.8991371 2.105089E-17 1 1 1 1
v -0.8684998 0.2327138 1 1 1 1
v -1 3.778599E-18 0.1 1 1 1
v -0.9659258 0.258819 0.1 1 1 1
v -0.2066086 0.7710736 0.1 1 1 1
v -0.2066086 0.7710736 0 1 1 1
v -0.8684998 0.2327138 0 1 1 1
v -0.7786756 0.4495685 0 1 1 1
v -0.8660254 0.5 0.1 1 1 1
v -0.7786756 0.4495685 1 1 1 1
v -0.8660254 0.5 0.9 1 1 1
v -0.258819 0.9659258 0.9 1 1 1
v -0.5644651 0.5644651 0 1 1 1
v -0.6913257 0.3991371 0 1 1 1
v -0.5644651 0.5644651 0.1 1 1 1
v -0.6913257 0.3991371 0.1 1 1 1
v -0.7071068 0.7071068 0.1 1 1 1
v -0.6357859 0.6357859 0 1 1 1
v -0.2327138 0.8684998 1 1 1 1
v -0.8991371 0 0 1 1 1
v -0.7710736 0.2066086 0 1 1 1
v -0.7982742 1.945421E-17 0 1 1 1
v -0.7710736 0.2066086 0.1 1 1 1
v -0.7982742 1.945421E-17 0.1 1 1 1
v -0.3991371 0.6913257 0.1 1 1 1
v -0.3991371 0.6913257 0 1 1 1
v -0.2066086 0.7710736 1 1 1 1
v -0.2066086 0.7710736 0.9 1 1 1
v -0.3991371 0.6913257 1 1 1 1
v -0.3991371 0.6913257 0.9 1 1 1
v -0.7710736 0.2066086 0.9 1 1 1
v -0.7982742 1.259099E-17 0.9 1 1 1
v -0.7710736 0.2066086 1 1 1 1
v -0.7982742 1.490076E-09 1 1 1 1
v -0.5644651 0.5644651 0.9 1 1 1
v -0.6913257 0.3991371 0.9 1 1 1
v -0.5644651 0.5644651 1 1 1 1
v -0.6913257 0.3991371 1 1 1 1
v -2.165734E-14 1.725634E-17 0.1 1 1 1
v -2.165734E-14 3.679761E-10 0.9 1 1 1
v 0 0.7982742 0.09999999 1 1 1
v 0 1.725634E-17 0.09999999 1 1 1
v 0 0.7982742 0.9 1 1 1
v 0 3.679761E-10 0.9 1 1 1
v -0.7982742 1.945421E-17 0.09999999 1 1 1
v -0.7710736 0.2066086 0.09999999 1 1 1
v -0.6913257 0.3991371 0.09999999 1 1 1
v -0.564465 0.5644651 0.09999999 1 1 1
v -0.3991371 0.6913257 0.09999999 1 1 1
v -0.2066085 0.7710736 0.09999999 1 1 1
v -0.564465 0.5644651 0.9 1 1 1
v -0.2066085 0.7710736 0.9 1 1 1

vn 1 0 0
vn -0.4978474 0.4978474 0.7101379
vn -0.6558601 0.6558601 0.3737583
vn -0.3520313 0.6097361 0.7101379
vn -0.4637631 0.8032612 0.3737583
vn -0.3520313 0.6097361 -0.7101379
vn -0.1822248 0.6800722 -0.7101379
vn -0.4637631 0.8032612 -0.3737583
vn -0.2400614 0.8959214 -0.3737583
vn -0.9206873 0.1212108 0.3710025
vn -0.8959214 0.2400614 0.3737583
vn -0.7010574 0.09229595 0.7071068
vn -0.6800722 0.1822248 0.7101379
vn -0.9206873 0.1212108 -0.3710025
vn -0.8959214 0.2400614 -0.3737583
vn 0.1305262 -0.9914449 0
vn 0.258819 -0.9659258 0
vn -0.6800722 0.1822248 -0.7101379
vn -0.6097361 0.3520313 -0.7101379
vn -0.8032612 0.4637631 -0.3737583
vn -0.6097361 0.3520313 0.7101379
vn -0.8032612 0.4637631 0.3737583
vn -0.1212108 0.9206873 -0.3710025
vn -0.1212108 0.9206873 0.3710025
vn -0.2400614 0.8959214 0.3737583
vn 0.7071068 -0.7071068 0
vn 0.8660254 -0.5 0
vn -0.6558601 0.6558601 -0.3737583
vn -0.4978474 0.4978474 -0.7101379
vn -0.1822248 0.6800722 0.7101379
vn -0.09229595 0.7010574 0.7071068
vn -0.7010574 0.09229595 -0.7071068
vn 0.9659258 -0.258819 0
vn 0.9914449 -0.1305262 0
vn 0.5 -0.8660254 0
vn -0.09229595 0.7010574 -0.7071068
vn 0 0 -1
vn 0 0 1
vn 0 -1 0

vt 0.21875 0.4548274
vt 0.21875 0.4346548
vt 0.21875 0.475
vt 0.21875 0.4021572
vt 0.21875 0.4164214
vt 0.21875 0.4307351
vt 0.21875 0.4482051
vt 0.21875 0.4487
vt 0.21875 0.4681852
vt 0.21875 0.275
vt 0.21875 0.3267638
vt 0.21875 0.3215427
vt 0.21875 0.4292147
vt 0.21875 0.3649137
vt 0.21875 0.375
vt 0.21875 0.387893
vt 0.21875 0.3548274
vt 0.21875 0.3163217
vt 0.21875 0.4132652
vt 0.71875 0.025
vt 0.71875 0.225
vt 0.71875 0.1732362
vt 0.71875 0.125
vt 0.71875 0.08357863
vt 0.71875 0.05179491
vt 0.71875 0.03181484

usemtl colormap

f 3/3/1 2/2/1 1/1/1
f 2/2/1 3/3/1 4/2/1
f 4/2/1 3/3/1 5/3/1
f 4/2/1 5/3/1 6/2/1
f 6/2/1 5/3/1 7/2/1
f 7/2/1 5/3/1 8/1/1
f 11/6/4 10/5/3 9/4/2
f 10/5/3 11/6/4 12/7/5
f 15/7/8 14/8/7 13/6/6
f 14/8/7 15/7/8 16/9/9
f 19/10/12 18/11/11 17/10/10
f 18/11/11 19/10/12 20/12/13
f 17/10/10 22/11/15 21/10/14
f 22/11/15 17/10/10 18/11/11
f 23/13/17 2/2/16 4/2/16
f 2/2/16 23/13/17 24/13/17
f 22/11/15 26/14/19 25/12/18
f 26/14/19 22/11/15 27/15/20
f 9/4/2 29/15/22 28/14/21
f 29/15/22 9/4/2 10/5/3
f 16/9/9 5/3/24 3/3/23
f 5/3/24 16/9/9 30/9/25
f 33/16/26 32/17/27 31/16/26
f 32/17/27 33/16/26 34/17/27
f 35/5/28 12/7/5 15/7/8
f 12/7/5 35/5/28 10/5/3
f 27/15/20 36/4/29 26/14/19
f 36/4/29 27/15/20 35/5/28
f 18/11/11 27/15/20 22/11/15
f 27/15/20 18/11/11 29/15/22
f 28/14/21 18/11/11 20/12/13
f 18/11/11 28/14/21 29/15/22
f 15/7/8 30/9/25 16/9/9
f 30/9/25 15/7/8 12/7/5
f 35/5/28 13/6/6 36/4/29
f 13/6/6 35/5/28 15/7/8
f 29/15/22 35/5/28 27/15/20
f 35/5/28 29/15/22 10/5/3
f 37/8/30 12/7/5 11/6/4
f 12/7/5 37/8/30 30/9/25
f 8/1/31 30/9/25 37/8/30
f 30/9/25 8/1/31 5/3/24
f 21/10/14 25/12/18 38/10/32
f 25/12/18 21/10/14 22/11/15
f 41/18/33 40/10/34 39/18/33
f 40/10/34 41/18/33 42/10/34
f 34/17/27 39/18/33 32/17/27
f 39/18/33 34/17/27 41/18/33
f 33/16/26 44/19/35 43/19/35
f 44/19/35 33/16/26 31/16/26
f 43/19/35 24/13/17 23/13/17
f 24/13/17 43/19/35 44/19/35
f 47/19/35 46/13/17 45/13/17
f 46/13/17 47/19/35 48/19/35
f 51/18/33 50/10/34 49/18/33
f 50/10/34 51/18/33 52/10/34
f 16/9/9 1/1/36 14/8/7
f 1/1/36 16/9/9 3/3/23
f 55/16/26 54/17/27 53/16/26
f 54/17/27 55/16/26 56/17/27
f 45/13/17 6/2/16 7/2/16
f 6/2/16 45/13/17 46/13/17
f 56/17/27 49/18/33 54/17/27
f 49/18/33 56/17/27 51/18/33
f 55/16/26 48/19/35 47/19/35
f 48/19/35 55/16/26 53/16/26
f 25/12/37 40/10/37 38/10/37
f 40/10/37 25/12/37 39/18/37
f 39/18/37 25/12/37 32/17/37
f 32/17/37 25/12/37 26/14/37
f 32/17/37 26/14/37 31/16/37
f 31/16/37 26/14/37 36/4/37
f 31/16/37 36/4/37 44/19/37
f 44/19/37 36/4/37 13/6/37
f 44/19/37 13/6/37 24/13/37
f 24/13/37 13/6/37 2/2/37
f 2/2/37 13/6/37 14/8/37
f 2/2/37 14/8/37 1/1/37
f 52/10/38 20/12/38 19/10/38
f 20/12/38 52/10/38 51/18/38
f 20/12/38 51/18/38 56/17/38
f 20/12/38 56/17/38 28/14/38
f 28/14/38 56/17/38 55/16/38
f 28/14/38 55/16/38 9/4/38
f 9/4/38 55/16/38 47/19/38
f 9/4/38 47/19/38 11/6/38
f 11/6/38 47/19/38 45/13/38
f 11/6/38 45/13/38 7/2/38
f 11/6/38 7/2/38 37/8/38
f 37/8/38 7/2/38 8/1/38
f 19/20/39 50/20/39 52/20/39
f 50/20/39 19/20/39 42/20/39
f 57/20/39 50/20/39 42/20/39
f 50/20/39 57/20/39 58/20/39
f 42/20/39 19/20/39 40/20/39
f 40/20/39 19/20/39 38/20/39
f 38/20/39 19/20/39 17/20/39
f 38/20/39 17/20/39 21/20/39
f 61/20/1 60/21/1 59/20/1
f 60/21/1 61/20/1 62/21/1
f 63/21/37 59/20/37 60/21/37
f 59/20/37 63/21/37 64/22/37
f 59/20/37 64/22/37 65/23/37
f 59/20/37 65/23/37 66/24/37
f 59/20/37 66/24/37 67/25/37
f 59/20/37 67/25/37 68/26/37
f 62/21/38 49/22/38 50/21/38
f 49/22/38 62/21/38 61/20/38
f 49/22/38 61/20/38 54/23/38
f 54/23/38 61/20/38 69/24/38
f 69/24/38 61/20/38 48/25/38
f 48/25/38 61/20/38 70/26/38

g block-grass-curve-half




usemtl colormap

f 3/3/1 2/2/1 1/1/1
f 2/2/1 3/3/1 4/2/1
f 4/2/1 3/3/1 5/3/1
f 4/2/1 5/3/1 6/2/1
f 6/2/1 5/3/1 7/2/1
f 7/2/1 5/3/1 8/1/1
f 11/6/4 10/5/3 9/4/2
f 10/5/3 11/6/4 12/7/5
f 15/7/8 14/8/7 13/6/6
f 14/8/7 15/7/8 16/9/9
f 19/10/12 18/11/11 17/10/10
f 18/11/11 19/10/12 20/12/13
f 17/10/10 22/11/15 21/10/14
f 22/11/15 17/10/10 18/11/11
f 23/13/17 2/2/16 4/2/16
f 2/2/16 23/13/17 24/13/17
f 22/11/15 26/14/19 25/12/18
f 26/14/19 22/11/15 27/15/20
f 9/4/2 29/15/22 28/14/21
f 29/15/22 9/4/2 10/5/3
f 16/9/9 5/3/24 3/3/23
f 5/3/24 16/9/9 30/9/25
f 33/16/26 32/17/27 31/16/26
f 32/17/27 33/16/26 34/17/27
f 35/5/28 12/7/5 15/7/8
f 12/7/5 35/5/28 10/5/3
f 27/15/20 36/4/29 26/14/19
f 36/4/29 27/15/20 35/5/28
f 18/11/11 27/15/20 22/11/15
f 27/15/20 18/11/11 29/15/22
f 28/14/21 18/11/11 20/12/13
f 18/11/11 28/14/21 29/15/22
f 15/7/8 30/9/25 16/9/9
f 30/9/25 15/7/8 12/7/5
f 35/5/28 13/6/6 36/4/29
f 13/6/6 35/5/28 15/7/8
f 29/15/22 35/5/28 27/15/20
f 35/5/28 29/15/22 10/5/3
f 37/8/30 12/7/5 11/6/4
f 12/7/5 37/8/30 30/9/25
f 8/1/31 30/9/25 37/8/30
f 30/9/25 8/1/31 5/3/24
f 21/10/14 25/12/18 38/10/32
f 25/12/18 21/10/14 22/11/15
f 41/18/33 40/10/34 39/18/33
f 40/10/34 41/18/33 42/10/34
f 34/17/27 39/18/33 32/17/27
f 39/18/33 34/17/27 41/18/33
f 33/16/26 44/19/35 43/19/35
f 44/19/35 33/16/26 31/16/26
f 43/19/35 24/13/17 23/13/17
f 24/13/17 43/19/35 44/19/35
f 47/19/35 46/13/17 45/13/17
f 46/13/17 47/19/35 48/19/35
f 51/18/33 50/10/34 49/18/33
f 50/10/34 51/18/33 52/10/34
f 16/9/9 1/1/36 14/8/7
f 1/1/36 16/9/9 3/3/23
f 55/16/26 54/17/27 53/16/26
f 54/17/27 55/16/26 56/17/27
f 45/13/17 6/2/16 7/2/16
f 6/2/16 45/13/17 46/13/17
f 56/17/27 49/18/33 54/17/27
f 49/18/33 56/17/27 51/18/33
f 55/16/26 48/19/35 47/19/35
f 48/19/35 55/16/26 53/16/26
f 25/12/37 40/10/37 38/10/37
f 40/10/37 25/12/37 39/18/37
f 39/18/37 25/12/37 32/17/37
f 32/17/37 25/12/37 26/14/37
f 32/17/37 26/14/37 31/16/37
f 31/16/37 26/14/37 36/4/37
f 31/16/37 36/4/37 44/19/37
f 44/19/37 36/4/37 13/6/37
f 44/19/37 13/6/37 24/13/37
f 24/13/37 13/6/37 2/2/37
f 2/2/37 13/6/37 14/8/37
f 2/2/37 14/8/37 1/1/37
f 52/10/38 20/12/38 19/10/38
f 20/12/38 52/10/38 51/18/38
f 20/12/38 51/18/38 56/17/38
f 20/12/38 56/17/38 28/14/38
f 28/14/38 56/17/38 55/16/38
f 28/14/38 55/16/38 9/4/38
f 9/4/38 55/16/38 47/19/38
f 9/4/38 47/19/38 11/6/38
f 11/6/38 47/19/38 45/13/38
f 11/6/38 45/13/38 7/2/38
f 11/6/38 7/2/38 37/8/38
f 37/8/38 7/2/38 8/1/38
f 19/20/39 50/20/39 52/20/39
f 50/20/39 19/20/39 42/20/39
f 57/20/39 50/20/39 42/20/39
f 50/20/39 57/20/39 58/20/39
f 42/20/39 19/20/39 40/20/39
f 40/20/39 19/20/39 38/20/39
f 38/20/39 19/20/39 17/20/39
f 38/20/39 17/20/39 21/20/39
f 61/20/1 60/21/1 59/20/1
f 60/21/1 61/20/1 62/21/1
f 63/21/37 59/20/37 60/21/37
f 59/20/37 63/21/37 64/22/37
f 59/20/37 64/22/37 65/23/37
f 59/20/37 65/23/37 66/24/37
f 59/20/37 66/24/37 67/25/37
f 59/20/37 67/25/37 68/26/37
f 62/21/38 49/22/38 50/21/38
f 49/22/38 62/21/38 61/20/38
f 49/22/38 61/20/38 54/23/38
f 54/23/38 61/20/38 69/24/38
f 69/24/38 61/20/38 48/25/38
f 48/25/38 61/20/38 70/26/38

