# Created by Kenney (www.kenney.nl)

mtllib block-grass-overhang-large-slope-narrow.mtl

g block-grass-overhang-large-slope-narrow

v 0.5000001 0.3229609 0.7338561 1 1 1
v 0.4198205 0.2728612 0.9208308 1 1 1
v 0.5000001 0.6988956 -0.6691513 1 1 1
v 0.4198205 0.7489953 -0.856126 1 1 1
v 0.22625 0.2521092 0.9982783 1 1 1
v 0.22625 0.7697473 -0.9335735 1 1 1
v -0.22625 0.2521092 0.9982783 1 1 1
v -0.22625 0.7697473 -0.9335735 1 1 1
v -0.4198205 0.2728612 0.9208308 1 1 1
v -0.4198205 0.7489953 -0.856126 1 1 1
v -0.5000001 0.3229609 0.7338561 1 1 1
v -0.5000001 0.6988956 -0.6691513 1 1 1
v 0.5410625 0.58524 -0.7279459 1 1 1
v 0.5000001 0.4574142 -0.7338561 1 1 1
v 0.5410625 0.195135 0.7279459 1 1 1
v 0.5000001 0.08147945 0.6691513 1 1 1
v -0.22625 0.5282658 -0.9982783 1 1 1
v 0.22625 0.5282658 -0.9982783 1 1 1
v -0.253625 0.6596344 -1.005589 1 1 1
v 0.253625 0.6596344 -1.005589 1 1 1
v -0.456874 0.6378447 -0.9242693 1 1 1
v -0.5410625 0.58524 -0.7279459 1 1 1
v -0.4198205 0.5075139 -0.9208308 1 1 1
v -0.5000001 0.4574142 -0.7338561 1 1 1
v 0.4198205 0.03137973 0.856126 1 1 1
v 0.22625 0.01062775 0.9335735 1 1 1
v 0.456874 0.1425303 0.9242693 1 1 1
v 0.253625 0.1207407 1.005589 1 1 1
v 0.4198205 0.5075139 -0.9208308 1 1 1
v 0.456874 0.6378447 -0.9242693 1 1 1
v -0.5410625 0.195135 0.7279459 1 1 1
v -0.5000001 0.08147945 0.6691513 1 1 1
v -0.22625 0.01062775 0.9335735 1 1 1
v -0.4198205 0.03137973 0.856126 1 1 1
v -0.253625 0.1207407 1.005589 1 1 1
v -0.456874 0.1425303 0.9242693 1 1 1
v -0.2536252 0.1207407 1.005589 1 1 1
v -0.3086027 -0.06158063 0.9331605 1 1 1
v -0.4568741 0.1425303 0.9242692 1 1 1
v -0.4568741 -0.1228189 0.8531691 1 1 1
v -0.5410625 0.1248383 -0.07110024 1 1 1
v -0.5410625 0.2524386 -0.2301091 1 1 1
v -0.5410625 0.155839 0.1304056 1 1 1
v -0.5410625 0.455205 -0.2426488 1 1 1
v -0.5410625 0.32517 0.2426485 1 1 1
v -0.5410626 0.195135 0.7279458 1 1 1
v -0.5410626 0.02580397 0.6157029 1 1 1
v -0.5410625 0.1224036 0.2551882 1 1 1
v -0.5410626 -0.005196735 0.414197 1 1 1
v -0.5410624 0.58524 -0.727946 1 1 1
v -0.5410624 0.3824736 -0.7154063 1 1 1
v -0.5410625 0.2858739 -0.3548916 1 1 1
v -0.5410624 0.2548733 -0.5563975 1 1 1
v -0.5182903 -0.007309496 0.7306179 1 1 1
v -0.2536249 0.6596344 -1.005589 1 1 1
v -0.4568739 0.6378447 -0.9242694 1 1 1
v -0.3086025 0.4655251 -1.034025 1 1 1
v -0.4568739 0.3724955 -0.9953696 1 1 1
v -0.51829 0.411254 -0.8314824 1 1 1
v 0.4568739 -0.1228189 0.8531692 1 1 1
v 0.4568739 0.1425303 0.9242693 1 1 1
v 0.5182899 -0.007309496 0.730618 1 1 1
v 0.5410624 0.195135 0.7279459 1 1 1
v 0.5410625 0.2548733 -0.5563974 1 1 1
v 0.5410625 0.2858739 -0.3548915 1 1 1
v 0.5410626 0.3824736 -0.7154062 1 1 1
v 0.5410625 0.455205 -0.2426486 1 1 1
v 0.5410626 0.58524 -0.7279459 1 1 1
v 0.5410625 0.2524386 -0.230109 1 1 1
v 0.5410625 0.32517 0.2426486 1 1 1
v 0.5410625 0.155839 0.1304058 1 1 1
v 0.5410625 0.1248383 -0.07110012 1 1 1
v 0.5410624 0.02580397 0.615703 1 1 1
v 0.5410625 0.1224036 0.2551883 1 1 1
v 0.5410624 -0.005196735 0.4141971 1 1 1
v 0.2536249 0.1207407 1.005589 1 1 1
v 0.3086025 -0.06158063 0.9331607 1 1 1
v 0.4568741 0.3724955 -0.9953694 1 1 1
v 0.5182902 0.411254 -0.8314823 1 1 1
v 0.4568741 0.6378447 -0.9242693 1 1 1
v 0.2536251 0.6596344 -1.005589 1 1 1
v 0.3086027 0.4655251 -1.034025 1 1 1
v 0.1884116 0.4735856 -1.055441 1 1 1
v 5.960464E-08 0.3942851 -1.076689 1 1 1
v -0.1884114 0.4735856 -1.055441 1 1 1
v 0.1884113 -0.06530802 0.9557375 1 1 1
v -1.788139E-07 -0.1446085 0.9344889 1 1 1
v -0.1884116 -0.06530802 0.9557374 1 1 1
v 0.4198205 0.01062776 0.7627218 1 1 1
v 0.22625 0.01062776 0.8429013 1 1 1
v 0.4198205 0.08147947 0.7627218 1 1 1
v 0.22625 0.08147947 0.8429013 1 1 1
v -0.22625 0.01062776 0.8429013 1 1 1
v -0.22625 0.08147947 0.8429013 1 1 1
v -0.22625 0.01062776 -0.9982783 1 1 1
v 0.22625 0.01062776 -0.9982783 1 1 1
v -0.22625 0.5282659 -0.9982783 1 1 1
v 0.22625 0.5282659 -0.9982783 1 1 1
v -0.4198205 0.01062776 0.7627218 1 1 1
v -0.4198205 0.08147947 0.7627218 1 1 1
v 0.5000001 0.08147947 0.6691513 1 1 1
v 0.5000001 0.01062776 0.6691513 1 1 1
v -0.5000001 0.01062776 0.5691513 1 1 1
v -0.5000001 0.08147947 0.5691513 1 1 1
v 0.5000001 0.4574141 -0.733856 1 1 1
v 0.5000001 0.01062776 -0.733856 1 1 1
v -0.5000001 0.01062776 -0.7365881 1 1 1
v -0.5000001 0.4574141 -0.7365881 1 1 1
v -0.4198205 0.01062776 -0.9208307 1 1 1
v -0.4198205 0.5075139 -0.9208307 1 1 1
v 0.4198205 0.5075139 -0.9208307 1 1 1
v 0.4198205 0.01062776 -0.9208307 1 1 1

vn 0 0.9659259 0.258819
vn 0.9774452 0.05465967 -0.2039927
vn 0.9254633 -0.2857961 -0.2486728
vn 0.9774452 -0.05465967 0.2039927
vn 0.9254633 -0.3718431 0.07245888
vn -0.16623 -0.08929206 -0.9820359
vn 0.16623 -0.08929206 -0.9820359
vn -0.2111887 0.2529815 -0.9441397
vn 0.2111887 0.2529815 -0.9441397
vn -0.7071068 0.1830127 -0.6830127
vn -0.9774452 0.05465967 -0.2039927
vn -0.652123 -0.2046598 -0.7299659
vn -0.9254633 -0.2857961 -0.2486728
vn 0.652123 -0.5422236 0.5298391
vn 0.16623 -0.5683472 0.805822
vn 0.7071068 -0.1830127 0.6830127
vn 0.2111887 -0.2529815 0.9441397
vn 0.652123 -0.2046598 -0.7299659
vn 0.7071068 0.1830127 -0.6830127
vn -0.9774452 -0.05465967 0.2039927
vn -0.9254633 -0.3718431 0.07245888
vn -0.16623 -0.5683472 0.805822
vn -0.652123 -0.5422236 0.5298391
vn -0.2111887 -0.2529815 0.9441397
vn -0.7071068 -0.1830127 0.6830127
vn -0.9254633 0.3718431 -0.07245888
vn -0.9254633 0.2857961 0.2486728
vn -0.652123 0.2046598 0.7299659
vn -0.16623 0.08929206 0.9820359
vn 0.16623 0.08929206 0.9820359
vn 0.9254633 0.3718431 -0.07245888
vn 0.9254633 0.2857961 0.2486728
vn 0.652123 0.5422236 -0.5298391
vn 0.16623 0.5683472 -0.805822
vn -0.16623 0.5683472 -0.805822
vn -0.652123 0.5422236 -0.5298391
vn 0.652123 0.2046598 0.7299659
vn 0 -0.9659259 -0.258819
vn -0.3826835 -0.2391176 0.8923991
vn -0.7071068 -0.1830127 0.6830127
vn -1 0 -1.192093E-07
vn -0.9238796 -0.09904576 0.3696437
vn -0.3826833 0.2391176 -0.8923992
vn -0.7071067 0.1830127 -0.6830128
vn -0.9238794 0.09904576 -0.3696439
vn 0.7071067 -0.1830127 0.6830128
vn 0.9238794 -0.09904576 0.3696439
vn 1 0 1.192093E-07
vn 0.3826833 -0.2391176 0.8923992
vn 0.7071068 0.1830127 -0.6830127
vn 0.9238796 0.09904576 -0.3696437
vn 0.3826835 0.2391176 -0.8923991
vn 1.192093E-07 0.258819 -0.9659259
vn -1.192093E-07 -0.258819 0.9659259
vn 0.5871292 0 0.8094933
vn 0.1950903 0 0.9807853
vn -0.1950903 0 0.9807853
vn -0.1891497 0 -0.9819483
vn 0.1891497 0 -0.9819483
vn -0.1229975 0 -0.992407
vn 0.1229975 0 -0.992407
vn -0.7071068 0 0.7071068
vn 0.9688026 0 0.2478335
vn 0.9379104 0 0.3468776
vn -0.9807853 0 0.1950903
vn -0.9902617 0 0.139218
vn 0.9352413 0 -0.3540109
vn 0.9795561 0 -0.201171
vn -0.9790136 0 -0.2037948
vn -0.9325874 0 -0.3609442
vn -0.6964666 0 -0.7175891
vn -0.4588985 0 -0.8884888
vn 0.4602793 0 -0.8877742
vn 0.6983868 0 -0.7157205
vn 0 -1 0

vt 0.21875 0.475
vt 0.21875 0.375
vt 0.21875 0.275
vt 0.21875 0.3040689
vt 0.21875 0.3048853
vt 0.71875 0.225
vt 0.71875 0.197625
vt 0.71875 0.025
vt 0.71875 0.05237502
vt 0.71875 0.03301796

usemtl colormap

f 3/1/1 2/1/1 1/1/1
f 2/1/1 3/1/1 4/1/1
f 2/1/1 4/1/1 5/1/1
f 5/1/1 4/1/1 6/1/1
f 5/1/1 6/1/1 7/1/1
f 7/1/1 6/1/1 8/1/1
f 7/1/1 8/1/1 9/1/1
f 9/1/1 8/1/1 10/1/1
f 9/1/1 10/1/1 11/1/1
f 11/1/1 10/1/1 12/1/1
f 15/2/4 14/3/3 13/2/2
f 14/3/3 15/2/4 16/3/5
f 19/2/8 18/3/7 17/3/6
f 18/3/7 19/2/8 20/2/9
f 23/3/12 22/2/11 21/2/10
f 22/2/11 23/3/12 24/3/13
f 27/2/16 26/3/15 25/3/14
f 26/3/15 27/2/16 28/2/17
f 20/2/9 29/3/18 18/3/7
f 29/3/18 20/2/9 30/2/19
f 24/3/13 31/2/20 22/2/11
f 31/2/20 24/3/13 32/3/21
f 35/2/24 34/3/23 33/3/22
f 34/3/23 35/2/24 36/2/25
f 28/2/17 33/3/22 26/3/15
f 33/3/22 28/2/17 35/2/24
f 23/3/12 19/2/8 17/3/6
f 19/2/8 23/3/12 21/2/10
f 34/3/23 31/2/20 32/3/21
f 31/2/20 34/3/23 36/2/25
f 13/2/2 29/3/18 30/2/19
f 29/3/18 13/2/2 14/3/3
f 15/2/4 25/3/14 16/3/5
f 25/3/14 15/2/4 27/2/16
f 31/2/20 12/1/26 22/2/11
f 12/1/26 31/2/20 11/1/27
f 31/2/20 9/1/28 11/1/27
f 9/1/28 31/2/20 36/2/25
f 35/2/24 9/1/28 36/2/25
f 9/1/28 35/2/24 7/1/29
f 28/2/17 7/1/29 35/2/24
f 7/1/29 28/2/17 5/1/30
f 3/1/31 15/2/4 13/2/2
f 15/2/4 3/1/31 1/1/32
f 20/2/9 4/1/33 30/2/19
f 4/1/33 20/2/9 6/1/34
f 8/1/35 20/2/9 19/2/8
f 20/2/9 8/1/35 6/1/34
f 4/1/33 13/2/2 30/2/19
f 13/2/2 4/1/33 3/1/31
f 21/2/10 8/1/35 19/2/8
f 8/1/35 21/2/10 10/1/36
f 22/2/11 10/1/36 21/2/10
f 10/1/36 22/2/11 12/1/26
f 2/1/37 28/2/17 27/2/16
f 28/2/17 2/1/37 5/1/30
f 2/1/37 15/2/4 1/1/32
f 15/2/4 2/1/37 27/2/16
f 25/3/38 14/3/38 16/3/38
f 14/3/38 25/3/38 29/3/38
f 29/3/38 25/3/38 26/3/38
f 29/3/38 26/3/38 18/3/38
f 18/3/38 26/3/38 33/3/38
f 18/3/38 33/3/38 17/3/38
f 17/3/38 33/3/38 34/3/38
f 17/3/38 34/3/38 23/3/38
f 23/3/38 34/3/38 32/3/38
f 23/3/38 32/3/38 24/3/38
f 39/2/40 38/4/39 37/2/39
f 38/4/39 39/2/40 40/3/40
f 43/5/41 42/5/41 41/3/41
f 42/5/41 43/5/41 44/2/41
f 44/2/41 43/5/41 45/2/41
f 45/2/41 47/5/41 46/2/41
f 48/5/41 47/5/41 45/2/41
f 47/5/41 48/5/41 49/3/41
f 51/5/41 44/2/41 50/2/41
f 51/5/41 52/5/41 44/2/41
f 52/5/41 51/5/41 53/3/41
f 39/2/40 54/4/42 40/3/40
f 54/4/42 39/2/40 46/2/42
f 57/4/43 56/2/44 55/2/43
f 56/2/44 57/4/43 58/3/44
f 59/4/45 56/2/44 58/3/44
f 56/2/44 59/4/45 50/2/45
f 62/4/47 61/2/46 60/3/46
f 61/2/46 62/4/47 63/2/47
f 66/5/48 65/5/48 64/3/48
f 65/5/48 66/5/48 67/2/48
f 67/2/48 66/5/48 68/2/48
f 70/2/48 69/5/48 67/2/48
f 71/5/48 69/5/48 70/2/48
f 69/5/48 71/5/48 72/3/48
f 73/5/48 70/2/48 63/2/48
f 73/5/48 74/5/48 70/2/48
f 74/5/48 73/5/48 75/3/48
f 76/2/49 60/3/46 61/2/46
f 60/3/46 76/2/49 77/4/49
f 80/2/50 79/4/51 78/3/50
f 79/4/51 80/2/50 68/2/51
f 78/3/50 81/2/52 80/2/50
f 81/2/52 78/3/50 82/4/52
f 83/5/53 55/2/53 81/2/53
f 55/2/53 83/5/53 84/3/53
f 55/2/53 84/3/53 85/5/53
f 37/2/54 86/5/54 76/2/54
f 86/5/54 37/2/54 87/3/54
f 87/3/54 37/2/54 88/5/54
f 91/7/55 90/6/56 89/6/55
f 90/6/56 91/7/55 92/7/56
f 92/7/56 93/6/57 90/6/56
f 93/6/57 92/7/56 94/7/57
f 97/8/60 96/6/59 95/6/58
f 96/6/59 97/8/60 98/8/61
f 94/7/57 99/6/62 93/6/57
f 99/6/62 94/7/57 100/7/62
f 91/7/55 102/6/64 101/7/63
f 102/6/64 91/7/55 89/6/55
f 99/6/62 104/7/66 103/6/65
f 104/7/66 99/6/62 100/7/62
f 101/7/63 106/6/68 105/9/67
f 106/6/68 101/7/63 102/6/64
f 103/6/65 108/9/70 107/6/69
f 108/9/70 103/6/65 104/7/66
f 107/6/69 110/10/72 109/6/71
f 110/10/72 107/6/69 108/9/70
f 105/9/67 112/6/74 111/10/73
f 112/6/74 105/9/67 106/6/68
f 89/6/75 106/6/75 102/6/75
f 106/6/75 89/6/75 112/6/75
f 112/6/75 89/6/75 90/6/75
f 112/6/75 90/6/75 96/6/75
f 96/6/75 90/6/75 93/6/75
f 96/6/75 93/6/75 95/6/75
f 95/6/75 93/6/75 99/6/75
f 95/6/75 99/6/75 109/6/75
f 109/6/75 99/6/75 103/6/75
f 109/6/75 103/6/75 107/6/75
f 110/10/72 95/6/58 109/6/71
f 95/6/58 110/10/72 97/8/60
f 96/6/59 111/10/73 112/6/74
f 111/10/73 96/6/59 98/8/61

g block-grass-overhang-large-slope-narrow




usemtl colormap

f 3/1/1 2/1/1 1/1/1
f 2/1/1 3/1/1 4/1/1
f 2/1/1 4/1/1 5/1/1
f 5/1/1 4/1/1 6/1/1
f 5/1/1 6/1/1 7/1/1
f 7/1/1 6/1/1 8/1/1
f 7/1/1 8/1/1 9/1/1
f 9/1/1 8/1/1 10/1/1
f 9/1/1 10/1/1 11/1/1
f 11/1/1 10/1/1 12/1/1
f 15/2/4 14/3/3 13/2/2
f 14/3/3 15/2/4 16/3/5
f 19/2/8 18/3/7 17/3/6
f 18/3/7 19/2/8 20/2/9
f 23/3/12 22/2/11 21/2/10
f 22/2/11 23/3/12 24/3/13
f 27/2/16 26/3/15 25/3/14
f 26/3/15 27/2/16 28/2/17
f 20/2/9 29/3/18 18/3/7
f 29/3/18 20/2/9 30/2/19
f 24/3/13 31/2/20 22/2/11
f 31/2/20 24/3/13 32/3/21
f 35/2/24 34/3/23 33/3/22
f 34/3/23 35/2/24 36/2/25
f 28/2/17 33/3/22 26/3/15
f 33/3/22 28/2/17 35/2/24
f 23/3/12 19/2/8 17/3/6
f 19/2/8 23/3/12 21/2/10
f 34/3/23 31/2/20 32/3/21
f 31/2/20 34/3/23 36/2/25
f 13/2/2 29/3/18 30/2/19
f 29/3/18 13/2/2 14/3/3
f 15/2/4 25/3/14 16/3/5
f 25/3/14 15/2/4 27/2/16
f 31/2/20 12/1/26 22/2/11
f 12/1/26 31/2/20 11/1/27
f 31/2/20 9/1/28 11/1/27
f 9/1/28 31/2/20 36/2/25
f 35/2/24 9/1/28 36/2/25
f 9/1/28 35/2/24 7/1/29
f 28/2/17 7/1/29 35/2/24
f 7/1/29 28/2/17 5/1/30
f 3/1/31 15/2/4 13/2/2
f 15/2/4 3/1/31 1/1/32
f 20/2/9 4/1/33 30/2/19
f 4/1/33 20/2/9 6/1/34
f 8/1/35 20/2/9 19/2/8
f 20/2/9 8/1/35 6/1/34
f 4/1/33 13/2/2 30/2/19
f 13/2/2 4/1/33 3/1/31
f 21/2/10 8/1/35 19/2/8
f 8/1/35 21/2/10 10/1/36
f 22/2/11 10/1/36 21/2/10
f 10/1/36 22/2/11 12/1/26
f 2/1/37 28/2/17 27/2/16
f 28/2/17 2/1/37 5/1/30
f 2/1/37 15/2/4 1/1/32
f 15/2/4 2/1/37 27/2/16
f 25/3/38 14/3/38 16/3/38
f 14/3/38 25/3/38 29/3/38
f 29/3/38 25/3/38 26/3/38
f 29/3/38 26/3/38 18/3/38
f 18/3/38 26/3/38 33/3/38
f 18/3/38 33/3/38 17/3/38
f 17/3/38 33/3/38 34/3/38
f 17/3/38 34/3/38 23/3/38
f 23/3/38 34/3/38 32/3/38
f 23/3/38 32/3/38 24/3/38
f 39/2/40 38/4/39 37/2/39
f 38/4/39 39/2/40 40/3/40
f 43/5/41 42/5/41 41/3/41
f 42/5/41 43/5/41 44/2/41
f 44/2/41 43/5/41 45/2/41
f 45/2/41 47/5/41 46/2/41
f 48/5/41 47/5/41 45/2/41
f 47/5/41 48/5/41 49/3/41
f 51/5/41 44/2/41 50/2/41
f 51/5/41 52/5/41 44/2/41
f 52/5/41 51/5/41 53/3/41
f 39/2/40 54/4/42 40/3/40
f 54/4/42 39/2/40 46/2/42
f 57/4/43 56/2/44 55/2/43
f 56/2/44 57/4/43 58/3/44
f 59/4/45 56/2/44 58/3/44
f 56/2/44 59/4/45 50/2/45
f 62/4/47 61/2/46 60/3/46
f 61/2/46 62/4/47 63/2/47
f 66/5/48 65/5/48 64/3/48
f 65/5/48 66/5/48 67/2/48
f 67/2/48 66/5/48 68/2/48
f 70/2/48 69/5/48 67/2/48
f 71/5/48 69/5/48 70/2/48
f 69/5/48 71/5/48 72/3/48
f 73/5/48 70/2/48 63/2/48
f 73/5/48 74/5/48 70/2/48
f 74/5/48 73/5/48 75/3/48
f 76/2/49 60/3/46 61/2/46
f 60/3/46 76/2/49 77/4/49
f 80/2/50 79/4/51 78/3/50
f 79/4/51 80/2/50 68/2/51
f 78/3/50 81/2/52 80/2/50
f 81/2/52 78/3/50 82/4/52
f 83/5/53 55/2/53 81/2/53
f 55/2/53 83/5/53 84/3/53
f 55/2/53 84/3/53 85/5/53
f 37/2/54 86/5/54 76/2/54
f 86/5/54 37/2/54 87/3/54
f 87/3/54 37/2/54 88/5/54
f 91/7/55 90/6/56 89/6/55
f 90/6/56 91/7/55 92/7/56
f 92/7/56 93/6/57 90/6/56
f 93/6/57 92/7/56 94/7/57
f 97/8/60 96/6/59 95/6/58
f 96/6/59 97/8/60 98/8/61
f 94/7/57 99/6/62 93/6/57
f 99/6/62 94/7/57 100/7/62
f 91/7/55 102/6/64 101/7/63
f 102/6/64 91/7/55 89/6/55
f 99/6/62 104/7/66 103/6/65
f 104/7/66 99/6/62 100/7/62
f 101/7/63 106/6/68 105/9/67
f 106/6/68 101/7/63 102/6/64
f 103/6/65 108/9/70 107/6/69
f 108/9/70 103/6/65 104/7/66
f 107/6/69 110/10/72 109/6/71
f 110/10/72 107/6/69 108/9/70
f 105/9/67 112/6/74 111/10/73
f 112/6/74 105/9/67 106/6/68
f 89/6/75 106/6/75 102/6/75
f 106/6/75 89/6/75 112/6/75
f 112/6/75 89/6/75 90/6/75
f 112/6/75 90/6/75 96/6/75
f 96/6/75 90/6/75 93/6/75
f 96/6/75 93/6/75 95/6/75
f 95/6/75 93/6/75 99/6/75
f 95/6/75 99/6/75 109/6/75
f 109/6/75 99/6/75 103/6/75
f 109/6/75 103/6/75 107/6/75
f 110/10/72 95/6/58 109/6/71
f 95/6/58 110/10/72 97/8/60
f 96/6/59 111/10/73 112/6/74
f 111/10/73 96/6/59 98/8/61

