# Created by Kenney (www.kenney.nl)

mtllib block-snow-overhang-corner.mtl

g block-snow-overhang-corner

v 0.5000001 1 -0.22625 1 1 1
v 0.5000001 1 0.22625 1 1 1
v 0.4198205 1 -0.4198205 1 1 1
v 0.4198205 1 0.4198205 1 1 1
v 0.22625 1 -0.5000001 1 1 1
v 0.22625 1 0.5000001 1 1 1
v -0.22625 1 -0.5000001 1 1 1
v -0.22625 1 0.5000001 1 1 1
v -0.4198205 1 -0.4198205 1 1 1
v -0.4198205 1 0.4198205 1 1 1
v -0.5000001 1 0.22625 1 1 1
v -0.5000001 1 -0.22625 1 1 1
v 0.5410625 0.875 -0.253625 1 1 1
v 0.5000001 0.75 -0.22625 1 1 1
v 0.5410625 0.875 0.253625 1 1 1
v 0.5000001 0.75 0.22625 1 1 1
v -0.22625 0.75 -0.5000001 1 1 1
v 0.22625 0.75 -0.5000001 1 1 1
v -0.253625 0.875 -0.5410625 1 1 1
v 0.253625 0.875 -0.5410625 1 1 1
v -0.456874 0.875 -0.456874 1 1 1
v -0.5410625 0.875 -0.253625 1 1 1
v -0.4198205 0.75 -0.4198205 1 1 1
v -0.5000001 0.75 -0.22625 1 1 1
v 0.4198205 0.75 0.4198205 1 1 1
v 0.22625 0.75 0.5000001 1 1 1
v 0.456874 0.875 0.456874 1 1 1
v 0.253625 0.875 0.5410625 1 1 1
v 0.4198205 0.75 -0.4198205 1 1 1
v 0.456874 0.875 -0.456874 1 1 1
v -0.5410625 0.875 0.253625 1 1 1
v -0.5000001 0.75 0.22625 1 1 1
v -0.22625 0.75 0.5000001 1 1 1
v -0.4198205 0.75 0.4198205 1 1 1
v -0.253625 0.875 0.5410625 1 1 1
v -0.456874 0.875 0.456874 1 1 1
v -0.1283229 0.7376451 0.5410625 1 1 1
v -0.1945398 0.7564772 0.5410625 1 1 1
v -0.06210601 0.7564772 0.5410625 1 1 1
v -0.01570946 0.8073367 0.5410625 1 1 1
v -0.2409364 0.8073367 0.5410625 1 1 1
v -0.003020883 0.875 0.5410625 1 1 1
v -0.253625 0.875 0.5410625 1 1 1
v 0.5410625 0.875 -0.1222812 1 1 1
v 0.5410625 0.773505 -0.1032483 1 1 1
v 0.5410625 0.875 0.253625 1 1 1
v 0.5410625 0.6972159 -0.03365347 1 1 1
v 0.5410625 0.6689677 0.06567186 1 1 1
v 0.5410625 0.6972159 0.1649972 1 1 1
v 0.5410625 0.773505 0.234592 1 1 1
v -0.5410625 0.875 0.1222812 1 1 1
v -0.5410625 0.773505 -0.2345921 1 1 1
v -0.5410625 0.6972159 -0.1649972 1 1 1
v -0.5410625 0.6689677 -0.06567186 1 1 1
v -0.5410625 0.6972159 0.0336535 1 1 1
v -0.5410625 0.773505 0.1032484 1 1 1
v 0.1283229 0.7376451 -0.5410625 1 1 1
v 0.1945398 0.7564772 -0.5410625 1 1 1
v 0.06210601 0.7564772 -0.5410625 1 1 1
v 0.01570946 0.8073367 -0.5410625 1 1 1
v 0.2409364 0.8073367 -0.5410625 1 1 1
v 0.003020823 0.875 -0.5410625 1 1 1
v 0.22625 -1.755247E-30 -0.5000001 1 1 1
v 0.4198205 -1.755247E-30 -0.4198205 1 1 1
v 0.22625 0.7500001 -0.5000001 1 1 1
v 0.4198205 0.7500001 -0.4198205 1 1 1
v -0.4198205 -1.755247E-30 -0.4198205 1 1 1
v -0.4198205 0.7500001 -0.4198205 1 1 1
v -0.5000001 -1.755247E-30 -0.22625 1 1 1
v -0.5000001 0.7500001 -0.22625 1 1 1
v 0.4198205 -1.755247E-30 0.4198205 1 1 1
v 0.22625 -1.755247E-30 0.5000001 1 1 1
v 0.4198205 0.7500001 0.4198205 1 1 1
v 0.22625 0.7500001 0.5000001 1 1 1
v -0.22625 -1.755247E-30 0.5000001 1 1 1
v -0.22625 0.7500001 0.5000001 1 1 1
v 0.5000001 -1.755247E-30 0.22625 1 1 1
v 0.5000001 -1.755247E-30 -0.22625 1 1 1
v -0.22625 -1.755247E-30 -0.5000001 1 1 1
v -0.4198205 -1.755247E-30 0.4198205 1 1 1
v -0.5000001 -1.755247E-30 0.22625 1 1 1
v -0.22625 0.7500001 -0.5000001 1 1 1
v -0.4198205 0.7500001 0.4198205 1 1 1
v 0.5000001 0.7500001 0.22625 1 1 1
v -0.5000001 0.7500001 0.22625 1 1 1
v 0.5000001 0.7500001 -0.22625 1 1 1

vn 0 1 0
vn 0.9774452 0 -0.2111887
vn 0.9254633 -0.3404191 -0.16623
vn 0.9774452 0 0.2111887
vn 0.9254633 -0.3404191 0.16623
vn -0.16623 -0.3404191 -0.9254633
vn 0.16623 -0.3404191 -0.9254633
vn -0.2111887 0 -0.9774452
vn 0.2111887 0 -0.9774452
vn -0.7071068 0 -0.7071068
vn -0.9774452 0 -0.2111887
vn -0.652123 -0.3866153 -0.652123
vn -0.9254633 -0.3404191 -0.16623
vn 0.652123 -0.3866153 0.652123
vn 0.16623 -0.3404191 0.9254633
vn 0.7071068 0 0.7071068
vn 0.2111887 0 0.9774452
vn 0.652123 -0.3866153 -0.652123
vn 0.7071068 0 -0.7071068
vn -0.9774452 0 0.2111887
vn -0.9254633 -0.3404191 0.16623
vn -0.16623 -0.3404191 0.9254633
vn -0.652123 -0.3866153 0.652123
vn -0.2111887 0 0.9774452
vn -0.7071068 0 0.7071068
vn -0.9254633 0.3404191 -0.16623
vn -0.9254633 0.3404191 0.16623
vn -0.652123 0.3866153 0.652123
vn -0.16623 0.3404191 0.9254633
vn 0.16623 0.3404191 0.9254633
vn 0.9254633 0.3404191 -0.16623
vn 0.9254633 0.3404191 0.16623
vn 0.16623 0.3404191 -0.9254633
vn 0.652123 0.3866153 -0.652123
vn -0.16623 0.3404191 -0.9254633
vn -0.652123 0.3866153 -0.652123
vn 0.652123 0.3866153 0.652123
vn 0 0 1
vn 1 0 0
vn -1 0 0
vn 0 0 -1
vn 0.1950903 0 -0.9807853
vn -0.9807853 0 -0.1950903
vn 0.1950903 0 0.9807853
vn -0.1950903 0 0.9807853
vn 0 -1 0
vn -0.1950903 0 -0.9807853
vn 0.9807853 0 0.1950903
vn -0.9807853 0 0.1950903
vn 0.9807853 0 -0.1950903

vt 0.59375 0.225
vt 0.59375 0.125
vt 0.59375 0.025
vt 0.59375 0.075
vt 0.59375 0.08185527
vt 0.59375 0.1003692
vt 0.59375 0.08805375
vt 0.59375 0.06028292
vt 0.59375 0.05
vt 0.71875 0.225
vt 0.71875 0.025

usemtl colormap

f 3/1/1 2/1/1 1/1/1
f 2/1/1 3/1/1 4/1/1
f 4/1/1 3/1/1 5/1/1
f 4/1/1 5/1/1 6/1/1
f 6/1/1 5/1/1 7/1/1
f 6/1/1 7/1/1 8/1/1
f 8/1/1 7/1/1 9/1/1
f 8/1/1 9/1/1 10/1/1
f 10/1/1 9/1/1 11/1/1
f 11/1/1 9/1/1 12/1/1
f 15/2/4 14/3/3 13/2/2
f 14/3/3 15/2/4 16/3/5
f 19/2/8 18/3/7 17/3/6
f 18/3/7 19/2/8 20/2/9
f 23/3/12 22/2/11 21/2/10
f 22/2/11 23/3/12 24/3/13
f 27/2/16 26/3/15 25/3/14
f 26/3/15 27/2/16 28/2/17
f 20/2/9 29/3/18 18/3/7
f 29/3/18 20/2/9 30/2/19
f 24/3/13 31/2/20 22/2/11
f 31/2/20 24/3/13 32/3/21
f 35/2/24 34/3/23 33/3/22
f 34/3/23 35/2/24 36/2/25
f 28/2/17 33/3/22 26/3/15
f 33/3/22 28/2/17 35/2/24
f 21/2/10 17/3/6 23/3/12
f 17/3/6 21/2/10 19/2/8
f 34/3/23 31/2/20 32/3/21
f 31/2/20 34/3/23 36/2/25
f 13/2/2 29/3/18 30/2/19
f 29/3/18 13/2/2 14/3/3
f 15/2/4 25/3/14 16/3/5
f 25/3/14 15/2/4 27/2/16
f 31/2/20 12/1/26 22/2/11
f 12/1/26 31/2/20 11/1/27
f 31/2/20 10/1/28 11/1/27
f 10/1/28 31/2/20 36/2/25
f 8/1/29 36/2/25 35/2/24
f 36/2/25 8/1/29 10/1/28
f 28/2/17 8/1/29 35/2/24
f 8/1/29 28/2/17 6/1/30
f 1/1/31 15/2/4 13/2/2
f 15/2/4 1/1/31 2/1/32
f 5/1/33 30/2/19 20/2/9
f 30/2/19 5/1/33 3/1/34
f 7/1/35 20/2/9 19/2/8
f 20/2/9 7/1/35 5/1/33
f 3/1/34 13/2/2 30/2/19
f 13/2/2 3/1/34 1/1/31
f 9/1/36 19/2/8 21/2/10
f 19/2/8 9/1/36 7/1/35
f 22/2/11 9/1/36 21/2/10
f 9/1/36 22/2/11 12/1/26
f 4/1/37 28/2/17 27/2/16
f 28/2/17 4/1/37 6/1/30
f 4/1/37 15/2/4 2/1/32
f 15/2/4 4/1/37 27/2/16
f 39/5/38 38/5/38 37/4/38
f 38/5/38 39/5/38 40/6/38
f 38/5/38 40/6/38 41/6/38
f 41/6/38 40/6/38 42/2/38
f 41/6/38 42/2/38 43/2/38
f 46/2/39 45/7/39 44/2/39
f 45/7/39 46/2/39 47/8/39
f 47/8/39 46/2/39 48/9/39
f 48/9/39 46/2/39 49/8/39
f 49/8/39 46/2/39 50/7/39
f 52/7/40 51/2/40 22/2/40
f 51/2/40 52/7/40 53/8/40
f 51/2/40 53/8/40 54/9/40
f 51/2/40 54/9/40 55/8/40
f 51/2/40 55/8/40 56/7/40
f 59/5/41 58/5/41 57/4/41
f 58/5/41 59/5/41 60/6/41
f 58/5/41 60/6/41 61/6/41
f 61/6/41 60/6/41 62/2/41
f 61/6/41 62/2/41 20/2/41
f 65/11/42 64/10/19 63/10/42
f 64/10/19 65/11/42 66/11/19
f 69/10/43 68/11/10 67/10/10
f 68/11/10 69/10/43 70/11/43
f 73/11/16 72/10/44 71/10/16
f 72/10/44 73/11/16 74/11/44
f 74/11/44 75/10/45 72/10/44
f 75/10/45 74/11/44 76/11/45
f 71/10/46 78/10/46 77/10/46
f 78/10/46 71/10/46 64/10/46
f 64/10/46 71/10/46 72/10/46
f 64/10/46 72/10/46 63/10/46
f 63/10/46 72/10/46 75/10/46
f 63/10/46 75/10/46 79/10/46
f 79/10/46 75/10/46 80/10/46
f 79/10/46 80/10/46 67/10/46
f 67/10/46 80/10/46 81/10/46
f 67/10/46 81/10/46 69/10/46
f 82/11/47 63/10/42 79/10/47
f 63/10/42 82/11/47 65/11/42
f 76/11/45 80/10/25 75/10/45
f 80/10/25 76/11/45 83/11/25
f 73/11/16 77/10/48 84/11/48
f 77/10/48 73/11/16 71/10/16
f 81/10/49 70/11/43 69/10/43
f 70/11/43 81/10/49 85/11/49
f 80/10/25 85/11/49 81/10/49
f 85/11/49 80/10/25 83/11/25
f 84/11/48 78/10/50 86/11/50
f 78/10/50 84/11/48 77/10/48
f 68/11/10 79/10/47 67/10/10
f 79/10/47 68/11/10 82/11/47
f 86/11/50 64/10/19 66/11/19
f 64/10/19 86/11/50 78/10/50

g block-snow-overhang-corner




usemtl colormap

f 3/1/1 2/1/1 1/1/1
f 2/1/1 3/1/1 4/1/1
f 4/1/1 3/1/1 5/1/1
f 4/1/1 5/1/1 6/1/1
f 6/1/1 5/1/1 7/1/1
f 6/1/1 7/1/1 8/1/1
f 8/1/1 7/1/1 9/1/1
f 8/1/1 9/1/1 10/1/1
f 10/1/1 9/1/1 11/1/1
f 11/1/1 9/1/1 12/1/1
f 15/2/4 14/3/3 13/2/2
f 14/3/3 15/2/4 16/3/5
f 19/2/8 18/3/7 17/3/6
f 18/3/7 19/2/8 20/2/9
f 23/3/12 22/2/11 21/2/10
f 22/2/11 23/3/12 24/3/13
f 27/2/16 26/3/15 25/3/14
f 26/3/15 27/2/16 28/2/17
f 20/2/9 29/3/18 18/3/7
f 29/3/18 20/2/9 30/2/19
f 24/3/13 31/2/20 22/2/11
f 31/2/20 24/3/13 32/3/21
f 35/2/24 34/3/23 33/3/22
f 34/3/23 35/2/24 36/2/25
f 28/2/17 33/3/22 26/3/15
f 33/3/22 28/2/17 35/2/24
f 21/2/10 17/3/6 23/3/12
f 17/3/6 21/2/10 19/2/8
f 34/3/23 31/2/20 32/3/21
f 31/2/20 34/3/23 36/2/25
f 13/2/2 29/3/18 30/2/19
f 29/3/18 13/2/2 14/3/3
f 15/2/4 25/3/14 16/3/5
f 25/3/14 15/2/4 27/2/16
f 31/2/20 12/1/26 22/2/11
f 12/1/26 31/2/20 11/1/27
f 31/2/20 10/1/28 11/1/27
f 10/1/28 31/2/20 36/2/25
f 8/1/29 36/2/25 35/2/24
f 36/2/25 8/1/29 10/1/28
f 28/2/17 8/1/29 35/2/24
f 8/1/29 28/2/17 6/1/30
f 1/1/31 15/2/4 13/2/2
f 15/2/4 1/1/31 2/1/32
f 5/1/33 30/2/19 20/2/9
f 30/2/19 5/1/33 3/1/34
f 7/1/35 20/2/9 19/2/8
f 20/2/9 7/1/35 5/1/33
f 3/1/34 13/2/2 30/2/19
f 13/2/2 3/1/34 1/1/31
f 9/1/36 19/2/8 21/2/10
f 19/2/8 9/1/36 7/1/35
f 22/2/11 9/1/36 21/2/10
f 9/1/36 22/2/11 12/1/26
f 4/1/37 28/2/17 27/2/16
f 28/2/17 4/1/37 6/1/30
f 4/1/37 15/2/4 2/1/32
f 15/2/4 4/1/37 27/2/16
f 39/5/38 38/5/38 37/4/38
f 38/5/38 39/5/38 40/6/38
f 38/5/38 40/6/38 41/6/38
f 41/6/38 40/6/38 42/2/38
f 41/6/38 42/2/38 43/2/38
f 46/2/39 45/7/39 44/2/39
f 45/7/39 46/2/39 47/8/39
f 47/8/39 46/2/39 48/9/39
f 48/9/39 46/2/39 49/8/39
f 49/8/39 46/2/39 50/7/39
f 52/7/40 51/2/40 22/2/40
f 51/2/40 52/7/40 53/8/40
f 51/2/40 53/8/40 54/9/40
f 51/2/40 54/9/40 55/8/40
f 51/2/40 55/8/40 56/7/40
f 59/5/41 58/5/41 57/4/41
f 58/5/41 59/5/41 60/6/41
f 58/5/41 60/6/41 61/6/41
f 61/6/41 60/6/41 62/2/41
f 61/6/41 62/2/41 20/2/41
f 65/11/42 64/10/19 63/10/42
f 64/10/19 65/11/42 66/11/19
f 69/10/43 68/11/10 67/10/10
f 68/11/10 69/10/43 70/11/43
f 73/11/16 72/10/44 71/10/16
f 72/10/44 73/11/16 74/11/44
f 74/11/44 75/10/45 72/10/44
f 75/10/45 74/11/44 76/11/45
f 71/10/46 78/10/46 77/10/46
f 78/10/46 71/10/46 64/10/46
f 64/10/46 71/10/46 72/10/46
f 64/10/46 72/10/46 63/10/46
f 63/10/46 72/10/46 75/10/46
f 63/10/46 75/10/46 79/10/46
f 79/10/46 75/10/46 80/10/46
f 79/10/46 80/10/46 67/10/46
f 67/10/46 80/10/46 81/10/46
f 67/10/46 81/10/46 69/10/46
f 82/11/47 63/10/42 79/10/47
f 63/10/42 82/11/47 65/11/42
f 76/11/45 80/10/25 75/10/45
f 80/10/25 76/11/45 83/11/25
f 73/11/16 77/10/48 84/11/48
f 77/10/48 73/11/16 71/10/16
f 81/10/49 70/11/43 69/10/43
f 70/11/43 81/10/49 85/11/49
f 80/10/25 85/11/49 81/10/49
f 85/11/49 80/10/25 83/11/25
f 84/11/48 78/10/50 86/11/50
f 78/10/50 84/11/48 77/10/48
f 68/11/10 79/10/47 67/10/10
f 79/10/47 68/11/10 82/11/47
f 86/11/50 64/10/19 66/11/19
f 64/10/19 86/11/50 78/10/50

