# Created by Kenney (www.kenney.nl)

mtllib button-square.mtl

g button-square

v -0.3 0 0.2387628 1 1 1
v -0.3 0.05 0.2387628 1 1 1
v -0.2387628 0 0.3 1 1 1
v -0.2387628 0.05 0.3 1 1 1
v -0.2 0 0.2 1 1 1
v 0.2 0 0.2 1 1 1
v -0.2 0.1 0.2 1 1 1
v 0.2 0.1 0.2 1 1 1
v 0.3 0.05 0.2387628 1 1 1
v 0.2387628 0.05 0.3 1 1 1
v 0.25 0.1 0.1887628 1 1 1
v 0.1887628 0.1 0.25 1 1 1
v -0.1887628 0.1 -0.25 1 1 1
v -0.25 0.1 -0.1887628 1 1 1
v -0.2387628 0.05 -0.3 1 1 1
v -0.3 0.05 -0.2387628 1 1 1
v 0.3 0.05 -0.2387628 1 1 1
v 0.25 0.1 -0.1887628 1 1 1
v 0.2 0 -0.2 1 1 1
v -0.2 0 -0.2 1 1 1
v 0.2 0.1 -0.2 1 1 1
v -0.2 0.1 -0.2 1 1 1
v 0.3 0 0.2387628 1 1 1
v 0.2387628 0 0.3 1 1 1
v 0.3 0 -0.2387628 1 1 1
v -0.2387628 0 -0.3 1 1 1
v 0.2387628 0 -0.3 1 1 1
v 0.2387628 0.05 -0.3 1 1 1
v -0.1887628 0.1 0.25 1 1 1
v -0.25 0.1 0.1887628 1 1 1
v 0.1887628 0.1 -0.25 1 1 1
v -0.3 0 -0.2387628 1 1 1

vn -0.9238795 0 0.3826834
vn -0.3826834 0 0.9238795
vn 0 0 -1
vn 0.5385116 0.8007669 0.2622552
vn 0.2622552 0.8007669 0.5385116
vn 0.6021134 0.7786492 0.1765358
vn 0.1765358 0.7786492 0.6021134
vn -0.1765358 0.7786492 -0.6021134
vn -0.6021134 0.7786492 -0.1765358
vn -0.2622552 0.8007669 -0.5385116
vn -0.5385116 0.8007669 -0.2622552
vn 0.5385116 0.8007669 -0.2622552
vn 0.6021134 0.7786492 -0.1765358
vn 0 0 1
vn 0.9238795 0 0.3826834
vn 0.3826834 0 0.9238795
vn 0.9238795 0 -0.3826834
vn -0.3826834 0 -0.9238795
vn 0.3826834 0 -0.9238795
vn -1 0 0
vn -0.1765358 0.7786492 0.6021134
vn -0.2622552 0.8007669 0.5385116
vn -0.6021134 0.7786492 0.1765358
vn -0.5385116 0.8007669 0.2622552
vn 0.2622552 0.8007669 -0.5385116
vn 0.1765358 0.7786492 -0.6021134
vn -0.9238795 0 -0.3826834
vn 1 0 0
vn 0 -1 0
vn 0 1 0

vt 0.21875 0.025
vt 0.21875 0.125
vt 0.21875 0.225

usemtl colormap

f 3/1/2 2/2/1 1/1/1
f 2/2/1 3/1/2 4/2/2
f 7/3/3 6/1/3 5/1/3
f 6/1/3 7/3/3 8/3/3
f 11/3/6 10/2/5 9/2/4
f 10/2/5 11/3/6 12/3/7
f 15/2/10 14/3/9 13/3/8
f 14/3/9 15/2/10 16/2/11
f 18/3/13 9/2/4 17/2/12
f 9/2/4 18/3/13 11/3/6
f 21/3/14 20/1/14 19/1/14
f 20/1/14 21/3/14 22/3/14
f 10/2/16 23/1/15 9/2/15
f 23/1/15 10/2/16 24/1/16
f 9/2/15 25/1/17 17/2/17
f 25/1/17 9/2/15 23/1/15
f 15/2/18 27/1/19 26/1/18
f 27/1/19 15/2/18 28/2/19
f 6/1/20 21/3/20 19/1/20
f 21/3/20 6/1/20 8/3/20
f 30/3/23 4/2/22 29/3/21
f 4/2/22 30/3/23 2/2/24
f 16/2/11 30/3/23 14/3/9
f 30/3/23 16/2/11 2/2/24
f 15/2/10 31/3/26 28/2/25
f 31/3/26 15/2/10 13/3/8
f 1/1/1 16/2/27 32/1/27
f 16/2/27 1/1/1 2/2/1
f 28/2/19 25/1/17 27/1/19
f 25/1/17 28/2/19 17/2/17
f 10/2/16 3/1/2 24/1/16
f 3/1/2 10/2/16 4/2/2
f 28/2/25 18/3/13 17/2/12
f 18/3/13 28/2/25 31/3/26
f 7/3/28 20/1/28 22/3/28
f 20/1/28 7/3/28 5/1/28
f 16/2/27 26/1/18 32/1/27
f 26/1/18 16/2/27 15/2/18
f 24/1/29 25/1/29 23/1/29
f 25/1/29 24/1/29 27/1/29
f 27/1/29 24/1/29 6/1/29
f 6/1/29 24/1/29 3/1/29
f 19/1/29 27/1/29 6/1/29
f 6/1/29 3/1/29 5/1/29
f 27/1/29 19/1/29 26/1/29
f 5/1/29 3/1/29 20/1/29
f 26/1/29 19/1/29 20/1/29
f 26/1/29 20/1/29 3/1/29
f 26/1/29 3/1/29 1/1/29
f 26/1/29 1/1/29 32/1/29
f 12/3/7 4/2/22 10/2/5
f 4/2/22 12/3/7 29/3/21
f 29/3/30 7/3/30 30/3/30
f 30/3/30 7/3/30 14/3/30
f 12/3/30 7/3/30 29/3/30
f 12/3/30 8/3/30 7/3/30
f 11/3/30 8/3/30 12/3/30
f 22/3/30 14/3/30 7/3/30
f 22/3/30 13/3/30 14/3/30
f 22/3/30 31/3/30 13/3/30
f 8/3/30 11/3/30 21/3/30
f 21/3/30 31/3/30 22/3/30
f 18/3/30 21/3/30 11/3/30
f 21/3/30 18/3/30 31/3/30

g button-square




usemtl colormap

f 3/1/2 2/2/1 1/1/1
f 2/2/1 3/1/2 4/2/2
f 7/3/3 6/1/3 5/1/3
f 6/1/3 7/3/3 8/3/3
f 11/3/6 10/2/5 9/2/4
f 10/2/5 11/3/6 12/3/7
f 15/2/10 14/3/9 13/3/8
f 14/3/9 15/2/10 16/2/11
f 18/3/13 9/2/4 17/2/12
f 9/2/4 18/3/13 11/3/6
f 21/3/14 20/1/14 19/1/14
f 20/1/14 21/3/14 22/3/14
f 10/2/16 23/1/15 9/2/15
f 23/1/15 10/2/16 24/1/16
f 9/2/15 25/1/17 17/2/17
f 25/1/17 9/2/15 23/1/15
f 15/2/18 27/1/19 26/1/18
f 27/1/19 15/2/18 28/2/19
f 6/1/20 21/3/20 19/1/20
f 21/3/20 6/1/20 8/3/20
f 30/3/23 4/2/22 29/3/21
f 4/2/22 30/3/23 2/2/24
f 16/2/11 30/3/23 14/3/9
f 30/3/23 16/2/11 2/2/24
f 15/2/10 31/3/26 28/2/25
f 31/3/26 15/2/10 13/3/8
f 1/1/1 16/2/27 32/1/27
f 16/2/27 1/1/1 2/2/1
f 28/2/19 25/1/17 27/1/19
f 25/1/17 28/2/19 17/2/17
f 10/2/16 3/1/2 24/1/16
f 3/1/2 10/2/16 4/2/2
f 28/2/25 18/3/13 17/2/12
f 18/3/13 28/2/25 31/3/26
f 7/3/28 20/1/28 22/3/28
f 20/1/28 7/3/28 5/1/28
f 16/2/27 26/1/18 32/1/27
f 26/1/18 16/2/27 15/2/18
f 24/1/29 25/1/29 23/1/29
f 25/1/29 24/1/29 27/1/29
f 27/1/29 24/1/29 6/1/29
f 6/1/29 24/1/29 3/1/29
f 19/1/29 27/1/29 6/1/29
f 6/1/29 3/1/29 5/1/29
f 27/1/29 19/1/29 26/1/29
f 5/1/29 3/1/29 20/1/29
f 26/1/29 19/1/29 20/1/29
f 26/1/29 20/1/29 3/1/29
f 26/1/29 3/1/29 1/1/29
f 26/1/29 1/1/29 32/1/29
f 12/3/7 4/2/22 10/2/5
f 4/2/22 12/3/7 29/3/21
f 29/3/30 7/3/30 30/3/30
f 30/3/30 7/3/30 14/3/30
f 12/3/30 7/3/30 29/3/30
f 12/3/30 8/3/30 7/3/30
f 11/3/30 8/3/30 12/3/30
f 22/3/30 14/3/30 7/3/30
f 22/3/30 13/3/30 14/3/30
f 22/3/30 31/3/30 13/3/30
f 8/3/30 11/3/30 21/3/30
f 21/3/30 31/3/30 22/3/30
f 18/3/30 21/3/30 11/3/30
f 21/3/30 18/3/30 31/3/30

g button

v 0.15 0.2 -0.15 1 1 1
v 0.15 0.2 0.15 1 1 1
v -0.15 0.2 -0.15 1 1 1
v -0.15 0.2 0.15 1 1 1
v 0.2 0.15 0.2 1 1 1
v -0.2 0.15 0.2 1 1 1
v -0.2 0.15 -0.2 1 1 1
v 0.2 0.15 -0.2 1 1 1

vn 0.4082483 0.8164966 0.4082483
vn -0.4082483 0.8164966 0.4082483
vn -0.4082483 0.8164966 -0.4082483
vn 0.4082483 0.8164966 -0.4082483
vn -0.7071068 0 -0.7071068
vn -0.7071068 0 0.7071068
vn 0.7071068 0 0.7071068
vn 0.7071068 0 -0.7071068

vt 0.59375 0.375
vt 0.59375 0.475
vt 0.59375 0.425

usemtl colormap

f 7/4/29 21/4/29 8/4/29
f 21/4/29 7/4/29 22/4/29
f 35/5/30 34/5/30 33/5/30
f 34/5/30 35/5/30 36/5/30
f 34/5/31 38/6/32 37/6/31
f 38/6/32 34/5/31 36/5/32
f 39/6/33 36/5/32 35/5/33
f 36/5/32 39/6/33 38/6/32
f 33/5/34 37/6/31 40/6/34
f 37/6/31 33/5/34 34/5/31
f 39/6/33 33/5/34 40/6/34
f 33/5/34 39/6/33 35/5/33
f 7/4/36 39/6/35 22/4/35
f 39/6/35 7/4/36 38/6/36
f 37/6/37 7/4/36 8/4/37
f 7/4/36 37/6/37 38/6/36
f 39/6/35 21/4/38 22/4/35
f 21/4/38 39/6/35 40/6/38
f 37/6/37 21/4/38 40/6/38
f 21/4/38 37/6/37 8/4/37

