# Created by Kenney (www.kenney.nl)

mtllib coin-bronze.mtl

g coin-bronze

v -0.1732051 0.1 -0.075 1 1 1
v -0.1732051 0.3 -0.075 1 1 1
v -0.1732051 0.1 0.075 1 1 1
v -0.1732051 0.3 0.075 1 1 1
v 0.1732051 0.3 -0.075 1 1 1
v 0.1732051 0.1 -0.075 1 1 1
v 0.1732051 0.3 0.075 1 1 1
v 0.1732051 0.1 0.075 1 1 1
v 1.443823E-15 0.4 0.075 1 1 1
v -1.443823E-15 0.4 -0.075 1 1 1
v 0.1236115 0.2713671 0.075 1 1 1
v 0.1236115 0.2713671 0.015 1 1 1
v 1.443823E-15 0.3427342 0.075 1 1 1
v 0 0.3427342 0.015 1 1 1
v 0.1236115 0.1286329 -0.015 1 1 1
v 0 0.05726583 -0.015 1 1 1
v 0.1236115 0.1286329 -0.075 1 1 1
v -1.443823E-15 0.05726583 -0.075 1 1 1
v 1.443823E-15 0.05726583 0.075 1 1 1
v -0.1236114 0.1286329 0.075 1 1 1
v 0 0.05726583 0.015 1 1 1
v -0.1236114 0.1286329 0.015 1 1 1
v 0.1236115 0.2713671 -0.015 1 1 1
v 0.1236115 0.2713671 -0.075 1 1 1
v 0 0.3427342 -0.015 1 1 1
v -1.443823E-15 0.3427342 -0.075 1 1 1
v -0.1236114 0.1286329 -0.015 1 1 1
v -0.1236114 0.1286329 -0.075 1 1 1
v -0.1236114 0.2713671 -0.015 1 1 1
v -0.1236114 0.2713671 -0.075 1 1 1
v 1.443823E-15 0 0.075 1 1 1
v -1.443823E-15 0 -0.075 1 1 1
v 0.1236115 0.1286329 0.075 1 1 1
v 0.1236115 0.1286329 0.015 1 1 1
v -0.1236114 0.2713671 0.075 1 1 1
v -0.1236114 0.2713671 0.015 1 1 1
v 0 0.1031442 0.015 1 1 1
v -0.0838796 0.1515721 0.015 1 1 1
v 0.0838796 0.1515721 0.015 1 1 1
v 0.0838796 0.2484279 0.015 1 1 1
v -0.0838796 0.2484279 0.015 1 1 1
v 0 0.2968558 0.015 1 1 1
v 0 0.1031442 -0.015 1 1 1
v 0.0838796 0.1515721 -0.015 1 1 1
v -0.0838796 0.1515721 -0.015 1 1 1
v -0.0838796 0.2484279 -0.015 1 1 1
v 0.0838796 0.2484279 -0.015 1 1 1
v 0 0.2968558 -0.015 1 1 1
v -0.0838796 0.2484279 0.015 1 1 1
v -0.0838796 0.1515721 0.015 1 1 1
v -0.1236114 0.2713671 0.015 1 1 1
v 0 0.2968558 0.015 1 1 1
v -0.1236114 0.1286329 0.015 1 1 1
v 0 0.3427342 0.015 1 1 1
v 0 0.1031442 0.015 1 1 1
v 0 0.05726583 0.015 1 1 1
v 0.1236115 0.1286329 0.015 1 1 1
v 0.0838796 0.1515721 0.015 1 1 1
v 0.1236115 0.2713671 0.015 1 1 1
v 0.0838796 0.2484279 0.015 1 1 1
v 0.0838796 0.2484279 -0.015 1 1 1
v 0.0838796 0.1515721 -0.015 1 1 1
v 0.1236115 0.2713671 -0.015 1 1 1
v 0 0.2968558 -0.015 1 1 1
v 0.1236115 0.1286329 -0.015 1 1 1
v 0 0.3427342 -0.015 1 1 1
v 0 0.1031442 -0.015 1 1 1
v 0 0.05726583 -0.015 1 1 1
v -0.1236114 0.1286329 -0.015 1 1 1
v -0.0838796 0.1515721 -0.015 1 1 1
v -0.1236114 0.2713671 -0.015 1 1 1
v -0.0838796 0.2484279 -0.015 1 1 1

vn -0.8660254 -0.5 0
vn -0.8660254 0.5 0
vn 0.8660254 0.5 0
vn 0.8660254 -0.5 0
vn 0 1 0
vn -0.8660253 -0.5000001 0
vn 0 -1 0
vn -0.8660253 0.5000002 0
vn 0.8660254 -0.5 0
vn 0 0 1
vn 0 0 -1

vt 0.71875 0.075
vt 0.71875 0.175
vt 0.71875 0.225
vt 0.71875 0.1606835
vt 0.71875 0.1963671
vt 0.71875 0.08931644
vt 0.71875 0.05363292
vt 0.71875 0.025
vt 0.71875 0.0765721
vt 0.71875 0.100786
vt 0.71875 0.1492139
vt 0.71875 0.1734279
vt 0.84375 0.1589287
vt 0.84375 0.09107126
vt 0.84375 0.175
vt 0.84375 0.1928574
vt 0.84375 0.07499998
vt 0.84375 0.225
vt 0.84375 0.05714253
vt 0.84375 0.025

usemtl colormap

f 3/1/1 2/2/2 1/1/1
f 2/2/2 3/1/1 4/2/2
f 7/2/3 6/1/4 5/2/3
f 6/1/4 7/2/3 8/1/4
f 10/3/5 4/2/2 9/3/5
f 4/2/2 10/3/5 2/2/2
f 13/5/7 12/4/6 11/4/6
f 12/4/6 13/5/7 14/5/7
f 17/6/8 16/7/5 15/6/8
f 16/7/5 17/6/8 18/7/5
f 21/7/5 20/6/3 19/7/5
f 20/6/3 21/7/5 22/6/3
f 5/2/3 9/3/5 7/2/3
f 9/3/5 5/2/3 10/3/5
f 25/5/7 24/4/6 23/4/6
f 24/4/6 25/5/7 26/5/7
f 18/7/5 27/6/3 16/7/5
f 27/6/3 18/7/5 28/6/3
f 29/4/9 26/5/7 25/5/7
f 26/5/7 29/4/9 30/4/9
f 29/4/9 28/6/3 30/4/9
f 28/6/3 29/4/9 27/6/3
f 31/8/7 6/1/4 8/1/4
f 6/1/4 31/8/7 32/8/7
f 34/6/8 19/7/5 33/6/8
f 19/7/5 34/6/8 21/7/5
f 15/6/8 24/4/6 17/6/8
f 24/4/6 15/6/8 23/4/6
f 35/4/9 14/5/7 13/5/7
f 14/5/7 35/4/9 36/4/9
f 39/10/10 38/10/10 37/9/10
f 38/10/10 39/10/10 40/11/10
f 38/10/10 40/11/10 41/11/10
f 41/11/10 40/11/10 42/12/10
f 35/4/9 22/6/3 36/4/9
f 22/6/3 35/4/9 20/6/3
f 33/6/8 12/4/6 34/6/8
f 12/4/6 33/6/8 11/4/6
f 45/10/11 44/10/11 43/9/11
f 44/10/11 45/10/11 46/11/11
f 44/10/11 46/11/11 47/11/11
f 47/11/11 46/11/11 48/12/11
f 3/1/1 32/8/7 31/8/7
f 32/8/7 3/1/1 1/1/1
f 4/2/10 20/6/10 35/4/10
f 4/2/10 35/4/10 13/5/10
f 3/1/10 20/6/10 4/2/10
f 4/2/10 13/5/10 9/3/10
f 3/1/10 19/7/10 20/6/10
f 19/7/10 3/1/10 31/8/10
f 8/1/10 19/7/10 31/8/10
f 19/7/10 8/1/10 33/6/10
f 13/5/10 7/2/10 9/3/10
f 33/6/10 8/1/10 7/2/10
f 11/4/10 7/2/10 13/5/10
f 33/6/10 7/2/10 11/4/10
f 5/2/11 17/6/11 24/4/11
f 5/2/11 24/4/11 26/5/11
f 6/1/11 17/6/11 5/2/11
f 5/2/11 26/5/11 10/3/11
f 6/1/11 18/7/11 17/6/11
f 18/7/11 6/1/11 32/8/11
f 1/1/11 18/7/11 32/8/11
f 18/7/11 1/1/11 28/6/11
f 26/5/11 2/2/11 10/3/11
f 28/6/11 1/1/11 2/2/11
f 30/4/11 2/2/11 26/5/11
f 28/6/11 2/2/11 30/4/11
f 51/15/10 50/14/10 49/13/10
f 51/15/10 49/13/10 52/16/10
f 53/17/10 50/14/10 51/15/10
f 51/15/10 52/16/10 54/18/10
f 53/17/10 55/19/10 50/14/10
f 55/19/10 53/17/10 56/20/10
f 57/17/10 55/19/10 56/20/10
f 55/19/10 57/17/10 58/14/10
f 52/16/10 59/15/10 54/18/10
f 58/14/10 57/17/10 59/15/10
f 60/13/10 59/15/10 52/16/10
f 58/14/10 59/15/10 60/13/10
f 63/15/11 62/14/11 61/13/11
f 63/15/11 61/13/11 64/16/11
f 65/17/11 62/14/11 63/15/11
f 63/15/11 64/16/11 66/18/11
f 65/17/11 67/19/11 62/14/11
f 67/19/11 65/17/11 68/20/11
f 69/17/11 67/19/11 68/20/11
f 67/19/11 69/17/11 70/14/11
f 64/16/11 71/15/11 66/18/11
f 70/14/11 69/17/11 71/15/11
f 72/13/11 71/15/11 64/16/11
f 70/14/11 71/15/11 72/13/11

g coin-bronze




usemtl colormap

f 3/1/1 2/2/2 1/1/1
f 2/2/2 3/1/1 4/2/2
f 7/2/3 6/1/4 5/2/3
f 6/1/4 7/2/3 8/1/4
f 10/3/5 4/2/2 9/3/5
f 4/2/2 10/3/5 2/2/2
f 13/5/7 12/4/6 11/4/6
f 12/4/6 13/5/7 14/5/7
f 17/6/8 16/7/5 15/6/8
f 16/7/5 17/6/8 18/7/5
f 21/7/5 20/6/3 19/7/5
f 20/6/3 21/7/5 22/6/3
f 5/2/3 9/3/5 7/2/3
f 9/3/5 5/2/3 10/3/5
f 25/5/7 24/4/6 23/4/6
f 24/4/6 25/5/7 26/5/7
f 18/7/5 27/6/3 16/7/5
f 27/6/3 18/7/5 28/6/3
f 29/4/9 26/5/7 25/5/7
f 26/5/7 29/4/9 30/4/9
f 29/4/9 28/6/3 30/4/9
f 28/6/3 29/4/9 27/6/3
f 31/8/7 6/1/4 8/1/4
f 6/1/4 31/8/7 32/8/7
f 34/6/8 19/7/5 33/6/8
f 19/7/5 34/6/8 21/7/5
f 15/6/8 24/4/6 17/6/8
f 24/4/6 15/6/8 23/4/6
f 35/4/9 14/5/7 13/5/7
f 14/5/7 35/4/9 36/4/9
f 39/10/10 38/10/10 37/9/10
f 38/10/10 39/10/10 40/11/10
f 38/10/10 40/11/10 41/11/10
f 41/11/10 40/11/10 42/12/10
f 35/4/9 22/6/3 36/4/9
f 22/6/3 35/4/9 20/6/3
f 33/6/8 12/4/6 34/6/8
f 12/4/6 33/6/8 11/4/6
f 45/10/11 44/10/11 43/9/11
f 44/10/11 45/10/11 46/11/11
f 44/10/11 46/11/11 47/11/11
f 47/11/11 46/11/11 48/12/11
f 3/1/1 32/8/7 31/8/7
f 32/8/7 3/1/1 1/1/1
f 4/2/10 20/6/10 35/4/10
f 4/2/10 35/4/10 13/5/10
f 3/1/10 20/6/10 4/2/10
f 4/2/10 13/5/10 9/3/10
f 3/1/10 19/7/10 20/6/10
f 19/7/10 3/1/10 31/8/10
f 8/1/10 19/7/10 31/8/10
f 19/7/10 8/1/10 33/6/10
f 13/5/10 7/2/10 9/3/10
f 33/6/10 8/1/10 7/2/10
f 11/4/10 7/2/10 13/5/10
f 33/6/10 7/2/10 11/4/10
f 5/2/11 17/6/11 24/4/11
f 5/2/11 24/4/11 26/5/11
f 6/1/11 17/6/11 5/2/11
f 5/2/11 26/5/11 10/3/11
f 6/1/11 18/7/11 17/6/11
f 18/7/11 6/1/11 32/8/11
f 1/1/11 18/7/11 32/8/11
f 18/7/11 1/1/11 28/6/11
f 26/5/11 2/2/11 10/3/11
f 28/6/11 1/1/11 2/2/11
f 30/4/11 2/2/11 26/5/11
f 28/6/11 2/2/11 30/4/11
f 51/15/10 50/14/10 49/13/10
f 51/15/10 49/13/10 52/16/10
f 53/17/10 50/14/10 51/15/10
f 51/15/10 52/16/10 54/18/10
f 53/17/10 55/19/10 50/14/10
f 55/19/10 53/17/10 56/20/10
f 57/17/10 55/19/10 56/20/10
f 55/19/10 57/17/10 58/14/10
f 52/16/10 59/15/10 54/18/10
f 58/14/10 57/17/10 59/15/10
f 60/13/10 59/15/10 52/16/10
f 58/14/10 59/15/10 60/13/10
f 63/15/11 62/14/11 61/13/11
f 63/15/11 61/13/11 64/16/11
f 65/17/11 62/14/11 63/15/11
f 63/15/11 64/16/11 66/18/11
f 65/17/11 67/19/11 62/14/11
f 67/19/11 65/17/11 68/20/11
f 69/17/11 67/19/11 68/20/11
f 67/19/11 69/17/11 70/14/11
f 64/16/11 71/15/11 66/18/11
f 70/14/11 69/17/11 71/15/11
f 72/13/11 71/15/11 64/16/11
f 70/14/11 71/15/11 72/13/11

