# Created by Kenney (www.kenney.nl)

mtllib crate-item.mtl

g crate-item

v 0.2099999 0.5 0.21 1 1 1
v 0.25 0.46 0.21 1 1 1
v 0.2099999 0.46 0.2500001 1 1 1
v -0.2500001 0.46 0.21 1 1 1
v -0.21 0.5 0.21 1 1 1
v -0.21 0.46 0.2500001 1 1 1
v -0.2500001 0.04 -0.2099999 1 1 1
v -0.21 0 -0.2099999 1 1 1
v -0.21 0.04 -0.25 1 1 1
v -0.21 0 0.21 1 1 1
v -0.2500001 0.04 0.21 1 1 1
v -0.21 0.04 0.2500001 1 1 1
v 0.25 0.04 -0.2099999 1 1 1
v 0.2099999 0.04 -0.25 1 1 1
v 0.2099999 0 -0.2099999 1 1 1
v 0.25 0.04 0.21 1 1 1
v 0.2099999 0 0.21 1 1 1
v 0.2099999 0.04 0.2500001 1 1 1
v 0.2099999 0.46 -0.25 1 1 1
v 0.25 0.46 -0.2099999 1 1 1
v 0.2099999 0.5 -0.2099999 1 1 1
v -0.2500001 0.46 -0.2099999 1 1 1
v -0.21 0.46 -0.25 1 1 1
v -0.21 0.5 -0.2099999 1 1 1
v -0.2500001 0.08972832 -0.1602716 1 1 1
v -0.2500001 0.4102716 -0.1602716 1 1 1
v -0.2 0.1217827 -0.1282173 1 1 1
v -0.2 0.3782173 -0.1282173 1 1 1
v -0.1282174 0.3782173 0.2 1 1 1
v -0.1282174 0.1217827 0.2 1 1 1
v -0.1602716 0.4102716 0.2500001 1 1 1
v -0.1602716 0.08972832 0.2500001 1 1 1
v 0.1602716 0.4102716 0.2500001 1 1 1
v 0.1282173 0.3782173 0.2 1 1 1
v -0.1602716 0.4102716 -0.25 1 1 1
v -0.1602716 0.08972832 -0.25 1 1 1
v -0.1282174 0.3782173 -0.1999999 1 1 1
v -0.1282174 0.1217827 -0.1999999 1 1 1
v 0.1282173 0.1217827 0.2 1 1 1
v 0.1602716 0.08972832 0.2500001 1 1 1
v -0.2500001 0.08972832 0.1602716 1 1 1
v -0.2 0.1217827 0.1282174 1 1 1
v -0.2500001 0.4102716 0.1602716 1 1 1
v -0.2 0.3782173 0.1282174 1 1 1
v 0.1602716 0.4102716 -0.25 1 1 1
v 0.1282173 0.3782173 -0.1999999 1 1 1
v -0.1602716 0 0.1602716 1 1 1
v 0.1602716 0 0.1602716 1 1 1
v -0.1282174 0.05 0.1282174 1 1 1
v 0.1282173 0.05 0.1282174 1 1 1
v -0.1602716 0.5 -0.1602716 1 1 1
v -0.1282174 0.45 -0.1282173 1 1 1
v -0.1602716 0.5 0.1602716 1 1 1
v -0.1282174 0.45 0.1282174 1 1 1
v 0.25 0.4102716 0.1602716 1 1 1
v 0.25 0.4102716 -0.1602716 1 1 1
v 0.1999999 0.3782173 0.1282174 1 1 1
v 0.1999999 0.3782173 -0.1282173 1 1 1
v 0.1602716 0.08972832 -0.25 1 1 1
v 0.1282173 0.1217827 -0.1999999 1 1 1
v -0.1602716 0 -0.1602716 1 1 1
v -0.1282174 0.05 -0.1282173 1 1 1
v 0.25 0.08972832 -0.1602716 1 1 1
v 0.25 0.08972832 0.1602716 1 1 1
v 0.1999999 0.1217827 -0.1282173 1 1 1
v 0.1999999 0.1217827 0.1282174 1 1 1
v 0.1602716 0 -0.1602716 1 1 1
v 0.1282173 0.05 -0.1282173 1 1 1
v 0.1602716 0.5 -0.1602716 1 1 1
v 0.1602716 0.5 0.1602716 1 1 1
v 0.1282173 0.45 -0.1282173 1 1 1
v 0.1282173 0.45 0.1282174 1 1 1

vn 0.4605629 0.758791 0.4605629
vn 0.758791 0.4605629 0.4605629
vn 0.4605629 0.4605629 0.758791
vn -0.758791 0.4605629 0.4605629
vn -0.4605629 0.758791 0.4605629
vn -0.4605629 0.4605629 0.758791
vn -0.758791 -0.4605629 -0.4605629
vn -0.4605629 -0.758791 -0.4605629
vn -0.4605629 -0.4605629 -0.758791
vn -0.4605629 -0.758791 0.4605629
vn -0.758791 -0.4605629 0.4605629
vn -0.4605629 -0.4605629 0.758791
vn 0.758791 -0.4605629 -0.4605629
vn 0.4605629 -0.4605629 -0.758791
vn 0.4605629 -0.758791 -0.4605629
vn 0.758791 -0.4605629 0.4605629
vn 0.4605629 -0.758791 0.4605629
vn 0.4605629 -0.4605629 0.758791
vn 0.4605629 0.4605629 -0.758791
vn 0.758791 0.4605629 -0.4605629
vn 0.4605629 0.758791 -0.4605629
vn -0.758791 0.4605629 -0.4605629
vn -0.4605629 0.4605629 -0.758791
vn -0.4605629 0.758791 -0.4605629
vn -0.671676 0.5238565 0.5238565
vn -0.6716756 -0.5238566 0.5238569
vn -0.671676 0.5238566 0.5238563
vn -0.6716756 -0.5238572 0.5238563
vn 0.5238571 -0.5238571 0.671675
vn 0.5238572 0.5238565 0.6716754
vn 0.5238568 0.523857 0.6716754
vn -0.5238569 -0.5238566 0.6716756
vn -0.5238563 -0.5238573 0.6716756
vn 0.5238571 -0.5238571 -0.671675
vn 0.5238568 0.523857 -0.6716754
vn 0.5238572 0.5238565 -0.6716754
vn -0.5238563 0.5238566 0.671676
vn -0.5238565 0.5238565 0.671676
vn -0.6716754 0.523857 -0.5238568
vn -0.6716754 0.5238565 -0.5238572
vn -0.671675 -0.5238571 -0.5238571
vn -0.5238569 -0.5238566 -0.6716756
vn -0.5238563 -0.5238573 -0.6716756
vn 0.5238571 -0.671675 -0.5238571
vn -0.5238569 -0.6716756 -0.5238566
vn -0.5238563 -0.6716756 -0.5238573
vn 0.5238566 0.6716756 0.5238569
vn 0.5238572 0.6716756 0.5238563
vn 0.5238571 0.671675 -0.5238571
vn 0.671675 -0.5238571 -0.5238571
vn 0.6716756 -0.5238566 0.5238569
vn 0.6716756 -0.5238572 0.5238563
vn -0.5238565 0.5238565 -0.671676
vn -0.5238563 0.5238566 -0.671676
vn 0.5238566 -0.6716756 0.5238569
vn 0.5238572 -0.6716756 0.5238563
vn 0.671676 0.5238565 0.5238565
vn 0.6716754 0.523857 -0.5238568
vn 0.671676 0.5238566 0.5238563
vn 0.6716754 0.5238565 -0.5238572
vn -0.5238565 -0.6716762 0.5238565
vn -0.5238565 0.6716762 0.5238565
vn -0.5238569 0.6716756 -0.5238566
vn -0.5238563 0.6716756 -0.5238573
vn 0 1 0
vn 0 -1 0
vn 0 0 1
vn -1 0 0
vn 1 0 0
vn 0 0 -1

vt 0.34375 0.475
vt 0.34375 0.459
vt 0.34375 0.291
vt 0.34375 0.275
vt 0.34375 0.3108913
vt 0.34375 0.4391086
vt 0.34375 0.3237131
vt 0.34375 0.4262869
vt 0.34375 0.295
vt 0.34375 0.455
vt 0.71875 0.07371307
vt 0.71875 0.1762869
vt 0.71875 0.205
vt 0.71875 0.045

usemtl colormap

f 3/2/3 2/2/2 1/1/1
f 6/2/6 5/1/5 4/2/4
f 9/3/9 8/4/8 7/3/7
f 12/3/12 11/3/11 10/4/10
f 15/4/15 14/3/14 13/3/13
f 18/3/18 17/4/17 16/3/16
f 21/1/21 20/2/20 19/2/19
f 24/1/24 23/2/23 22/2/22
f 27/7/27 26/6/26 25/5/25
f 26/6/26 27/7/27 28/8/28
f 22/2/22 9/3/9 7/3/7
f 9/3/9 22/2/22 23/2/23
f 12/3/12 17/4/17 18/3/18
f 17/4/17 12/3/12 10/4/10
f 3/2/3 16/3/16 2/2/2
f 16/3/16 3/2/3 18/3/18
f 12/3/12 4/2/4 11/3/11
f 4/2/4 12/3/12 6/2/6
f 31/6/29 30/7/30 29/8/29
f 30/7/30 31/6/29 32/5/31
f 31/6/29 34/8/33 33/6/32
f 34/8/33 31/6/29 29/8/29
f 37/8/34 36/5/35 35/6/34
f 36/5/35 37/8/34 38/7/36
f 20/2/20 14/3/14 19/2/19
f 14/3/14 20/2/20 13/3/13
f 40/5/38 34/8/33 39/7/37
f 34/8/33 40/5/38 33/6/32
f 4/2/4 24/1/24 22/2/22
f 24/1/24 4/2/4 5/1/5
f 43/6/41 42/7/40 41/5/39
f 42/7/40 43/6/41 44/8/41
f 46/8/43 35/6/34 45/6/42
f 35/6/34 46/8/43 37/8/34
f 1/1/1 20/2/20 21/1/21
f 20/2/20 1/1/1 2/2/2
f 24/1/24 19/2/19 23/2/23
f 19/2/19 24/1/24 21/1/21
f 25/5/25 42/7/40 27/7/27
f 42/7/40 25/5/25 41/5/39
f 16/3/16 15/4/15 13/3/13
f 15/4/15 16/3/16 17/4/17
f 49/9/44 48/4/45 47/4/44
f 48/4/45 49/9/44 50/9/46
f 53/1/49 52/10/48 51/1/47
f 52/10/48 53/1/49 54/10/49
f 57/8/50 56/6/51 55/6/50
f 56/6/51 57/8/50 58/8/52
f 1/1/1 6/2/6 3/2/3
f 6/2/6 1/1/1 5/1/5
f 36/5/35 60/7/54 59/5/53
f 60/7/54 36/5/35 38/7/36
f 62/9/56 47/4/44 61/4/55
f 47/4/44 62/9/56 49/9/44
f 39/7/37 32/5/31 40/5/38
f 32/5/31 39/7/37 30/7/30
f 9/3/9 15/4/15 8/4/8
f 15/4/15 9/3/9 14/3/14
f 60/7/54 45/6/42 59/5/53
f 45/6/42 60/7/54 46/8/43
f 65/7/59 64/5/58 63/5/57
f 64/5/58 65/7/59 66/7/60
f 68/9/61 61/4/55 67/4/61
f 61/4/55 68/9/61 62/9/56
f 71/10/62 70/1/63 69/1/62
f 70/1/63 71/10/62 72/10/64
f 56/6/51 65/7/59 63/5/57
f 65/7/59 56/6/51 58/8/52
f 53/1/49 72/10/64 54/10/49
f 72/10/64 53/1/49 70/1/63
f 69/1/62 52/10/48 71/10/62
f 52/10/48 69/1/62 51/1/47
f 11/3/11 8/4/8 10/4/10
f 8/4/8 11/3/11 7/3/7
f 43/6/41 28/8/28 44/8/41
f 28/8/28 43/6/41 26/6/26
f 66/7/60 55/6/50 64/5/58
f 55/6/50 66/7/60 57/8/50
f 48/4/45 68/9/61 67/4/61
f 68/9/61 48/4/45 50/9/46
f 69/1/65 24/1/65 51/1/65
f 51/1/65 24/1/65 53/1/65
f 69/1/65 21/1/65 24/1/65
f 5/1/65 53/1/65 24/1/65
f 21/1/65 69/1/65 1/1/65
f 5/1/65 70/1/65 53/1/65
f 1/1/65 70/1/65 5/1/65
f 70/1/65 1/1/65 69/1/65
f 17/4/66 48/4/66 15/4/66
f 48/4/66 17/4/66 10/4/66
f 67/4/66 15/4/66 48/4/66
f 48/4/66 10/4/66 47/4/66
f 15/4/66 67/4/66 8/4/66
f 47/4/66 10/4/66 61/4/66
f 8/4/66 67/4/66 61/4/66
f 8/4/66 61/4/66 10/4/66
f 40/5/67 3/2/67 33/6/67
f 33/6/67 3/2/67 31/6/67
f 40/5/67 18/3/67 3/2/67
f 6/2/67 31/6/67 3/2/67
f 18/3/67 40/5/67 12/3/67
f 6/2/67 32/5/67 31/6/67
f 12/3/67 32/5/67 6/2/67
f 32/5/67 12/3/67 40/5/67
f 7/3/68 25/5/68 22/2/68
f 25/5/68 7/3/68 11/3/68
f 26/6/68 22/2/68 25/5/68
f 25/5/68 11/3/68 41/5/68
f 22/2/68 26/6/68 4/2/68
f 41/5/68 11/3/68 43/6/68
f 4/2/68 26/6/68 43/6/68
f 4/2/68 43/6/68 11/3/68
f 56/6/69 2/2/69 55/6/69
f 55/6/69 2/2/69 64/5/69
f 56/6/69 20/2/69 2/2/69
f 16/3/69 64/5/69 2/2/69
f 20/2/69 56/6/69 13/3/69
f 16/3/69 63/5/69 64/5/69
f 13/3/69 63/5/69 16/3/69
f 63/5/69 13/3/69 56/6/69
f 36/5/70 23/2/70 35/6/70
f 35/6/70 23/2/70 45/6/70
f 36/5/70 9/3/70 23/2/70
f 19/2/70 45/6/70 23/2/70
f 9/3/70 36/5/70 14/3/70
f 19/2/70 59/5/70 45/6/70
f 14/3/70 59/5/70 19/2/70
f 59/5/70 14/3/70 36/5/70
f 34/12/67 30/11/67 39/11/67
f 30/11/67 34/12/67 29/12/67
f 37/12/70 60/11/70 38/11/70
f 60/11/70 37/12/70 46/12/70
f 42/11/68 28/12/68 27/11/68
f 28/12/68 42/11/68 44/12/68
f 52/13/65 72/13/65 71/13/65
f 72/13/65 52/13/65 54/13/65
f 57/12/69 65/11/69 58/12/69
f 65/11/69 57/12/69 66/11/69
f 49/14/66 68/14/66 50/14/66
f 68/14/66 49/14/66 62/14/66

g crate-item




usemtl colormap

f 3/2/3 2/2/2 1/1/1
f 6/2/6 5/1/5 4/2/4
f 9/3/9 8/4/8 7/3/7
f 12/3/12 11/3/11 10/4/10
f 15/4/15 14/3/14 13/3/13
f 18/3/18 17/4/17 16/3/16
f 21/1/21 20/2/20 19/2/19
f 24/1/24 23/2/23 22/2/22
f 27/7/27 26/6/26 25/5/25
f 26/6/26 27/7/27 28/8/28
f 22/2/22 9/3/9 7/3/7
f 9/3/9 22/2/22 23/2/23
f 12/3/12 17/4/17 18/3/18
f 17/4/17 12/3/12 10/4/10
f 3/2/3 16/3/16 2/2/2
f 16/3/16 3/2/3 18/3/18
f 12/3/12 4/2/4 11/3/11
f 4/2/4 12/3/12 6/2/6
f 31/6/29 30/7/30 29/8/29
f 30/7/30 31/6/29 32/5/31
f 31/6/29 34/8/33 33/6/32
f 34/8/33 31/6/29 29/8/29
f 37/8/34 36/5/35 35/6/34
f 36/5/35 37/8/34 38/7/36
f 20/2/20 14/3/14 19/2/19
f 14/3/14 20/2/20 13/3/13
f 40/5/38 34/8/33 39/7/37
f 34/8/33 40/5/38 33/6/32
f 4/2/4 24/1/24 22/2/22
f 24/1/24 4/2/4 5/1/5
f 43/6/41 42/7/40 41/5/39
f 42/7/40 43/6/41 44/8/41
f 46/8/43 35/6/34 45/6/42
f 35/6/34 46/8/43 37/8/34
f 1/1/1 20/2/20 21/1/21
f 20/2/20 1/1/1 2/2/2
f 24/1/24 19/2/19 23/2/23
f 19/2/19 24/1/24 21/1/21
f 25/5/25 42/7/40 27/7/27
f 42/7/40 25/5/25 41/5/39
f 16/3/16 15/4/15 13/3/13
f 15/4/15 16/3/16 17/4/17
f 49/9/44 48/4/45 47/4/44
f 48/4/45 49/9/44 50/9/46
f 53/1/49 52/10/48 51/1/47
f 52/10/48 53/1/49 54/10/49
f 57/8/50 56/6/51 55/6/50
f 56/6/51 57/8/50 58/8/52
f 1/1/1 6/2/6 3/2/3
f 6/2/6 1/1/1 5/1/5
f 36/5/35 60/7/54 59/5/53
f 60/7/54 36/5/35 38/7/36
f 62/9/56 47/4/44 61/4/55
f 47/4/44 62/9/56 49/9/44
f 39/7/37 32/5/31 40/5/38
f 32/5/31 39/7/37 30/7/30
f 9/3/9 15/4/15 8/4/8
f 15/4/15 9/3/9 14/3/14
f 60/7/54 45/6/42 59/5/53
f 45/6/42 60/7/54 46/8/43
f 65/7/59 64/5/58 63/5/57
f 64/5/58 65/7/59 66/7/60
f 68/9/61 61/4/55 67/4/61
f 61/4/55 68/9/61 62/9/56
f 71/10/62 70/1/63 69/1/62
f 70/1/63 71/10/62 72/10/64
f 56/6/51 65/7/59 63/5/57
f 65/7/59 56/6/51 58/8/52
f 53/1/49 72/10/64 54/10/49
f 72/10/64 53/1/49 70/1/63
f 69/1/62 52/10/48 71/10/62
f 52/10/48 69/1/62 51/1/47
f 11/3/11 8/4/8 10/4/10
f 8/4/8 11/3/11 7/3/7
f 43/6/41 28/8/28 44/8/41
f 28/8/28 43/6/41 26/6/26
f 66/7/60 55/6/50 64/5/58
f 55/6/50 66/7/60 57/8/50
f 48/4/45 68/9/61 67/4/61
f 68/9/61 48/4/45 50/9/46
f 69/1/65 24/1/65 51/1/65
f 51/1/65 24/1/65 53/1/65
f 69/1/65 21/1/65 24/1/65
f 5/1/65 53/1/65 24/1/65
f 21/1/65 69/1/65 1/1/65
f 5/1/65 70/1/65 53/1/65
f 1/1/65 70/1/65 5/1/65
f 70/1/65 1/1/65 69/1/65
f 17/4/66 48/4/66 15/4/66
f 48/4/66 17/4/66 10/4/66
f 67/4/66 15/4/66 48/4/66
f 48/4/66 10/4/66 47/4/66
f 15/4/66 67/4/66 8/4/66
f 47/4/66 10/4/66 61/4/66
f 8/4/66 67/4/66 61/4/66
f 8/4/66 61/4/66 10/4/66
f 40/5/67 3/2/67 33/6/67
f 33/6/67 3/2/67 31/6/67
f 40/5/67 18/3/67 3/2/67
f 6/2/67 31/6/67 3/2/67
f 18/3/67 40/5/67 12/3/67
f 6/2/67 32/5/67 31/6/67
f 12/3/67 32/5/67 6/2/67
f 32/5/67 12/3/67 40/5/67
f 7/3/68 25/5/68 22/2/68
f 25/5/68 7/3/68 11/3/68
f 26/6/68 22/2/68 25/5/68
f 25/5/68 11/3/68 41/5/68
f 22/2/68 26/6/68 4/2/68
f 41/5/68 11/3/68 43/6/68
f 4/2/68 26/6/68 43/6/68
f 4/2/68 43/6/68 11/3/68
f 56/6/69 2/2/69 55/6/69
f 55/6/69 2/2/69 64/5/69
f 56/6/69 20/2/69 2/2/69
f 16/3/69 64/5/69 2/2/69
f 20/2/69 56/6/69 13/3/69
f 16/3/69 63/5/69 64/5/69
f 13/3/69 63/5/69 16/3/69
f 63/5/69 13/3/69 56/6/69
f 36/5/70 23/2/70 35/6/70
f 35/6/70 23/2/70 45/6/70
f 36/5/70 9/3/70 23/2/70
f 19/2/70 45/6/70 23/2/70
f 9/3/70 36/5/70 14/3/70
f 19/2/70 59/5/70 45/6/70
f 14/3/70 59/5/70 19/2/70
f 59/5/70 14/3/70 36/5/70
f 34/12/67 30/11/67 39/11/67
f 30/11/67 34/12/67 29/12/67
f 37/12/70 60/11/70 38/11/70
f 60/11/70 37/12/70 46/12/70
f 42/11/68 28/12/68 27/11/68
f 28/12/68 42/11/68 44/12/68
f 52/13/65 72/13/65 71/13/65
f 72/13/65 52/13/65 54/13/65
f 57/12/69 65/11/69 58/12/69
f 65/11/69 57/12/69 66/11/69
f 49/14/66 68/14/66 50/14/66
f 68/14/66 49/14/66 62/14/66

