# Created by Kenney (www.kenney.nl)

mtllib door-rotate.mtl

g door-rotate

v -0.3 0.7 -0.1 1 1 1
v -0.2598076 0.85 -0.1 1 1 1
v -0.3 0.7 0.1 1 1 1
v -0.2598076 0.85 0.1 1 1 1
v 0.3 0.7 -0.1 1 1 1
v 0.3 0 -0.1 1 1 1
v 0.3 0.7 0.1 1 1 1
v 0.3 2.26999E-17 0.1 1 1 1
v 0.2598076 0.85 -0.1 1 1 1
v 0.2598076 0.85 0.1 1 1 1
v 0.09971015 0.872703 -0.1 1 1 1
v 0.09971015 0.872703 0.1 1 1 1
v 0.172703 0.7997102 -0.1 1 1 1
v 0.172703 0.7997102 0.1 1 1 1
v -0.1994203 1.015062E-16 0.1 1 1 1
v -0.1994203 4.524707E-17 -0.1 1 1 1
v -0.3 0 0.1 1 1 1
v -0.3 0 -0.1 1 1 1
v 0.1994203 1.242061E-16 0.1 1 1 1
v 0.1994203 0.7 0.1 1 1 1
v 0.15 0.9598076 0.1 1 1 1
v -2.887646E-15 0.8994203 0.1 1 1 1
v -0.15 0.9598076 0.1 1 1 1
v 0 1 0.1 1 1 1
v -0.09971015 0.872703 0.1 1 1 1
v -0.172703 0.7997102 0.1 1 1 1
v -0.1994203 0.7 0.1 1 1 1
v 0.1994203 0.7 -0.1 1 1 1
v -0.1994203 0.7 -0.1 1 1 1
v -0.172703 0.7997102 -0.1 1 1 1
v -0.09971015 0.872703 -0.1 1 1 1
v -0.15 0.9598076 -0.1 1 1 1
v -2.887646E-15 0.8994203 -0.1 1 1 1
v 0.15 0.9598076 -0.1 1 1 1
v 0 1 -0.1 1 1 1
v 0.1994203 1.242061E-16 -0.1 1 1 1

vn -0.9914449 0.1305262 0
vn -0.8660254 0.5 0
vn 0.9914449 -0.1305262 0
vn 0.8660254 -0.5 0
vn 0.9914449 0.1305262 0
vn 1 0 0
vn -0.9914449 -0.1305262 0
vn -1 0 0
vn 0.8660254 0.5 0
vn -0.8660254 -0.5 0
vn -0.5 -0.8660254 0
vn 0.5 0.8660254 0
vn 0 -1 0
vn 0 1 0
vn 0 0 1
vn 0 0 -1
vn 0.5 -0.8660254 0
vn -0.5 0.8660254 0

vt 0.34375 0.415
vt 0.34375 0.445
vt 0.34375 0.275
vt 0.34375 0.4495406
vt 0.34375 0.434942
vt 0.34375 0.4669615
vt 0.34375 0.4548841
vt 0.34375 0.475

usemtl colormap

f 3/1/1 2/2/2 1/1/1
f 2/2/2 3/1/1 4/2/2
f 1/1/3 2/2/4 3/1/3
f 4/2/4 3/1/3 2/2/4
f 7/1/5 6/3/6 5/1/5
f 6/3/6 7/1/5 8/3/6
f 5/1/7 6/3/8 7/1/7
f 8/3/8 7/1/7 6/3/8
f 10/2/9 5/1/5 9/2/9
f 5/1/5 10/2/9 7/1/5
f 9/2/10 5/1/7 10/2/10
f 7/1/7 10/2/10 5/1/7
f 13/5/10 12/4/11 11/4/11
f 12/4/11 13/5/10 14/5/10
f 11/4/12 12/4/12 13/5/9
f 14/5/9 13/5/9 12/4/12
f 17/3/13 16/3/13 15/3/13
f 16/3/13 17/3/13 18/3/13
f 15/3/14 16/3/14 17/3/14
f 18/3/14 17/3/14 16/3/14
f 7/1/15 19/3/15 8/3/15
f 19/3/15 7/1/15 20/1/15
f 20/1/15 7/1/15 14/5/15
f 14/5/15 7/1/15 10/2/15
f 14/5/15 10/2/15 12/4/15
f 12/4/15 10/2/15 21/6/15
f 12/4/15 21/6/15 22/7/15
f 23/6/15 22/7/15 21/6/15
f 23/6/15 21/6/15 24/8/15
f 23/6/15 25/4/15 22/7/15
f 4/2/15 25/4/15 23/6/15
f 4/2/15 26/5/15 25/4/15
f 4/2/15 27/1/15 26/5/15
f 3/1/15 27/1/15 4/2/15
f 3/1/15 15/3/15 27/1/15
f 15/3/15 3/1/15 17/3/15
f 8/3/16 19/3/16 7/1/16
f 20/1/16 7/1/16 19/3/16
f 14/5/16 7/1/16 20/1/16
f 10/2/16 7/1/16 14/5/16
f 12/4/16 10/2/16 14/5/16
f 21/6/16 10/2/16 12/4/16
f 22/7/16 21/6/16 12/4/16
f 21/6/16 22/7/16 23/6/16
f 24/8/16 21/6/16 23/6/16
f 22/7/16 25/4/16 23/6/16
f 23/6/16 25/4/16 4/2/16
f 25/4/16 26/5/16 4/2/16
f 26/5/16 27/1/16 4/2/16
f 4/2/16 27/1/16 3/1/16
f 27/1/16 15/3/16 3/1/16
f 17/3/16 3/1/16 15/3/16
f 28/1/7 14/5/10 13/5/10
f 14/5/10 28/1/7 20/1/7
f 13/5/9 14/5/9 28/1/5
f 20/1/5 28/1/5 14/5/9
f 1/1/16 16/3/16 18/3/16
f 16/3/16 1/1/16 29/1/16
f 29/1/16 1/1/16 2/2/16
f 29/1/16 2/2/16 30/5/16
f 30/5/16 2/2/16 31/4/16
f 31/4/16 2/2/16 32/6/16
f 31/4/16 32/6/16 33/7/16
f 34/6/16 33/7/16 32/6/16
f 34/6/16 32/6/16 35/8/16
f 34/6/16 11/4/16 33/7/16
f 9/2/16 11/4/16 34/6/16
f 9/2/16 13/5/16 11/4/16
f 5/1/16 13/5/16 9/2/16
f 5/1/16 28/1/16 13/5/16
f 5/1/16 36/3/16 28/1/16
f 36/3/16 5/1/16 6/3/16
f 18/3/15 16/3/15 1/1/15
f 29/1/15 1/1/15 16/3/15
f 2/2/15 1/1/15 29/1/15
f 30/5/15 2/2/15 29/1/15
f 31/4/15 2/2/15 30/5/15
f 32/6/15 2/2/15 31/4/15
f 33/7/15 32/6/15 31/4/15
f 32/6/15 33/7/15 34/6/15
f 35/8/15 32/6/15 34/6/15
f 33/7/15 11/4/15 34/6/15
f 34/6/15 11/4/15 9/2/15
f 11/4/15 13/5/15 9/2/15
f 9/2/15 13/5/15 5/1/15
f 13/5/15 28/1/15 5/1/15
f 28/1/15 36/3/15 5/1/15
f 6/3/15 5/1/15 36/3/15
f 36/3/8 20/1/7 28/1/7
f 20/1/7 36/3/8 19/3/8
f 28/1/5 20/1/5 36/3/6
f 19/3/6 36/3/6 20/1/5
f 35/8/14 21/6/12 34/6/12
f 21/6/12 35/8/14 24/8/14
f 34/6/11 21/6/11 35/8/13
f 24/8/13 35/8/13 21/6/11
f 18/3/8 3/1/1 1/1/1
f 3/1/1 18/3/8 17/3/8
f 1/1/3 3/1/3 18/3/6
f 17/3/6 18/3/6 3/1/3
f 27/1/3 16/3/6 29/1/3
f 16/3/6 27/1/3 15/3/6
f 29/1/1 16/3/8 27/1/1
f 15/3/8 27/1/1 16/3/8
f 30/5/4 27/1/3 29/1/3
f 27/1/3 30/5/4 26/5/4
f 29/1/1 27/1/1 30/5/2
f 26/5/2 30/5/2 27/1/1
f 19/3/13 6/3/13 8/3/13
f 6/3/13 19/3/13 36/3/13
f 8/3/14 6/3/14 19/3/14
f 36/3/14 19/3/14 6/3/14
f 31/4/17 26/5/4 30/5/4
f 26/5/4 31/4/17 25/4/17
f 30/5/2 26/5/2 31/4/18
f 25/4/18 31/4/18 26/5/2
f 34/6/12 10/2/9 9/2/9
f 10/2/9 34/6/12 21/6/12
f 9/2/10 10/2/10 34/6/11
f 21/6/11 34/6/11 10/2/10
f 32/6/18 24/8/14 35/8/14
f 24/8/14 32/6/18 23/6/18
f 35/8/13 24/8/13 32/6/17
f 23/6/17 32/6/17 24/8/13
f 25/4/17 33/7/13 22/7/13
f 33/7/13 25/4/17 31/4/17
f 22/7/14 33/7/14 25/4/18
f 31/4/18 25/4/18 33/7/14
f 22/7/13 11/4/11 12/4/11
f 11/4/11 22/7/13 33/7/13
f 12/4/12 11/4/12 22/7/14
f 33/7/14 22/7/14 11/4/12
f 4/2/2 32/6/18 2/2/2
f 32/6/18 4/2/2 23/6/18
f 2/2/4 32/6/17 4/2/4
f 23/6/17 4/2/4 32/6/17

g door-rotate




usemtl colormap

f 3/1/1 2/2/2 1/1/1
f 2/2/2 3/1/1 4/2/2
f 1/1/3 2/2/4 3/1/3
f 4/2/4 3/1/3 2/2/4
f 7/1/5 6/3/6 5/1/5
f 6/3/6 7/1/5 8/3/6
f 5/1/7 6/3/8 7/1/7
f 8/3/8 7/1/7 6/3/8
f 10/2/9 5/1/5 9/2/9
f 5/1/5 10/2/9 7/1/5
f 9/2/10 5/1/7 10/2/10
f 7/1/7 10/2/10 5/1/7
f 13/5/10 12/4/11 11/4/11
f 12/4/11 13/5/10 14/5/10
f 11/4/12 12/4/12 13/5/9
f 14/5/9 13/5/9 12/4/12
f 17/3/13 16/3/13 15/3/13
f 16/3/13 17/3/13 18/3/13
f 15/3/14 16/3/14 17/3/14
f 18/3/14 17/3/14 16/3/14
f 7/1/15 19/3/15 8/3/15
f 19/3/15 7/1/15 20/1/15
f 20/1/15 7/1/15 14/5/15
f 14/5/15 7/1/15 10/2/15
f 14/5/15 10/2/15 12/4/15
f 12/4/15 10/2/15 21/6/15
f 12/4/15 21/6/15 22/7/15
f 23/6/15 22/7/15 21/6/15
f 23/6/15 21/6/15 24/8/15
f 23/6/15 25/4/15 22/7/15
f 4/2/15 25/4/15 23/6/15
f 4/2/15 26/5/15 25/4/15
f 4/2/15 27/1/15 26/5/15
f 3/1/15 27/1/15 4/2/15
f 3/1/15 15/3/15 27/1/15
f 15/3/15 3/1/15 17/3/15
f 8/3/16 19/3/16 7/1/16
f 20/1/16 7/1/16 19/3/16
f 14/5/16 7/1/16 20/1/16
f 10/2/16 7/1/16 14/5/16
f 12/4/16 10/2/16 14/5/16
f 21/6/16 10/2/16 12/4/16
f 22/7/16 21/6/16 12/4/16
f 21/6/16 22/7/16 23/6/16
f 24/8/16 21/6/16 23/6/16
f 22/7/16 25/4/16 23/6/16
f 23/6/16 25/4/16 4/2/16
f 25/4/16 26/5/16 4/2/16
f 26/5/16 27/1/16 4/2/16
f 4/2/16 27/1/16 3/1/16
f 27/1/16 15/3/16 3/1/16
f 17/3/16 3/1/16 15/3/16
f 28/1/7 14/5/10 13/5/10
f 14/5/10 28/1/7 20/1/7
f 13/5/9 14/5/9 28/1/5
f 20/1/5 28/1/5 14/5/9
f 1/1/16 16/3/16 18/3/16
f 16/3/16 1/1/16 29/1/16
f 29/1/16 1/1/16 2/2/16
f 29/1/16 2/2/16 30/5/16
f 30/5/16 2/2/16 31/4/16
f 31/4/16 2/2/16 32/6/16
f 31/4/16 32/6/16 33/7/16
f 34/6/16 33/7/16 32/6/16
f 34/6/16 32/6/16 35/8/16
f 34/6/16 11/4/16 33/7/16
f 9/2/16 11/4/16 34/6/16
f 9/2/16 13/5/16 11/4/16
f 5/1/16 13/5/16 9/2/16
f 5/1/16 28/1/16 13/5/16
f 5/1/16 36/3/16 28/1/16
f 36/3/16 5/1/16 6/3/16
f 18/3/15 16/3/15 1/1/15
f 29/1/15 1/1/15 16/3/15
f 2/2/15 1/1/15 29/1/15
f 30/5/15 2/2/15 29/1/15
f 31/4/15 2/2/15 30/5/15
f 32/6/15 2/2/15 31/4/15
f 33/7/15 32/6/15 31/4/15
f 32/6/15 33/7/15 34/6/15
f 35/8/15 32/6/15 34/6/15
f 33/7/15 11/4/15 34/6/15
f 34/6/15 11/4/15 9/2/15
f 11/4/15 13/5/15 9/2/15
f 9/2/15 13/5/15 5/1/15
f 13/5/15 28/1/15 5/1/15
f 28/1/15 36/3/15 5/1/15
f 6/3/15 5/1/15 36/3/15
f 36/3/8 20/1/7 28/1/7
f 20/1/7 36/3/8 19/3/8
f 28/1/5 20/1/5 36/3/6
f 19/3/6 36/3/6 20/1/5
f 35/8/14 21/6/12 34/6/12
f 21/6/12 35/8/14 24/8/14
f 34/6/11 21/6/11 35/8/13
f 24/8/13 35/8/13 21/6/11
f 18/3/8 3/1/1 1/1/1
f 3/1/1 18/3/8 17/3/8
f 1/1/3 3/1/3 18/3/6
f 17/3/6 18/3/6 3/1/3
f 27/1/3 16/3/6 29/1/3
f 16/3/6 27/1/3 15/3/6
f 29/1/1 16/3/8 27/1/1
f 15/3/8 27/1/1 16/3/8
f 30/5/4 27/1/3 29/1/3
f 27/1/3 30/5/4 26/5/4
f 29/1/1 27/1/1 30/5/2
f 26/5/2 30/5/2 27/1/1
f 19/3/13 6/3/13 8/3/13
f 6/3/13 19/3/13 36/3/13
f 8/3/14 6/3/14 19/3/14
f 36/3/14 19/3/14 6/3/14
f 31/4/17 26/5/4 30/5/4
f 26/5/4 31/4/17 25/4/17
f 30/5/2 26/5/2 31/4/18
f 25/4/18 31/4/18 26/5/2
f 34/6/12 10/2/9 9/2/9
f 10/2/9 34/6/12 21/6/12
f 9/2/10 10/2/10 34/6/11
f 21/6/11 34/6/11 10/2/10
f 32/6/18 24/8/14 35/8/14
f 24/8/14 32/6/18 23/6/18
f 35/8/13 24/8/13 32/6/17
f 23/6/17 32/6/17 24/8/13
f 25/4/17 33/7/13 22/7/13
f 33/7/13 25/4/17 31/4/17
f 22/7/14 33/7/14 25/4/18
f 31/4/18 25/4/18 33/7/14
f 22/7/13 11/4/11 12/4/11
f 11/4/11 22/7/13 33/7/13
f 12/4/12 11/4/12 22/7/14
f 33/7/14 22/7/14 11/4/12
f 4/2/2 32/6/18 2/2/2
f 32/6/18 4/2/2 23/6/18
f 2/2/4 32/6/17 4/2/4
f 23/6/17 4/2/4 32/6/17

g door

v 0 0.8994203 0.05 1 1 1
v -0.09971015 0.872703 0.05 1 1 1
v 0.09971014 0.872703 0.05 1 1 1
v -0.172703 0.7997102 0.05 1 1 1
v 0.172703 0.7997102 0.05 1 1 1
v 0 0.7958927 0.05 1 1 1
v 0.04794633 0.7830455 0.05 1 1 1
v -0.04794635 0.7830455 0.05 1 1 1
v 0.08304548 0.7479463 0.05 1 1 1
v -0.0830455 0.7479463 0.05 1 1 1
v 0.1994203 0.7 0.05 1 1 1
v 0.09942031 0.6868348 0.05 1 1 1
v 0.09942031 0.1 0.05 1 1 1
v 0.1994203 9.607653E-17 0.05 1 1 1
v -0.1994203 0.7 0.05 1 1 1
v -0.0994203 0.6868348 0.05 1 1 1
v -0.0994203 0.1 0.05 1 1 1
v -0.1994203 7.337663E-17 0.05 1 1 1
v 0.09942031 0.1 0.025 1 1 1
v -0.0994203 0.1 0.025 1 1 1
v 0.09942031 0.6868348 0.025 1 1 1
v -0.0994203 0.6868348 0.025 1 1 1
v -0.0830455 0.7479463 0.025 1 1 1
v 0.08304548 0.7479463 0.025 1 1 1
v 0.04794633 0.7830455 0.025 1 1 1
v -0.04794635 0.7830455 0.025 1 1 1
v 0 0.7958927 0.025 1 1 1
v -0.0994203 0.1 -0.025 1 1 1
v 0.09942031 0.1 -0.025 1 1 1
v -0.0994203 0.6868348 -0.025 1 1 1
v 0.09942031 0.6868348 -0.025 1 1 1
v -0.0830455 0.7479463 -0.025 1 1 1
v 0.08304548 0.7479463 -0.025 1 1 1
v 0.04794633 0.7830455 -0.025 1 1 1
v -0.04794635 0.7830455 -0.025 1 1 1
v 0 0.7958927 -0.025 1 1 1
v 0 0.8994203 -0.05 1 1 1
v -0.09971015 0.872703 -0.05 1 1 1
v 0.09971014 0.872703 -0.05 1 1 1
v -0.172703 0.7997102 -0.05 1 1 1
v 0.172703 0.7997102 -0.05 1 1 1
v 0 0.7958927 -0.05 1 1 1
v 0.04794633 0.7830455 -0.05 1 1 1
v -0.04794635 0.7830455 -0.05 1 1 1
v 0.08304548 0.7479463 -0.05 1 1 1
v -0.0830455 0.7479463 -0.05 1 1 1
v 0.1994203 0.7 -0.05 1 1 1
v 0.09942031 0.6868348 -0.05 1 1 1
v 0.09942031 0.1 -0.05 1 1 1
v 0.1994203 9.607653E-17 -0.05 1 1 1
v -0.1994203 0.7 -0.05 1 1 1
v -0.0994203 0.6868348 -0.05 1 1 1
v -0.0994203 0.1 -0.05 1 1 1
v -0.1994203 7.337663E-17 -0.05 1 1 1
v 0.19942 0.3 0.075 1 1 1
v -0.1994206 0.3 0.075 1 1 1
v 0.19942 0.4 0.075 1 1 1
v -0.1994206 0.4 0.075 1 1 1
v -0.2244206 0.3 -0.05 1 1 1
v -0.2244206 0.4 -0.05 1 1 1
v -0.2244206 0.3 0.05 1 1 1
v -0.2244206 0.4 0.05 1 1 1
v -0.1994206 0.3 -0.075 1 1 1
v 0.19942 0.3 -0.075 1 1 1
v -0.1994206 0.4 -0.075 1 1 1
v 0.19942 0.4 -0.075 1 1 1
v 0.22442 0.4 -0.05 1 1 1
v 0.22442 0.3 -0.05 1 1 1
v 0.22442 0.4 0.05 1 1 1
v 0.22442 0.3 0.05 1 1 1

vn -0.9659258 -0.258819 0
vn 0.9659258 -0.258819 0
vn 0.9659258 0.258819 0
vn -0.9659258 0.258819 0
vn 0.3826834 0 0.9238795
vn -0.3826834 0 0.9238795
vn -0.9238795 0 -0.3826834
vn -0.9238795 0 0.3826834
vn -0.3826834 0 -0.9238795
vn 0.3826834 0 -0.9238795
vn 0.9238795 0 -0.3826834
vn 0.9238795 0 0.3826834

vt 0.59375 0.075
vt 0.59375 0.0779705
vt 0.59375 0.08608604
vt 0.59375 0.08651047
vt 0.59375 0.08793885
vt 0.59375 0.09184129
vt 0.59375 0.09717209
vt 0.59375 0.09863583
vt 0.59375 0.1638817
vt 0.59375 0.175
vt 0.71875 0.3486358
vt 0.71875 0.4138817
vt 0.71875 0.3418413
vt 0.71875 0.3365105
vt 0.71875 0.3379388
vt 0.71875 0.3279705
vt 0.71875 0.325
vt 0.71875 0.336086
vt 0.71875 0.3471721
vt 0.71875 0.425

usemtl colormap

f 39/10/16 38/10/16 37/9/16
f 39/10/16 40/11/16 38/10/16
f 41/11/16 40/11/16 39/10/16
f 42/12/16 40/11/16 41/11/16
f 41/11/16 43/13/16 42/12/16
f 44/13/16 40/11/16 42/12/16
f 41/11/16 45/14/16 43/13/16
f 46/14/16 40/11/16 44/13/16
f 47/15/16 45/14/16 41/11/16
f 47/15/16 48/16/16 45/14/16
f 47/15/16 49/17/16 48/16/16
f 50/18/16 49/17/16 47/15/16
f 46/14/16 51/15/16 40/11/16
f 52/16/16 51/15/16 46/14/16
f 49/17/16 50/18/16 53/17/16
f 53/17/16 51/15/16 52/16/16
f 54/18/16 53/17/16 50/18/16
f 53/17/16 54/18/16 51/15/16
f 57/16/15 56/17/15 55/17/15
f 56/17/15 57/16/15 58/16/15
f 58/16/15 57/16/15 59/14/15
f 59/14/15 57/16/15 60/14/15
f 59/14/15 60/14/15 61/13/15
f 59/14/15 61/13/15 62/13/15
f 62/13/15 61/13/15 63/12/15
f 66/16/16 65/17/16 64/17/16
f 65/17/16 66/16/16 67/16/16
f 67/16/16 66/16/16 68/14/16
f 67/16/16 68/14/16 69/14/16
f 69/14/16 68/14/16 70/13/16
f 70/13/16 68/14/16 71/13/16
f 70/13/16 71/13/16 72/12/16
f 58/19/6 64/20/6 66/19/6
f 64/20/6 58/19/6 56/20/6
f 64/20/14 55/20/14 65/20/14
f 55/20/14 64/20/14 56/20/14
f 57/19/19 69/21/10 67/19/19
f 69/21/10 57/19/19 60/21/10
f 63/22/13 71/23/17 72/22/13
f 71/23/17 63/22/13 62/23/17
f 55/20/8 67/19/8 65/20/8
f 67/19/8 55/20/8 57/19/8
f 69/21/10 61/23/11 70/23/11
f 61/23/11 69/21/10 60/21/10
f 68/21/4 58/19/20 66/19/20
f 58/19/20 68/21/4 59/21/4
f 71/23/17 59/21/4 68/21/4
f 59/21/4 71/23/17 62/23/17
f 61/23/11 72/22/13 70/23/11
f 72/22/13 61/23/11 63/22/13
f 37/25/15 38/24/15 39/24/15
f 38/24/15 40/26/15 39/24/15
f 39/24/15 40/26/15 41/26/15
f 41/26/15 40/26/15 42/22/15
f 42/22/15 40/26/15 44/23/15
f 42/22/15 43/23/15 41/26/15
f 44/23/15 40/26/15 46/21/15
f 43/23/15 45/21/15 41/26/15
f 40/26/15 51/27/15 46/21/15
f 46/21/15 51/27/15 52/19/15
f 41/26/15 45/21/15 47/27/15
f 45/21/15 48/19/15 47/27/15
f 48/19/15 49/20/15 47/27/15
f 47/27/15 49/20/15 50/28/15
f 52/19/15 51/27/15 53/20/15
f 53/20/15 50/28/15 49/20/15
f 51/27/15 54/28/15 53/20/15
f 50/28/15 53/20/15 54/28/15
f 75/24/16 74/24/16 73/25/16
f 75/24/16 76/26/16 74/24/16
f 77/26/16 76/26/16 75/24/16
f 78/22/16 76/26/16 77/26/16
f 77/26/16 79/23/16 78/22/16
f 80/23/16 76/26/16 78/22/16
f 77/26/16 81/21/16 79/23/16
f 82/21/16 76/26/16 80/23/16
f 83/27/16 81/21/16 77/26/16
f 83/27/16 84/19/16 81/21/16
f 83/27/16 85/20/16 84/19/16
f 86/28/16 85/20/16 83/27/16
f 82/21/16 87/27/16 76/26/16
f 88/19/16 87/27/16 82/21/16
f 85/20/16 86/28/16 89/20/16
f 89/20/16 87/27/16 88/19/16
f 90/28/16 89/20/16 86/28/16
f 89/20/16 90/28/16 87/27/16
f 73/25/15 74/24/15 75/24/15
f 74/24/15 76/26/15 75/24/15
f 75/24/15 76/26/15 77/26/15
f 77/26/15 76/26/15 78/22/15
f 78/22/15 76/26/15 80/23/15
f 78/22/15 79/23/15 77/26/15
f 80/23/15 76/26/15 82/21/15
f 79/23/15 81/21/15 77/26/15
f 76/26/15 87/27/15 82/21/15
f 82/21/15 87/27/15 88/19/15
f 77/26/15 81/21/15 83/27/15
f 81/21/15 84/19/15 83/27/15
f 84/19/15 85/20/15 83/27/15
f 83/27/15 85/20/15 86/28/15
f 88/19/15 87/27/15 89/20/15
f 89/20/15 86/28/15 85/20/15
f 87/27/15 90/28/15 89/20/15
f 86/28/15 89/20/15 90/28/15
f 50/28/13 90/28/13 86/28/13
f 90/28/13 50/28/13 54/28/13
f 86/28/14 90/28/14 50/28/14
f 54/28/14 50/28/14 90/28/14
f 47/27/6 86/28/6 83/27/6
f 86/28/6 47/27/6 50/28/6
f 83/27/8 86/28/8 47/27/8
f 50/28/8 47/27/8 86/28/8
f 41/26/9 83/27/21 77/26/9
f 83/27/21 41/26/9 47/27/21
f 77/26/10 83/27/19 41/26/10
f 47/27/19 41/26/10 83/27/19
f 39/24/12 77/26/9 75/24/12
f 77/26/9 39/24/12 41/26/9
f 75/24/11 77/26/10 39/24/11
f 41/26/10 39/24/11 77/26/10
f 73/25/14 39/24/12 75/24/12
f 39/24/12 73/25/14 37/25/14
f 75/24/11 39/24/11 73/25/13
f 37/25/13 73/25/13 39/24/11
f 74/24/18 37/25/14 73/25/14
f 37/25/14 74/24/18 38/24/18
f 73/25/13 37/25/13 74/24/17
f 38/24/17 74/24/17 37/25/13
f 40/26/2 74/24/18 76/26/2
f 74/24/18 40/26/2 38/24/18
f 76/26/4 74/24/17 40/26/4
f 38/24/17 40/26/4 74/24/17
f 51/27/22 76/26/2 87/27/22
f 76/26/2 51/27/22 40/26/2
f 87/27/20 76/26/4 51/27/20
f 40/26/4 51/27/20 76/26/4
f 54/28/8 87/27/8 90/28/8
f 87/27/8 54/28/8 51/27/8
f 90/28/6 87/27/6 54/28/6
f 51/27/6 54/28/6 87/27/6
f 57/19/19 45/21/10 60/21/10
f 45/21/10 57/19/19 48/19/19
f 48/19/21 57/19/21 45/21/9
f 60/21/9 45/21/9 57/19/21
f 60/21/9 57/19/21 69/21/9
f 67/19/21 69/21/9 57/19/21
f 69/21/9 67/19/21 81/21/9
f 84/19/21 81/21/9 67/19/21
f 60/21/10 43/23/11 61/23/11
f 43/23/11 60/21/10 45/21/10
f 45/21/9 60/21/9 43/23/12
f 61/23/12 43/23/12 60/21/9
f 60/21/9 69/21/9 61/23/12
f 70/23/12 61/23/12 69/21/9
f 69/21/9 81/21/9 70/23/12
f 79/23/12 70/23/12 81/21/9
f 43/23/11 63/22/13 61/23/11
f 63/22/13 43/23/11 42/22/13
f 42/22/14 43/23/12 63/22/14
f 61/23/12 63/22/14 43/23/12
f 63/22/14 61/23/12 72/22/14
f 70/23/12 72/22/14 61/23/12
f 72/22/14 70/23/12 78/22/14
f 79/23/12 78/22/14 70/23/12
f 62/23/17 46/21/4 59/21/4
f 46/21/4 62/23/17 44/23/17
f 44/23/18 62/23/18 46/21/2
f 59/21/2 46/21/2 62/23/18
f 62/23/18 71/23/18 59/21/2
f 68/21/2 59/21/2 71/23/18
f 71/23/18 80/23/18 68/21/2
f 82/21/2 68/21/2 80/23/18
f 42/22/13 62/23/17 63/22/13
f 62/23/17 42/22/13 44/23/17
f 44/23/18 42/22/14 62/23/18
f 63/22/14 62/23/18 42/22/14
f 62/23/18 63/22/14 71/23/18
f 72/22/14 71/23/18 63/22/14
f 71/23/18 72/22/14 80/23/18
f 78/22/14 80/23/18 72/22/14
f 49/20/8 57/19/8 55/20/8
f 57/19/8 49/20/8 48/19/8
f 48/19/6 49/20/6 57/19/6
f 55/20/6 57/19/6 49/20/6
f 57/19/6 55/20/6 67/19/6
f 65/20/6 67/19/6 55/20/6
f 67/19/6 65/20/6 84/19/6
f 85/20/6 84/19/6 65/20/6
f 56/20/14 49/20/14 55/20/14
f 49/20/14 56/20/14 53/20/14
f 53/20/13 56/20/13 49/20/13
f 55/20/13 49/20/13 56/20/13
f 56/20/13 64/20/13 55/20/13
f 65/20/13 55/20/13 64/20/13
f 64/20/13 89/20/13 65/20/13
f 85/20/13 65/20/13 89/20/13
f 59/21/4 52/19/20 58/19/20
f 52/19/20 59/21/4 46/21/4
f 46/21/2 59/21/2 52/19/22
f 58/19/22 52/19/22 59/21/2
f 59/21/2 68/21/2 58/19/22
f 66/19/22 58/19/22 68/21/2
f 68/21/2 82/21/2 66/19/22
f 88/19/22 66/19/22 82/21/2
f 52/19/6 56/20/6 58/19/6
f 56/20/6 52/19/6 53/20/6
f 53/20/8 52/19/8 56/20/8
f 58/19/8 56/20/8 52/19/8
f 56/20/8 58/19/8 64/20/8
f 66/19/8 64/20/8 58/19/8
f 64/20/8 66/19/8 89/20/8
f 88/19/8 89/20/8 66/19/8
f 64/20/15 65/20/15 66/19/15
f 67/19/15 66/19/15 65/20/15
f 68/21/15 66/19/15 67/19/15
f 69/21/15 68/21/15 67/19/15
f 70/23/15 68/21/15 69/21/15
f 71/23/15 68/21/15 70/23/15
f 72/22/15 71/23/15 70/23/15
f 72/22/13 80/23/17 78/22/13
f 80/23/17 72/22/13 71/23/17
f 70/23/11 78/22/13 79/23/11
f 78/22/13 70/23/11 72/22/13
f 81/21/10 70/23/11 79/23/11
f 70/23/11 81/21/10 69/21/10
f 67/19/19 81/21/10 84/19/19
f 81/21/10 67/19/19 69/21/10
f 80/23/17 68/21/4 82/21/4
f 68/21/4 80/23/17 71/23/17
f 65/20/8 84/19/8 85/20/8
f 84/19/8 65/20/8 67/19/8
f 89/20/14 65/20/14 85/20/14
f 65/20/14 89/20/14 64/20/14
f 82/21/4 66/19/20 88/19/20
f 66/19/20 82/21/4 68/21/4
f 66/19/6 89/20/6 88/19/6
f 89/20/6 66/19/6 64/20/6
f 93/28/23 92/25/24 91/25/23
f 92/25/24 93/28/23 94/28/24
f 97/25/26 96/28/25 95/25/25
f 96/28/25 97/25/26 98/28/26
f 101/28/27 100/25/28 99/25/27
f 100/25/28 101/28/27 102/28/28
f 105/28/30 104/25/29 103/28/29
f 104/25/29 105/28/30 106/25/30
f 92/25/24 98/28/26 97/25/26
f 98/28/26 92/25/24 94/28/24
f 95/25/25 101/28/27 99/25/27
f 101/28/27 95/25/25 96/28/25
f 103/28/29 100/25/28 102/28/28
f 100/25/28 103/28/29 104/25/29
f 93/28/23 106/25/30 105/28/30
f 106/25/30 93/28/23 91/25/23
f 91/25/13 104/25/13 106/25/13
f 104/25/13 91/25/13 100/25/13
f 100/25/13 91/25/13 92/25/13
f 100/25/13 92/25/13 99/25/13
f 99/25/13 92/25/13 97/25/13
f 99/25/13 97/25/13 95/25/13
f 102/28/14 105/28/14 103/28/14
f 105/28/14 102/28/14 93/28/14
f 93/28/14 102/28/14 101/28/14
f 93/28/14 101/28/14 94/28/14
f 94/28/14 101/28/14 96/28/14
f 94/28/14 96/28/14 98/28/14

