# Created by Kenney (www.kenney.nl)

mtllib fence-low-straight.mtl

g fence-low-straight

v -0.3 0 0.4 1 1 1
v -0.3292893 0 0.3292893 1 1 1
v -0.3292893 0 0.4707107 1 1 1
v -0.4 0 0.5 1 1 1
v -0.4 0 0.3 1 1 1
v -0.4707107 0 0.4707107 1 1 1
v -0.4707107 0 0.3292893 1 1 1
v -0.5 0 0.4 1 1 1
v -0.3 0.3 0.4 1 1 1
v -0.3292893 0.3 0.4707107 1 1 1
v -0.4 0.3 0.5 1 1 1
v -0.4707107 0.3 0.4707107 1 1 1
v -0.5 0.3 0.4 1 1 1
v -0.4707107 0.3 0.3292893 1 1 1
v -0.4 0.3 0.3 1 1 1
v -0.3292893 0.3 0.3292893 1 1 1
v 0.5 0 0.4 1 1 1
v 0.4707107 0 0.3292893 1 1 1
v 0.4707107 0 0.4707107 1 1 1
v 0.4 0 0.5 1 1 1
v 0.4 0 0.3 1 1 1
v 0.3292893 0 0.4707107 1 1 1
v 0.3292893 0 0.3292893 1 1 1
v 0.3 0 0.4 1 1 1
v 0.5 0.3 0.4 1 1 1
v 0.4707107 0.3 0.4707107 1 1 1
v 0.4 0.3 0.5 1 1 1
v 0.3292893 0.3 0.4707107 1 1 1
v 0.3 0.3 0.4 1 1 1
v 0.3292893 0.3 0.3292893 1 1 1
v 0.4 0.3 0.3 1 1 1
v 0.4707107 0.3 0.3292893 1 1 1
v 0.4 0.224 0.349 1 1 1
v 0.4 0.224 0.451 1 1 1
v -0.4 0.224 0.349 1 1 1
v -0.4 0.224 0.451 1 1 1
v 0.4 0.097 0.476 1 1 1
v -0.4 0.097 0.476 1 1 1
v 0.4 0.199 0.476 1 1 1
v -0.4 0.199 0.476 1 1 1
v 0.4 0.072 0.451 1 1 1
v 0.4 0.072 0.349 1 1 1
v -0.4 0.072 0.451 1 1 1
v -0.4 0.072 0.349 1 1 1
v -0.4 0.097 0.324 1 1 1
v 0.4 0.097 0.324 1 1 1
v -0.4 0.199 0.324 1 1 1
v 0.4 0.199 0.324 1 1 1

vn 0 -1 0
vn 1 0 0
vn 0.7071068 0 0.7071068
vn 0 0 1
vn -0.7071068 0 0.7071068
vn -1 0 0
vn -0.7071068 0 -0.7071068
vn 0 0 -1
vn 0.7071068 0 -0.7071068
vn 0 0.9238796 -0.3826835
vn 0 0.9238796 0.3826835
vn 0 -0.3826835 0.9238796
vn 0 0.3826835 0.9238796
vn 0 -0.9238796 0.3826835
vn 0 -0.9238796 -0.3826835
vn 0 -0.3826835 -0.9238796
vn 0 0.3826835 -0.9238796
vn 0 1 0

vt 0.84375 0.025
vt 0.84375 0.225
vt 0.84375 0.1414474
vt 0.84375 0.2085526
vt 0.84375 0.125
vt 0.71875 0.225

usemtl colormap

f 3/1/1 2/1/1 1/1/1
f 2/1/1 3/1/1 4/1/1
f 2/1/1 4/1/1 5/1/1
f 5/1/1 4/1/1 6/1/1
f 5/1/1 6/1/1 7/1/1
f 7/1/1 6/1/1 8/1/1
f 10/2/3 1/1/2 9/2/2
f 1/1/2 10/2/3 3/1/3
f 10/2/3 4/1/4 3/1/3
f 4/1/4 10/2/3 11/2/4
f 11/2/4 6/1/5 4/1/4
f 6/1/5 11/2/4 12/2/5
f 6/1/5 13/2/6 8/1/6
f 13/2/6 6/1/5 12/2/5
f 8/1/6 14/2/7 7/1/7
f 14/2/7 8/1/6 13/2/6
f 14/2/7 5/1/8 7/1/7
f 5/1/8 14/2/7 15/2/8
f 15/2/8 2/1/9 5/1/8
f 2/1/9 15/2/8 16/2/9
f 9/2/2 2/1/9 16/2/9
f 2/1/9 9/2/2 1/1/2
f 19/1/1 18/1/1 17/1/1
f 18/1/1 19/1/1 20/1/1
f 18/1/1 20/1/1 21/1/1
f 21/1/1 20/1/1 22/1/1
f 21/1/1 22/1/1 23/1/1
f 23/1/1 22/1/1 24/1/1
f 26/2/3 17/1/2 25/2/2
f 17/1/2 26/2/3 19/1/3
f 26/2/3 20/1/4 19/1/3
f 20/1/4 26/2/3 27/2/4
f 27/2/4 22/1/5 20/1/4
f 22/1/5 27/2/4 28/2/5
f 22/1/5 29/2/6 24/1/6
f 29/2/6 22/1/5 28/2/5
f 24/1/6 30/2/7 23/1/7
f 30/2/7 24/1/6 29/2/6
f 30/2/7 21/1/8 23/1/7
f 21/1/8 30/2/7 31/2/8
f 31/2/8 18/1/9 21/1/8
f 18/1/9 31/2/8 32/2/9
f 25/2/2 18/1/9 32/2/9
f 18/1/9 25/2/2 17/1/2
f 35/2/10 34/2/11 33/2/10
f 34/2/11 35/2/10 36/2/11
f 39/4/13 38/3/12 37/3/12
f 38/3/12 39/4/13 40/4/13
f 43/5/14 42/5/15 41/5/14
f 42/5/15 43/5/14 44/5/15
f 47/4/17 46/3/16 45/3/16
f 46/3/16 47/4/17 48/4/17
f 38/3/12 41/5/14 37/3/12
f 41/5/14 38/3/12 43/5/14
f 44/5/15 46/3/16 42/5/15
f 46/3/16 44/5/15 45/3/16
f 47/4/17 33/2/10 48/4/17
f 33/2/10 47/4/17 35/2/10
f 36/2/11 39/4/13 34/2/11
f 39/4/13 36/2/11 40/4/13
f 16/6/18 10/6/18 9/6/18
f 10/6/18 16/6/18 15/6/18
f 10/6/18 15/6/18 11/6/18
f 11/6/18 15/6/18 14/6/18
f 11/6/18 14/6/18 12/6/18
f 12/6/18 14/6/18 13/6/18
f 32/6/18 26/6/18 25/6/18
f 26/6/18 32/6/18 31/6/18
f 26/6/18 31/6/18 27/6/18
f 27/6/18 31/6/18 30/6/18
f 27/6/18 30/6/18 28/6/18
f 28/6/18 30/6/18 29/6/18

g fence-low-straight




usemtl colormap

f 3/1/1 2/1/1 1/1/1
f 2/1/1 3/1/1 4/1/1
f 2/1/1 4/1/1 5/1/1
f 5/1/1 4/1/1 6/1/1
f 5/1/1 6/1/1 7/1/1
f 7/1/1 6/1/1 8/1/1
f 10/2/3 1/1/2 9/2/2
f 1/1/2 10/2/3 3/1/3
f 10/2/3 4/1/4 3/1/3
f 4/1/4 10/2/3 11/2/4
f 11/2/4 6/1/5 4/1/4
f 6/1/5 11/2/4 12/2/5
f 6/1/5 13/2/6 8/1/6
f 13/2/6 6/1/5 12/2/5
f 8/1/6 14/2/7 7/1/7
f 14/2/7 8/1/6 13/2/6
f 14/2/7 5/1/8 7/1/7
f 5/1/8 14/2/7 15/2/8
f 15/2/8 2/1/9 5/1/8
f 2/1/9 15/2/8 16/2/9
f 9/2/2 2/1/9 16/2/9
f 2/1/9 9/2/2 1/1/2
f 19/1/1 18/1/1 17/1/1
f 18/1/1 19/1/1 20/1/1
f 18/1/1 20/1/1 21/1/1
f 21/1/1 20/1/1 22/1/1
f 21/1/1 22/1/1 23/1/1
f 23/1/1 22/1/1 24/1/1
f 26/2/3 17/1/2 25/2/2
f 17/1/2 26/2/3 19/1/3
f 26/2/3 20/1/4 19/1/3
f 20/1/4 26/2/3 27/2/4
f 27/2/4 22/1/5 20/1/4
f 22/1/5 27/2/4 28/2/5
f 22/1/5 29/2/6 24/1/6
f 29/2/6 22/1/5 28/2/5
f 24/1/6 30/2/7 23/1/7
f 30/2/7 24/1/6 29/2/6
f 30/2/7 21/1/8 23/1/7
f 21/1/8 30/2/7 31/2/8
f 31/2/8 18/1/9 21/1/8
f 18/1/9 31/2/8 32/2/9
f 25/2/2 18/1/9 32/2/9
f 18/1/9 25/2/2 17/1/2
f 35/2/10 34/2/11 33/2/10
f 34/2/11 35/2/10 36/2/11
f 39/4/13 38/3/12 37/3/12
f 38/3/12 39/4/13 40/4/13
f 43/5/14 42/5/15 41/5/14
f 42/5/15 43/5/14 44/5/15
f 47/4/17 46/3/16 45/3/16
f 46/3/16 47/4/17 48/4/17
f 38/3/12 41/5/14 37/3/12
f 41/5/14 38/3/12 43/5/14
f 44/5/15 46/3/16 42/5/15
f 46/3/16 44/5/15 45/3/16
f 47/4/17 33/2/10 48/4/17
f 33/2/10 47/4/17 35/2/10
f 36/2/11 39/4/13 34/2/11
f 39/4/13 36/2/11 40/4/13
f 16/6/18 10/6/18 9/6/18
f 10/6/18 16/6/18 15/6/18
f 10/6/18 15/6/18 11/6/18
f 11/6/18 15/6/18 14/6/18
f 11/6/18 14/6/18 12/6/18
f 12/6/18 14/6/18 13/6/18
f 32/6/18 26/6/18 25/6/18
f 26/6/18 32/6/18 31/6/18
f 26/6/18 31/6/18 27/6/18
f 27/6/18 31/6/18 30/6/18
f 27/6/18 30/6/18 28/6/18
f 28/6/18 30/6/18 29/6/18

