# Created by Kenney (www.kenney.nl)

mtllib fence-low-broken.mtl

g fence-low-broken

v -0.3 0 0.4 1 1 1
v -0.3292893 0 0.3292893 1 1 1
v -0.3292893 0 0.4707107 1 1 1
v -0.4 0 0.5 1 1 1
v -0.4 0 0.3 1 1 1
v -0.4707107 0 0.4707107 1 1 1
v -0.4707107 0 0.3292893 1 1 1
v -0.5 0 0.4 1 1 1
v -0.3 0.3 0.4 1 1 1
v -0.3292893 0.3 0.4707107 1 1 1
v -0.4 0.3 0.5 1 1 1
v -0.4707107 0.3 0.4707107 1 1 1
v -0.5 0.3 0.4 1 1 1
v -0.4707107 0.3 0.3292893 1 1 1
v -0.4 0.3 0.3 1 1 1
v -0.3292893 0.3 0.3292893 1 1 1
v 0.5 0 0.4 1 1 1
v 0.4707107 0 0.3292893 1 1 1
v 0.4707107 0 0.4707107 1 1 1
v 0.4 0 0.5 1 1 1
v 0.4 0 0.3 1 1 1
v 0.3292893 0 0.4707107 1 1 1
v 0.3292893 0 0.3292893 1 1 1
v 0.3 0 0.4 1 1 1
v 0.5 0.3 0.4 1 1 1
v 0.4707107 0.3 0.4707107 1 1 1
v 0.4 0.3 0.5 1 1 1
v 0.3292893 0.3 0.4707107 1 1 1
v 0.3 0.3 0.4 1 1 1
v 0.3292893 0.3 0.3292893 1 1 1
v 0.4 0.3 0.3 1 1 1
v 0.4707107 0.3 0.3292893 1 1 1
v 0.4 0.224 0.349 1 1 1
v 0.4 0.224 0.451 1 1 1
v 0.12224 0.199 0.349 1 1 1
v 0.12224 0.199 0.451 1 1 1
v 0.12224 0.072 0.476 1 1 1
v 0.12224 0.174 0.476 1 1 1
v 0.4 0.097 0.476 1 1 1
v 0.4 0.199 0.476 1 1 1
v 0.4 0.072 0.451 1 1 1
v 0.4 0.072 0.349 1 1 1
v 0.12224 0.04700001 0.451 1 1 1
v 0.12224 0.04700001 0.349 1 1 1
v 0.12224 0.072 0.324 1 1 1
v 0.4 0.097 0.324 1 1 1
v 0.12224 0.174 0.324 1 1 1
v 0.4 0.199 0.324 1 1 1
v 0 0.02500001 0.476 1 1 1
v -0.4 0.097 0.476 1 1 1
v 0 0.127 0.476 1 1 1
v -0.4 0.199 0.476 1 1 1
v 0 0.02500001 0.324 1 1 1
v 0 0.127 0.324 1 1 1
v -0.4 0.097 0.324 1 1 1
v -0.4 0.199 0.324 1 1 1
v 0 0 0.451 1 1 1
v 0 0 0.349 1 1 1
v -0.4 0.072 0.451 1 1 1
v -0.4 0.072 0.349 1 1 1
v 0 0.152 0.349 1 1 1
v 0 0.152 0.451 1 1 1
v -0.4 0.224 0.349 1 1 1
v -0.4 0.224 0.451 1 1 1

vn 0 -1 0
vn 1 0 0
vn 0.7071068 0 0.7071068
vn 0 0 1
vn -0.7071068 0 0.7071068
vn -1 0 0
vn -0.7071068 0 -0.7071068
vn 0 0 -1
vn 0.7071068 0 -0.7071068
vn -0.08298063 0.921948 -0.3783201
vn -0.08298063 0.921948 0.3783201
vn -0.0827527 0.9194155 -0.3844831
vn -0.0827527 0.9194155 0.3844831
vn 0.03508878 -0.3898504 0.9202095
vn -0.03374895 0.3749644 0.9264247
vn 0.03374895 -0.3749644 0.9264247
vn -0.03508878 0.3898504 0.9202095
vn 0.0827527 -0.9194155 0.3844831
vn 0.0827527 -0.9194155 -0.3844831
vn 0.08298063 -0.921948 0.3783201
vn 0.08298063 -0.921948 -0.3783201
vn 0.03508878 -0.3898504 -0.9202095
vn 0.03374895 -0.3749644 -0.9264247
vn -0.03374895 0.3749644 -0.9264247
vn -0.03508878 0.3898504 -0.9202095
vn -0.07134575 -0.3963653 0.9153165
vn -0.06602321 -0.3667956 0.9279558
vn 0.06602321 0.3667956 0.9279558
vn 0.07134575 0.3963653 0.9153165
vn -0.07134575 -0.3963653 -0.9153165
vn 0.06602321 0.3667956 -0.9279558
vn -0.06602321 -0.3667956 -0.9279558
vn 0.07134575 0.3963653 -0.9153165
vn -0.164473 -0.9137388 0.3715239
vn -0.164473 -0.9137388 -0.3715239
vn -0.1635898 -0.9088323 0.3837478
vn -0.1635898 -0.9088323 -0.3837478
vn 0.1635898 0.9088323 -0.3837478
vn 0.1635898 0.9088323 0.3837478
vn 0.164473 0.9137388 -0.3715239
vn 0.164473 0.9137388 0.3715239
vn 0 1 0

vt 0.84375 0.025
vt 0.84375 0.225
vt 0.84375 0.2085526
vt 0.84375 0.125
vt 0.84375 0.1921053
vt 0.84375 0.1414474
vt 0.84375 0.1611842
vt 0.84375 0.1776316
vt 0.71875 0.225
vt 0.71875 0.125
vt 0.71875 0.1921053
vt 0.71875 0.2085526
vt 0.71875 0.1611842
vt 0.71875 0.1776316

usemtl colormap

f 3/1/1 2/1/1 1/1/1
f 2/1/1 3/1/1 4/1/1
f 2/1/1 4/1/1 5/1/1
f 5/1/1 4/1/1 6/1/1
f 5/1/1 6/1/1 7/1/1
f 7/1/1 6/1/1 8/1/1
f 10/2/3 1/1/2 9/2/2
f 1/1/2 10/2/3 3/1/3
f 10/2/3 4/1/4 3/1/3
f 4/1/4 10/2/3 11/2/4
f 11/2/4 6/1/5 4/1/4
f 6/1/5 11/2/4 12/2/5
f 6/1/5 13/2/6 8/1/6
f 13/2/6 6/1/5 12/2/5
f 8/1/6 14/2/7 7/1/7
f 14/2/7 8/1/6 13/2/6
f 14/2/7 5/1/8 7/1/7
f 5/1/8 14/2/7 15/2/8
f 15/2/8 2/1/9 5/1/8
f 2/1/9 15/2/8 16/2/9
f 9/2/2 2/1/9 16/2/9
f 2/1/9 9/2/2 1/1/2
f 19/1/1 18/1/1 17/1/1
f 18/1/1 19/1/1 20/1/1
f 18/1/1 20/1/1 21/1/1
f 21/1/1 20/1/1 22/1/1
f 21/1/1 22/1/1 23/1/1
f 23/1/1 22/1/1 24/1/1
f 26/2/3 17/1/2 25/2/2
f 17/1/2 26/2/3 19/1/3
f 26/2/3 20/1/4 19/1/3
f 20/1/4 26/2/3 27/2/4
f 27/2/4 22/1/5 20/1/4
f 22/1/5 27/2/4 28/2/5
f 22/1/5 29/2/6 24/1/6
f 29/2/6 22/1/5 28/2/5
f 24/1/6 30/2/7 23/1/7
f 30/2/7 24/1/6 29/2/6
f 30/2/7 21/1/8 23/1/7
f 21/1/8 30/2/7 31/2/8
f 31/2/8 18/1/9 21/1/8
f 18/1/9 31/2/8 32/2/9
f 25/2/2 18/1/9 32/2/9
f 18/1/9 25/2/2 17/1/2
f 35/3/12 34/2/11 33/2/10
f 34/2/11 35/3/12 36/3/13
f 39/6/16 38/5/15 37/4/14
f 38/5/15 39/6/16 40/3/17
f 43/4/20 42/4/19 41/4/18
f 42/4/19 43/4/20 44/4/21
f 47/5/24 46/6/23 45/4/22
f 46/6/23 47/5/24 48/3/25
f 37/4/14 41/4/18 39/6/16
f 41/4/18 37/4/14 43/4/20
f 44/4/21 46/6/23 42/4/19
f 46/6/23 44/4/21 45/4/22
f 47/5/24 33/2/10 48/3/25
f 33/2/10 47/5/24 35/3/12
f 36/3/13 40/3/17 34/2/11
f 40/3/17 36/3/13 38/5/15
f 51/7/28 50/6/27 49/4/26
f 50/6/27 51/7/28 52/3/29
f 55/6/32 54/7/31 53/4/30
f 54/7/31 55/6/32 56/3/33
f 59/4/36 58/4/35 57/4/34
f 58/4/35 59/4/36 60/4/37
f 60/4/37 53/4/30 58/4/35
f 53/4/30 60/4/37 55/6/32
f 63/2/40 62/8/39 61/8/38
f 62/8/39 63/2/40 64/2/41
f 50/6/27 57/4/34 49/4/26
f 57/4/34 50/6/27 59/4/36
f 56/3/33 61/8/38 54/7/31
f 61/8/38 56/3/33 63/2/40
f 64/2/41 51/7/28 62/8/39
f 51/7/28 64/2/41 52/3/29
f 16/9/42 10/9/42 9/9/42
f 10/9/42 16/9/42 15/9/42
f 10/9/42 15/9/42 11/9/42
f 11/9/42 15/9/42 14/9/42
f 11/9/42 14/9/42 12/9/42
f 12/9/42 14/9/42 13/9/42
f 32/9/42 26/9/42 25/9/42
f 26/9/42 32/9/42 31/9/42
f 26/9/42 31/9/42 27/9/42
f 27/9/42 31/9/42 30/9/42
f 27/9/42 30/9/42 28/9/42
f 28/9/42 30/9/42 29/9/42
f 44/10/6 47/11/6 45/10/6
f 47/11/6 44/10/6 35/12/6
f 35/12/6 44/10/6 43/10/6
f 35/12/6 43/10/6 36/12/6
f 36/12/6 43/10/6 37/10/6
f 36/12/6 37/10/6 38/11/6
f 61/14/2 53/10/2 54/13/2
f 53/10/2 61/14/2 58/10/2
f 58/10/2 61/14/2 62/14/2
f 58/10/2 62/14/2 57/10/2
f 57/10/2 62/14/2 51/13/2
f 57/10/2 51/13/2 49/10/2

g fence-low-broken




usemtl colormap

f 3/1/1 2/1/1 1/1/1
f 2/1/1 3/1/1 4/1/1
f 2/1/1 4/1/1 5/1/1
f 5/1/1 4/1/1 6/1/1
f 5/1/1 6/1/1 7/1/1
f 7/1/1 6/1/1 8/1/1
f 10/2/3 1/1/2 9/2/2
f 1/1/2 10/2/3 3/1/3
f 10/2/3 4/1/4 3/1/3
f 4/1/4 10/2/3 11/2/4
f 11/2/4 6/1/5 4/1/4
f 6/1/5 11/2/4 12/2/5
f 6/1/5 13/2/6 8/1/6
f 13/2/6 6/1/5 12/2/5
f 8/1/6 14/2/7 7/1/7
f 14/2/7 8/1/6 13/2/6
f 14/2/7 5/1/8 7/1/7
f 5/1/8 14/2/7 15/2/8
f 15/2/8 2/1/9 5/1/8
f 2/1/9 15/2/8 16/2/9
f 9/2/2 2/1/9 16/2/9
f 2/1/9 9/2/2 1/1/2
f 19/1/1 18/1/1 17/1/1
f 18/1/1 19/1/1 20/1/1
f 18/1/1 20/1/1 21/1/1
f 21/1/1 20/1/1 22/1/1
f 21/1/1 22/1/1 23/1/1
f 23/1/1 22/1/1 24/1/1
f 26/2/3 17/1/2 25/2/2
f 17/1/2 26/2/3 19/1/3
f 26/2/3 20/1/4 19/1/3
f 20/1/4 26/2/3 27/2/4
f 27/2/4 22/1/5 20/1/4
f 22/1/5 27/2/4 28/2/5
f 22/1/5 29/2/6 24/1/6
f 29/2/6 22/1/5 28/2/5
f 24/1/6 30/2/7 23/1/7
f 30/2/7 24/1/6 29/2/6
f 30/2/7 21/1/8 23/1/7
f 21/1/8 30/2/7 31/2/8
f 31/2/8 18/1/9 21/1/8
f 18/1/9 31/2/8 32/2/9
f 25/2/2 18/1/9 32/2/9
f 18/1/9 25/2/2 17/1/2
f 35/3/12 34/2/11 33/2/10
f 34/2/11 35/3/12 36/3/13
f 39/6/16 38/5/15 37/4/14
f 38/5/15 39/6/16 40/3/17
f 43/4/20 42/4/19 41/4/18
f 42/4/19 43/4/20 44/4/21
f 47/5/24 46/6/23 45/4/22
f 46/6/23 47/5/24 48/3/25
f 37/4/14 41/4/18 39/6/16
f 41/4/18 37/4/14 43/4/20
f 44/4/21 46/6/23 42/4/19
f 46/6/23 44/4/21 45/4/22
f 47/5/24 33/2/10 48/3/25
f 33/2/10 47/5/24 35/3/12
f 36/3/13 40/3/17 34/2/11
f 40/3/17 36/3/13 38/5/15
f 51/7/28 50/6/27 49/4/26
f 50/6/27 51/7/28 52/3/29
f 55/6/32 54/7/31 53/4/30
f 54/7/31 55/6/32 56/3/33
f 59/4/36 58/4/35 57/4/34
f 58/4/35 59/4/36 60/4/37
f 60/4/37 53/4/30 58/4/35
f 53/4/30 60/4/37 55/6/32
f 63/2/40 62/8/39 61/8/38
f 62/8/39 63/2/40 64/2/41
f 50/6/27 57/4/34 49/4/26
f 57/4/34 50/6/27 59/4/36
f 56/3/33 61/8/38 54/7/31
f 61/8/38 56/3/33 63/2/40
f 64/2/41 51/7/28 62/8/39
f 51/7/28 64/2/41 52/3/29
f 16/9/42 10/9/42 9/9/42
f 10/9/42 16/9/42 15/9/42
f 10/9/42 15/9/42 11/9/42
f 11/9/42 15/9/42 14/9/42
f 11/9/42 14/9/42 12/9/42
f 12/9/42 14/9/42 13/9/42
f 32/9/42 26/9/42 25/9/42
f 26/9/42 32/9/42 31/9/42
f 26/9/42 31/9/42 27/9/42
f 27/9/42 31/9/42 30/9/42
f 27/9/42 30/9/42 28/9/42
f 28/9/42 30/9/42 29/9/42
f 44/10/6 47/11/6 45/10/6
f 47/11/6 44/10/6 35/12/6
f 35/12/6 44/10/6 43/10/6
f 35/12/6 43/10/6 36/12/6
f 36/12/6 43/10/6 37/10/6
f 36/12/6 37/10/6 38/11/6
f 61/14/2 53/10/2 54/13/2
f 53/10/2 61/14/2 58/10/2
f 58/10/2 61/14/2 62/14/2
f 58/10/2 62/14/2 57/10/2
f 57/10/2 62/14/2 51/13/2
f 57/10/2 51/13/2 49/10/2

