# Created by Kenney (www.kenney.nl)

mtllib fence-straight.mtl

g fence-straight

v 0.45 -3.609557E-16 0.45 1 1 1
v 0.45 -3.609557E-16 0.35 1 1 1
v 0.3500001 -3.609557E-16 0.45 1 1 1
v 0.3500001 -3.609557E-16 0.35 1 1 1
v 0.3500001 0.4 0.35 1 1 1
v 0.3500001 0.4 0.45 1 1 1
v 0.45 0.4 0.45 1 1 1
v 0.45 0.4 0.35 1 1 1
v -0.35 -3.609557E-16 0.45 1 1 1
v -0.35 -3.609557E-16 0.35 1 1 1
v -0.4499999 -3.609557E-16 0.45 1 1 1
v -0.4499999 -3.609557E-16 0.35 1 1 1
v -0.4499999 0.4 0.35 1 1 1
v -0.4499999 0.4 0.45 1 1 1
v -0.35 0.4 0.45 1 1 1
v -0.35 0.4 0.35 1 1 1
v 0.5 0.35 0.4499999 1 1 1
v 0.5 0.25 0.4499999 1 1 1
v 0.5 0.35 0.49 1 1 1
v 0.5 0.25 0.49 1 1 1
v -0.5 0.25 0.49 1 1 1
v -0.5 0.25 0.4499999 1 1 1
v -0.5 0.35 0.4499999 1 1 1
v -0.5 0.35 0.49 1 1 1
v -0.5 0.1 0.4499999 1 1 1
v 0.5 0.1 0.4499999 1 1 1
v -0.5 0.2 0.4499999 1 1 1
v 0.5 0.2 0.4499999 1 1 1
v -0.5 0.1 0.49 1 1 1
v -0.5 0.2 0.49 1 1 1
v 0.5 0.2 0.49 1 1 1
v 0.5 0.1 0.49 1 1 1

vn 0 -1 0
vn -1 0 0
vn 0 0 1
vn 0 1 0
vn 0 0 -1
vn 1 0 0

vt 0.71875 0.025
vt 0.71875 0.225
vt 0.84375 0.175
vt 0.84375 0.135
vt 0.84375 0.075
vt 0.84375 0.115

usemtl colormap

f 3/1/1 2/1/1 1/1/1
f 2/1/1 3/1/1 4/1/1
f 3/1/2 5/2/2 4/1/2
f 5/2/2 3/1/2 6/2/2
f 7/2/3 3/1/3 1/1/3
f 3/1/3 7/2/3 6/2/3
f 5/2/4 7/2/4 8/2/4
f 7/2/4 5/2/4 6/2/4
f 5/2/5 2/1/5 4/1/5
f 2/1/5 5/2/5 8/2/5
f 7/2/6 2/1/6 8/2/6
f 2/1/6 7/2/6 1/1/6
f 11/1/1 10/1/1 9/1/1
f 10/1/1 11/1/1 12/1/1
f 11/1/2 13/2/2 12/1/2
f 13/2/2 11/1/2 14/2/2
f 15/2/3 11/1/3 9/1/3
f 11/1/3 15/2/3 14/2/3
f 13/2/4 15/2/4 16/2/4
f 15/2/4 13/2/4 14/2/4
f 13/2/5 10/1/5 12/1/5
f 10/1/5 13/2/5 16/2/5
f 15/2/6 10/1/6 16/2/6
f 10/1/6 15/2/6 9/1/6
f 19/3/6 18/4/6 17/3/6
f 18/4/6 19/3/6 20/4/6
f 21/4/1 18/4/1 20/4/1
f 18/4/1 21/4/1 22/4/1
f 21/4/2 23/3/2 22/4/2
f 23/3/2 21/4/2 24/3/2
f 23/3/5 18/4/5 22/4/5
f 18/4/5 23/3/5 17/3/5
f 19/3/3 21/4/3 20/4/3
f 21/4/3 19/3/3 24/3/3
f 23/3/4 19/3/4 17/3/4
f 19/3/4 23/3/4 24/3/4
f 27/6/5 26/5/5 25/5/5
f 26/5/5 27/6/5 28/6/5
f 29/5/2 27/6/2 25/5/2
f 27/6/2 29/5/2 30/6/2
f 27/6/4 31/6/4 28/6/4
f 31/6/4 27/6/4 30/6/4
f 31/6/6 26/5/6 28/6/6
f 26/5/6 31/6/6 32/5/6
f 29/5/1 26/5/1 32/5/1
f 26/5/1 29/5/1 25/5/1
f 31/6/3 29/5/3 32/5/3
f 29/5/3 31/6/3 30/6/3

g fence-straight




usemtl colormap

f 3/1/1 2/1/1 1/1/1
f 2/1/1 3/1/1 4/1/1
f 3/1/2 5/2/2 4/1/2
f 5/2/2 3/1/2 6/2/2
f 7/2/3 3/1/3 1/1/3
f 3/1/3 7/2/3 6/2/3
f 5/2/4 7/2/4 8/2/4
f 7/2/4 5/2/4 6/2/4
f 5/2/5 2/1/5 4/1/5
f 2/1/5 5/2/5 8/2/5
f 7/2/6 2/1/6 8/2/6
f 2/1/6 7/2/6 1/1/6
f 11/1/1 10/1/1 9/1/1
f 10/1/1 11/1/1 12/1/1
f 11/1/2 13/2/2 12/1/2
f 13/2/2 11/1/2 14/2/2
f 15/2/3 11/1/3 9/1/3
f 11/1/3 15/2/3 14/2/3
f 13/2/4 15/2/4 16/2/4
f 15/2/4 13/2/4 14/2/4
f 13/2/5 10/1/5 12/1/5
f 10/1/5 13/2/5 16/2/5
f 15/2/6 10/1/6 16/2/6
f 10/1/6 15/2/6 9/1/6
f 19/3/6 18/4/6 17/3/6
f 18/4/6 19/3/6 20/4/6
f 21/4/1 18/4/1 20/4/1
f 18/4/1 21/4/1 22/4/1
f 21/4/2 23/3/2 22/4/2
f 23/3/2 21/4/2 24/3/2
f 23/3/5 18/4/5 22/4/5
f 18/4/5 23/3/5 17/3/5
f 19/3/3 21/4/3 20/4/3
f 21/4/3 19/3/3 24/3/3
f 23/3/4 19/3/4 17/3/4
f 19/3/4 23/3/4 24/3/4
f 27/6/5 26/5/5 25/5/5
f 26/5/5 27/6/5 28/6/5
f 29/5/2 27/6/2 25/5/2
f 27/6/2 29/5/2 30/6/2
f 27/6/4 31/6/4 28/6/4
f 31/6/4 27/6/4 30/6/4
f 31/6/6 26/5/6 28/6/6
f 26/5/6 31/6/6 32/5/6
f 29/5/1 26/5/1 32/5/1
f 26/5/1 29/5/1 25/5/1
f 31/6/3 29/5/3 32/5/3
f 29/5/3 31/6/3 30/6/3

