# Created by Kenney (www.kenney.nl)

mtllib fence-low-corner-curved.mtl

g fence-low-corner-curved

v 0.5 0 0.4 1 1 1
v 0.4707107 0 0.3292893 1 1 1
v 0.4707107 0 0.4707107 1 1 1
v 0.4 0 0.5 1 1 1
v 0.4 0 0.3 1 1 1
v 0.3292893 0 0.4707107 1 1 1
v 0.3292893 0 0.3292893 1 1 1
v 0.3 0 0.4 1 1 1
v 0.5 0.3 0.4 1 1 1
v 0.4707107 0.3 0.4707107 1 1 1
v 0.4 0.3 0.5 1 1 1
v 0.3292893 0.3 0.4707107 1 1 1
v 0.3 0.3 0.4 1 1 1
v 0.3292893 0.3 0.3292893 1 1 1
v 0.4 0.3 0.3 1 1 1
v 0.4707107 0.3 0.3292893 1 1 1
v -0.3 0 -0.4 1 1 1
v -0.3292893 0 -0.4707107 1 1 1
v -0.3292893 0 -0.3292893 1 1 1
v -0.4 0 -0.3 1 1 1
v -0.4 0 -0.5 1 1 1
v -0.4707107 0 -0.3292893 1 1 1
v -0.4707107 0 -0.4707107 1 1 1
v -0.5 0 -0.4 1 1 1
v -0.3 0.3 -0.4 1 1 1
v -0.3292893 0.3 -0.3292893 1 1 1
v -0.4 0.3 -0.3 1 1 1
v -0.4707107 0.3 -0.3292893 1 1 1
v -0.5 0.3 -0.4 1 1 1
v -0.4707107 0.3 -0.4707107 1 1 1
v -0.4 0.3 -0.5 1 1 1
v -0.3292893 0.3 -0.4707107 1 1 1
v -0.451 0.072 -0.2974946 1 1 1
v -0.451 0.072 -0.4 1 1 1
v -0.476 0.097 -0.2962664 1 1 1
v -0.476 0.097 -0.4 1 1 1
v -0.476 0.199 -0.4 1 1 1
v -0.476 0.199 -0.2962664 1 1 1
v -0.451 0.224 -0.4 1 1 1
v -0.451 0.224 -0.2974946 1 1 1
v -0.324 0.199 -0.4 1 1 1
v -0.324 0.199 -0.3037336 1 1 1
v -0.349 0.224 -0.4 1 1 1
v -0.349 0.224 -0.3025055 1 1 1
v -0.324 0.097 -0.4 1 1 1
v -0.324 0.097 -0.3037336 1 1 1
v -0.349 0.072 -0.3025055 1 1 1
v -0.349 0.072 -0.4 1 1 1
v -0.4368117 0.072 -0.153439 1 1 1
v -0.46145 0.097 -0.1485382 1 1 1
v -0.46145 0.199 -0.1485382 1 1 1
v -0.4368117 0.224 -0.153439 1 1 1
v -0.3116494 0.199 -0.1783354 1 1 1
v -0.3362876 0.224 -0.1734345 1 1 1
v -0.3116494 0.097 -0.1783354 1 1 1
v -0.3362876 0.072 -0.1734345 1 1 1
v -0.3940615 0.072 -0.01251031 1 1 1
v -0.4172702 0.097 -0.002896931 1 1 1
v -0.4172702 0.199 -0.002896931 1 1 1
v -0.3940615 0.224 -0.01251031 1 1 1
v -0.2761611 0.199 -0.06134626 1 1 1
v -0.2993698 0.224 -0.05173289 1 1 1
v -0.2761611 0.097 -0.06134626 1 1 1
v -0.2993698 0.072 -0.05173289 1 1 1
v -0.3246388 0.072 0.1173703 1 1 1
v -0.3455262 0.097 0.1313268 1 1 1
v -0.3455262 0.199 0.1313268 1 1 1
v -0.3246388 0.224 0.1173703 1 1 1
v -0.2185313 0.199 0.04647152 1 1 1
v -0.2394186 0.224 0.06042799 1 1 1
v -0.2185313 0.097 0.04647152 1 1 1
v -0.2394186 0.072 0.06042799 1 1 1
v -0.2312117 0.072 0.2312117 1 1 1
v -0.2489749 0.097 0.2489749 1 1 1
v -0.2489749 0.199 0.2489749 1 1 1
v -0.2312117 0.224 0.2312117 1 1 1
v -0.1409746 0.199 0.1409746 1 1 1
v -0.1587378 0.224 0.1587378 1 1 1
v -0.1409746 0.097 0.1409746 1 1 1
v -0.1587378 0.072 0.1587378 1 1 1
v -0.1173703 0.072 0.3246388 1 1 1
v -0.1313268 0.097 0.3455262 1 1 1
v -0.1313268 0.199 0.3455262 1 1 1
v -0.1173703 0.224 0.3246388 1 1 1
v -0.04647152 0.199 0.2185313 1 1 1
v -0.06042799 0.224 0.2394186 1 1 1
v -0.04647152 0.097 0.2185313 1 1 1
v -0.06042799 0.072 0.2394186 1 1 1
v 0.01251031 0.072 0.3940615 1 1 1
v 0.002896931 0.097 0.4172702 1 1 1
v 0.002896931 0.199 0.4172702 1 1 1
v 0.01251031 0.224 0.3940615 1 1 1
v 0.06134626 0.199 0.2761611 1 1 1
v 0.05173289 0.224 0.2993698 1 1 1
v 0.06134626 0.097 0.2761611 1 1 1
v 0.05173289 0.072 0.2993698 1 1 1
v 0.153439 0.072 0.4368117 1 1 1
v 0.1485382 0.097 0.46145 1 1 1
v 0.1485382 0.199 0.46145 1 1 1
v 0.153439 0.224 0.4368117 1 1 1
v 0.1783354 0.199 0.3116494 1 1 1
v 0.1734345 0.224 0.3362876 1 1 1
v 0.1783354 0.097 0.3116494 1 1 1
v 0.1734345 0.072 0.3362876 1 1 1
v 0.2974946 0.072 0.451 1 1 1
v 0.2962664 0.097 0.476 1 1 1
v 0.2962664 0.199 0.476 1 1 1
v 0.2974946 0.224 0.451 1 1 1
v 0.3037336 0.199 0.324 1 1 1
v 0.3025055 0.224 0.349 1 1 1
v 0.3037336 0.097 0.324 1 1 1
v 0.3025055 0.072 0.349 1 1 1
v 0.4 0.072 0.451 1 1 1
v 0.4 0.097 0.476 1 1 1
v 0.4 0.199 0.476 1 1 1
v 0.4 0.224 0.451 1 1 1
v 0.4 0.199 0.324 1 1 1
v 0.4 0.224 0.349 1 1 1
v 0.4 0.097 0.324 1 1 1
v 0.4 0.072 0.349 1 1 1

vn 0 -1 0
vn 1 0 0
vn 0.7071068 0 0.7071068
vn 0 0 1
vn -0.7071068 0 0.7071068
vn -1 0 0
vn -0.7071068 0 -0.7071068
vn 0 0 -1
vn 0.7071068 0 -0.7071068
vn -0.3920422 -0.9197456 0.0192598
vn -0.3826834 -0.9238795 0
vn -0.9243665 -0.3787932 0.04541122
vn -0.9238795 -0.3826834 0
vn -0.9238795 0.3826834 0
vn -0.9243665 0.3787932 0.04541122
vn -0.3826834 0.9238795 0
vn -0.3920422 0.9197456 0.0192598
vn 0.9238795 0.3826834 0
vn 0.9208602 0.3872596 -0.04523896
vn 0.3826834 0.9238795 0
vn 0.3716634 0.9281879 -0.01825865
vn 0.9238795 -0.3826834 0
vn 0.9208602 -0.3872596 -0.04523896
vn 0.3716634 -0.9281879 -0.01825865
vn 0.3826834 -0.9238795 0
vn -0.3938558 -0.9158275 0.07834279
vn -0.9089897 -0.3755604 0.1808093
vn -0.9089897 0.3755604 0.1808093
vn -0.3938558 0.9158275 0.07834279
vn 0.9020562 0.3925548 -0.1794301
vn 0.3539019 0.9326296 -0.07039545
vn 0.9020562 -0.3925548 -0.1794301
vn 0.3539019 -0.9326296 -0.07039545
vn -0.371004 -0.9158275 0.1536749
vn -0.8562496 -0.3755604 0.3546702
vn -0.8562496 0.3755604 0.3546702
vn -0.371004 0.9158275 0.1536749
vn 0.8497184 0.3925548 -0.3519649
vn 0.3333683 0.9326296 -0.1380857
vn 0.8497184 -0.3925548 -0.3519649
vn 0.3333683 -0.9326296 -0.1380857
vn -0.3338948 -0.9158275 0.2231014
vn -0.7706043 -0.3755604 0.5149013
vn -0.7706043 0.3755604 0.5149013
vn -0.3338948 0.9158275 0.2231014
vn 0.7647264 0.3925548 -0.5109738
vn 0.3000236 0.9326296 -0.2004693
vn 0.7647264 -0.3925548 -0.5109738
vn 0.3000236 -0.9326296 -0.2004693
vn -0.2839542 -0.9158275 0.2839542
vn -0.655345 -0.3755604 0.655345
vn -0.655345 0.3755604 0.655345
vn -0.2839542 0.9158275 0.2839542
vn 0.6503463 0.3925548 -0.6503463
vn 0.2551491 0.9326296 -0.2551491
vn 0.6503463 -0.3925548 -0.6503463
vn 0.2551491 -0.9326296 -0.2551491
vn -0.2231014 -0.9158275 0.3338948
vn -0.5149013 -0.3755604 0.7706043
vn -0.5149013 0.3755604 0.7706043
vn -0.2231014 0.9158275 0.3338948
vn 0.5109738 0.3925548 -0.7647264
vn 0.2004693 0.9326296 -0.3000236
vn 0.5109738 -0.3925548 -0.7647264
vn 0.2004693 -0.9326296 -0.3000236
vn -0.1536749 -0.9158275 0.371004
vn -0.3546702 -0.3755604 0.8562496
vn -0.3546702 0.3755604 0.8562496
vn -0.1536749 0.9158275 0.371004
vn 0.3519649 0.3925548 -0.8497184
vn 0.1380857 0.9326296 -0.3333683
vn 0.3519649 -0.3925548 -0.8497184
vn 0.1380857 -0.9326296 -0.3333683
vn -0.07834279 -0.9158275 0.3938558
vn -0.1808093 -0.3755604 0.9089897
vn -0.1808093 0.3755604 0.9089897
vn -0.07834279 0.9158275 0.3938558
vn 0.1794301 0.3925548 -0.9020562
vn 0.07039545 0.9326296 -0.3539019
vn 0.1794301 -0.3925548 -0.9020562
vn 0.07039545 -0.9326296 -0.3539019
vn -0.0192598 -0.9197456 0.3920422
vn -0.04541122 -0.3787932 0.9243665
vn -0.04541122 0.3787932 0.9243665
vn -0.0192598 0.9197456 0.3920422
vn 0.04523896 0.3872596 -0.9208602
vn 0.01825865 0.928188 -0.3716634
vn 0.04523896 -0.3872596 -0.9208602
vn 0.01825865 -0.928188 -0.3716634
vn 0 -0.9238795 0.3826834
vn 0 -0.3826834 0.9238795
vn 0 0.3826834 0.9238795
vn 0 0.9238795 0.3826834
vn 0 0.3826834 -0.9238795
vn 0 0.9238795 -0.3826834
vn 0 -0.3826834 -0.9238795
vn 0 -0.9238795 -0.3826834
vn 0 1 0

vt 0.84375 0.025
vt 0.84375 0.225
vt 0.84375 0.125
vt 0.84375 0.1414474
vt 0.84375 0.2085526
vt 0.71875 0.225

usemtl colormap

f 3/1/1 2/1/1 1/1/1
f 2/1/1 3/1/1 4/1/1
f 2/1/1 4/1/1 5/1/1
f 5/1/1 4/1/1 6/1/1
f 5/1/1 6/1/1 7/1/1
f 7/1/1 6/1/1 8/1/1
f 10/2/3 1/1/2 9/2/2
f 1/1/2 10/2/3 3/1/3
f 10/2/3 4/1/4 3/1/3
f 4/1/4 10/2/3 11/2/4
f 11/2/4 6/1/5 4/1/4
f 6/1/5 11/2/4 12/2/5
f 6/1/5 13/2/6 8/1/6
f 13/2/6 6/1/5 12/2/5
f 8/1/6 14/2/7 7/1/7
f 14/2/7 8/1/6 13/2/6
f 14/2/7 5/1/8 7/1/7
f 5/1/8 14/2/7 15/2/8
f 15/2/8 2/1/9 5/1/8
f 2/1/9 15/2/8 16/2/9
f 9/2/2 2/1/9 16/2/9
f 2/1/9 9/2/2 1/1/2
f 19/1/1 18/1/1 17/1/1
f 18/1/1 19/1/1 20/1/1
f 18/1/1 20/1/1 21/1/1
f 21/1/1 20/1/1 22/1/1
f 21/1/1 22/1/1 23/1/1
f 23/1/1 22/1/1 24/1/1
f 26/2/3 17/1/2 25/2/2
f 17/1/2 26/2/3 19/1/3
f 26/2/3 20/1/4 19/1/3
f 20/1/4 26/2/3 27/2/4
f 27/2/4 22/1/5 20/1/4
f 22/1/5 27/2/4 28/2/5
f 22/1/5 29/2/6 24/1/6
f 29/2/6 22/1/5 28/2/5
f 24/1/6 30/2/7 23/1/7
f 30/2/7 24/1/6 29/2/6
f 30/2/7 21/1/8 23/1/7
f 21/1/8 30/2/7 31/2/8
f 31/2/8 18/1/9 21/1/8
f 18/1/9 31/2/8 32/2/9
f 25/2/2 18/1/9 32/2/9
f 18/1/9 25/2/2 17/1/2
f 35/4/12 34/3/11 33/3/10
f 34/3/11 35/4/12 36/4/13
f 35/4/12 37/5/14 36/4/13
f 37/5/14 35/4/12 38/5/15
f 37/5/14 40/2/17 39/2/16
f 40/2/17 37/5/14 38/5/15
f 43/2/20 42/5/19 41/5/18
f 42/5/19 43/2/20 44/2/21
f 42/5/19 45/4/22 41/5/18
f 45/4/22 42/5/19 46/4/23
f 47/3/24 45/4/22 46/4/23
f 45/4/22 47/3/24 48/3/25
f 50/4/27 33/3/10 49/3/26
f 33/3/10 50/4/27 35/4/12
f 50/4/27 38/5/15 35/4/12
f 38/5/15 50/4/27 51/5/28
f 40/2/17 51/5/28 52/2/29
f 51/5/28 40/2/17 38/5/15
f 42/5/19 54/2/31 53/5/30
f 54/2/31 42/5/19 44/2/21
f 53/5/30 46/4/23 42/5/19
f 46/4/23 53/5/30 55/4/32
f 56/3/33 46/4/23 55/4/32
f 46/4/23 56/3/33 47/3/24
f 58/4/35 49/3/26 57/3/34
f 49/3/26 58/4/35 50/4/27
f 58/4/35 51/5/28 50/4/27
f 51/5/28 58/4/35 59/5/36
f 52/2/29 59/5/36 60/2/37
f 59/5/36 52/2/29 51/5/28
f 53/5/30 62/2/39 61/5/38
f 62/2/39 53/5/30 54/2/31
f 61/5/38 55/4/32 53/5/30
f 55/4/32 61/5/38 63/4/40
f 64/3/41 55/4/32 63/4/40
f 55/4/32 64/3/41 56/3/33
f 66/4/43 57/3/34 65/3/42
f 57/3/34 66/4/43 58/4/35
f 66/4/43 59/5/36 58/4/35
f 59/5/36 66/4/43 67/5/44
f 60/2/37 67/5/44 68/2/45
f 67/5/44 60/2/37 59/5/36
f 61/5/38 70/2/47 69/5/46
f 70/2/47 61/5/38 62/2/39
f 69/5/46 63/4/40 61/5/38
f 63/4/40 69/5/46 71/4/48
f 72/3/49 63/4/40 71/4/48
f 63/4/40 72/3/49 64/3/41
f 74/4/51 65/3/42 73/3/50
f 65/3/42 74/4/51 66/4/43
f 74/4/51 67/5/44 66/4/43
f 67/5/44 74/4/51 75/5/52
f 68/2/45 75/5/52 76/2/53
f 75/5/52 68/2/45 67/5/44
f 69/5/46 78/2/55 77/5/54
f 78/2/55 69/5/46 70/2/47
f 77/5/54 71/4/48 69/5/46
f 71/4/48 77/5/54 79/4/56
f 80/3/57 71/4/48 79/4/56
f 71/4/48 80/3/57 72/3/49
f 82/4/59 73/3/50 81/3/58
f 73/3/50 82/4/59 74/4/51
f 83/5/60 74/4/51 82/4/59
f 74/4/51 83/5/60 75/5/52
f 76/2/53 83/5/60 84/2/61
f 83/5/60 76/2/53 75/5/52
f 77/5/54 86/2/63 85/5/62
f 86/2/63 77/5/54 78/2/55
f 77/5/54 87/4/64 79/4/56
f 87/4/64 77/5/54 85/5/62
f 88/3/65 79/4/56 87/4/64
f 79/4/56 88/3/65 80/3/57
f 90/4/67 81/3/58 89/3/66
f 81/3/58 90/4/67 82/4/59
f 91/5/68 82/4/59 90/4/67
f 82/4/59 91/5/68 83/5/60
f 84/2/61 91/5/68 92/2/69
f 91/5/68 84/2/61 83/5/60
f 85/5/62 94/2/71 93/5/70
f 94/2/71 85/5/62 86/2/63
f 85/5/62 95/4/72 87/4/64
f 95/4/72 85/5/62 93/5/70
f 96/3/73 87/4/64 95/4/72
f 87/4/64 96/3/73 88/3/65
f 98/4/75 89/3/66 97/3/74
f 89/3/66 98/4/75 90/4/67
f 99/5/76 90/4/67 98/4/75
f 90/4/67 99/5/76 91/5/68
f 92/2/69 99/5/76 100/2/77
f 99/5/76 92/2/69 91/5/68
f 93/5/70 102/2/79 101/5/78
f 102/2/79 93/5/70 94/2/71
f 93/5/70 103/4/80 95/4/72
f 103/4/80 93/5/70 101/5/78
f 104/3/81 95/4/72 103/4/80
f 95/4/72 104/3/81 96/3/73
f 106/4/83 97/3/74 105/3/82
f 97/3/74 106/4/83 98/4/75
f 107/5/84 98/4/75 106/4/83
f 98/4/75 107/5/84 99/5/76
f 100/2/77 107/5/84 108/2/85
f 107/5/84 100/2/77 99/5/76
f 101/5/78 110/2/87 109/5/86
f 110/2/87 101/5/78 102/2/79
f 101/5/78 111/4/88 103/4/80
f 111/4/88 101/5/78 109/5/86
f 112/3/89 103/4/80 111/4/88
f 103/4/80 112/3/89 104/3/81
f 114/4/91 105/3/82 113/3/90
f 105/3/82 114/4/91 106/4/83
f 115/5/92 106/4/83 114/4/91
f 106/4/83 115/5/92 107/5/84
f 116/2/93 107/5/84 115/5/92
f 107/5/84 116/2/93 108/2/85
f 110/2/87 117/5/94 109/5/86
f 117/5/94 110/2/87 118/2/95
f 109/5/86 119/4/96 111/4/88
f 119/4/96 109/5/86 117/5/94
f 111/4/88 120/3/97 112/3/89
f 120/3/97 111/4/88 119/4/96
f 39/2/16 44/2/21 43/2/20
f 44/2/21 39/2/16 60/2/37
f 60/2/37 54/2/31 44/2/21
f 60/2/37 39/2/16 52/2/29
f 52/2/29 39/2/16 40/2/17
f 68/2/45 54/2/31 60/2/37
f 68/2/45 62/2/39 54/2/31
f 68/2/45 70/2/47 62/2/39
f 76/2/53 70/2/47 68/2/45
f 76/2/53 78/2/55 70/2/47
f 84/2/61 78/2/55 76/2/53
f 84/2/61 86/2/63 78/2/55
f 92/2/69 86/2/63 84/2/61
f 92/2/69 94/2/71 86/2/63
f 100/2/77 94/2/71 92/2/69
f 100/2/77 102/2/79 94/2/71
f 108/2/85 102/2/79 100/2/77
f 108/2/85 110/2/87 102/2/79
f 116/2/93 110/2/87 108/2/85
f 110/2/87 116/2/93 118/2/95
f 105/3/82 120/3/97 113/3/90
f 120/3/97 105/3/82 112/3/89
f 112/3/89 105/3/82 104/3/81
f 104/3/81 105/3/82 97/3/74
f 104/3/81 97/3/74 96/3/73
f 96/3/73 97/3/74 89/3/66
f 96/3/73 89/3/66 88/3/65
f 88/3/65 89/3/66 81/3/58
f 88/3/65 81/3/58 80/3/57
f 80/3/57 81/3/58 73/3/50
f 80/3/57 73/3/50 72/3/49
f 72/3/49 73/3/50 65/3/42
f 72/3/49 65/3/42 64/3/41
f 64/3/41 65/3/42 56/3/33
f 56/3/33 65/3/42 57/3/34
f 56/3/33 57/3/34 47/3/24
f 47/3/24 57/3/34 48/3/25
f 48/3/25 57/3/34 34/3/11
f 34/3/11 57/3/34 49/3/26
f 34/3/11 49/3/26 33/3/10
f 16/6/98 10/6/98 9/6/98
f 10/6/98 16/6/98 15/6/98
f 10/6/98 15/6/98 11/6/98
f 11/6/98 15/6/98 14/6/98
f 11/6/98 14/6/98 12/6/98
f 12/6/98 14/6/98 13/6/98
f 32/6/98 26/6/98 25/6/98
f 26/6/98 32/6/98 31/6/98
f 26/6/98 31/6/98 27/6/98
f 27/6/98 31/6/98 30/6/98
f 27/6/98 30/6/98 28/6/98
f 28/6/98 30/6/98 29/6/98

g fence-low-corner-curved




usemtl colormap

f 3/1/1 2/1/1 1/1/1
f 2/1/1 3/1/1 4/1/1
f 2/1/1 4/1/1 5/1/1
f 5/1/1 4/1/1 6/1/1
f 5/1/1 6/1/1 7/1/1
f 7/1/1 6/1/1 8/1/1
f 10/2/3 1/1/2 9/2/2
f 1/1/2 10/2/3 3/1/3
f 10/2/3 4/1/4 3/1/3
f 4/1/4 10/2/3 11/2/4
f 11/2/4 6/1/5 4/1/4
f 6/1/5 11/2/4 12/2/5
f 6/1/5 13/2/6 8/1/6
f 13/2/6 6/1/5 12/2/5
f 8/1/6 14/2/7 7/1/7
f 14/2/7 8/1/6 13/2/6
f 14/2/7 5/1/8 7/1/7
f 5/1/8 14/2/7 15/2/8
f 15/2/8 2/1/9 5/1/8
f 2/1/9 15/2/8 16/2/9
f 9/2/2 2/1/9 16/2/9
f 2/1/9 9/2/2 1/1/2
f 19/1/1 18/1/1 17/1/1
f 18/1/1 19/1/1 20/1/1
f 18/1/1 20/1/1 21/1/1
f 21/1/1 20/1/1 22/1/1
f 21/1/1 22/1/1 23/1/1
f 23/1/1 22/1/1 24/1/1
f 26/2/3 17/1/2 25/2/2
f 17/1/2 26/2/3 19/1/3
f 26/2/3 20/1/4 19/1/3
f 20/1/4 26/2/3 27/2/4
f 27/2/4 22/1/5 20/1/4
f 22/1/5 27/2/4 28/2/5
f 22/1/5 29/2/6 24/1/6
f 29/2/6 22/1/5 28/2/5
f 24/1/6 30/2/7 23/1/7
f 30/2/7 24/1/6 29/2/6
f 30/2/7 21/1/8 23/1/7
f 21/1/8 30/2/7 31/2/8
f 31/2/8 18/1/9 21/1/8
f 18/1/9 31/2/8 32/2/9
f 25/2/2 18/1/9 32/2/9
f 18/1/9 25/2/2 17/1/2
f 35/4/12 34/3/11 33/3/10
f 34/3/11 35/4/12 36/4/13
f 35/4/12 37/5/14 36/4/13
f 37/5/14 35/4/12 38/5/15
f 37/5/14 40/2/17 39/2/16
f 40/2/17 37/5/14 38/5/15
f 43/2/20 42/5/19 41/5/18
f 42/5/19 43/2/20 44/2/21
f 42/5/19 45/4/22 41/5/18
f 45/4/22 42/5/19 46/4/23
f 47/3/24 45/4/22 46/4/23
f 45/4/22 47/3/24 48/3/25
f 50/4/27 33/3/10 49/3/26
f 33/3/10 50/4/27 35/4/12
f 50/4/27 38/5/15 35/4/12
f 38/5/15 50/4/27 51/5/28
f 40/2/17 51/5/28 52/2/29
f 51/5/28 40/2/17 38/5/15
f 42/5/19 54/2/31 53/5/30
f 54/2/31 42/5/19 44/2/21
f 53/5/30 46/4/23 42/5/19
f 46/4/23 53/5/30 55/4/32
f 56/3/33 46/4/23 55/4/32
f 46/4/23 56/3/33 47/3/24
f 58/4/35 49/3/26 57/3/34
f 49/3/26 58/4/35 50/4/27
f 58/4/35 51/5/28 50/4/27
f 51/5/28 58/4/35 59/5/36
f 52/2/29 59/5/36 60/2/37
f 59/5/36 52/2/29 51/5/28
f 53/5/30 62/2/39 61/5/38
f 62/2/39 53/5/30 54/2/31
f 61/5/38 55/4/32 53/5/30
f 55/4/32 61/5/38 63/4/40
f 64/3/41 55/4/32 63/4/40
f 55/4/32 64/3/41 56/3/33
f 66/4/43 57/3/34 65/3/42
f 57/3/34 66/4/43 58/4/35
f 66/4/43 59/5/36 58/4/35
f 59/5/36 66/4/43 67/5/44
f 60/2/37 67/5/44 68/2/45
f 67/5/44 60/2/37 59/5/36
f 61/5/38 70/2/47 69/5/46
f 70/2/47 61/5/38 62/2/39
f 69/5/46 63/4/40 61/5/38
f 63/4/40 69/5/46 71/4/48
f 72/3/49 63/4/40 71/4/48
f 63/4/40 72/3/49 64/3/41
f 74/4/51 65/3/42 73/3/50
f 65/3/42 74/4/51 66/4/43
f 74/4/51 67/5/44 66/4/43
f 67/5/44 74/4/51 75/5/52
f 68/2/45 75/5/52 76/2/53
f 75/5/52 68/2/45 67/5/44
f 69/5/46 78/2/55 77/5/54
f 78/2/55 69/5/46 70/2/47
f 77/5/54 71/4/48 69/5/46
f 71/4/48 77/5/54 79/4/56
f 80/3/57 71/4/48 79/4/56
f 71/4/48 80/3/57 72/3/49
f 82/4/59 73/3/50 81/3/58
f 73/3/50 82/4/59 74/4/51
f 83/5/60 74/4/51 82/4/59
f 74/4/51 83/5/60 75/5/52
f 76/2/53 83/5/60 84/2/61
f 83/5/60 76/2/53 75/5/52
f 77/5/54 86/2/63 85/5/62
f 86/2/63 77/5/54 78/2/55
f 77/5/54 87/4/64 79/4/56
f 87/4/64 77/5/54 85/5/62
f 88/3/65 79/4/56 87/4/64
f 79/4/56 88/3/65 80/3/57
f 90/4/67 81/3/58 89/3/66
f 81/3/58 90/4/67 82/4/59
f 91/5/68 82/4/59 90/4/67
f 82/4/59 91/5/68 83/5/60
f 84/2/61 91/5/68 92/2/69
f 91/5/68 84/2/61 83/5/60
f 85/5/62 94/2/71 93/5/70
f 94/2/71 85/5/62 86/2/63
f 85/5/62 95/4/72 87/4/64
f 95/4/72 85/5/62 93/5/70
f 96/3/73 87/4/64 95/4/72
f 87/4/64 96/3/73 88/3/65
f 98/4/75 89/3/66 97/3/74
f 89/3/66 98/4/75 90/4/67
f 99/5/76 90/4/67 98/4/75
f 90/4/67 99/5/76 91/5/68
f 92/2/69 99/5/76 100/2/77
f 99/5/76 92/2/69 91/5/68
f 93/5/70 102/2/79 101/5/78
f 102/2/79 93/5/70 94/2/71
f 93/5/70 103/4/80 95/4/72
f 103/4/80 93/5/70 101/5/78
f 104/3/81 95/4/72 103/4/80
f 95/4/72 104/3/81 96/3/73
f 106/4/83 97/3/74 105/3/82
f 97/3/74 106/4/83 98/4/75
f 107/5/84 98/4/75 106/4/83
f 98/4/75 107/5/84 99/5/76
f 100/2/77 107/5/84 108/2/85
f 107/5/84 100/2/77 99/5/76
f 101/5/78 110/2/87 109/5/86
f 110/2/87 101/5/78 102/2/79
f 101/5/78 111/4/88 103/4/80
f 111/4/88 101/5/78 109/5/86
f 112/3/89 103/4/80 111/4/88
f 103/4/80 112/3/89 104/3/81
f 114/4/91 105/3/82 113/3/90
f 105/3/82 114/4/91 106/4/83
f 115/5/92 106/4/83 114/4/91
f 106/4/83 115/5/92 107/5/84
f 116/2/93 107/5/84 115/5/92
f 107/5/84 116/2/93 108/2/85
f 110/2/87 117/5/94 109/5/86
f 117/5/94 110/2/87 118/2/95
f 109/5/86 119/4/96 111/4/88
f 119/4/96 109/5/86 117/5/94
f 111/4/88 120/3/97 112/3/89
f 120/3/97 111/4/88 119/4/96
f 39/2/16 44/2/21 43/2/20
f 44/2/21 39/2/16 60/2/37
f 60/2/37 54/2/31 44/2/21
f 60/2/37 39/2/16 52/2/29
f 52/2/29 39/2/16 40/2/17
f 68/2/45 54/2/31 60/2/37
f 68/2/45 62/2/39 54/2/31
f 68/2/45 70/2/47 62/2/39
f 76/2/53 70/2/47 68/2/45
f 76/2/53 78/2/55 70/2/47
f 84/2/61 78/2/55 76/2/53
f 84/2/61 86/2/63 78/2/55
f 92/2/69 86/2/63 84/2/61
f 92/2/69 94/2/71 86/2/63
f 100/2/77 94/2/71 92/2/69
f 100/2/77 102/2/79 94/2/71
f 108/2/85 102/2/79 100/2/77
f 108/2/85 110/2/87 102/2/79
f 116/2/93 110/2/87 108/2/85
f 110/2/87 116/2/93 118/2/95
f 105/3/82 120/3/97 113/3/90
f 120/3/97 105/3/82 112/3/89
f 112/3/89 105/3/82 104/3/81
f 104/3/81 105/3/82 97/3/74
f 104/3/81 97/3/74 96/3/73
f 96/3/73 97/3/74 89/3/66
f 96/3/73 89/3/66 88/3/65
f 88/3/65 89/3/66 81/3/58
f 88/3/65 81/3/58 80/3/57
f 80/3/57 81/3/58 73/3/50
f 80/3/57 73/3/50 72/3/49
f 72/3/49 73/3/50 65/3/42
f 72/3/49 65/3/42 64/3/41
f 64/3/41 65/3/42 56/3/33
f 56/3/33 65/3/42 57/3/34
f 56/3/33 57/3/34 47/3/24
f 47/3/24 57/3/34 48/3/25
f 48/3/25 57/3/34 34/3/11
f 34/3/11 57/3/34 49/3/26
f 34/3/11 49/3/26 33/3/10
f 16/6/98 10/6/98 9/6/98
f 10/6/98 16/6/98 15/6/98
f 10/6/98 15/6/98 11/6/98
f 11/6/98 15/6/98 14/6/98
f 11/6/98 14/6/98 12/6/98
f 12/6/98 14/6/98 13/6/98
f 32/6/98 26/6/98 25/6/98
f 26/6/98 32/6/98 31/6/98
f 26/6/98 31/6/98 27/6/98
f 27/6/98 31/6/98 30/6/98
f 27/6/98 30/6/98 28/6/98
f 28/6/98 30/6/98 29/6/98

