# Created by Kenney (www.kenney.nl)

mtllib fence-low-corner.mtl

g fence-low-corner

v 0.5 0 0.4 1 1 1
v 0.4707107 0 0.3292893 1 1 1
v 0.4707107 0 0.4707107 1 1 1
v 0.4 0 0.5 1 1 1
v 0.4 0 0.3 1 1 1
v 0.3292893 0 0.4707107 1 1 1
v 0.3292893 0 0.3292893 1 1 1
v 0.3 0 0.4 1 1 1
v 0.5 0.3 0.4 1 1 1
v 0.4707107 0.3 0.4707107 1 1 1
v 0.4 0.3 0.5 1 1 1
v 0.3292893 0.3 0.4707107 1 1 1
v 0.3 0.3 0.4 1 1 1
v 0.3292893 0.3 0.3292893 1 1 1
v 0.4 0.3 0.3 1 1 1
v 0.4707107 0.3 0.3292893 1 1 1
v -0.3 0 0.4 1 1 1
v -0.3292893 0 0.3292893 1 1 1
v -0.3292893 0 0.4707107 1 1 1
v -0.4 0 0.5 1 1 1
v -0.4 0 0.3 1 1 1
v -0.4707107 0 0.4707107 1 1 1
v -0.4707107 0 0.3292893 1 1 1
v -0.5 0 0.4 1 1 1
v -0.3 0.3 0.4 1 1 1
v -0.3292893 0.3 0.4707107 1 1 1
v -0.4 0.3 0.5 1 1 1
v -0.4707107 0.3 0.4707107 1 1 1
v -0.5 0.3 0.4 1 1 1
v -0.4707107 0.3 0.3292893 1 1 1
v -0.4 0.3 0.3 1 1 1
v -0.3292893 0.3 0.3292893 1 1 1
v -0.3 0 -0.4 1 1 1
v -0.3292893 0 -0.4707107 1 1 1
v -0.3292893 0 -0.3292893 1 1 1
v -0.4 0 -0.3 1 1 1
v -0.4 0 -0.5 1 1 1
v -0.4707107 0 -0.3292893 1 1 1
v -0.4707107 0 -0.4707107 1 1 1
v -0.5 0 -0.4 1 1 1
v -0.3 0.3 -0.4 1 1 1
v -0.3292893 0.3 -0.3292893 1 1 1
v -0.4 0.3 -0.3 1 1 1
v -0.4707107 0.3 -0.3292893 1 1 1
v -0.5 0.3 -0.4 1 1 1
v -0.4707107 0.3 -0.4707107 1 1 1
v -0.4 0.3 -0.5 1 1 1
v -0.3292893 0.3 -0.4707107 1 1 1
v 0.4 0.224 0.349 1 1 1
v 0.4 0.224 0.451 1 1 1
v -0.4 0.224 0.349 1 1 1
v -0.4 0.224 0.451 1 1 1
v 0.4 0.097 0.476 1 1 1
v -0.4 0.097 0.476 1 1 1
v 0.4 0.199 0.476 1 1 1
v -0.4 0.199 0.476 1 1 1
v 0.4 0.072 0.451 1 1 1
v 0.4 0.072 0.349 1 1 1
v -0.4 0.072 0.451 1 1 1
v -0.4 0.072 0.349 1 1 1
v -0.4 0.097 0.324 1 1 1
v 0.4 0.097 0.324 1 1 1
v -0.4 0.199 0.324 1 1 1
v 0.4 0.199 0.324 1 1 1
v -0.4510001 0.224 -0.4 1 1 1
v -0.349 0.224 -0.4 1 1 1
v -0.451 0.224 0.4 1 1 1
v -0.3489999 0.224 0.4 1 1 1
v -0.3240001 0.097 -0.4 1 1 1
v -0.3239999 0.097 0.4 1 1 1
v -0.3240001 0.199 -0.4 1 1 1
v -0.3239999 0.199 0.4 1 1 1
v -0.349 0.072 -0.4 1 1 1
v -0.4510001 0.072 -0.4 1 1 1
v -0.3489999 0.072 0.4 1 1 1
v -0.451 0.072 0.4 1 1 1
v -0.476 0.097 0.4 1 1 1
v -0.4760001 0.097 -0.4 1 1 1
v -0.476 0.199 0.4 1 1 1
v -0.4760001 0.199 -0.4 1 1 1

vn 0 -1 0
vn 1 0 0
vn 0.7071068 0 0.7071068
vn 0 0 1
vn -0.7071068 0 0.7071068
vn -1 0 0
vn -0.7071068 0 -0.7071068
vn 0 0 -1
vn 0.7071068 0 -0.7071068
vn 0 0.9238796 -0.3826835
vn 0 0.9238796 0.3826835
vn 0 -0.3826835 0.9238796
vn 0 0.3826835 0.9238796
vn 0 -0.9238796 0.3826835
vn 0 -0.9238796 -0.3826835
vn 0 -0.3826835 -0.9238796
vn 0 0.3826835 -0.9238796
vn -0.3826834 0.9238796 4.561941E-08
vn 0.3826834 0.9238796 -4.561941E-08
vn 0.9238796 -0.3826835 -1.10135E-07
vn 0.9238796 0.3826835 -1.10135E-07
vn 0.3826834 -0.9238796 -4.561941E-08
vn -0.3826834 -0.9238796 4.561941E-08
vn -0.9238796 -0.3826835 1.10135E-07
vn -0.9238796 0.3826835 1.10135E-07
vn 0 1 0

vt 0.84375 0.025
vt 0.84375 0.225
vt 0.84375 0.1414474
vt 0.84375 0.2085526
vt 0.84375 0.125
vt 0.71875 0.225

usemtl colormap

f 3/1/1 2/1/1 1/1/1
f 2/1/1 3/1/1 4/1/1
f 2/1/1 4/1/1 5/1/1
f 5/1/1 4/1/1 6/1/1
f 5/1/1 6/1/1 7/1/1
f 7/1/1 6/1/1 8/1/1
f 10/2/3 1/1/2 9/2/2
f 1/1/2 10/2/3 3/1/3
f 10/2/3 4/1/4 3/1/3
f 4/1/4 10/2/3 11/2/4
f 11/2/4 6/1/5 4/1/4
f 6/1/5 11/2/4 12/2/5
f 6/1/5 13/2/6 8/1/6
f 13/2/6 6/1/5 12/2/5
f 8/1/6 14/2/7 7/1/7
f 14/2/7 8/1/6 13/2/6
f 14/2/7 5/1/8 7/1/7
f 5/1/8 14/2/7 15/2/8
f 15/2/8 2/1/9 5/1/8
f 2/1/9 15/2/8 16/2/9
f 9/2/2 2/1/9 16/2/9
f 2/1/9 9/2/2 1/1/2
f 19/1/1 18/1/1 17/1/1
f 18/1/1 19/1/1 20/1/1
f 18/1/1 20/1/1 21/1/1
f 21/1/1 20/1/1 22/1/1
f 21/1/1 22/1/1 23/1/1
f 23/1/1 22/1/1 24/1/1
f 26/2/3 17/1/2 25/2/2
f 17/1/2 26/2/3 19/1/3
f 26/2/3 20/1/4 19/1/3
f 20/1/4 26/2/3 27/2/4
f 27/2/4 22/1/5 20/1/4
f 22/1/5 27/2/4 28/2/5
f 22/1/5 29/2/6 24/1/6
f 29/2/6 22/1/5 28/2/5
f 24/1/6 30/2/7 23/1/7
f 30/2/7 24/1/6 29/2/6
f 30/2/7 21/1/8 23/1/7
f 21/1/8 30/2/7 31/2/8
f 31/2/8 18/1/9 21/1/8
f 18/1/9 31/2/8 32/2/9
f 25/2/2 18/1/9 32/2/9
f 18/1/9 25/2/2 17/1/2
f 35/1/1 34/1/1 33/1/1
f 34/1/1 35/1/1 36/1/1
f 34/1/1 36/1/1 37/1/1
f 37/1/1 36/1/1 38/1/1
f 37/1/1 38/1/1 39/1/1
f 39/1/1 38/1/1 40/1/1
f 42/2/3 33/1/2 41/2/2
f 33/1/2 42/2/3 35/1/3
f 42/2/3 36/1/4 35/1/3
f 36/1/4 42/2/3 43/2/4
f 43/2/4 38/1/5 36/1/4
f 38/1/5 43/2/4 44/2/5
f 38/1/5 45/2/6 40/1/6
f 45/2/6 38/1/5 44/2/5
f 40/1/6 46/2/7 39/1/7
f 46/2/7 40/1/6 45/2/6
f 46/2/7 37/1/8 39/1/7
f 37/1/8 46/2/7 47/2/8
f 47/2/8 34/1/9 37/1/8
f 34/1/9 47/2/8 48/2/9
f 41/2/2 34/1/9 48/2/9
f 34/1/9 41/2/2 33/1/2
f 51/2/10 50/2/11 49/2/10
f 50/2/11 51/2/10 52/2/11
f 55/4/13 54/3/12 53/3/12
f 54/3/12 55/4/13 56/4/13
f 59/5/14 58/5/15 57/5/14
f 58/5/15 59/5/14 60/5/15
f 63/4/17 62/3/16 61/3/16
f 62/3/16 63/4/17 64/4/17
f 54/3/12 57/5/14 53/3/12
f 57/5/14 54/3/12 59/5/14
f 60/5/15 62/3/16 58/5/15
f 62/3/16 60/5/15 61/3/16
f 63/4/17 49/2/10 64/4/17
f 49/2/10 63/4/17 51/2/10
f 52/2/11 55/4/13 50/2/11
f 55/4/13 52/2/11 56/4/13
f 67/2/18 66/2/19 65/2/18
f 66/2/19 67/2/18 68/2/19
f 71/4/21 70/3/20 69/3/20
f 70/3/20 71/4/21 72/4/21
f 75/5/22 74/5/23 73/5/22
f 74/5/23 75/5/22 76/5/23
f 79/4/25 78/3/24 77/3/24
f 78/3/24 79/4/25 80/4/25
f 70/3/20 73/5/22 69/3/20
f 73/5/22 70/3/20 75/5/22
f 76/5/23 78/3/24 74/5/23
f 78/3/24 76/5/23 77/3/24
f 79/4/25 65/2/18 80/4/25
f 65/2/18 79/4/25 67/2/18
f 68/2/19 71/4/21 66/2/19
f 71/4/21 68/2/19 72/4/21
f 16/6/26 10/6/26 9/6/26
f 10/6/26 16/6/26 15/6/26
f 10/6/26 15/6/26 11/6/26
f 11/6/26 15/6/26 14/6/26
f 11/6/26 14/6/26 12/6/26
f 12/6/26 14/6/26 13/6/26
f 32/6/26 26/6/26 25/6/26
f 26/6/26 32/6/26 31/6/26
f 26/6/26 31/6/26 27/6/26
f 27/6/26 31/6/26 30/6/26
f 27/6/26 30/6/26 28/6/26
f 28/6/26 30/6/26 29/6/26
f 48/6/26 42/6/26 41/6/26
f 42/6/26 48/6/26 47/6/26
f 42/6/26 47/6/26 43/6/26
f 43/6/26 47/6/26 46/6/26
f 43/6/26 46/6/26 44/6/26
f 44/6/26 46/6/26 45/6/26

g fence-low-corner




usemtl colormap

f 3/1/1 2/1/1 1/1/1
f 2/1/1 3/1/1 4/1/1
f 2/1/1 4/1/1 5/1/1
f 5/1/1 4/1/1 6/1/1
f 5/1/1 6/1/1 7/1/1
f 7/1/1 6/1/1 8/1/1
f 10/2/3 1/1/2 9/2/2
f 1/1/2 10/2/3 3/1/3
f 10/2/3 4/1/4 3/1/3
f 4/1/4 10/2/3 11/2/4
f 11/2/4 6/1/5 4/1/4
f 6/1/5 11/2/4 12/2/5
f 6/1/5 13/2/6 8/1/6
f 13/2/6 6/1/5 12/2/5
f 8/1/6 14/2/7 7/1/7
f 14/2/7 8/1/6 13/2/6
f 14/2/7 5/1/8 7/1/7
f 5/1/8 14/2/7 15/2/8
f 15/2/8 2/1/9 5/1/8
f 2/1/9 15/2/8 16/2/9
f 9/2/2 2/1/9 16/2/9
f 2/1/9 9/2/2 1/1/2
f 19/1/1 18/1/1 17/1/1
f 18/1/1 19/1/1 20/1/1
f 18/1/1 20/1/1 21/1/1
f 21/1/1 20/1/1 22/1/1
f 21/1/1 22/1/1 23/1/1
f 23/1/1 22/1/1 24/1/1
f 26/2/3 17/1/2 25/2/2
f 17/1/2 26/2/3 19/1/3
f 26/2/3 20/1/4 19/1/3
f 20/1/4 26/2/3 27/2/4
f 27/2/4 22/1/5 20/1/4
f 22/1/5 27/2/4 28/2/5
f 22/1/5 29/2/6 24/1/6
f 29/2/6 22/1/5 28/2/5
f 24/1/6 30/2/7 23/1/7
f 30/2/7 24/1/6 29/2/6
f 30/2/7 21/1/8 23/1/7
f 21/1/8 30/2/7 31/2/8
f 31/2/8 18/1/9 21/1/8
f 18/1/9 31/2/8 32/2/9
f 25/2/2 18/1/9 32/2/9
f 18/1/9 25/2/2 17/1/2
f 35/1/1 34/1/1 33/1/1
f 34/1/1 35/1/1 36/1/1
f 34/1/1 36/1/1 37/1/1
f 37/1/1 36/1/1 38/1/1
f 37/1/1 38/1/1 39/1/1
f 39/1/1 38/1/1 40/1/1
f 42/2/3 33/1/2 41/2/2
f 33/1/2 42/2/3 35/1/3
f 42/2/3 36/1/4 35/1/3
f 36/1/4 42/2/3 43/2/4
f 43/2/4 38/1/5 36/1/4
f 38/1/5 43/2/4 44/2/5
f 38/1/5 45/2/6 40/1/6
f 45/2/6 38/1/5 44/2/5
f 40/1/6 46/2/7 39/1/7
f 46/2/7 40/1/6 45/2/6
f 46/2/7 37/1/8 39/1/7
f 37/1/8 46/2/7 47/2/8
f 47/2/8 34/1/9 37/1/8
f 34/1/9 47/2/8 48/2/9
f 41/2/2 34/1/9 48/2/9
f 34/1/9 41/2/2 33/1/2
f 51/2/10 50/2/11 49/2/10
f 50/2/11 51/2/10 52/2/11
f 55/4/13 54/3/12 53/3/12
f 54/3/12 55/4/13 56/4/13
f 59/5/14 58/5/15 57/5/14
f 58/5/15 59/5/14 60/5/15
f 63/4/17 62/3/16 61/3/16
f 62/3/16 63/4/17 64/4/17
f 54/3/12 57/5/14 53/3/12
f 57/5/14 54/3/12 59/5/14
f 60/5/15 62/3/16 58/5/15
f 62/3/16 60/5/15 61/3/16
f 63/4/17 49/2/10 64/4/17
f 49/2/10 63/4/17 51/2/10
f 52/2/11 55/4/13 50/2/11
f 55/4/13 52/2/11 56/4/13
f 67/2/18 66/2/19 65/2/18
f 66/2/19 67/2/18 68/2/19
f 71/4/21 70/3/20 69/3/20
f 70/3/20 71/4/21 72/4/21
f 75/5/22 74/5/23 73/5/22
f 74/5/23 75/5/22 76/5/23
f 79/4/25 78/3/24 77/3/24
f 78/3/24 79/4/25 80/4/25
f 70/3/20 73/5/22 69/3/20
f 73/5/22 70/3/20 75/5/22
f 76/5/23 78/3/24 74/5/23
f 78/3/24 76/5/23 77/3/24
f 79/4/25 65/2/18 80/4/25
f 65/2/18 79/4/25 67/2/18
f 68/2/19 71/4/21 66/2/19
f 71/4/21 68/2/19 72/4/21
f 16/6/26 10/6/26 9/6/26
f 10/6/26 16/6/26 15/6/26
f 10/6/26 15/6/26 11/6/26
f 11/6/26 15/6/26 14/6/26
f 11/6/26 14/6/26 12/6/26
f 12/6/26 14/6/26 13/6/26
f 32/6/26 26/6/26 25/6/26
f 26/6/26 32/6/26 31/6/26
f 26/6/26 31/6/26 27/6/26
f 27/6/26 31/6/26 30/6/26
f 27/6/26 30/6/26 28/6/26
f 28/6/26 30/6/26 29/6/26
f 48/6/26 42/6/26 41/6/26
f 42/6/26 48/6/26 47/6/26
f 42/6/26 47/6/26 43/6/26
f 43/6/26 47/6/26 46/6/26
f 43/6/26 46/6/26 44/6/26
f 44/6/26 46/6/26 45/6/26

