# Created by Kenney (www.kenney.nl)

mtllib heart.mtl

g heart

v -1.804779E-15 0.3070954 8.662937E-15 1 1 1
v -0.103057 0.3838693 6.785967E-14 1 1 1
v -3.555414E-14 0.2771536 -0.0595 1 1 1
v -0.0762622 0.3339663 -0.0595 1 1 1
v 0.2061141 0.1535477 -1.082867E-13 1 1 1
v -1.804779E-15 0 8.662937E-15 1 1 1
v 0.1525244 0.1635283 0.0595 1 1 1
v 3.17641E-14 0.04990301 0.0595 1 1 1
v 0.1525244 0.1635283 -0.0595 1 1 1
v -3.555414E-14 0.04990301 -0.0595 1 1 1
v -0.1525244 0.1635283 0.0595 1 1 1
v -0.2061141 0.1535477 1.256126E-13 1 1 1
v -0.2061141 0.3070954 1.256126E-13 1 1 1
v -0.1525244 0.2771536 0.0595 1 1 1
v 0.103057 0.3838693 -4.908998E-14 1 1 1
v 0.0762622 0.3339663 0.0595 1 1 1
v 3.17641E-14 0.2771536 0.0595 1 1 1
v 0.0762622 0.3339663 -0.0595 1 1 1
v 0.2061141 0.3070954 -1.082867E-13 1 1 1
v 0.1525244 0.2771536 0.0595 1 1 1
v -0.1525244 0.1635283 -0.0595 1 1 1
v -0.1525244 0.2771536 -0.0595 1 1 1
v -0.0762622 0.3339663 0.0595 1 1 1
v 0.1525244 0.2771536 -0.0595 1 1 1

vn 0 0.8932725 -0.4495157
vn -0.0699652 0.7485783 -0.6593449
vn 0 0.3371665 -0.941445
vn 0.1099402 0.5632054 -0.8189706
vn 0.6811088 -0.3066235 0.6648856
vn 0 -0.7661929 0.6426107
vn 0.4363065 -0.2613631 0.861003
vn 0 -0.5420226 0.840364
vn 0.6811088 -0.3066235 -0.6648856
vn 0.4363065 -0.2613631 -0.861003
vn 0 -0.7661929 -0.6426107
vn 0 -0.5420226 -0.840364
vn -0.4363065 -0.2613631 0.861003
vn -0.6811088 -0.3066235 0.6648856
vn -0.6200269 0.3167136 0.7178155
vn -0.4162532 0.2022108 0.8864784
vn 0.0699652 0.7485783 0.6593449
vn -0.1099402 0.5632054 0.8189706
vn 0 0.8932725 0.4495157
vn 0 0.3371665 0.941445
vn 0.0699652 0.7485783 -0.6593449
vn -0.1099402 0.5632054 -0.8189706
vn 0.6200269 0.3167136 0.7178155
vn 0.4162532 0.2022108 0.8864784
vn -0.4363065 -0.2613631 -0.861003
vn -0.4162532 0.2022108 -0.8864784
vn -0.6811088 -0.3066235 -0.6648856
vn -0.6200269 0.3167136 -0.7178155
vn 0.1099402 0.5632054 0.8189706
vn -0.0699652 0.7485783 0.6593449
vn 0.4162532 0.2022108 -0.8864784
vn 0.6200269 0.3167136 -0.7178155

vt 0.59375 0.435
vt 0.59375 0.475
vt 0.59375 0.4194
vt 0.59375 0.449
vt 0.59375 0.355
vt 0.59375 0.275
vt 0.59375 0.3602
vt 0.59375 0.301

usemtl colormap

f 3/3/3 2/2/2 1/1/1
f 2/2/2 3/3/3 4/4/4
f 7/7/7 6/6/6 5/5/5
f 6/6/6 7/7/7 8/8/8
f 6/6/11 9/7/10 5/5/9
f 9/7/10 6/6/11 10/8/12
f 11/7/13 6/6/6 8/8/8
f 6/6/6 11/7/13 12/5/14
f 11/7/13 13/1/15 12/5/14
f 13/1/15 11/7/13 14/3/16
f 1/1/19 16/4/18 15/2/17
f 16/4/18 1/1/19 17/3/20
f 18/4/22 1/1/1 15/2/21
f 1/1/1 18/4/22 3/3/3
f 20/3/24 5/5/5 19/1/23
f 5/5/5 20/3/24 7/7/7
f 12/5/27 22/3/26 21/7/25
f 22/3/26 12/5/27 13/1/28
f 1/1/19 23/4/29 17/3/20
f 23/4/29 1/1/19 2/2/30
f 16/4/18 17/3/20 20/3/24
f 14/3/16 20/3/24 17/3/20
f 14/3/16 17/3/20 23/4/29
f 11/7/13 20/3/24 14/3/16
f 11/7/13 7/7/7 20/3/24
f 7/7/7 11/7/13 8/8/8
f 12/5/27 10/8/12 6/6/11
f 10/8/12 12/5/27 21/7/25
f 19/1/23 16/4/18 20/3/24
f 16/4/18 19/1/23 15/2/17
f 13/1/28 4/4/4 22/3/26
f 4/4/4 13/1/28 2/2/2
f 4/4/4 3/3/3 22/3/26
f 24/3/31 22/3/26 3/3/3
f 24/3/31 3/3/3 18/4/22
f 9/7/10 22/3/26 24/3/31
f 9/7/10 21/7/25 22/3/26
f 21/7/25 9/7/10 10/8/12
f 18/4/22 19/1/32 24/3/31
f 19/1/32 18/4/22 15/2/21
f 19/1/32 9/7/10 24/3/31
f 9/7/10 19/1/32 5/5/9
f 23/4/29 13/1/15 14/3/16
f 13/1/15 23/4/29 2/2/30

g heart




usemtl colormap

f 3/3/3 2/2/2 1/1/1
f 2/2/2 3/3/3 4/4/4
f 7/7/7 6/6/6 5/5/5
f 6/6/6 7/7/7 8/8/8
f 6/6/11 9/7/10 5/5/9
f 9/7/10 6/6/11 10/8/12
f 11/7/13 6/6/6 8/8/8
f 6/6/6 11/7/13 12/5/14
f 11/7/13 13/1/15 12/5/14
f 13/1/15 11/7/13 14/3/16
f 1/1/19 16/4/18 15/2/17
f 16/4/18 1/1/19 17/3/20
f 18/4/22 1/1/1 15/2/21
f 1/1/1 18/4/22 3/3/3
f 20/3/24 5/5/5 19/1/23
f 5/5/5 20/3/24 7/7/7
f 12/5/27 22/3/26 21/7/25
f 22/3/26 12/5/27 13/1/28
f 1/1/19 23/4/29 17/3/20
f 23/4/29 1/1/19 2/2/30
f 16/4/18 17/3/20 20/3/24
f 14/3/16 20/3/24 17/3/20
f 14/3/16 17/3/20 23/4/29
f 11/7/13 20/3/24 14/3/16
f 11/7/13 7/7/7 20/3/24
f 7/7/7 11/7/13 8/8/8
f 12/5/27 10/8/12 6/6/11
f 10/8/12 12/5/27 21/7/25
f 19/1/23 16/4/18 20/3/24
f 16/4/18 19/1/23 15/2/17
f 13/1/28 4/4/4 22/3/26
f 4/4/4 13/1/28 2/2/2
f 4/4/4 3/3/3 22/3/26
f 24/3/31 22/3/26 3/3/3
f 24/3/31 3/3/3 18/4/22
f 9/7/10 22/3/26 24/3/31
f 9/7/10 21/7/25 22/3/26
f 21/7/25 9/7/10 10/8/12
f 18/4/22 19/1/32 24/3/31
f 19/1/32 18/4/22 15/2/21
f 19/1/32 9/7/10 24/3/31
f 9/7/10 19/1/32 5/5/9
f 23/4/29 13/1/15 14/3/16
f 13/1/15 23/4/29 2/2/30

