# Created by Kenney (www.kenney.nl)

mtllib jewel.mtl

g jewel

v 0.16644 0.185241 0 1 1 1
v 0 0 0 1 1 1
v 0.08322 0.185241 0.1441413 1 1 1
v -0.08322 0.185241 0.1441413 1 1 1
v 0 0.3704819 0 1 1 1
v -0.08322 0.185241 -0.1441413 1 1 1
v 0.08322 0.185241 -0.1441413 1 1 1
v -0.16644 0.185241 0 1 1 1

vn 0.683483 -0.614113 0.394609
vn 0 -0.6141131 0.7892181
vn 0.6834829 0.6141132 0.3946089
vn 0 0.6141133 -0.7892179
vn 0.683483 -0.614113 -0.394609
vn 0 -0.6141131 -0.7892181
vn -0.6834829 0.6141132 -0.3946089
vn -0.683483 -0.614113 0.394609
vn 0 0.6141133 0.7892179
vn -0.6834829 0.6141132 0.3946089
vn -0.683483 -0.614113 -0.394609
vn 0.6834829 0.6141132 -0.3946089

vt 0.71875 0.375
vt 0.71875 0.275
vt 0.71875 0.475

usemtl colormap

f 3/1/1 2/2/1 1/1/1
f 4/1/2 2/2/2 3/1/2
f 3/1/3 1/1/3 5/3/3
f 5/3/4 7/1/4 6/1/4
f 2/2/5 7/1/5 1/1/5
f 7/1/6 2/2/6 6/1/6
f 5/3/7 6/1/7 8/1/7
f 4/1/8 8/1/8 2/2/8
f 5/3/9 4/1/9 3/1/9
f 4/1/10 5/3/10 8/1/10
f 8/1/11 6/1/11 2/2/11
f 1/1/12 7/1/12 5/3/12

g jewel




usemtl colormap

f 3/1/1 2/2/1 1/1/1
f 4/1/2 2/2/2 3/1/2
f 3/1/3 1/1/3 5/3/3
f 5/3/4 7/1/4 6/1/4
f 2/2/5 7/1/5 1/1/5
f 7/1/6 2/2/6 6/1/6
f 5/3/7 6/1/7 8/1/7
f 4/1/8 8/1/8 2/2/8
f 5/3/9 4/1/9 3/1/9
f 4/1/10 5/3/10 8/1/10
f 8/1/11 6/1/11 2/2/11
f 1/1/12 7/1/12 5/3/12

