# Created by Kenney (www.kenney.nl)

mtllib lever.mtl

g lever

v 2.743263E-14 0.35 -0.175 1 1 1
v 1.010676E-14 0.35 -0.075 1 1 1
v -0.1767767 0.2767767 -0.175 1 1 1
v -0.1767767 0.2767767 -0.075 1 1 1
v -0.25 0.1 -0.175 1 1 1
v -0.25 0.1 -0.075 1 1 1
v 0.1767767 0.2767767 -0.175 1 1 1
v 0.1767767 0.2767767 -0.075 1 1 1
v 0.25 0.1 -0.175 1 1 1
v 0.25 0.1 -0.075 1 1 1
v -0.1802415 0.1 0.075 1 1 1
v -0.153546 0.1644484 0.075 1 1 1
v -0.25 0.1 0.075 1 1 1
v -0.1767767 0.2767767 0.075 1 1 1
v -0.12745 0.22745 0.075 1 1 1
v -1.732587E-14 0.2802415 0.075 1 1 1
v -8.662937E-15 0.35 0.075 1 1 1
v 0.1767767 0.2767767 0.075 1 1 1
v 0.12745 0.22745 0.075 1 1 1
v 0.153546 0.1644484 0.075 1 1 1
v 0.1802415 0.1 0.075 1 1 1
v 0.25 0.1 0.075 1 1 1
v 0.25 0.1 0.175 1 1 1
v -0.25 0.1 0.175 1 1 1
v 0.1767767 0.2767767 0.175 1 1 1
v -0.1767767 0.2767767 0.175 1 1 1
v -2.598881E-14 0.35 0.175 1 1 1
v 0.1802415 0.1 -0.075 1 1 1
v 0.153546 0.1644484 -0.075 1 1 1
v 0.12745 0.22745 -0.075 1 1 1
v 1.010676E-14 0.2802415 -0.075 1 1 1
v -0.12745 0.22745 -0.075 1 1 1
v -0.153546 0.1644484 -0.075 1 1 1
v -0.1802415 0.1 -0.075 1 1 1
v 0.3 0.1 -0.2 1 1 1
v 0.3 0.1 0.2 1 1 1
v 0.2749999 0.1 -0.225 1 1 1
v 0.2749999 0.1 0.225 1 1 1
v -0.2749999 0.1 -0.225 1 1 1
v -0.2749999 0.1 0.225 1 1 1
v -0.3 0.1 -0.2 1 1 1
v -0.3 0.1 0.2 1 1 1
v 0.3 2.255973E-17 0.2 1 1 1
v 0.3 1.421263E-15 -0.2 1 1 1
v 0.2749999 0 0.225 1 1 1
v 0.2749999 1.511502E-15 -0.225 1 1 1
v -0.2749999 1.376144E-15 0.225 1 1 1
v -0.2749999 1.624301E-15 -0.225 1 1 1
v -0.3 1.443823E-15 0.2 1 1 1
v -0.3 1.624301E-15 -0.2 1 1 1

vn 0 1 0
vn -0.7071068 0.7071068 0
vn -0.9238795 0.3826834 0
vn 0.7071068 0.7071068 0
vn 0.9238795 0.3826834 0
vn 0 0 -1
vn 0 0 1
vn 0 -1 0
vn -0.9238795 0 -0.3826834
vn -0.9238795 0 0.3826834
vn 0.3826834 0 -0.9238795
vn -0.3826834 0 -0.9238795
vn 0.3826834 0 0.9238795
vn -0.3826834 0 0.9238795
vn 0.9238795 0 0.3826834
vn 0.9238795 0 -0.3826834

vt 0.21875 0.175
vt 0.21875 0.1457107
vt 0.21875 0.075
vt 0.21875 0.1007794
vt 0.21875 0.12598
vt 0.21875 0.1470966
vt 0.34375 0.075
vt 0.34375 0.1007794
vt 0.34375 0.12598
vt 0.34375 0.1470966

usemtl colormap

f 3/2/2 2/1/1 1/1/1
f 2/1/1 3/2/2 4/2/2
f 6/3/3 3/2/2 5/3/3
f 3/2/2 6/3/3 4/2/2
f 1/1/1 8/2/4 7/2/4
f 8/2/4 1/1/1 2/1/1
f 8/2/4 9/3/5 7/2/4
f 9/3/5 8/2/4 10/3/5
f 5/3/6 7/2/6 9/3/6
f 7/2/6 5/3/6 3/2/6
f 7/2/6 3/2/6 1/1/6
f 13/3/6 12/4/6 11/3/6
f 12/4/6 13/3/6 14/2/6
f 12/4/6 14/2/6 15/5/6
f 15/5/6 14/2/6 16/6/6
f 16/6/6 14/2/6 17/1/6
f 18/2/6 16/6/6 17/1/6
f 18/2/6 19/5/6 16/6/6
f 18/2/6 20/4/6 19/5/6
f 18/2/6 21/3/6 20/4/6
f 21/3/6 18/2/6 22/3/6
f 25/2/7 24/3/7 23/3/7
f 24/3/7 25/2/7 26/2/7
f 26/2/7 25/2/7 27/1/7
f 14/2/2 27/1/1 17/1/1
f 27/1/1 14/2/2 26/2/2
f 17/1/1 25/2/4 18/2/4
f 25/2/4 17/1/1 27/1/1
f 25/2/4 22/3/5 18/2/4
f 22/3/5 25/2/4 23/3/5
f 24/3/3 14/2/2 13/3/3
f 14/2/2 24/3/3 26/2/2
f 8/2/7 28/3/7 10/3/7
f 28/3/7 8/2/7 29/4/7
f 29/4/7 8/2/7 30/5/7
f 30/5/7 8/2/7 31/6/7
f 31/6/7 8/2/7 2/1/7
f 4/2/7 31/6/7 2/1/7
f 4/2/7 32/5/7 31/6/7
f 4/2/7 33/4/7 32/5/7
f 6/3/7 33/4/7 4/2/7
f 33/4/7 6/3/7 34/3/7
f 37/1/1 36/1/1 35/1/1
f 36/1/1 37/1/1 38/1/1
f 38/1/1 37/1/1 39/1/1
f 38/1/1 39/1/1 40/1/1
f 40/1/1 39/1/1 41/1/1
f 40/1/1 41/1/1 42/1/1
f 45/3/8 44/3/8 43/3/8
f 44/3/8 45/3/8 46/3/8
f 46/3/8 45/3/8 47/3/8
f 46/3/8 47/3/8 48/3/8
f 48/3/8 47/3/8 49/3/8
f 48/3/8 49/3/8 50/3/8
f 49/3/10 41/1/9 50/3/9
f 41/1/9 49/3/10 42/1/10
f 48/3/12 37/1/11 46/3/11
f 37/1/11 48/3/12 39/1/12
f 38/1/13 47/3/14 45/3/13
f 47/3/14 38/1/13 40/1/14
f 50/3/9 39/1/12 48/3/12
f 39/1/12 50/3/9 41/1/9
f 38/1/13 43/3/15 36/1/15
f 43/3/15 38/1/13 45/3/13
f 47/3/14 42/1/10 49/3/10
f 42/1/10 47/3/14 40/1/14
f 36/1/15 44/3/16 35/1/16
f 44/3/16 36/1/15 43/3/15
f 35/1/16 46/3/11 37/1/11
f 46/3/11 35/1/16 44/3/16
f 11/7/3 33/8/3 34/7/3
f 33/8/3 11/7/3 32/9/2
f 32/9/2 11/7/3 12/8/3
f 32/9/2 12/8/3 15/9/2
f 19/9/4 29/8/5 30/9/4
f 29/8/5 19/9/4 28/7/5
f 28/7/5 19/9/4 21/7/5
f 21/7/5 19/9/4 20/8/5
f 31/10/1 19/9/4 30/9/4
f 19/9/4 31/10/1 16/10/1
f 32/9/2 16/10/1 31/10/1
f 16/10/1 32/9/2 15/9/2

g lever




usemtl colormap

f 3/2/2 2/1/1 1/1/1
f 2/1/1 3/2/2 4/2/2
f 6/3/3 3/2/2 5/3/3
f 3/2/2 6/3/3 4/2/2
f 1/1/1 8/2/4 7/2/4
f 8/2/4 1/1/1 2/1/1
f 8/2/4 9/3/5 7/2/4
f 9/3/5 8/2/4 10/3/5
f 5/3/6 7/2/6 9/3/6
f 7/2/6 5/3/6 3/2/6
f 7/2/6 3/2/6 1/1/6
f 13/3/6 12/4/6 11/3/6
f 12/4/6 13/3/6 14/2/6
f 12/4/6 14/2/6 15/5/6
f 15/5/6 14/2/6 16/6/6
f 16/6/6 14/2/6 17/1/6
f 18/2/6 16/6/6 17/1/6
f 18/2/6 19/5/6 16/6/6
f 18/2/6 20/4/6 19/5/6
f 18/2/6 21/3/6 20/4/6
f 21/3/6 18/2/6 22/3/6
f 25/2/7 24/3/7 23/3/7
f 24/3/7 25/2/7 26/2/7
f 26/2/7 25/2/7 27/1/7
f 14/2/2 27/1/1 17/1/1
f 27/1/1 14/2/2 26/2/2
f 17/1/1 25/2/4 18/2/4
f 25/2/4 17/1/1 27/1/1
f 25/2/4 22/3/5 18/2/4
f 22/3/5 25/2/4 23/3/5
f 24/3/3 14/2/2 13/3/3
f 14/2/2 24/3/3 26/2/2
f 8/2/7 28/3/7 10/3/7
f 28/3/7 8/2/7 29/4/7
f 29/4/7 8/2/7 30/5/7
f 30/5/7 8/2/7 31/6/7
f 31/6/7 8/2/7 2/1/7
f 4/2/7 31/6/7 2/1/7
f 4/2/7 32/5/7 31/6/7
f 4/2/7 33/4/7 32/5/7
f 6/3/7 33/4/7 4/2/7
f 33/4/7 6/3/7 34/3/7
f 37/1/1 36/1/1 35/1/1
f 36/1/1 37/1/1 38/1/1
f 38/1/1 37/1/1 39/1/1
f 38/1/1 39/1/1 40/1/1
f 40/1/1 39/1/1 41/1/1
f 40/1/1 41/1/1 42/1/1
f 45/3/8 44/3/8 43/3/8
f 44/3/8 45/3/8 46/3/8
f 46/3/8 45/3/8 47/3/8
f 46/3/8 47/3/8 48/3/8
f 48/3/8 47/3/8 49/3/8
f 48/3/8 49/3/8 50/3/8
f 49/3/10 41/1/9 50/3/9
f 41/1/9 49/3/10 42/1/10
f 48/3/12 37/1/11 46/3/11
f 37/1/11 48/3/12 39/1/12
f 38/1/13 47/3/14 45/3/13
f 47/3/14 38/1/13 40/1/14
f 50/3/9 39/1/12 48/3/12
f 39/1/12 50/3/9 41/1/9
f 38/1/13 43/3/15 36/1/15
f 43/3/15 38/1/13 45/3/13
f 47/3/14 42/1/10 49/3/10
f 42/1/10 47/3/14 40/1/14
f 36/1/15 44/3/16 35/1/16
f 44/3/16 36/1/15 43/3/15
f 35/1/16 46/3/11 37/1/11
f 46/3/11 35/1/16 44/3/16
f 11/7/3 33/8/3 34/7/3
f 33/8/3 11/7/3 32/9/2
f 32/9/2 11/7/3 12/8/3
f 32/9/2 12/8/3 15/9/2
f 19/9/4 29/8/5 30/9/4
f 29/8/5 19/9/4 28/7/5
f 28/7/5 19/9/4 21/7/5
f 21/7/5 19/9/4 20/8/5
f 31/10/1 19/9/4 30/9/4
f 19/9/4 31/10/1 16/10/1
f 32/9/2 16/10/1 31/10/1
f 16/10/1 32/9/2 15/9/2

g handle

v 0.07278125 0.6418125 -0.04366875 1 1 1
v 0.07278125 0.6418125 0.04366875 1 1 1
v 0.04366875 0.6418125 -0.07278125 1 1 1
v 0.04366875 0.6418125 0.07278125 1 1 1
v -0.04366875 0.6418125 -0.07278125 1 1 1
v -0.04366875 0.6418125 0.07278125 1 1 1
v -0.07278125 0.6418125 -0.04366875 1 1 1
v -0.07278125 0.6418125 0.04366875 1 1 1
v -0.04366875 0.4598187 0.07278125 1 1 1
v 0.04366875 0.4598187 0.07278125 1 1 1
v -0.04366875 0.4598187 -0.07278125 1 1 1
v 0.04366875 0.4598187 -0.07278125 1 1 1
v -0.058225 0.4006875 0.02888594 1 1 1
v -0.07278125 0.4598187 0.04366875 1 1 1
v -0.02888594 0.4006875 0.058225 1 1 1
v 0.07278125 0.4598187 -0.04366875 1 1 1
v 0.058225 0.4006875 -0.02888594 1 1 1
v 0.07278125 0.4598187 0.04366875 1 1 1
v 0.058225 0.4006875 0.02888594 1 1 1
v 0.02888594 0.4006875 0.058225 1 1 1
v -0.07278125 0.4598187 -0.04366875 1 1 1
v -0.02888594 0.4006875 -0.058225 1 1 1
v 0.02888594 0.4006875 -0.058225 1 1 1
v -0.058225 0.4006875 -0.02888594 1 1 1
v 0.02390625 0.1 0.02390625 1 1 1
v -0.02390625 0.1 0.02390625 1 1 1
v 0.031875 0.4006875 0.031875 1 1 1
v -0.031875 0.4006875 0.031875 1 1 1
v 0.031875 0.4006875 -0.031875 1 1 1
v 0.02390625 0.1 -0.02390625 1 1 1
v -0.02390625 0.1 -0.02390625 1 1 1
v -0.031875 0.4006875 -0.031875 1 1 1

vn -0.3903994 -0.1516812 0.9080645
vn 0.3903994 -0.1516812 0.9080645
vn -0.3903994 -0.1516812 -0.9080645
vn 0.3903994 -0.1516812 -0.9080645
vn -0.8927754 -0.3030965 0.3332935
vn -0.9080645 -0.1516812 0.3903994
vn -0.3332935 -0.3030965 0.8927754
vn 0.9080645 -0.1516812 -0.3903994
vn 0.8927754 -0.3030965 -0.3332935
vn 0.9080645 -0.1516812 0.3903994
vn 0.8927754 -0.3030965 0.3332935
vn 0.3332935 -0.3030965 0.8927754
vn -0.9080645 -0.1516812 -0.3903994
vn -0.3332935 -0.3030965 -0.8927754
vn 0.3332935 -0.3030965 -0.8927754
vn -0.8927754 -0.3030965 -0.3332935
vn 0 -0.02649247 0.999649
vn 0.999649 -0.02649247 0
vn 0 -0.02649247 -0.999649
vn -0.999649 -0.02649247 0

vt 0.59375 0.475
vt 0.59375 0.3240461
vt 0.59375 0.275
vt 0.21875 0.225
vt 0.21875 0.025

usemtl colormap

f 53/11/1 52/11/1 51/11/1
f 52/11/1 53/11/1 54/11/1
f 54/11/1 53/11/1 55/11/1
f 54/11/1 55/11/1 56/11/1
f 56/11/1 55/11/1 57/11/1
f 56/11/1 57/11/1 58/11/1
f 60/12/18 56/11/14 59/12/17
f 56/11/14 60/12/18 54/11/13
f 55/11/12 62/12/20 61/12/19
f 62/12/20 55/11/12 53/11/11
f 65/13/23 64/12/22 63/13/21
f 64/12/22 65/13/23 59/12/17
f 68/12/26 67/13/25 66/12/24
f 67/13/25 68/12/26 69/13/27
f 68/12/26 70/13/28 69/13/27
f 70/13/28 68/12/26 60/12/18
f 71/12/29 55/11/12 61/12/19
f 55/11/12 71/12/29 57/11/9
f 61/12/19 73/13/31 72/13/30
f 73/13/31 61/12/19 62/12/20
f 59/12/17 58/11/10 64/12/22
f 58/11/10 59/12/17 56/11/14
f 52/11/15 66/12/24 51/11/16
f 66/12/24 52/11/15 68/12/26
f 53/11/11 66/12/24 62/12/20
f 66/12/24 53/11/11 51/11/16
f 60/12/18 65/13/23 70/13/28
f 65/13/23 60/12/18 59/12/17
f 70/13/8 67/13/8 69/13/8
f 67/13/8 70/13/8 73/13/8
f 73/13/8 70/13/8 65/13/8
f 73/13/8 65/13/8 72/13/8
f 72/13/8 65/13/8 63/13/8
f 72/13/8 63/13/8 74/13/8
f 64/12/22 57/11/9 71/12/29
f 57/11/9 64/12/22 58/11/10
f 74/13/32 64/12/22 71/12/29
f 64/12/22 74/13/32 63/13/21
f 62/12/20 67/13/25 73/13/31
f 67/13/25 62/12/20 66/12/24
f 52/11/15 60/12/18 68/12/26
f 60/12/18 52/11/15 54/11/13
f 72/13/30 71/12/29 61/12/19
f 71/12/29 72/13/30 74/13/32
f 77/15/33 76/14/33 75/14/33
f 76/14/33 77/15/33 78/15/33
f 77/15/34 80/14/34 79/15/34
f 80/14/34 77/15/34 75/14/34
f 82/15/35 80/14/35 81/14/35
f 80/14/35 82/15/35 79/15/35
f 81/14/36 78/15/36 82/15/36
f 78/15/36 81/14/36 76/14/36

