# Created by Kenney (www.kenney.nl)

mtllib lock.mtl

g lock

v 0.138975 0.24735 -0.09265 1 1 1
v 0.146625 0.2244 -0.09265 1 1 1
v 0.138975 0.24735 0.09265 1 1 1
v 0.146625 0.2244 0.09265 1 1 1
v 0.116025 0.255 -0.09265 1 1 1
v 0.116025 0.255 -0.0306 1 1 1
v -0.116025 0.255 -0.09265 1 1 1
v 0.054825 0.255 -0.0306 1 1 1
v 0.054825 0.255 0.0306 1 1 1
v -0.054825 0.255 -0.0306 1 1 1
v -0.116025 0.255 -0.0306 1 1 1
v -0.054825 0.255 0.0306 1 1 1
v -0.116025 0.255 0.09265 1 1 1
v -0.116025 0.255 0.0306 1 1 1
v 0.116025 0.255 0.09265 1 1 1
v 0.116025 0.255 0.0306 1 1 1
v -0.116025 0 0.09265 1 1 1
v -0.116025 -3.575717E-15 -0.09265 1 1 1
v -0.138975 0.00765 0.09265 1 1 1
v -0.138975 0.00765 -0.09265 1 1 1
v -0.146625 0.2244 -0.09265 1 1 1
v -0.146625 0.2244 0.09265 1 1 1
v -0.146625 0.0306 -0.09265 1 1 1
v -0.146625 0.0306 0.09265 1 1 1
v 0.116025 -2.257665E-14 -0.09265 1 1 1
v 0.138975 0.00765 -0.09265 1 1 1
v 0.146625 0.0306 -0.09265 1 1 1
v -1.443823E-15 0.06375 -0.09265 1 1 1
v -0.06375 0.1275 -0.09265 1 1 1
v 0.06375 0.1275 -0.09265 1 1 1
v -1.443823E-15 0.19125 -0.09265 1 1 1
v -0.138975 0.24735 -0.09265 1 1 1
v 0.116025 0 0.09265 1 1 1
v -0.138975 0.24735 0.09265 1 1 1
v 0.146625 0.0306 0.09265 1 1 1
v 0.138975 0.00765 0.09265 1 1 1
v -7.219114E-15 0.06375 0.09265 1 1 1
v 0.06375 0.1275 0.09265 1 1 1
v -0.06375 0.1275 0.09265 1 1 1
v -7.219114E-15 0.19125 0.09265 1 1 1
v 0.054825 0.4012 -0.0306 1 1 1
v 0.054825 0.4012 0.0306 1 1 1
v -0.054825 0.4012 -0.0306 1 1 1
v -0.054825 0.4012 0.0306 1 1 1
v -0.116025 0.34 -0.0306 1 1 1
v -0.100725 0.3859 -0.0306 1 1 1
v -0.116025 0.34 0.0306 1 1 1
v -0.100725 0.3859 0.0306 1 1 1
v 0.100725 0.3859 -0.0306 1 1 1
v 0.100725 0.3859 0.0306 1 1 1
v 0.116025 0.34 -0.0306 1 1 1
v 0.116025 0.34 0.0306 1 1 1
v -0.054825 0.34 -0.0306 1 1 1
v -0.054825 0.34 0.0306 1 1 1
v 0.054825 0.34 0.0306 1 1 1
v 0.054825 0.34 -0.0306 1 1 1
v -1.443823E-15 0.06375 -0.09265 1 1 1
v -1.443823E-15 0.19125 -0.09265 1 1 1

vn 0.7071068 0.7071068 0
vn 0.9870875 0.1601822 0
vn 0 1 0
vn -0.3162278 -0.9486833 0
vn -0.7071068 -0.7071068 0
vn -0.9870875 0.1601822 0
vn -0.9870875 -0.1601822 0
vn 0 0 -1
vn 0 -1 0
vn -0.7071068 0.7071068 0
vn -0.3162278 0.9486833 0
vn 0.9870875 -0.1601822 0
vn 0.7071068 -0.7071068 0
vn 0.3162278 0.9486833 0
vn 0.3162278 -0.9486833 0
vn 0 0 1
vn 0.1601822 0.9870875 0
vn -0.1601822 0.9870875 0
vn 1 0 0
vn -1 0 0

vt 0.34375 0.3983051
vt 0.34375 0.3868644
vt 0.34375 0.4021186
vt 0.34375 0.275
vt 0.34375 0.2788136
vt 0.34375 0.2902542
vt 0.34375 0.3067797
vt 0.34375 0.3385593
vt 0.34375 0.370339
vt 0.21875 0.225
vt 0.21875 0.1944915
vt 0.21875 0.2173729
vt 0.21875 0.1521186
vt 0.71875 0.025
vt 0.71875 0.125
vt 0.71875 0.225

usemtl colormap

f 3/1/1 2/2/2 1/1/1
f 2/2/2 3/1/1 4/2/2
f 7/3/3 6/3/3 5/3/3
f 6/3/3 7/3/3 8/3/3
f 8/3/3 7/3/3 9/3/3
f 9/3/3 7/3/3 10/3/3
f 10/3/3 7/3/3 11/3/3
f 12/3/3 9/3/3 10/3/3
f 13/3/3 9/3/3 12/3/3
f 13/3/3 12/3/3 14/3/3
f 15/3/3 9/3/3 13/3/3
f 9/3/3 15/3/3 16/3/3
f 19/5/5 18/4/4 17/4/4
f 18/4/4 19/5/5 20/5/5
f 23/6/7 22/2/6 21/2/6
f 22/2/6 23/6/7 24/6/7
f 18/4/8 26/5/8 25/4/8
f 26/5/8 18/4/8 20/5/8
f 26/5/8 20/5/8 27/6/8
f 27/6/8 20/5/8 23/6/8
f 27/6/8 23/6/8 28/7/8
f 23/6/8 29/8/8 28/7/8
f 27/6/8 28/7/8 30/8/8
f 29/8/8 23/6/8 21/2/8
f 27/6/8 30/8/8 2/2/8
f 29/8/8 21/2/8 31/9/8
f 2/2/8 30/8/8 31/9/8
f 2/2/8 31/9/8 21/2/8
f 2/2/8 21/2/8 32/1/8
f 2/2/8 32/1/8 1/1/8
f 1/1/8 32/1/8 7/3/8
f 1/1/8 7/3/8 5/3/8
f 33/4/9 18/4/9 25/4/9
f 18/4/9 33/4/9 17/4/9
f 21/2/6 34/1/10 32/1/10
f 34/1/10 21/2/6 22/2/6
f 7/3/11 14/3/11 11/3/11
f 14/3/11 7/3/11 13/3/11
f 13/3/11 7/3/11 34/1/10
f 34/1/10 7/3/11 32/1/10
f 35/6/12 26/5/13 27/6/12
f 26/5/13 35/6/12 36/5/13
f 5/3/14 3/1/1 1/1/1
f 3/1/1 5/3/14 16/3/14
f 3/1/1 16/3/14 15/3/14
f 16/3/14 5/3/14 6/3/14
f 36/5/13 25/4/15 26/5/13
f 25/4/15 36/5/13 33/4/15
f 19/5/5 23/6/7 20/5/5
f 23/6/7 19/5/5 24/6/7
f 4/2/2 27/6/12 2/2/2
f 27/6/12 4/2/2 35/6/12
f 36/5/16 17/4/16 33/4/16
f 17/4/16 36/5/16 19/5/16
f 19/5/16 36/5/16 35/6/16
f 19/5/16 35/6/16 24/6/16
f 24/6/16 35/6/16 37/7/16
f 37/7/16 35/6/16 38/8/16
f 39/8/16 24/6/16 37/7/16
f 38/8/16 35/6/16 4/2/16
f 24/6/16 39/8/16 22/2/16
f 38/8/16 4/2/16 40/9/16
f 22/2/16 39/8/16 40/9/16
f 22/2/16 40/9/16 4/2/16
f 22/2/16 4/2/16 3/1/16
f 22/2/16 3/1/16 34/1/16
f 34/1/16 3/1/16 15/3/16
f 34/1/16 15/3/16 13/3/16
f 43/10/18 42/10/17 41/10/17
f 42/10/17 43/10/18 44/10/18
f 47/11/6 46/12/10 45/11/6
f 46/12/10 47/11/6 48/12/10
f 46/12/10 44/10/18 43/10/18
f 44/10/18 46/12/10 48/12/10
f 41/10/17 50/12/1 49/12/1
f 50/12/1 41/10/17 42/10/17
f 50/12/1 51/11/2 49/12/1
f 51/11/2 50/12/1 52/11/2
f 52/11/2 6/13/19 51/11/2
f 6/13/19 52/11/2 16/13/19
f 54/11/19 10/13/19 53/11/19
f 10/13/19 54/11/19 12/13/19
f 52/11/16 9/13/16 16/13/16
f 9/13/16 52/11/16 55/11/16
f 55/11/16 52/11/16 50/12/16
f 55/11/16 50/12/16 54/11/16
f 54/11/16 50/12/16 47/11/16
f 14/13/16 54/11/16 47/11/16
f 54/11/16 14/13/16 12/13/16
f 47/11/16 50/12/16 48/12/16
f 48/12/16 50/12/16 44/10/16
f 44/10/16 50/12/16 42/10/16
f 14/13/20 45/11/6 11/13/20
f 45/11/6 14/13/20 47/11/6
f 54/11/9 56/11/9 55/11/9
f 56/11/9 54/11/9 53/11/9
f 9/13/20 56/11/20 8/13/20
f 56/11/20 9/13/20 55/11/20
f 45/11/8 10/13/8 11/13/8
f 10/13/8 45/11/8 53/11/8
f 53/11/8 45/11/8 46/12/8
f 53/11/8 46/12/8 56/11/8
f 56/11/8 46/12/8 51/11/8
f 6/13/8 56/11/8 51/11/8
f 56/11/8 6/13/8 8/13/8
f 51/11/8 46/12/8 49/12/8
f 49/12/8 46/12/8 43/10/8
f 49/12/8 43/10/8 41/10/8
f 38/15/16 39/15/16 37/14/16
f 39/15/16 38/15/16 40/16/16
f 29/15/8 30/15/8 57/14/8
f 30/15/8 29/15/8 58/16/8

g lock




usemtl colormap

f 3/1/1 2/2/2 1/1/1
f 2/2/2 3/1/1 4/2/2
f 7/3/3 6/3/3 5/3/3
f 6/3/3 7/3/3 8/3/3
f 8/3/3 7/3/3 9/3/3
f 9/3/3 7/3/3 10/3/3
f 10/3/3 7/3/3 11/3/3
f 12/3/3 9/3/3 10/3/3
f 13/3/3 9/3/3 12/3/3
f 13/3/3 12/3/3 14/3/3
f 15/3/3 9/3/3 13/3/3
f 9/3/3 15/3/3 16/3/3
f 19/5/5 18/4/4 17/4/4
f 18/4/4 19/5/5 20/5/5
f 23/6/7 22/2/6 21/2/6
f 22/2/6 23/6/7 24/6/7
f 18/4/8 26/5/8 25/4/8
f 26/5/8 18/4/8 20/5/8
f 26/5/8 20/5/8 27/6/8
f 27/6/8 20/5/8 23/6/8
f 27/6/8 23/6/8 28/7/8
f 23/6/8 29/8/8 28/7/8
f 27/6/8 28/7/8 30/8/8
f 29/8/8 23/6/8 21/2/8
f 27/6/8 30/8/8 2/2/8
f 29/8/8 21/2/8 31/9/8
f 2/2/8 30/8/8 31/9/8
f 2/2/8 31/9/8 21/2/8
f 2/2/8 21/2/8 32/1/8
f 2/2/8 32/1/8 1/1/8
f 1/1/8 32/1/8 7/3/8
f 1/1/8 7/3/8 5/3/8
f 33/4/9 18/4/9 25/4/9
f 18/4/9 33/4/9 17/4/9
f 21/2/6 34/1/10 32/1/10
f 34/1/10 21/2/6 22/2/6
f 7/3/11 14/3/11 11/3/11
f 14/3/11 7/3/11 13/3/11
f 13/3/11 7/3/11 34/1/10
f 34/1/10 7/3/11 32/1/10
f 35/6/12 26/5/13 27/6/12
f 26/5/13 35/6/12 36/5/13
f 5/3/14 3/1/1 1/1/1
f 3/1/1 5/3/14 16/3/14
f 3/1/1 16/3/14 15/3/14
f 16/3/14 5/3/14 6/3/14
f 36/5/13 25/4/15 26/5/13
f 25/4/15 36/5/13 33/4/15
f 19/5/5 23/6/7 20/5/5
f 23/6/7 19/5/5 24/6/7
f 4/2/2 27/6/12 2/2/2
f 27/6/12 4/2/2 35/6/12
f 36/5/16 17/4/16 33/4/16
f 17/4/16 36/5/16 19/5/16
f 19/5/16 36/5/16 35/6/16
f 19/5/16 35/6/16 24/6/16
f 24/6/16 35/6/16 37/7/16
f 37/7/16 35/6/16 38/8/16
f 39/8/16 24/6/16 37/7/16
f 38/8/16 35/6/16 4/2/16
f 24/6/16 39/8/16 22/2/16
f 38/8/16 4/2/16 40/9/16
f 22/2/16 39/8/16 40/9/16
f 22/2/16 40/9/16 4/2/16
f 22/2/16 4/2/16 3/1/16
f 22/2/16 3/1/16 34/1/16
f 34/1/16 3/1/16 15/3/16
f 34/1/16 15/3/16 13/3/16
f 43/10/18 42/10/17 41/10/17
f 42/10/17 43/10/18 44/10/18
f 47/11/6 46/12/10 45/11/6
f 46/12/10 47/11/6 48/12/10
f 46/12/10 44/10/18 43/10/18
f 44/10/18 46/12/10 48/12/10
f 41/10/17 50/12/1 49/12/1
f 50/12/1 41/10/17 42/10/17
f 50/12/1 51/11/2 49/12/1
f 51/11/2 50/12/1 52/11/2
f 52/11/2 6/13/19 51/11/2
f 6/13/19 52/11/2 16/13/19
f 54/11/19 10/13/19 53/11/19
f 10/13/19 54/11/19 12/13/19
f 52/11/16 9/13/16 16/13/16
f 9/13/16 52/11/16 55/11/16
f 55/11/16 52/11/16 50/12/16
f 55/11/16 50/12/16 54/11/16
f 54/11/16 50/12/16 47/11/16
f 14/13/16 54/11/16 47/11/16
f 54/11/16 14/13/16 12/13/16
f 47/11/16 50/12/16 48/12/16
f 48/12/16 50/12/16 44/10/16
f 44/10/16 50/12/16 42/10/16
f 14/13/20 45/11/6 11/13/20
f 45/11/6 14/13/20 47/11/6
f 54/11/9 56/11/9 55/11/9
f 56/11/9 54/11/9 53/11/9
f 9/13/20 56/11/20 8/13/20
f 56/11/20 9/13/20 55/11/20
f 45/11/8 10/13/8 11/13/8
f 10/13/8 45/11/8 53/11/8
f 53/11/8 45/11/8 46/12/8
f 53/11/8 46/12/8 56/11/8
f 56/11/8 46/12/8 51/11/8
f 6/13/8 56/11/8 51/11/8
f 56/11/8 6/13/8 8/13/8
f 51/11/8 46/12/8 49/12/8
f 49/12/8 46/12/8 43/10/8
f 49/12/8 43/10/8 41/10/8
f 38/15/16 39/15/16 37/14/16
f 39/15/16 38/15/16 40/16/16
f 29/15/8 30/15/8 57/14/8
f 30/15/8 29/15/8 58/16/8

