# Created by Kenney (www.kenney.nl)

mtllib mushrooms.mtl

g mushrooms

v 0.04703575 0.14 0.05156 1 1 1
v 0.04339375 0.1 0.0578681 1 1 1
v 0.1070357 0.14 0.1554831 1 1 1
v 0.09975175 0.1 0.1554831 1 1 1
v 0.04703575 0.14 0.2594061 1 1 1
v 0.04339375 0.1 0.2530979 1 1 1
v -0.1329643 0.14 0.1554831 1 1 1
v -0.09096425 0.215 0.1554831 1 1 1
v -0.07296424 0.14 0.2594061 1 1 1
v -0.05196425 0.215 0.223033 1 1 1
v -0.06412295 0.175 -0.155483 1 1 1
v -0.1031229 0.175 -0.0879331 1 1 1
v -0.1031229 0.175 -0.223033 1 1 1
v -0.181123 0.175 -0.223033 1 1 1
v -0.181123 0.175 -0.0879331 1 1 1
v -0.2201229 0.175 -0.155483 1 1 1
v 0.2021229 0.22 -0.1867873 1 1 1
v 0.262123 0.22 -0.0828643 1 1 1
v 0.1811229 0.295 -0.1504143 1 1 1
v 0.2201229 0.295 -0.0828643 1 1 1
v -0.02940695 0.06 -0.155483 1 1 1
v -0.08576495 0.06 -0.253098 1 1 1
v -0.08576495 0.06 -0.0578681 1 1 1
v -0.1984811 0.06 -0.0578681 1 1 1
v -0.1984811 0.06 -0.253098 1 1 1
v -0.2548389 0.06 -0.155483 1 1 1
v -0.262123 0.1 -0.155483 1 1 1
v -0.2021229 0.1 -0.05156 1 1 1
v 0.1984809 0.18 0.0147507 1 1 1
v 0.08576495 0.18 0.0147507 1 1 1
v 0.2021229 0.22 0.0210587 1 1 1
v 0.08212294 0.22 0.0210587 1 1 1
v -0.02212295 0.1 -0.155483 1 1 1
v -0.08212294 0.1 -0.05156 1 1 1
v 0.08212294 0.22 -0.1867873 1 1 1
v 0.1031228 0.295 -0.1504143 1 1 1
v 0.1811229 0.295 -0.0153143 1 1 1
v 0.1031228 0.295 -0.0153143 1 1 1
v 0.02603575 0.215 0.223033 1 1 1
v 0.02212285 0.22 -0.0828643 1 1 1
v 0.06412285 0.295 -0.0828643 1 1 1
v -0.2021229 0.1 -0.2594061 1 1 1
v -0.08212294 0.1 -0.2594061 1 1 1
v -0.1256803 0.1 0.1554831 1 1 1
v -0.06932225 0.1 0.2530979 1 1 1
v 0.06503575 0.215 0.1554831 1 1 1
v 0.02603575 0.215 0.0879331 1 1 1
v -0.05196425 0.215 0.0879331 1 1 1
v 0.02940685 0.18 -0.0828643 1 1 1
v 0.08576495 0.18 -0.1804792 1 1 1
v -0.06932225 0.1 0.0578681 1 1 1
v -0.07296424 0.14 0.05156 1 1 1
v 0.1984809 0.18 -0.1804792 1 1 1
v 0.2548389 0.18 -0.0828643 1 1 1
v 0.0252858 3.609558E-16 0.193733 1 1 1
v -0.0512142 3.609558E-16 0.193733 1 1 1
v 0.0180183 0.1 0.1864655 1 1 1
v -0.0439467 0.1 0.1864655 1 1 1
v 0.103873 7.219114E-16 -0.1211143 1 1 1
v 0.180373 7.219114E-16 -0.1211143 1 1 1
v 0.1111405 0.18 -0.1138468 1 1 1
v 0.1731054 0.18 -0.1138468 1 1 1
v 0.0252858 3.609558E-16 0.117233 1 1 1
v 0.0180183 0.1 0.1245005 1 1 1
v -0.0512142 3.609558E-16 0.117233 1 1 1
v -0.0439467 0.1 0.1245005 1 1 1
v -0.180373 0 -0.193733 1 1 1
v -0.1038729 0 -0.193733 1 1 1
v -0.1731054 0.06 -0.1864655 1 1 1
v -0.1111404 0.06 -0.1864655 1 1 1
v 0.180373 7.219114E-16 -0.0446143 1 1 1
v 0.103873 7.219114E-16 -0.0446143 1 1 1
v 0.1731054 0.18 -0.0518818 1 1 1
v 0.1111405 0.18 -0.0518818 1 1 1
v -0.1038729 0 -0.117233 1 1 1
v -0.1111404 0.06 -0.1245005 1 1 1
v -0.180373 0 -0.117233 1 1 1
v -0.1731054 0.06 -0.1245005 1 1 1

vn 0.4943981 0.1492739 -0.8563223
vn 0.4919106 -0.1791533 -0.8520141
vn 0.988796 0.1492736 0
vn 0.983821 -0.1791539 3.097763E-07
vn 0.4943978 0.1492731 0.8563226
vn 0.4919105 -0.179155 0.8520138
vn -0.988796 0.1492736 0
vn -0.872506 0.4886035 0
vn -0.4943978 0.1492731 0.8563226
vn -0.4362528 0.4886035 0.7556123
vn 0 1 0
vn 0.4943974 0.1492735 -0.8563226
vn 0.988796 0.1492737 0
vn 0.4362531 0.4886027 -0.7556127
vn 0.8725063 0.4886029 0
vn 0 -1 0
vn -0.9838214 -0.1791524 0
vn -0.9887959 0.1492741 0
vn -0.4919112 -0.1791527 0.8520138
vn -0.4943976 0.1492741 0.8563225
vn 0.4919108 -0.1791516 0.8520144
vn -0.49191 -0.1791516 0.8520149
vn 0.4943976 0.1492743 0.8563224
vn -0.4943978 0.1492743 0.8563224
vn 0.9887959 0.1492738 0
vn 0.9838212 -0.1791536 0
vn 0.4943978 0.1492739 0.8563224
vn 0.4919104 -0.1791533 0.8520143
vn 0.872506 0.4886035 0
vn 0.4362528 0.4886035 0.7556123
vn -0.4943976 0.1492735 -0.8563226
vn -0.4362531 0.4886027 -0.7556127
vn 0.4362531 0.4886027 0.7556127
vn -0.4362531 0.4886027 0.7556127
vn -0.4362534 0.4886034 0.7556122
vn -0.8725063 0.4886029 0
vn -0.4943978 0.1492741 -0.8563224
vn -0.4919114 -0.1791528 -0.8520138
vn 0.4362531 0.4886036 -0.7556122
vn -0.983821 -0.1791539 3.097763E-07
vn -0.4919105 -0.179155 0.8520138
vn -0.8725062 0.488603 0
vn -0.9838212 -0.1791534 0
vn -0.4919101 -0.1791533 -0.8520145
vn -0.4362536 0.4886034 -0.755612
vn -0.4943981 0.1492739 -0.8563223
vn -0.4919106 -0.1791533 -0.8520141
vn -0.4362531 0.4886036 -0.7556122
vn 0.491911 -0.1791533 -0.8520139
vn 0.9838212 -0.1791533 0
vn 0 0.07248384 0.9973695
vn 0 0.04034213 -0.9991859
vn 0.9973695 0.07248384 0
vn -0.9973695 0.07248384 0
vn 0 0.1202461 -0.9927442
vn 0 0.04034213 0.9991859
vn 0 0.07248384 -0.9973695
vn 0.9991859 0.04034268 0
vn 0.9927442 0.1202461 0
vn -0.992744 0.1202478 0
vn 0 0.1202461 0.9927442
vn -0.9991859 0.04034213 0

vt 0.59375 0.3699152
vt 0.59375 0.3427966
vt 0.59375 0.4207627
vt 0.59375 0.3936441
vt 0.59375 0.4241526
vt 0.59375 0.475
vt 0.59375 0.315678
vt 0.59375 0.3970339
vt 0.96875 0.225
vt 0.96875 0.1138889
vt 0.96875 0.025
vt 0.96875 0.1583333

usemtl colormap

f 3/1/3 2/2/2 1/1/1
f 2/2/2 3/1/3 4/2/4
f 5/1/5 4/2/4 3/1/3
f 4/2/4 5/1/5 6/2/6
f 9/1/9 8/3/8 7/1/7
f 8/3/8 9/1/9 10/3/10
f 13/4/11 12/4/11 11/4/11
f 12/4/11 13/4/11 14/4/11
f 12/4/11 14/4/11 15/4/11
f 15/4/11 14/4/11 16/4/11
f 19/6/14 18/5/13 17/5/12
f 18/5/13 19/6/14 20/6/15
f 23/7/16 22/7/16 21/7/16
f 22/7/16 23/7/16 24/7/16
f 22/7/16 24/7/16 25/7/16
f 25/7/16 24/7/16 26/7/16
f 24/7/19 27/2/18 26/7/17
f 27/2/18 24/7/19 28/2/20
f 31/5/23 30/8/22 29/8/21
f 30/8/22 31/5/23 32/5/24
f 34/2/27 21/7/26 33/2/25
f 21/7/26 34/2/27 23/7/28
f 12/4/30 33/2/25 11/4/29
f 33/2/25 12/4/30 34/2/27
f 36/6/32 17/5/12 35/5/31
f 17/5/12 36/6/32 19/6/14
f 37/6/33 32/5/24 31/5/23
f 32/5/24 37/6/33 38/6/34
f 12/4/30 28/2/20 34/2/27
f 28/2/20 12/4/30 15/4/35
f 39/3/30 9/1/9 5/1/5
f 9/1/9 39/3/30 10/3/10
f 34/2/27 24/7/19 23/7/28
f 24/7/19 34/2/27 28/2/20
f 32/5/24 41/6/36 40/5/7
f 41/6/36 32/5/24 38/6/34
f 25/7/38 27/2/18 42/2/37
f 27/2/18 25/7/38 26/7/17
f 13/4/39 33/2/25 43/2/1
f 33/2/25 13/4/39 11/4/29
f 45/2/41 7/1/7 44/2/40
f 7/1/7 45/2/41 9/1/9
f 28/2/20 16/4/42 27/2/18
f 16/4/42 28/2/20 15/4/35
f 19/6/11 37/6/11 20/6/11
f 37/6/11 19/6/11 36/6/11
f 37/6/11 36/6/11 38/6/11
f 38/6/11 36/6/11 41/6/11
f 47/3/11 39/3/11 46/3/11
f 39/3/11 47/3/11 48/3/11
f 39/3/11 48/3/11 10/3/11
f 10/3/11 48/3/11 8/3/11
f 30/8/22 40/5/7 49/8/43
f 40/5/7 30/8/22 32/5/24
f 50/8/44 40/5/7 35/5/31
f 40/5/7 50/8/44 49/8/43
f 27/2/18 14/4/45 42/2/37
f 14/4/45 27/2/18 16/4/42
f 42/2/37 22/7/2 25/7/38
f 22/7/2 42/2/37 43/2/1
f 47/3/39 3/1/3 1/1/1
f 3/1/3 47/3/39 46/3/29
f 6/2/16 2/2/16 4/2/16
f 2/2/16 6/2/16 45/2/16
f 2/2/16 45/2/16 51/2/16
f 51/2/16 45/2/16 44/2/16
f 51/2/47 7/1/7 52/1/46
f 7/1/7 51/2/47 44/2/40
f 37/6/33 18/5/13 20/6/15
f 18/5/13 37/6/33 31/5/23
f 5/1/5 45/2/41 6/2/6
f 45/2/41 5/1/5 9/1/9
f 7/1/7 48/3/48 52/1/46
f 48/3/48 7/1/7 8/3/8
f 35/5/31 53/8/49 50/8/44
f 53/8/49 35/5/31 17/5/12
f 33/2/25 22/7/2 43/2/1
f 22/7/2 33/2/25 21/7/26
f 31/5/23 54/8/50 18/5/13
f 54/8/50 31/5/23 29/8/21
f 48/3/48 1/1/1 52/1/46
f 1/1/1 48/3/48 47/3/39
f 40/5/7 36/6/32 35/5/31
f 36/6/32 40/5/7 41/6/36
f 14/4/45 43/2/1 42/2/37
f 43/2/1 14/4/45 13/4/39
f 52/1/46 2/2/2 51/2/47
f 2/2/2 52/1/46 1/1/1
f 29/8/16 53/8/16 54/8/16
f 53/8/16 29/8/16 30/8/16
f 53/8/16 30/8/16 50/8/16
f 50/8/16 30/8/16 49/8/16
f 18/5/13 53/8/49 17/5/12
f 53/8/49 18/5/13 54/8/50
f 39/3/30 3/1/3 46/3/29
f 3/1/3 39/3/30 5/1/5
f 57/10/51 56/9/51 55/9/51
f 56/9/51 57/10/51 58/10/51
f 61/11/52 60/9/52 59/9/52
f 60/9/52 61/11/52 62/11/52
f 64/10/53 55/9/53 63/9/53
f 55/9/53 64/10/53 57/10/53
f 56/9/54 66/10/54 65/9/54
f 66/10/54 56/9/54 58/10/54
f 69/12/55 68/9/55 67/9/55
f 68/9/55 69/12/55 70/12/55
f 73/11/56 72/9/56 71/9/56
f 72/9/56 73/11/56 74/11/56
f 66/10/57 63/9/57 65/9/57
f 63/9/57 66/10/57 64/10/57
f 62/11/58 71/9/58 60/9/58
f 71/9/58 62/11/58 73/11/58
f 70/12/59 75/9/59 68/9/59
f 75/9/59 70/12/59 76/12/59
f 77/9/60 69/12/60 67/9/60
f 69/12/60 77/9/60 78/12/60
f 76/12/61 77/9/61 75/9/61
f 77/9/61 76/12/61 78/12/61
f 72/9/62 61/11/62 59/9/62
f 61/11/62 72/9/62 74/11/62
f 72/9/16 60/9/16 71/9/16
f 60/9/16 72/9/16 59/9/16
f 56/9/16 63/9/16 55/9/16
f 63/9/16 56/9/16 65/9/16
f 77/9/16 68/9/16 75/9/16
f 68/9/16 77/9/16 67/9/16

g mushrooms




usemtl colormap

f 3/1/3 2/2/2 1/1/1
f 2/2/2 3/1/3 4/2/4
f 5/1/5 4/2/4 3/1/3
f 4/2/4 5/1/5 6/2/6
f 9/1/9 8/3/8 7/1/7
f 8/3/8 9/1/9 10/3/10
f 13/4/11 12/4/11 11/4/11
f 12/4/11 13/4/11 14/4/11
f 12/4/11 14/4/11 15/4/11
f 15/4/11 14/4/11 16/4/11
f 19/6/14 18/5/13 17/5/12
f 18/5/13 19/6/14 20/6/15
f 23/7/16 22/7/16 21/7/16
f 22/7/16 23/7/16 24/7/16
f 22/7/16 24/7/16 25/7/16
f 25/7/16 24/7/16 26/7/16
f 24/7/19 27/2/18 26/7/17
f 27/2/18 24/7/19 28/2/20
f 31/5/23 30/8/22 29/8/21
f 30/8/22 31/5/23 32/5/24
f 34/2/27 21/7/26 33/2/25
f 21/7/26 34/2/27 23/7/28
f 12/4/30 33/2/25 11/4/29
f 33/2/25 12/4/30 34/2/27
f 36/6/32 17/5/12 35/5/31
f 17/5/12 36/6/32 19/6/14
f 37/6/33 32/5/24 31/5/23
f 32/5/24 37/6/33 38/6/34
f 12/4/30 28/2/20 34/2/27
f 28/2/20 12/4/30 15/4/35
f 39/3/30 9/1/9 5/1/5
f 9/1/9 39/3/30 10/3/10
f 34/2/27 24/7/19 23/7/28
f 24/7/19 34/2/27 28/2/20
f 32/5/24 41/6/36 40/5/7
f 41/6/36 32/5/24 38/6/34
f 25/7/38 27/2/18 42/2/37
f 27/2/18 25/7/38 26/7/17
f 13/4/39 33/2/25 43/2/1
f 33/2/25 13/4/39 11/4/29
f 45/2/41 7/1/7 44/2/40
f 7/1/7 45/2/41 9/1/9
f 28/2/20 16/4/42 27/2/18
f 16/4/42 28/2/20 15/4/35
f 19/6/11 37/6/11 20/6/11
f 37/6/11 19/6/11 36/6/11
f 37/6/11 36/6/11 38/6/11
f 38/6/11 36/6/11 41/6/11
f 47/3/11 39/3/11 46/3/11
f 39/3/11 47/3/11 48/3/11
f 39/3/11 48/3/11 10/3/11
f 10/3/11 48/3/11 8/3/11
f 30/8/22 40/5/7 49/8/43
f 40/5/7 30/8/22 32/5/24
f 50/8/44 40/5/7 35/5/31
f 40/5/7 50/8/44 49/8/43
f 27/2/18 14/4/45 42/2/37
f 14/4/45 27/2/18 16/4/42
f 42/2/37 22/7/2 25/7/38
f 22/7/2 42/2/37 43/2/1
f 47/3/39 3/1/3 1/1/1
f 3/1/3 47/3/39 46/3/29
f 6/2/16 2/2/16 4/2/16
f 2/2/16 6/2/16 45/2/16
f 2/2/16 45/2/16 51/2/16
f 51/2/16 45/2/16 44/2/16
f 51/2/47 7/1/7 52/1/46
f 7/1/7 51/2/47 44/2/40
f 37/6/33 18/5/13 20/6/15
f 18/5/13 37/6/33 31/5/23
f 5/1/5 45/2/41 6/2/6
f 45/2/41 5/1/5 9/1/9
f 7/1/7 48/3/48 52/1/46
f 48/3/48 7/1/7 8/3/8
f 35/5/31 53/8/49 50/8/44
f 53/8/49 35/5/31 17/5/12
f 33/2/25 22/7/2 43/2/1
f 22/7/2 33/2/25 21/7/26
f 31/5/23 54/8/50 18/5/13
f 54/8/50 31/5/23 29/8/21
f 48/3/48 1/1/1 52/1/46
f 1/1/1 48/3/48 47/3/39
f 40/5/7 36/6/32 35/5/31
f 36/6/32 40/5/7 41/6/36
f 14/4/45 43/2/1 42/2/37
f 43/2/1 14/4/45 13/4/39
f 52/1/46 2/2/2 51/2/47
f 2/2/2 52/1/46 1/1/1
f 29/8/16 53/8/16 54/8/16
f 53/8/16 29/8/16 30/8/16
f 53/8/16 30/8/16 50/8/16
f 50/8/16 30/8/16 49/8/16
f 18/5/13 53/8/49 17/5/12
f 53/8/49 18/5/13 54/8/50
f 39/3/30 3/1/3 46/3/29
f 3/1/3 39/3/30 5/1/5
f 57/10/51 56/9/51 55/9/51
f 56/9/51 57/10/51 58/10/51
f 61/11/52 60/9/52 59/9/52
f 60/9/52 61/11/52 62/11/52
f 64/10/53 55/9/53 63/9/53
f 55/9/53 64/10/53 57/10/53
f 56/9/54 66/10/54 65/9/54
f 66/10/54 56/9/54 58/10/54
f 69/12/55 68/9/55 67/9/55
f 68/9/55 69/12/55 70/12/55
f 73/11/56 72/9/56 71/9/56
f 72/9/56 73/11/56 74/11/56
f 66/10/57 63/9/57 65/9/57
f 63/9/57 66/10/57 64/10/57
f 62/11/58 71/9/58 60/9/58
f 71/9/58 62/11/58 73/11/58
f 70/12/59 75/9/59 68/9/59
f 75/9/59 70/12/59 76/12/59
f 77/9/60 69/12/60 67/9/60
f 69/12/60 77/9/60 78/12/60
f 76/12/61 77/9/61 75/9/61
f 77/9/61 76/12/61 78/12/61
f 72/9/62 61/11/62 59/9/62
f 61/11/62 72/9/62 74/11/62
f 72/9/16 60/9/16 71/9/16
f 60/9/16 72/9/16 59/9/16
f 56/9/16 63/9/16 55/9/16
f 63/9/16 56/9/16 65/9/16
f 77/9/16 68/9/16 75/9/16
f 68/9/16 77/9/16 67/9/16

