# Created by Kenney (www.kenney.nl)

mtllib platform-fortified.mtl

g platform-fortified

v -0.38 0 -0.5 1 1 1
v -0.26 0 -0.5 1 1 1
v -0.38 0.12 -0.5 1 1 1
v -0.26 0.12 -0.5 1 1 1
v -0.26 0 0.5 1 1 1
v -0.38 0 0.5 1 1 1
v -0.26 0.12 0.5 1 1 1
v -0.38 0.12 0.5 1 1 1
v 0.26 0 -0.5 1 1 1
v 0.26 0.12 -0.5 1 1 1
v 0.26 0 0.5 1 1 1
v 0.26 0.12 0.5 1 1 1
v 0.38 0 0.5 1 1 1
v 0.38 0.12 0.5 1 1 1
v 0.38 0 -0.5 1 1 1
v 0.38 0.12 -0.5 1 1 1
v 0.26 0.186 -0.5 1 1 1
v 0.26 0.205 -0.5 1 1 1
v 0.26 0.186 0.5 1 1 1
v 0.26 0.205 0.5 1 1 1
v 0.38 0.1905 0.5 1 1 1
v 0.38 0.205 0.5 1 1 1
v 0.38 0.1905 -0.5 1 1 1
v 0.38 0.205 -0.5 1 1 1
v -0.38 0.162 -0.5 1 1 1
v -0.26 0.1665 -0.5 1 1 1
v -0.38 0.205 -0.5 1 1 1
v -0.26 0.205 -0.5 1 1 1
v -0.38 0.162 0.5 1 1 1
v -0.38 0.205 0.5 1 1 1
v -0.26 0.1665 0.5 1 1 1
v -0.26 0.205 0.5 1 1 1
v -0.5 0.12 0.1529126 1 1 1
v 0.5 0.12 0.1529126 1 1 1
v -0.5 0.195 0.1529126 1 1 1
v 0.5 0.1575 0.1529126 1 1 1
v 0.5 0.1575 0.3470874 1 1 1
v 0.5 0.12 0.3470874 1 1 1
v -0.5 0.12 0.3470874 1 1 1
v -0.5 0.195 0.3470874 1 1 1
v 0.5 0.12 -0.4029126 1 1 1
v 0.5 0.12 -0.5 1 1 1
v -0.5 0.12 -0.4029126 1 1 1
v -0.5 0.12 -0.5 1 1 1
v -0.5 0.1575 -0.5 1 1 1
v -0.5 0.1575 -0.4029126 1 1 1
v 0.5 0.195 -0.5 1 1 1
v 0.5 0.195 -0.4029126 1 1 1
v -0.5 0.12 -0.09708738 1 1 1
v 0.5 0.12 -0.09708738 1 1 1
v -0.5 0.1575 -0.09708738 1 1 1
v 0.5 0.195 -0.09708738 1 1 1
v 0.5 0.195 0.09708738 1 1 1
v -0.5 0.1575 0.09708738 1 1 1
v 0.5 0.12 0.09708738 1 1 1
v -0.5 0.12 0.09708738 1 1 1
v 0.5 0.1575 -0.3470874 1 1 1
v 0.5 0.12 -0.3470874 1 1 1
v 0.5 0.1575 -0.1529126 1 1 1
v 0.5 0.12 -0.1529126 1 1 1
v -0.5 0.195 -0.1529126 1 1 1
v -0.5 0.195 -0.3470874 1 1 1
v -0.5 0.12 -0.1529126 1 1 1
v -0.5 0.12 -0.3470874 1 1 1
v -0.5 0.12 0.4029126 1 1 1
v 0.5 0.12 0.4029126 1 1 1
v -0.5 0.1575 0.4029126 1 1 1
v 0.5 0.195 0.4029126 1 1 1
v 0.5 0.195 0.5 1 1 1
v -0.5 0.1575 0.5 1 1 1
v -0.5 0.12 0.5 1 1 1
v 0.5 0.12 0.5 1 1 1

vn 0 0 -1
vn 0 0 1
vn 0 -1 0
vn -1 0 0
vn 1 0 0
vn 0 1 0
vn 0.03747366 -0.9992976 0
vn 0.03747366 0.9992976 0
vn -0.03747366 0.9992976 0

vt 0.84375 0.025
vt 0.84375 0.225
vt 0.71875 0.1091667
vt 0.71875 0.125
vt 0.71875 0.1129167
vt 0.71875 0.08916666
vt 0.71875 0.09291665
vt 0.71875 0.075
vt 0.71875 0.175

usemtl colormap

f 3/2/1 2/1/1 1/1/1
f 2/1/1 3/2/1 4/2/1
f 7/2/2 6/1/2 5/1/2
f 6/1/2 7/2/2 8/2/2
f 6/1/3 2/1/3 5/1/3
f 2/1/3 6/1/3 1/1/3
f 6/1/4 3/2/4 1/1/4
f 3/2/4 6/1/4 8/2/4
f 7/2/5 2/1/5 4/2/5
f 2/1/5 7/2/5 5/1/5
f 3/2/6 7/2/6 4/2/6
f 7/2/6 3/2/6 8/2/6
f 11/1/4 10/2/4 9/1/4
f 10/2/4 11/1/4 12/2/4
f 14/2/2 11/1/2 13/1/2
f 11/1/2 14/2/2 12/2/2
f 11/1/3 15/1/3 13/1/3
f 15/1/3 11/1/3 9/1/3
f 14/2/5 15/1/5 16/2/5
f 15/1/5 14/2/5 13/1/5
f 10/2/1 15/1/1 9/1/1
f 15/1/1 10/2/1 16/2/1
f 10/2/6 14/2/6 16/2/6
f 14/2/6 10/2/6 12/2/6
f 19/3/4 18/4/4 17/3/4
f 18/4/4 19/3/4 20/4/4
f 21/5/2 20/4/2 19/3/2
f 20/4/2 21/5/2 22/4/2
f 19/3/7 23/5/7 21/5/7
f 23/5/7 19/3/7 17/3/7
f 24/4/5 21/5/5 23/5/5
f 21/5/5 24/4/5 22/4/5
f 18/4/1 23/5/1 17/3/1
f 23/5/1 18/4/1 24/4/1
f 18/4/6 22/4/6 24/4/6
f 22/4/6 18/4/6 20/4/6
f 27/4/1 26/7/1 25/6/1
f 26/7/1 27/4/1 28/4/1
f 31/7/2 30/4/2 29/6/2
f 30/4/2 31/7/2 32/4/2
f 29/6/7 26/7/7 31/7/7
f 26/7/7 29/6/7 25/6/7
f 29/6/4 27/4/4 25/6/4
f 27/4/4 29/6/4 30/4/4
f 28/4/5 31/7/5 26/7/5
f 31/7/5 28/4/5 32/4/5
f 27/4/6 32/4/6 28/4/6
f 32/4/6 27/4/6 30/4/6
f 35/9/1 34/8/1 33/8/1
f 34/8/1 35/9/1 36/4/1
f 37/4/5 34/8/5 36/4/5
f 34/8/5 37/4/5 38/8/5
f 37/4/2 39/8/2 38/8/2
f 39/8/2 37/4/2 40/9/2
f 39/8/4 35/9/4 33/8/4
f 35/9/4 39/8/4 40/9/4
f 35/9/8 37/4/8 36/4/8
f 37/4/8 35/9/8 40/9/8
f 39/8/3 34/8/3 38/8/3
f 34/8/3 39/8/3 33/8/3
f 43/8/3 42/8/3 41/8/3
f 42/8/3 43/8/3 44/8/3
f 43/8/4 45/4/4 44/8/4
f 45/4/4 43/8/4 46/4/4
f 48/9/5 42/8/5 47/9/5
f 42/8/5 48/9/5 41/8/5
f 48/9/2 43/8/2 41/8/2
f 43/8/2 48/9/2 46/4/2
f 45/4/1 42/8/1 44/8/1
f 42/8/1 45/4/1 47/9/1
f 47/9/9 46/4/9 48/9/9
f 46/4/9 47/9/9 45/4/9
f 51/4/1 50/8/1 49/8/1
f 50/8/1 51/4/1 52/9/1
f 51/4/9 53/9/9 52/9/9
f 53/9/9 51/4/9 54/4/9
f 53/9/2 56/8/2 55/8/2
f 56/8/2 53/9/2 54/4/2
f 56/8/3 50/8/3 55/8/3
f 50/8/3 56/8/3 49/8/3
f 53/9/5 50/8/5 52/9/5
f 50/8/5 53/9/5 55/8/5
f 56/8/4 51/4/4 49/8/4
f 51/4/4 56/8/4 54/4/4
f 59/4/5 58/8/5 57/4/5
f 58/8/5 59/4/5 60/8/5
f 57/4/8 61/9/8 59/4/8
f 61/9/8 57/4/8 62/9/8
f 59/4/2 63/8/2 60/8/2
f 63/8/2 59/4/2 61/9/2
f 63/8/3 58/8/3 60/8/3
f 58/8/3 63/8/3 64/8/3
f 63/8/4 62/9/4 64/8/4
f 62/9/4 63/8/4 61/9/4
f 62/9/1 58/8/1 64/8/1
f 58/8/1 62/9/1 57/4/1
f 67/4/1 66/8/1 65/8/1
f 66/8/1 67/4/1 68/9/1
f 68/9/9 70/4/9 69/9/9
f 70/4/9 68/9/9 67/4/9
f 71/8/4 67/4/4 65/8/4
f 67/4/4 71/8/4 70/4/4
f 69/9/2 71/8/2 72/8/2
f 71/8/2 69/9/2 70/4/2
f 71/8/3 66/8/3 72/8/3
f 66/8/3 71/8/3 65/8/3
f 69/9/5 66/8/5 68/9/5
f 66/8/5 69/9/5 72/8/5

g platform-fortified




usemtl colormap

f 3/2/1 2/1/1 1/1/1
f 2/1/1 3/2/1 4/2/1
f 7/2/2 6/1/2 5/1/2
f 6/1/2 7/2/2 8/2/2
f 6/1/3 2/1/3 5/1/3
f 2/1/3 6/1/3 1/1/3
f 6/1/4 3/2/4 1/1/4
f 3/2/4 6/1/4 8/2/4
f 7/2/5 2/1/5 4/2/5
f 2/1/5 7/2/5 5/1/5
f 3/2/6 7/2/6 4/2/6
f 7/2/6 3/2/6 8/2/6
f 11/1/4 10/2/4 9/1/4
f 10/2/4 11/1/4 12/2/4
f 14/2/2 11/1/2 13/1/2
f 11/1/2 14/2/2 12/2/2
f 11/1/3 15/1/3 13/1/3
f 15/1/3 11/1/3 9/1/3
f 14/2/5 15/1/5 16/2/5
f 15/1/5 14/2/5 13/1/5
f 10/2/1 15/1/1 9/1/1
f 15/1/1 10/2/1 16/2/1
f 10/2/6 14/2/6 16/2/6
f 14/2/6 10/2/6 12/2/6
f 19/3/4 18/4/4 17/3/4
f 18/4/4 19/3/4 20/4/4
f 21/5/2 20/4/2 19/3/2
f 20/4/2 21/5/2 22/4/2
f 19/3/7 23/5/7 21/5/7
f 23/5/7 19/3/7 17/3/7
f 24/4/5 21/5/5 23/5/5
f 21/5/5 24/4/5 22/4/5
f 18/4/1 23/5/1 17/3/1
f 23/5/1 18/4/1 24/4/1
f 18/4/6 22/4/6 24/4/6
f 22/4/6 18/4/6 20/4/6
f 27/4/1 26/7/1 25/6/1
f 26/7/1 27/4/1 28/4/1
f 31/7/2 30/4/2 29/6/2
f 30/4/2 31/7/2 32/4/2
f 29/6/7 26/7/7 31/7/7
f 26/7/7 29/6/7 25/6/7
f 29/6/4 27/4/4 25/6/4
f 27/4/4 29/6/4 30/4/4
f 28/4/5 31/7/5 26/7/5
f 31/7/5 28/4/5 32/4/5
f 27/4/6 32/4/6 28/4/6
f 32/4/6 27/4/6 30/4/6
f 35/9/1 34/8/1 33/8/1
f 34/8/1 35/9/1 36/4/1
f 37/4/5 34/8/5 36/4/5
f 34/8/5 37/4/5 38/8/5
f 37/4/2 39/8/2 38/8/2
f 39/8/2 37/4/2 40/9/2
f 39/8/4 35/9/4 33/8/4
f 35/9/4 39/8/4 40/9/4
f 35/9/8 37/4/8 36/4/8
f 37/4/8 35/9/8 40/9/8
f 39/8/3 34/8/3 38/8/3
f 34/8/3 39/8/3 33/8/3
f 43/8/3 42/8/3 41/8/3
f 42/8/3 43/8/3 44/8/3
f 43/8/4 45/4/4 44/8/4
f 45/4/4 43/8/4 46/4/4
f 48/9/5 42/8/5 47/9/5
f 42/8/5 48/9/5 41/8/5
f 48/9/2 43/8/2 41/8/2
f 43/8/2 48/9/2 46/4/2
f 45/4/1 42/8/1 44/8/1
f 42/8/1 45/4/1 47/9/1
f 47/9/9 46/4/9 48/9/9
f 46/4/9 47/9/9 45/4/9
f 51/4/1 50/8/1 49/8/1
f 50/8/1 51/4/1 52/9/1
f 51/4/9 53/9/9 52/9/9
f 53/9/9 51/4/9 54/4/9
f 53/9/2 56/8/2 55/8/2
f 56/8/2 53/9/2 54/4/2
f 56/8/3 50/8/3 55/8/3
f 50/8/3 56/8/3 49/8/3
f 53/9/5 50/8/5 52/9/5
f 50/8/5 53/9/5 55/8/5
f 56/8/4 51/4/4 49/8/4
f 51/4/4 56/8/4 54/4/4
f 59/4/5 58/8/5 57/4/5
f 58/8/5 59/4/5 60/8/5
f 57/4/8 61/9/8 59/4/8
f 61/9/8 57/4/8 62/9/8
f 59/4/2 63/8/2 60/8/2
f 63/8/2 59/4/2 61/9/2
f 63/8/3 58/8/3 60/8/3
f 58/8/3 63/8/3 64/8/3
f 63/8/4 62/9/4 64/8/4
f 62/9/4 63/8/4 61/9/4
f 62/9/1 58/8/1 64/8/1
f 58/8/1 62/9/1 57/4/1
f 67/4/1 66/8/1 65/8/1
f 66/8/1 67/4/1 68/9/1
f 68/9/9 70/4/9 69/9/9
f 70/4/9 68/9/9 67/4/9
f 71/8/4 67/4/4 65/8/4
f 67/4/4 71/8/4 70/4/4
f 69/9/2 71/8/2 72/8/2
f 71/8/2 69/9/2 70/4/2
f 71/8/3 66/8/3 72/8/3
f 66/8/3 71/8/3 65/8/3
f 69/9/5 66/8/5 68/9/5
f 66/8/5 69/9/5 72/8/5

