# Created by Kenney (www.kenney.nl)

mtllib platform.mtl

g platform

v -0.38 0 -0.5 1 1 1
v -0.26 0 -0.5 1 1 1
v -0.38 0.12 -0.5 1 1 1
v -0.26 0.12 -0.5 1 1 1
v -0.26 0 0.5 1 1 1
v -0.38 0 0.5 1 1 1
v -0.26 0.12 0.5 1 1 1
v -0.38 0.12 0.5 1 1 1
v 0.26 0 -0.5 1 1 1
v 0.26 0.12 -0.5 1 1 1
v 0.26 0 0.5 1 1 1
v 0.26 0.12 0.5 1 1 1
v 0.38 0 0.5 1 1 1
v 0.38 0.12 0.5 1 1 1
v 0.38 0 -0.5 1 1 1
v 0.38 0.12 -0.5 1 1 1
v -0.5 0.12 0.1529126 1 1 1
v 0.5 0.12 0.1529126 1 1 1
v -0.5 0.195 0.1529126 1 1 1
v 0.5 0.1575 0.1529126 1 1 1
v 0.5 0.1575 0.3470874 1 1 1
v 0.5 0.12 0.3470874 1 1 1
v -0.5 0.12 0.3470874 1 1 1
v -0.5 0.195 0.3470874 1 1 1
v 0.5 0.12 -0.4029126 1 1 1
v 0.5 0.12 -0.5 1 1 1
v -0.5 0.12 -0.4029126 1 1 1
v -0.5 0.12 -0.5 1 1 1
v -0.5 0.1575 -0.5 1 1 1
v -0.5 0.1575 -0.4029126 1 1 1
v 0.5 0.195 -0.5 1 1 1
v 0.5 0.195 -0.4029126 1 1 1
v -0.5 0.12 -0.09708738 1 1 1
v 0.5 0.12 -0.09708738 1 1 1
v -0.5 0.1575 -0.09708738 1 1 1
v 0.5 0.195 -0.09708738 1 1 1
v 0.5 0.195 0.09708738 1 1 1
v -0.5 0.1575 0.09708738 1 1 1
v 0.5 0.12 0.09708738 1 1 1
v -0.5 0.12 0.09708738 1 1 1
v 0.5 0.1575 -0.3470874 1 1 1
v 0.5 0.12 -0.3470874 1 1 1
v 0.5 0.1575 -0.1529126 1 1 1
v 0.5 0.12 -0.1529126 1 1 1
v -0.5 0.195 -0.1529126 1 1 1
v -0.5 0.195 -0.3470874 1 1 1
v -0.5 0.12 -0.1529126 1 1 1
v -0.5 0.12 -0.3470874 1 1 1
v -0.5 0.12 0.4029126 1 1 1
v 0.5 0.12 0.4029126 1 1 1
v -0.5 0.1575 0.4029126 1 1 1
v 0.5 0.195 0.4029126 1 1 1
v 0.5 0.195 0.5 1 1 1
v -0.5 0.1575 0.5 1 1 1
v -0.5 0.12 0.5 1 1 1
v 0.5 0.12 0.5 1 1 1

vn 0 0 -1
vn 0 0 1
vn 0 -1 0
vn -1 0 0
vn 1 0 0
vn 0 1 0
vn 0.03747366 0.9992976 0
vn -0.03747366 0.9992976 0

vt 0.84375 0.025
vt 0.84375 0.225
vt 0.71875 0.075
vt 0.71875 0.175
vt 0.71875 0.125

usemtl colormap

f 3/2/1 2/1/1 1/1/1
f 2/1/1 3/2/1 4/2/1
f 7/2/2 6/1/2 5/1/2
f 6/1/2 7/2/2 8/2/2
f 6/1/3 2/1/3 5/1/3
f 2/1/3 6/1/3 1/1/3
f 6/1/4 3/2/4 1/1/4
f 3/2/4 6/1/4 8/2/4
f 7/2/5 2/1/5 4/2/5
f 2/1/5 7/2/5 5/1/5
f 3/2/6 7/2/6 4/2/6
f 7/2/6 3/2/6 8/2/6
f 11/1/4 10/2/4 9/1/4
f 10/2/4 11/1/4 12/2/4
f 14/2/2 11/1/2 13/1/2
f 11/1/2 14/2/2 12/2/2
f 11/1/3 15/1/3 13/1/3
f 15/1/3 11/1/3 9/1/3
f 14/2/5 15/1/5 16/2/5
f 15/1/5 14/2/5 13/1/5
f 10/2/1 15/1/1 9/1/1
f 15/1/1 10/2/1 16/2/1
f 10/2/6 14/2/6 16/2/6
f 14/2/6 10/2/6 12/2/6
f 19/4/1 18/3/1 17/3/1
f 18/3/1 19/4/1 20/5/1
f 21/5/5 18/3/5 20/5/5
f 18/3/5 21/5/5 22/3/5
f 21/5/2 23/3/2 22/3/2
f 23/3/2 21/5/2 24/4/2
f 23/3/4 19/4/4 17/3/4
f 19/4/4 23/3/4 24/4/4
f 19/4/7 21/5/7 20/5/7
f 21/5/7 19/4/7 24/4/7
f 23/3/3 18/3/3 22/3/3
f 18/3/3 23/3/3 17/3/3
f 27/3/3 26/3/3 25/3/3
f 26/3/3 27/3/3 28/3/3
f 27/3/4 29/5/4 28/3/4
f 29/5/4 27/3/4 30/5/4
f 32/4/5 26/3/5 31/4/5
f 26/3/5 32/4/5 25/3/5
f 32/4/2 27/3/2 25/3/2
f 27/3/2 32/4/2 30/5/2
f 29/5/1 26/3/1 28/3/1
f 26/3/1 29/5/1 31/4/1
f 31/4/8 30/5/8 32/4/8
f 30/5/8 31/4/8 29/5/8
f 35/5/1 34/3/1 33/3/1
f 34/3/1 35/5/1 36/4/1
f 35/5/8 37/4/8 36/4/8
f 37/4/8 35/5/8 38/5/8
f 37/4/2 40/3/2 39/3/2
f 40/3/2 37/4/2 38/5/2
f 40/3/3 34/3/3 39/3/3
f 34/3/3 40/3/3 33/3/3
f 37/4/5 34/3/5 36/4/5
f 34/3/5 37/4/5 39/3/5
f 40/3/4 35/5/4 33/3/4
f 35/5/4 40/3/4 38/5/4
f 43/5/5 42/3/5 41/5/5
f 42/3/5 43/5/5 44/3/5
f 41/5/7 45/4/7 43/5/7
f 45/4/7 41/5/7 46/4/7
f 43/5/2 47/3/2 44/3/2
f 47/3/2 43/5/2 45/4/2
f 47/3/3 42/3/3 44/3/3
f 42/3/3 47/3/3 48/3/3
f 47/3/4 46/4/4 48/3/4
f 46/4/4 47/3/4 45/4/4
f 46/4/1 42/3/1 48/3/1
f 42/3/1 46/4/1 41/5/1
f 51/5/1 50/3/1 49/3/1
f 50/3/1 51/5/1 52/4/1
f 52/4/8 54/5/8 53/4/8
f 54/5/8 52/4/8 51/5/8
f 55/3/4 51/5/4 49/3/4
f 51/5/4 55/3/4 54/5/4
f 53/4/2 55/3/2 56/3/2
f 55/3/2 53/4/2 54/5/2
f 55/3/3 50/3/3 56/3/3
f 50/3/3 55/3/3 49/3/3
f 53/4/5 50/3/5 52/4/5
f 50/3/5 53/4/5 56/3/5

g platform




usemtl colormap

f 3/2/1 2/1/1 1/1/1
f 2/1/1 3/2/1 4/2/1
f 7/2/2 6/1/2 5/1/2
f 6/1/2 7/2/2 8/2/2
f 6/1/3 2/1/3 5/1/3
f 2/1/3 6/1/3 1/1/3
f 6/1/4 3/2/4 1/1/4
f 3/2/4 6/1/4 8/2/4
f 7/2/5 2/1/5 4/2/5
f 2/1/5 7/2/5 5/1/5
f 3/2/6 7/2/6 4/2/6
f 7/2/6 3/2/6 8/2/6
f 11/1/4 10/2/4 9/1/4
f 10/2/4 11/1/4 12/2/4
f 14/2/2 11/1/2 13/1/2
f 11/1/2 14/2/2 12/2/2
f 11/1/3 15/1/3 13/1/3
f 15/1/3 11/1/3 9/1/3
f 14/2/5 15/1/5 16/2/5
f 15/1/5 14/2/5 13/1/5
f 10/2/1 15/1/1 9/1/1
f 15/1/1 10/2/1 16/2/1
f 10/2/6 14/2/6 16/2/6
f 14/2/6 10/2/6 12/2/6
f 19/4/1 18/3/1 17/3/1
f 18/3/1 19/4/1 20/5/1
f 21/5/5 18/3/5 20/5/5
f 18/3/5 21/5/5 22/3/5
f 21/5/2 23/3/2 22/3/2
f 23/3/2 21/5/2 24/4/2
f 23/3/4 19/4/4 17/3/4
f 19/4/4 23/3/4 24/4/4
f 19/4/7 21/5/7 20/5/7
f 21/5/7 19/4/7 24/4/7
f 23/3/3 18/3/3 22/3/3
f 18/3/3 23/3/3 17/3/3
f 27/3/3 26/3/3 25/3/3
f 26/3/3 27/3/3 28/3/3
f 27/3/4 29/5/4 28/3/4
f 29/5/4 27/3/4 30/5/4
f 32/4/5 26/3/5 31/4/5
f 26/3/5 32/4/5 25/3/5
f 32/4/2 27/3/2 25/3/2
f 27/3/2 32/4/2 30/5/2
f 29/5/1 26/3/1 28/3/1
f 26/3/1 29/5/1 31/4/1
f 31/4/8 30/5/8 32/4/8
f 30/5/8 31/4/8 29/5/8
f 35/5/1 34/3/1 33/3/1
f 34/3/1 35/5/1 36/4/1
f 35/5/8 37/4/8 36/4/8
f 37/4/8 35/5/8 38/5/8
f 37/4/2 40/3/2 39/3/2
f 40/3/2 37/4/2 38/5/2
f 40/3/3 34/3/3 39/3/3
f 34/3/3 40/3/3 33/3/3
f 37/4/5 34/3/5 36/4/5
f 34/3/5 37/4/5 39/3/5
f 40/3/4 35/5/4 33/3/4
f 35/5/4 40/3/4 38/5/4
f 43/5/5 42/3/5 41/5/5
f 42/3/5 43/5/5 44/3/5
f 41/5/7 45/4/7 43/5/7
f 45/4/7 41/5/7 46/4/7
f 43/5/2 47/3/2 44/3/2
f 47/3/2 43/5/2 45/4/2
f 47/3/3 42/3/3 44/3/3
f 42/3/3 47/3/3 48/3/3
f 47/3/4 46/4/4 48/3/4
f 46/4/4 47/3/4 45/4/4
f 46/4/1 42/3/1 48/3/1
f 42/3/1 46/4/1 41/5/1
f 51/5/1 50/3/1 49/3/1
f 50/3/1 51/5/1 52/4/1
f 52/4/8 54/5/8 53/4/8
f 54/5/8 52/4/8 51/5/8
f 55/3/4 51/5/4 49/3/4
f 51/5/4 55/3/4 54/5/4
f 53/4/2 55/3/2 56/3/2
f 55/3/2 53/4/2 54/5/2
f 55/3/3 50/3/3 56/3/3
f 50/3/3 55/3/3 49/3/3
f 53/4/5 50/3/5 52/4/5
f 50/3/5 53/4/5 56/3/5

