# Created by Kenney (www.kenney.nl)

mtllib platform-overhang.mtl

g platform-overhang

v 0.26 0.2375 -0.4997622 1 1 1
v 0.38 0.2375 -0.4997622 1 1 1
v 0.26 0.3575 -0.4997622 1 1 1
v 0.38 0.3575 -0.4997622 1 1 1
v 0.26 0.2375 -0.0422622 1 1 1
v 0.26 0.3575 -0.0422622 1 1 1
v 0.38 0.2375 -0.0422622 1 1 1
v 0.38 0.3575 -0.0422622 1 1 1
v -0.38 0.2375 -0.4997622 1 1 1
v -0.26 0.2375 -0.4997622 1 1 1
v -0.38 0.3575 -0.4997622 1 1 1
v -0.26 0.3575 -0.4997622 1 1 1
v -0.38 0.2375 -0.0422622 1 1 1
v -0.38 0.3575 -0.0422622 1 1 1
v -0.26 0.2375 -0.0422622 1 1 1
v -0.26 0.3575 -0.0422622 1 1 1
v 0.2895024 0 -0.5 1 1 1
v 0.29 0.2375 -0.0672622 1 1 1
v 0.3495024 0 -0.5 1 1 1
v 0.35 0.2375 -0.0672622 1 1 1
v 0.3495024 0.12 -0.5 1 1 1
v 0.2895024 0.12 -0.5 1 1 1
v 0.2897486 0.2375 -0.2859086 1 1 1
v 0.3497486 0.2375 -0.2859086 1 1 1
v -0.3504976 0 -0.5 1 1 1
v -0.35 0.2375 -0.0672622 1 1 1
v -0.2904976 0 -0.5 1 1 1
v -0.29 0.2375 -0.0672622 1 1 1
v -0.2904976 0.12 -0.5 1 1 1
v -0.3504976 0.12 -0.5 1 1 1
v -0.3502514 0.2375 -0.2859086 1 1 1
v -0.2902514 0.2375 -0.2859086 1 1 1
v 0.5 0.4325 -0.4997622 1 1 1
v 0.5 0.4325 -0.2997622 1 1 1
v -0.5 0.395 -0.4997622 1 1 1
v -0.5 0.395 -0.2997622 1 1 1
v 0.5 0.3575 -0.2997622 1 1 1
v 0.5 0.3575 -0.4997622 1 1 1
v -0.5 0.3575 -0.2997622 1 1 1
v -0.5 0.3575 -0.4997622 1 1 1
v -0.5 0.3575 -0.2422622 1 1 1
v 0.5 0.3575 -0.2422622 1 1 1
v -0.5 0.4325 -0.2422622 1 1 1
v 0.5 0.395 -0.2422622 1 1 1
v -0.5 0.3575 -0.04226219 1 1 1
v -0.5 0.4325 -0.04226219 1 1 1
v 0.5 0.3575 -0.04226219 1 1 1
v 0.5 0.395 -0.04226219 1 1 1

vn 0 0 -1
vn -1 0 0
vn 0 0 1
vn 0 -1 0
vn 1 0 0
vn 0 1 0
vn 0 -0.8766482 0.4811319
vn -0.9999994 0 0.001149843
vn 0.9999994 0 -0.001149843
vn 0 0.8766482 -0.4811319
vn -0.03747366 0.9992976 0
vn 0.03747366 0.9992976 0

vt 0.84375 0.025
vt 0.84375 0.225
vt 0.84375 0.1260526
vt 0.71875 0.175
vt 0.71875 0.125
vt 0.71875 0.075

usemtl colormap

f 3/2/1 2/1/1 1/1/1
f 2/1/1 3/2/1 4/2/1
f 5/1/2 3/2/2 1/1/2
f 3/2/2 5/1/2 6/2/2
f 8/2/3 5/1/3 7/1/3
f 5/1/3 8/2/3 6/2/3
f 5/1/4 2/1/4 7/1/4
f 2/1/4 5/1/4 1/1/4
f 8/2/5 2/1/5 4/2/5
f 2/1/5 8/2/5 7/1/5
f 3/2/6 8/2/6 4/2/6
f 8/2/6 3/2/6 6/2/6
f 11/2/1 10/1/1 9/1/1
f 10/1/1 11/2/1 12/2/1
f 13/1/2 11/2/2 9/1/2
f 11/2/2 13/1/2 14/2/2
f 16/2/3 13/1/3 15/1/3
f 13/1/3 16/2/3 14/2/3
f 13/1/4 10/1/4 15/1/4
f 10/1/4 13/1/4 9/1/4
f 16/2/5 10/1/5 12/2/5
f 10/1/5 16/2/5 15/1/5
f 11/2/6 16/2/6 12/2/6
f 16/2/6 11/2/6 14/2/6
f 19/1/7 18/2/7 17/1/7
f 18/2/7 19/1/7 20/2/7
f 19/1/1 22/3/1 21/3/1
f 22/3/1 19/1/1 17/1/1
f 18/2/8 22/3/8 17/1/8
f 22/3/8 18/2/8 23/2/8
f 24/2/9 19/1/9 21/3/9
f 19/1/9 24/2/9 20/2/9
f 23/2/10 21/3/10 22/3/10
f 21/3/10 23/2/10 24/2/10
f 27/1/7 26/2/7 25/1/7
f 26/2/7 27/1/7 28/2/7
f 27/1/1 30/3/1 29/3/1
f 30/3/1 27/1/1 25/1/1
f 26/2/8 30/3/8 25/1/8
f 30/3/8 26/2/8 31/2/8
f 32/2/9 27/1/9 29/3/9
f 27/1/9 32/2/9 28/2/9
f 31/2/10 29/3/10 30/3/10
f 29/3/10 31/2/10 32/2/10
f 35/5/11 34/4/11 33/4/11
f 34/4/11 35/5/11 36/5/11
f 39/6/4 38/6/4 37/6/4
f 38/6/4 39/6/4 40/6/4
f 35/5/1 38/6/1 40/6/1
f 38/6/1 35/5/1 33/4/1
f 39/6/2 35/5/2 40/6/2
f 35/5/2 39/6/2 36/5/2
f 34/4/5 38/6/5 33/4/5
f 38/6/5 34/4/5 37/6/5
f 34/4/3 39/6/3 37/6/3
f 39/6/3 34/4/3 36/5/3
f 43/4/1 42/6/1 41/6/1
f 42/6/1 43/4/1 44/5/1
f 45/6/2 43/4/2 41/6/2
f 43/4/2 45/6/2 46/4/2
f 48/5/3 45/6/3 47/6/3
f 45/6/3 48/5/3 46/4/3
f 43/4/12 48/5/12 44/5/12
f 48/5/12 43/4/12 46/4/12
f 45/6/4 42/6/4 47/6/4
f 42/6/4 45/6/4 41/6/4
f 48/5/5 42/6/5 44/5/5
f 42/6/5 48/5/5 47/6/5

g platform-overhang




usemtl colormap

f 3/2/1 2/1/1 1/1/1
f 2/1/1 3/2/1 4/2/1
f 5/1/2 3/2/2 1/1/2
f 3/2/2 5/1/2 6/2/2
f 8/2/3 5/1/3 7/1/3
f 5/1/3 8/2/3 6/2/3
f 5/1/4 2/1/4 7/1/4
f 2/1/4 5/1/4 1/1/4
f 8/2/5 2/1/5 4/2/5
f 2/1/5 8/2/5 7/1/5
f 3/2/6 8/2/6 4/2/6
f 8/2/6 3/2/6 6/2/6
f 11/2/1 10/1/1 9/1/1
f 10/1/1 11/2/1 12/2/1
f 13/1/2 11/2/2 9/1/2
f 11/2/2 13/1/2 14/2/2
f 16/2/3 13/1/3 15/1/3
f 13/1/3 16/2/3 14/2/3
f 13/1/4 10/1/4 15/1/4
f 10/1/4 13/1/4 9/1/4
f 16/2/5 10/1/5 12/2/5
f 10/1/5 16/2/5 15/1/5
f 11/2/6 16/2/6 12/2/6
f 16/2/6 11/2/6 14/2/6
f 19/1/7 18/2/7 17/1/7
f 18/2/7 19/1/7 20/2/7
f 19/1/1 22/3/1 21/3/1
f 22/3/1 19/1/1 17/1/1
f 18/2/8 22/3/8 17/1/8
f 22/3/8 18/2/8 23/2/8
f 24/2/9 19/1/9 21/3/9
f 19/1/9 24/2/9 20/2/9
f 23/2/10 21/3/10 22/3/10
f 21/3/10 23/2/10 24/2/10
f 27/1/7 26/2/7 25/1/7
f 26/2/7 27/1/7 28/2/7
f 27/1/1 30/3/1 29/3/1
f 30/3/1 27/1/1 25/1/1
f 26/2/8 30/3/8 25/1/8
f 30/3/8 26/2/8 31/2/8
f 32/2/9 27/1/9 29/3/9
f 27/1/9 32/2/9 28/2/9
f 31/2/10 29/3/10 30/3/10
f 29/3/10 31/2/10 32/2/10
f 35/5/11 34/4/11 33/4/11
f 34/4/11 35/5/11 36/5/11
f 39/6/4 38/6/4 37/6/4
f 38/6/4 39/6/4 40/6/4
f 35/5/1 38/6/1 40/6/1
f 38/6/1 35/5/1 33/4/1
f 39/6/2 35/5/2 40/6/2
f 35/5/2 39/6/2 36/5/2
f 34/4/5 38/6/5 33/4/5
f 38/6/5 34/4/5 37/6/5
f 34/4/3 39/6/3 37/6/3
f 39/6/3 34/4/3 36/5/3
f 43/4/1 42/6/1 41/6/1
f 42/6/1 43/4/1 44/5/1
f 45/6/2 43/4/2 41/6/2
f 43/4/2 45/6/2 46/4/2
f 48/5/3 45/6/3 47/6/3
f 45/6/3 48/5/3 46/4/3
f 43/4/12 48/5/12 44/5/12
f 48/5/12 43/4/12 46/4/12
f 45/6/4 42/6/4 47/6/4
f 42/6/4 45/6/4 41/6/4
f 48/5/5 42/6/5 44/5/5
f 42/6/5 48/5/5 47/6/5

