# Created by Kenney (www.kenney.nl)

mtllib poles.mtl

g poles

v -0.065 0.775 -0.03343146 1 1 1
v -0.065 0.775 0.03343146 1 1 1
v -0.09156854 0.775 -0.06 1 1 1
v -0.09156854 0.775 0.06 1 1 1
v -0.1584315 0.775 -0.06 1 1 1
v -0.1584315 0.775 0.06 1 1 1
v -0.185 0.775 -0.03343146 1 1 1
v -0.185 0.775 0.03343146 1 1 1
v -0.1875 9.023893E-17 -0.125 1 1 1
v -0.1875 0.8 -0.125 1 1 1
v -0.25 9.023893E-17 -0.0625 1 1 1
v -0.25 0.8 -0.0625 1 1 1
v -0.0625 0.8 -0.125 1 1 1
v -0.0625 9.023893E-17 -0.125 1 1 1
v 0 0.8 -0.0625 1 1 1
v 0 9.023893E-17 -0.0625 1 1 1
v -0.0625 9.023893E-17 0.125 1 1 1
v -0.1875 9.023893E-17 0.125 1 1 1
v -0.0625 0.8 0.125 1 1 1
v -0.1875 0.8 0.125 1 1 1
v -0.25 9.023893E-17 0.0625 1 1 1
v -0.25 0.8 0.0625 1 1 1
v 0 0.8 0.0625 1 1 1
v 0 9.023893E-17 0.0625 1 1 1
v -0.08321068 0.8 -0.075 1 1 1
v -0.1667893 0.8 -0.075 1 1 1
v -0.05 0.8 0.04178932 1 1 1
v -0.08321068 0.8 0.075 1 1 1
v -0.1667893 0.8 0.075 1 1 1
v -0.2 0.8 0.04178932 1 1 1
v -0.05 0.8 -0.04178932 1 1 1
v -0.2 0.8 -0.04178932 1 1 1
v 0.435 0.875 -0.03343146 1 1 1
v 0.435 0.875 0.03343146 1 1 1
v 0.4084315 0.875 -0.06 1 1 1
v 0.4084315 0.875 0.06 1 1 1
v 0.3415685 0.875 -0.06 1 1 1
v 0.3415685 0.875 0.06 1 1 1
v 0.315 0.875 -0.03343146 1 1 1
v 0.315 0.875 0.03343146 1 1 1
v 0.3125 -8.014827E-32 -0.125 1 1 1
v 0.3125 0.9 -0.125 1 1 1
v 0.25 -8.014827E-32 -0.0625 1 1 1
v 0.25 0.9 -0.0625 1 1 1
v 0.4375 0.9 -0.125 1 1 1
v 0.4375 -8.014827E-32 -0.125 1 1 1
v 0.5 0.9 -0.0625 1 1 1
v 0.5 -8.014827E-32 -0.0625 1 1 1
v 0.4375 -8.014827E-32 0.125 1 1 1
v 0.3125 -8.014827E-32 0.125 1 1 1
v 0.4375 0.9 0.125 1 1 1
v 0.3125 0.9 0.125 1 1 1
v 0.25 -8.014827E-32 0.0625 1 1 1
v 0.25 0.9 0.0625 1 1 1
v 0.5 0.9 0.0625 1 1 1
v 0.5 -8.014827E-32 0.0625 1 1 1
v 0.45 0.9 0.04178932 1 1 1
v 0.4167893 0.9 0.075 1 1 1
v 0.45 0.9 -0.04178932 1 1 1
v 0.3332107 0.9 -0.075 1 1 1
v 0.3 0.9 -0.04178932 1 1 1
v 0.3 0.9 0.04178932 1 1 1
v 0.3332107 0.9 0.075 1 1 1
v 0.4167893 0.9 -0.075 1 1 1
v -0.315 0.925 -0.03343146 1 1 1
v -0.315 0.925 0.03343146 1 1 1
v -0.3415685 0.925 -0.06 1 1 1
v -0.3415685 0.925 0.06 1 1 1
v -0.4084315 0.925 -0.06 1 1 1
v -0.4084315 0.925 0.06 1 1 1
v -0.435 0.925 -0.03343146 1 1 1
v -0.435 0.925 0.03343146 1 1 1
v -0.4375 -3.609557E-16 -0.125 1 1 1
v -0.4375 0.9499999 -0.125 1 1 1
v -0.5 -3.609557E-16 -0.0625 1 1 1
v -0.5 0.9499999 -0.0625 1 1 1
v -0.3125 0.9499999 -0.125 1 1 1
v -0.3125 -3.609557E-16 -0.125 1 1 1
v -0.25 0.9499999 -0.0625 1 1 1
v -0.25 -3.609557E-16 -0.0625 1 1 1
v -0.3125 -3.609557E-16 0.125 1 1 1
v -0.4375 -3.609557E-16 0.125 1 1 1
v -0.3125 0.9499999 0.125 1 1 1
v -0.4375 0.9499999 0.125 1 1 1
v -0.5 -3.609557E-16 0.0625 1 1 1
v -0.5 0.9499999 0.0625 1 1 1
v -0.25 0.9499999 0.0625 1 1 1
v -0.25 -3.609557E-16 0.0625 1 1 1
v -0.4167893 0.9499999 -0.075 1 1 1
v -0.45 0.9499999 -0.04178932 1 1 1
v -0.45 0.9499999 0.04178932 1 1 1
v -0.4167893 0.9499999 0.075 1 1 1
v -0.3332107 0.9499999 0.075 1 1 1
v -0.3332107 0.9499999 -0.075 1 1 1
v -0.3 0.9499999 -0.04178932 1 1 1
v -0.3 0.9499999 0.04178932 1 1 1
v 0.185 0.975 -0.03343146 1 1 1
v 0.185 0.975 0.03343146 1 1 1
v 0.1584315 0.975 -0.06 1 1 1
v 0.1584315 0.975 0.06 1 1 1
v 0.09156854 0.975 -0.06 1 1 1
v 0.09156854 0.975 0.06 1 1 1
v 0.065 0.975 -0.03343146 1 1 1
v 0.065 0.975 0.03343146 1 1 1
v 0.0625 -7.219114E-16 -0.125 1 1 1
v 0.0625 1 -0.125 1 1 1
v 0 -7.219114E-16 -0.0625 1 1 1
v 0 1 -0.0625 1 1 1
v 0.1875 1 -0.125 1 1 1
v 0.1875 -7.219114E-16 -0.125 1 1 1
v 0.25 1 -0.0625 1 1 1
v 0.25 -7.219114E-16 -0.0625 1 1 1
v 0.1875 -7.219114E-16 0.125 1 1 1
v 0.0625 -7.219114E-16 0.125 1 1 1
v 0.1875 1 0.125 1 1 1
v 0.0625 1 0.125 1 1 1
v 0 -7.219114E-16 0.0625 1 1 1
v 0 1 0.0625 1 1 1
v 0.25 1 0.0625 1 1 1
v 0.25 -7.219114E-16 0.0625 1 1 1
v 0.05 1 -0.04178932 1 1 1
v 0.05 1 0.04178932 1 1 1
v 0.1667893 1 -0.075 1 1 1
v 0.2 1 -0.04178932 1 1 1
v 0.08321068 1 0.075 1 1 1
v 0.1667893 1 0.075 1 1 1
v 0.08321068 1 -0.075 1 1 1
v 0.2 1 0.04178932 1 1 1
v 0.55 0.25 0.08321068 1 1 1
v 0.55 0.25 -0.08321068 1 1 1
v 0.4582107 0.25 0.175 1 1 1
v 0.4582107 0.25 -0.175 1 1 1
v -0.4582107 0.25 0.175 1 1 1
v -0.4582107 0.25 -0.175 1 1 1
v -0.55 0.25 0.08321068 1 1 1
v -0.55 0.25 -0.08321068 1 1 1
v 0.55 0.45 -0.08321068 1 1 1
v 0.55 0.45 0.08321068 1 1 1
v 0.4582107 0.45 -0.175 1 1 1
v 0.4582107 0.45 0.175 1 1 1
v -0.4582107 0.45 0.175 1 1 1
v -0.4582107 0.45 -0.175 1 1 1
v -0.55 0.45 0.08321068 1 1 1
v -0.55 0.45 -0.08321068 1 1 1

vn 0 1 0
vn -0.3826834 0 -0.9238795
vn -0.9238795 0 -0.3826834
vn 0.3826834 0 -0.9238795
vn 0.9238795 0 -0.3826834
vn 0.3826834 0 0.9238795
vn -0.3826834 0 0.9238795
vn -0.9238795 0 0.3826834
vn 0.9238795 0 0.3826834
vn 0 -1 0
vn -0.3010484 0.562618 0.7699552
vn 0.3010484 0.562618 0.7699552
vn -0.3260678 0.5641471 0.758563
vn 0.3260678 0.5641471 0.758563
vn -0.7699552 0.562618 -0.3010484
vn -0.758563 0.5641471 -0.3260678
vn -0.3010484 0.562618 -0.7699552
vn -0.3260678 0.5641471 -0.758563
vn 0.3010484 0.562618 -0.7699552
vn 0.3260678 0.5641471 -0.758563
vn 0.7699552 0.562618 -0.3010484
vn 0.758563 0.5641471 -0.3260678
vn -0.758563 0.5641471 0.3260678
vn -0.7699552 0.562618 0.3010484
vn 0.758563 0.5641471 0.3260678
vn 0.7699552 0.562618 0.3010484

vt 0.71875 0.21875
vt 0.71875 0.025
vt 0.71875 0.225
vt 0.71875 0.2194444
vt 0.71875 0.1223684
vt 0.71875 0.125
vt 0.71875 0.1225
vt 0.84375 0.225
vt 0.84375 0.025
vt 0.84375 0.125

usemtl colormap

f 3/1/1 2/1/1 1/1/1
f 2/1/1 3/1/1 4/1/1
f 4/1/1 3/1/1 5/1/1
f 4/1/1 5/1/1 6/1/1
f 6/1/1 5/1/1 7/1/1
f 6/1/1 7/1/1 8/1/1
f 11/2/3 10/3/2 9/2/2
f 10/3/2 11/2/3 12/3/3
f 15/3/5 14/2/4 13/3/4
f 14/2/4 15/3/5 16/2/5
f 19/3/6 18/2/7 17/2/6
f 18/2/7 19/3/6 20/3/7
f 18/2/7 22/3/8 21/2/8
f 22/3/8 18/2/7 20/3/7
f 23/3/9 16/2/5 15/3/5
f 16/2/5 23/3/9 24/2/9
f 17/2/10 16/2/10 24/2/10
f 16/2/10 17/2/10 14/2/10
f 14/2/10 17/2/10 18/2/10
f 14/2/10 18/2/10 9/2/10
f 9/2/10 18/2/10 21/2/10
f 9/2/10 21/2/10 11/2/10
f 19/3/6 24/2/9 23/3/9
f 24/2/9 19/3/6 17/2/6
f 21/2/8 12/3/3 11/2/3
f 12/3/3 21/2/8 22/3/8
f 10/3/2 14/2/4 9/2/2
f 14/2/4 10/3/2 13/3/4
f 25/3/13 5/1/12 3/1/11
f 5/1/12 25/3/13 26/3/14
f 4/1/17 27/3/16 2/1/15
f 27/3/16 4/1/17 28/3/18
f 29/3/20 4/1/17 6/1/19
f 4/1/17 29/3/20 28/3/18
f 30/3/22 6/1/19 8/1/21
f 6/1/19 30/3/22 29/3/20
f 1/1/24 27/3/16 31/3/23
f 27/3/16 1/1/24 2/1/15
f 32/3/25 5/1/12 26/3/14
f 5/1/12 32/3/25 7/1/26
f 30/3/22 7/1/26 32/3/25
f 7/1/26 30/3/22 8/1/21
f 3/1/11 31/3/23 25/3/13
f 31/3/23 3/1/11 1/1/24
f 35/4/1 34/4/1 33/4/1
f 34/4/1 35/4/1 36/4/1
f 36/4/1 35/4/1 37/4/1
f 36/4/1 37/4/1 38/4/1
f 38/4/1 37/4/1 39/4/1
f 38/4/1 39/4/1 40/4/1
f 43/2/3 42/3/2 41/2/2
f 42/3/2 43/2/3 44/3/3
f 47/3/5 46/2/4 45/3/4
f 46/2/4 47/3/5 48/2/5
f 51/3/6 50/2/7 49/2/6
f 50/2/7 51/3/6 52/3/7
f 50/2/7 54/3/8 53/2/8
f 54/3/8 50/2/7 52/3/7
f 55/3/9 48/2/5 47/3/5
f 48/2/5 55/3/9 56/2/9
f 49/2/10 48/2/10 56/2/10
f 48/2/10 49/2/10 46/2/10
f 46/2/10 49/2/10 50/2/10
f 46/2/10 50/2/10 41/2/10
f 41/2/10 50/2/10 53/2/10
f 41/2/10 53/2/10 43/2/10
f 51/3/6 56/2/9 55/3/9
f 56/2/9 51/3/6 49/2/6
f 53/2/8 44/3/3 43/2/3
f 44/3/3 53/2/8 54/3/8
f 42/3/2 46/2/4 41/2/2
f 46/2/4 42/3/2 45/3/4
f 36/4/17 57/3/16 34/4/15
f 57/3/16 36/4/17 58/3/18
f 33/4/24 57/3/16 59/3/23
f 57/3/16 33/4/24 34/4/15
f 61/3/25 37/4/12 60/3/14
f 37/4/12 61/3/25 39/4/26
f 62/3/22 38/4/19 40/4/21
f 38/4/19 62/3/22 63/3/20
f 35/4/11 59/3/23 64/3/13
f 59/3/23 35/4/11 33/4/24
f 64/3/13 37/4/12 35/4/11
f 37/4/12 64/3/13 60/3/14
f 63/3/20 36/4/17 38/4/19
f 36/4/17 63/3/20 58/3/18
f 62/3/22 39/4/26 61/3/25
f 39/4/26 62/3/22 40/4/21
f 67/5/1 66/5/1 65/5/1
f 66/5/1 67/5/1 68/5/1
f 68/5/1 67/5/1 69/5/1
f 68/5/1 69/5/1 70/5/1
f 70/5/1 69/5/1 71/5/1
f 70/5/1 71/5/1 72/5/1
f 75/2/3 74/6/2 73/2/2
f 74/6/2 75/2/3 76/6/3
f 79/6/5 78/2/4 77/6/4
f 78/2/4 79/6/5 80/2/5
f 83/6/6 82/2/7 81/2/6
f 82/2/7 83/6/6 84/6/7
f 82/2/7 86/6/8 85/2/8
f 86/6/8 82/2/7 84/6/7
f 87/6/9 80/2/5 79/6/5
f 80/2/5 87/6/9 88/2/9
f 81/2/10 80/2/10 88/2/10
f 80/2/10 81/2/10 78/2/10
f 78/2/10 81/2/10 82/2/10
f 78/2/10 82/2/10 73/2/10
f 73/2/10 82/2/10 85/2/10
f 73/2/10 85/2/10 75/2/10
f 83/6/6 88/2/9 87/6/9
f 88/2/9 83/6/6 81/2/6
f 85/2/8 76/6/3 75/2/3
f 76/6/3 85/2/8 86/6/8
f 74/6/2 78/2/4 73/2/2
f 78/2/4 74/6/2 77/6/4
f 90/6/25 69/5/12 89/6/14
f 69/5/12 90/6/25 71/5/26
f 91/6/22 70/5/19 72/5/21
f 70/5/19 91/6/22 92/6/20
f 91/6/22 71/5/26 90/6/25
f 71/5/26 91/6/22 72/5/21
f 92/6/20 68/5/17 70/5/19
f 68/5/17 92/6/20 93/6/18
f 67/5/11 95/6/23 94/6/13
f 95/6/23 67/5/11 65/5/24
f 68/5/17 96/6/16 66/5/15
f 96/6/16 68/5/17 93/6/18
f 94/6/13 69/5/12 67/5/11
f 69/5/12 94/6/13 89/6/14
f 65/5/24 96/6/16 95/6/23
f 96/6/16 65/5/24 66/5/15
f 99/7/1 98/7/1 97/7/1
f 98/7/1 99/7/1 100/7/1
f 100/7/1 99/7/1 101/7/1
f 100/7/1 101/7/1 102/7/1
f 102/7/1 101/7/1 103/7/1
f 102/7/1 103/7/1 104/7/1
f 107/2/3 106/6/2 105/2/2
f 106/6/2 107/2/3 108/6/3
f 111/6/5 110/2/4 109/6/4
f 110/2/4 111/6/5 112/2/5
f 115/6/6 114/2/7 113/2/6
f 114/2/7 115/6/6 116/6/7
f 114/2/7 118/6/8 117/2/8
f 118/6/8 114/2/7 116/6/7
f 119/6/9 112/2/5 111/6/5
f 112/2/5 119/6/9 120/2/9
f 113/2/10 112/2/10 120/2/10
f 112/2/10 113/2/10 110/2/10
f 110/2/10 113/2/10 114/2/10
f 110/2/10 114/2/10 105/2/10
f 105/2/10 114/2/10 107/2/10
f 107/2/10 114/2/10 117/2/10
f 115/6/6 120/2/9 119/6/9
f 120/2/9 115/6/6 113/2/6
f 117/2/8 108/6/3 107/2/3
f 108/6/3 117/2/8 118/6/8
f 106/6/2 110/2/4 105/2/2
f 110/2/4 106/6/2 109/6/4
f 122/6/22 103/7/26 121/6/25
f 103/7/26 122/6/22 104/7/21
f 99/7/11 124/6/23 123/6/13
f 124/6/23 99/7/11 97/7/24
f 122/6/22 102/7/19 104/7/21
f 102/7/19 122/6/22 125/6/20
f 125/6/20 100/7/17 102/7/19
f 100/7/17 125/6/20 126/6/18
f 123/6/13 101/7/12 99/7/11
f 101/7/12 123/6/13 127/6/14
f 100/7/17 128/6/16 98/7/15
f 128/6/16 100/7/17 126/6/18
f 97/7/24 128/6/16 124/6/23
f 128/6/16 97/7/24 98/7/15
f 121/6/25 101/7/12 127/6/14
f 101/7/12 121/6/25 103/7/26
f 13/8/1 23/8/1 15/8/1
f 23/8/1 13/8/1 31/8/1
f 31/8/1 13/8/1 25/8/1
f 27/8/1 23/8/1 31/8/1
f 23/8/1 27/8/1 19/8/1
f 19/8/1 27/8/1 28/8/1
f 25/8/1 13/8/1 10/8/1
f 25/8/1 10/8/1 26/8/1
f 26/8/1 10/8/1 32/8/1
f 32/8/1 10/8/1 12/8/1
f 19/8/1 28/8/1 20/8/1
f 20/8/1 28/8/1 29/8/1
f 32/8/1 12/8/1 30/8/1
f 20/8/1 29/8/1 30/8/1
f 22/8/1 30/8/1 12/8/1
f 20/8/1 30/8/1 22/8/1
f 131/9/10 130/9/10 129/9/10
f 130/9/10 131/9/10 132/9/10
f 132/9/10 131/9/10 133/9/10
f 132/9/10 133/9/10 134/9/10
f 134/9/10 133/9/10 135/9/10
f 134/9/10 135/9/10 136/9/10
f 139/8/1 138/8/1 137/8/1
f 138/8/1 139/8/1 140/8/1
f 140/8/1 139/8/1 141/8/1
f 141/8/1 139/8/1 142/8/1
f 141/8/1 142/8/1 143/8/1
f 143/8/1 142/8/1 144/8/1
f 133/9/7 143/8/8 135/9/8
f 143/8/8 133/9/7 141/8/7
f 131/9/6 141/8/7 133/9/7
f 141/8/7 131/9/6 140/8/6
f 140/8/6 129/9/9 138/8/9
f 129/9/9 140/8/6 131/9/6
f 138/8/9 130/9/5 137/8/5
f 130/9/5 138/8/9 129/9/9
f 139/8/4 130/9/5 132/9/4
f 130/9/5 139/8/4 137/8/5
f 142/8/2 132/9/4 134/9/2
f 132/9/4 142/8/2 139/8/4
f 136/9/3 142/8/2 134/9/2
f 142/8/2 136/9/3 144/8/3
f 135/9/8 144/8/3 136/9/3
f 144/8/3 135/9/8 143/8/8
f 45/8/1 55/8/1 47/8/1
f 55/8/1 45/8/1 59/8/1
f 59/8/1 45/8/1 64/8/1
f 57/8/1 55/8/1 59/8/1
f 55/8/1 57/8/1 51/8/1
f 51/8/1 57/8/1 58/8/1
f 64/8/1 45/8/1 42/8/1
f 64/8/1 42/8/1 60/8/1
f 60/8/1 42/8/1 61/8/1
f 61/8/1 42/8/1 44/8/1
f 51/8/1 58/8/1 52/8/1
f 52/8/1 58/8/1 63/8/1
f 61/8/1 44/8/1 62/8/1
f 52/8/1 63/8/1 62/8/1
f 54/8/1 62/8/1 44/8/1
f 52/8/1 62/8/1 54/8/1
f 77/10/1 87/10/1 79/10/1
f 87/10/1 77/10/1 95/10/1
f 95/10/1 77/10/1 94/10/1
f 96/10/1 87/10/1 95/10/1
f 87/10/1 96/10/1 83/10/1
f 83/10/1 96/10/1 93/10/1
f 94/10/1 77/10/1 74/10/1
f 94/10/1 74/10/1 89/10/1
f 89/10/1 74/10/1 90/10/1
f 90/10/1 74/10/1 76/10/1
f 83/10/1 93/10/1 84/10/1
f 84/10/1 93/10/1 92/10/1
f 90/10/1 76/10/1 91/10/1
f 84/10/1 92/10/1 91/10/1
f 86/10/1 91/10/1 76/10/1
f 84/10/1 91/10/1 86/10/1
f 109/10/1 119/10/1 111/10/1
f 119/10/1 109/10/1 124/10/1
f 124/10/1 109/10/1 123/10/1
f 128/10/1 119/10/1 124/10/1
f 119/10/1 128/10/1 115/10/1
f 115/10/1 128/10/1 126/10/1
f 123/10/1 109/10/1 106/10/1
f 123/10/1 106/10/1 127/10/1
f 127/10/1 106/10/1 121/10/1
f 121/10/1 106/10/1 108/10/1
f 115/10/1 126/10/1 116/10/1
f 116/10/1 126/10/1 125/10/1
f 121/10/1 108/10/1 122/10/1
f 116/10/1 125/10/1 122/10/1
f 118/10/1 122/10/1 108/10/1
f 116/10/1 122/10/1 118/10/1

g poles




usemtl colormap

f 3/1/1 2/1/1 1/1/1
f 2/1/1 3/1/1 4/1/1
f 4/1/1 3/1/1 5/1/1
f 4/1/1 5/1/1 6/1/1
f 6/1/1 5/1/1 7/1/1
f 6/1/1 7/1/1 8/1/1
f 11/2/3 10/3/2 9/2/2
f 10/3/2 11/2/3 12/3/3
f 15/3/5 14/2/4 13/3/4
f 14/2/4 15/3/5 16/2/5
f 19/3/6 18/2/7 17/2/6
f 18/2/7 19/3/6 20/3/7
f 18/2/7 22/3/8 21/2/8
f 22/3/8 18/2/7 20/3/7
f 23/3/9 16/2/5 15/3/5
f 16/2/5 23/3/9 24/2/9
f 17/2/10 16/2/10 24/2/10
f 16/2/10 17/2/10 14/2/10
f 14/2/10 17/2/10 18/2/10
f 14/2/10 18/2/10 9/2/10
f 9/2/10 18/2/10 21/2/10
f 9/2/10 21/2/10 11/2/10
f 19/3/6 24/2/9 23/3/9
f 24/2/9 19/3/6 17/2/6
f 21/2/8 12/3/3 11/2/3
f 12/3/3 21/2/8 22/3/8
f 10/3/2 14/2/4 9/2/2
f 14/2/4 10/3/2 13/3/4
f 25/3/13 5/1/12 3/1/11
f 5/1/12 25/3/13 26/3/14
f 4/1/17 27/3/16 2/1/15
f 27/3/16 4/1/17 28/3/18
f 29/3/20 4/1/17 6/1/19
f 4/1/17 29/3/20 28/3/18
f 30/3/22 6/1/19 8/1/21
f 6/1/19 30/3/22 29/3/20
f 1/1/24 27/3/16 31/3/23
f 27/3/16 1/1/24 2/1/15
f 32/3/25 5/1/12 26/3/14
f 5/1/12 32/3/25 7/1/26
f 30/3/22 7/1/26 32/3/25
f 7/1/26 30/3/22 8/1/21
f 3/1/11 31/3/23 25/3/13
f 31/3/23 3/1/11 1/1/24
f 35/4/1 34/4/1 33/4/1
f 34/4/1 35/4/1 36/4/1
f 36/4/1 35/4/1 37/4/1
f 36/4/1 37/4/1 38/4/1
f 38/4/1 37/4/1 39/4/1
f 38/4/1 39/4/1 40/4/1
f 43/2/3 42/3/2 41/2/2
f 42/3/2 43/2/3 44/3/3
f 47/3/5 46/2/4 45/3/4
f 46/2/4 47/3/5 48/2/5
f 51/3/6 50/2/7 49/2/6
f 50/2/7 51/3/6 52/3/7
f 50/2/7 54/3/8 53/2/8
f 54/3/8 50/2/7 52/3/7
f 55/3/9 48/2/5 47/3/5
f 48/2/5 55/3/9 56/2/9
f 49/2/10 48/2/10 56/2/10
f 48/2/10 49/2/10 46/2/10
f 46/2/10 49/2/10 50/2/10
f 46/2/10 50/2/10 41/2/10
f 41/2/10 50/2/10 53/2/10
f 41/2/10 53/2/10 43/2/10
f 51/3/6 56/2/9 55/3/9
f 56/2/9 51/3/6 49/2/6
f 53/2/8 44/3/3 43/2/3
f 44/3/3 53/2/8 54/3/8
f 42/3/2 46/2/4 41/2/2
f 46/2/4 42/3/2 45/3/4
f 36/4/17 57/3/16 34/4/15
f 57/3/16 36/4/17 58/3/18
f 33/4/24 57/3/16 59/3/23
f 57/3/16 33/4/24 34/4/15
f 61/3/25 37/4/12 60/3/14
f 37/4/12 61/3/25 39/4/26
f 62/3/22 38/4/19 40/4/21
f 38/4/19 62/3/22 63/3/20
f 35/4/11 59/3/23 64/3/13
f 59/3/23 35/4/11 33/4/24
f 64/3/13 37/4/12 35/4/11
f 37/4/12 64/3/13 60/3/14
f 63/3/20 36/4/17 38/4/19
f 36/4/17 63/3/20 58/3/18
f 62/3/22 39/4/26 61/3/25
f 39/4/26 62/3/22 40/4/21
f 67/5/1 66/5/1 65/5/1
f 66/5/1 67/5/1 68/5/1
f 68/5/1 67/5/1 69/5/1
f 68/5/1 69/5/1 70/5/1
f 70/5/1 69/5/1 71/5/1
f 70/5/1 71/5/1 72/5/1
f 75/2/3 74/6/2 73/2/2
f 74/6/2 75/2/3 76/6/3
f 79/6/5 78/2/4 77/6/4
f 78/2/4 79/6/5 80/2/5
f 83/6/6 82/2/7 81/2/6
f 82/2/7 83/6/6 84/6/7
f 82/2/7 86/6/8 85/2/8
f 86/6/8 82/2/7 84/6/7
f 87/6/9 80/2/5 79/6/5
f 80/2/5 87/6/9 88/2/9
f 81/2/10 80/2/10 88/2/10
f 80/2/10 81/2/10 78/2/10
f 78/2/10 81/2/10 82/2/10
f 78/2/10 82/2/10 73/2/10
f 73/2/10 82/2/10 85/2/10
f 73/2/10 85/2/10 75/2/10
f 83/6/6 88/2/9 87/6/9
f 88/2/9 83/6/6 81/2/6
f 85/2/8 76/6/3 75/2/3
f 76/6/3 85/2/8 86/6/8
f 74/6/2 78/2/4 73/2/2
f 78/2/4 74/6/2 77/6/4
f 90/6/25 69/5/12 89/6/14
f 69/5/12 90/6/25 71/5/26
f 91/6/22 70/5/19 72/5/21
f 70/5/19 91/6/22 92/6/20
f 91/6/22 71/5/26 90/6/25
f 71/5/26 91/6/22 72/5/21
f 92/6/20 68/5/17 70/5/19
f 68/5/17 92/6/20 93/6/18
f 67/5/11 95/6/23 94/6/13
f 95/6/23 67/5/11 65/5/24
f 68/5/17 96/6/16 66/5/15
f 96/6/16 68/5/17 93/6/18
f 94/6/13 69/5/12 67/5/11
f 69/5/12 94/6/13 89/6/14
f 65/5/24 96/6/16 95/6/23
f 96/6/16 65/5/24 66/5/15
f 99/7/1 98/7/1 97/7/1
f 98/7/1 99/7/1 100/7/1
f 100/7/1 99/7/1 101/7/1
f 100/7/1 101/7/1 102/7/1
f 102/7/1 101/7/1 103/7/1
f 102/7/1 103/7/1 104/7/1
f 107/2/3 106/6/2 105/2/2
f 106/6/2 107/2/3 108/6/3
f 111/6/5 110/2/4 109/6/4
f 110/2/4 111/6/5 112/2/5
f 115/6/6 114/2/7 113/2/6
f 114/2/7 115/6/6 116/6/7
f 114/2/7 118/6/8 117/2/8
f 118/6/8 114/2/7 116/6/7
f 119/6/9 112/2/5 111/6/5
f 112/2/5 119/6/9 120/2/9
f 113/2/10 112/2/10 120/2/10
f 112/2/10 113/2/10 110/2/10
f 110/2/10 113/2/10 114/2/10
f 110/2/10 114/2/10 105/2/10
f 105/2/10 114/2/10 107/2/10
f 107/2/10 114/2/10 117/2/10
f 115/6/6 120/2/9 119/6/9
f 120/2/9 115/6/6 113/2/6
f 117/2/8 108/6/3 107/2/3
f 108/6/3 117/2/8 118/6/8
f 106/6/2 110/2/4 105/2/2
f 110/2/4 106/6/2 109/6/4
f 122/6/22 103/7/26 121/6/25
f 103/7/26 122/6/22 104/7/21
f 99/7/11 124/6/23 123/6/13
f 124/6/23 99/7/11 97/7/24
f 122/6/22 102/7/19 104/7/21
f 102/7/19 122/6/22 125/6/20
f 125/6/20 100/7/17 102/7/19
f 100/7/17 125/6/20 126/6/18
f 123/6/13 101/7/12 99/7/11
f 101/7/12 123/6/13 127/6/14
f 100/7/17 128/6/16 98/7/15
f 128/6/16 100/7/17 126/6/18
f 97/7/24 128/6/16 124/6/23
f 128/6/16 97/7/24 98/7/15
f 121/6/25 101/7/12 127/6/14
f 101/7/12 121/6/25 103/7/26
f 13/8/1 23/8/1 15/8/1
f 23/8/1 13/8/1 31/8/1
f 31/8/1 13/8/1 25/8/1
f 27/8/1 23/8/1 31/8/1
f 23/8/1 27/8/1 19/8/1
f 19/8/1 27/8/1 28/8/1
f 25/8/1 13/8/1 10/8/1
f 25/8/1 10/8/1 26/8/1
f 26/8/1 10/8/1 32/8/1
f 32/8/1 10/8/1 12/8/1
f 19/8/1 28/8/1 20/8/1
f 20/8/1 28/8/1 29/8/1
f 32/8/1 12/8/1 30/8/1
f 20/8/1 29/8/1 30/8/1
f 22/8/1 30/8/1 12/8/1
f 20/8/1 30/8/1 22/8/1
f 131/9/10 130/9/10 129/9/10
f 130/9/10 131/9/10 132/9/10
f 132/9/10 131/9/10 133/9/10
f 132/9/10 133/9/10 134/9/10
f 134/9/10 133/9/10 135/9/10
f 134/9/10 135/9/10 136/9/10
f 139/8/1 138/8/1 137/8/1
f 138/8/1 139/8/1 140/8/1
f 140/8/1 139/8/1 141/8/1
f 141/8/1 139/8/1 142/8/1
f 141/8/1 142/8/1 143/8/1
f 143/8/1 142/8/1 144/8/1
f 133/9/7 143/8/8 135/9/8
f 143/8/8 133/9/7 141/8/7
f 131/9/6 141/8/7 133/9/7
f 141/8/7 131/9/6 140/8/6
f 140/8/6 129/9/9 138/8/9
f 129/9/9 140/8/6 131/9/6
f 138/8/9 130/9/5 137/8/5
f 130/9/5 138/8/9 129/9/9
f 139/8/4 130/9/5 132/9/4
f 130/9/5 139/8/4 137/8/5
f 142/8/2 132/9/4 134/9/2
f 132/9/4 142/8/2 139/8/4
f 136/9/3 142/8/2 134/9/2
f 142/8/2 136/9/3 144/8/3
f 135/9/8 144/8/3 136/9/3
f 144/8/3 135/9/8 143/8/8
f 45/8/1 55/8/1 47/8/1
f 55/8/1 45/8/1 59/8/1
f 59/8/1 45/8/1 64/8/1
f 57/8/1 55/8/1 59/8/1
f 55/8/1 57/8/1 51/8/1
f 51/8/1 57/8/1 58/8/1
f 64/8/1 45/8/1 42/8/1
f 64/8/1 42/8/1 60/8/1
f 60/8/1 42/8/1 61/8/1
f 61/8/1 42/8/1 44/8/1
f 51/8/1 58/8/1 52/8/1
f 52/8/1 58/8/1 63/8/1
f 61/8/1 44/8/1 62/8/1
f 52/8/1 63/8/1 62/8/1
f 54/8/1 62/8/1 44/8/1
f 52/8/1 62/8/1 54/8/1
f 77/10/1 87/10/1 79/10/1
f 87/10/1 77/10/1 95/10/1
f 95/10/1 77/10/1 94/10/1
f 96/10/1 87/10/1 95/10/1
f 87/10/1 96/10/1 83/10/1
f 83/10/1 96/10/1 93/10/1
f 94/10/1 77/10/1 74/10/1
f 94/10/1 74/10/1 89/10/1
f 89/10/1 74/10/1 90/10/1
f 90/10/1 74/10/1 76/10/1
f 83/10/1 93/10/1 84/10/1
f 84/10/1 93/10/1 92/10/1
f 90/10/1 76/10/1 91/10/1
f 84/10/1 92/10/1 91/10/1
f 86/10/1 91/10/1 76/10/1
f 84/10/1 91/10/1 86/10/1
f 109/10/1 119/10/1 111/10/1
f 119/10/1 109/10/1 124/10/1
f 124/10/1 109/10/1 123/10/1
f 128/10/1 119/10/1 124/10/1
f 119/10/1 128/10/1 115/10/1
f 115/10/1 128/10/1 126/10/1
f 123/10/1 109/10/1 106/10/1
f 123/10/1 106/10/1 127/10/1
f 127/10/1 106/10/1 121/10/1
f 121/10/1 106/10/1 108/10/1
f 115/10/1 126/10/1 116/10/1
f 116/10/1 126/10/1 125/10/1
f 121/10/1 108/10/1 122/10/1
f 116/10/1 125/10/1 122/10/1
f 118/10/1 122/10/1 108/10/1
f 116/10/1 122/10/1 118/10/1

