# Created by Kenney (www.kenney.nl)

mtllib sign.mtl

g sign

v 0.035 0.1 0.035 1 1 1
v 0.035 0.1 -0.035 1 1 1
v -0.035 0.1 0.035 1 1 1
v -0.035 0.1 -0.035 1 1 1
v 0.02555 0.6 -0.02555 1 1 1
v 0.02555 0.6 0.02555 1 1 1
v -0.02555 0.6 -0.02555 1 1 1
v -0.02555 0.6 0.02555 1 1 1
v -0.031 0 -0.05599999 1 1 1
v 0.031 0 -0.05599999 1 1 1
v -0.031 0.1 -0.05599999 1 1 1
v 0.031 0.1 -0.05599999 1 1 1
v -0.056 0 -0.031 1 1 1
v -0.056 0.1 -0.031 1 1 1
v -0.056 0 0.031 1 1 1
v -0.056 0.1 0.031 1 1 1
v 0.031 0 0.05599999 1 1 1
v -0.031 0 0.05599999 1 1 1
v 0.031 0.1 0.05599999 1 1 1
v -0.031 0.1 0.05599999 1 1 1
v 0.056 0.1 -0.031 1 1 1
v 0.056 0 -0.031 1 1 1
v 0.056 0.1 0.031 1 1 1
v 0.056 0 0.031 1 1 1
v -0.228298 0.2304686 0.02555 1 1 1
v 0.2270349 0.2487566 0.02555 1 1 1
v -0.2324516 0.3338852 0.02555 1 1 1
v 0.2228812 0.3521732 0.02555 1 1 1
v -0.228298 0.2304686 0.0753906 1 1 1
v -0.2324516 0.3338852 0.0753906 1 1 1
v 0.2270349 0.2487566 0.0753906 1 1 1
v 0.2228812 0.3521732 0.0753906 1 1 1
v 0.2388125 0.3430709 0.0504703 1 1 1
v -0.2446394 0.3430709 0.0504703 1 1 1
v 0.2388125 0.4465709 0.0504703 1 1 1
v -0.2446394 0.4465709 0.0504703 1 1 1
v 0.2388125 0.4465709 0.007856585 1 1 1
v 0.2388125 0.3430709 0.007856585 1 1 1
v -0.2446394 0.3430709 0.007856585 1 1 1
v -0.2446394 0.4465709 0.007856585 1 1 1
v 0.222121 0.434717 0.0753906 1 1 1
v 0.222121 0.434717 0.02555 1 1 1
v -0.2329545 0.4585666 0.0753906 1 1 1
v -0.2329545 0.4585666 0.02555 1 1 1
v 0.2275378 0.5380752 0.02555 1 1 1
v -0.2275377 0.5619248 0.02555 1 1 1
v 0.2275378 0.5380752 0.0753906 1 1 1
v -0.2275377 0.5619248 0.0753906 1 1 1

vn 0 -1 0
vn 0 1 0
vn 0 0.01889663 0.9998214
vn 0.9998214 0.01889663 0
vn -0.9998214 0.01889663 0
vn 0 0.01889663 -0.9998214
vn -0.3826834 0 -0.9238795
vn 0.3826834 0 -0.9238795
vn -0.9238795 0 -0.3826834
vn -0.9238795 0 0.3826834
vn 0.3826834 0 0.9238795
vn -0.3826834 0 0.9238795
vn 0.9238795 0 -0.3826834
vn 0.9238795 0 0.3826834
vn 0 0 -1
vn 0 0 1
vn 0.9991944 0.04013141 0
vn 0.04013167 -0.9991944 0
vn -0.9991944 -0.04013141 0
vn -0.04013167 0.9991944 0
vn 1 0 0
vn -1 0 0
vn -0.05233619 -0.9986296 0
vn 0.05233619 0.9986296 0
vn 0.9986296 -0.05233621 0
vn -0.9986296 0.05233621 0

vt 0.84375 0.025
vt 0.84375 0.225
vt 0.84375 0.075
vt 0.84375 0.175
vt 0.71875 0.075
vt 0.71875 0.08051747
vt 0.71875 0.1062007
vt 0.71875 0.1117181
vt 0.71875 0.108972
vt 0.71875 0.1401978
vt 0.71875 0.1366215
vt 0.71875 0.1438169
vt 0.71875 0.1678046
vt 0.71875 0.175

usemtl colormap

f 3/1/1 2/1/1 1/1/1
f 2/1/1 3/1/1 4/1/1
f 7/2/2 6/2/2 5/2/2
f 6/2/2 7/2/2 8/2/2
f 6/2/3 3/1/3 1/1/3
f 3/1/3 6/2/3 8/2/3
f 5/2/4 1/1/4 2/1/4
f 1/1/4 5/2/4 6/2/4
f 3/1/5 7/2/5 4/1/5
f 7/2/5 3/1/5 8/2/5
f 7/2/6 2/1/6 4/1/6
f 2/1/6 7/2/6 5/2/6
f 11/4/7 10/3/8 9/3/7
f 10/3/8 11/4/7 12/4/8
f 15/3/10 14/4/9 13/3/9
f 14/4/9 15/3/10 16/4/10
f 19/4/11 18/3/12 17/3/11
f 18/3/12 19/4/11 20/4/12
f 23/4/14 22/3/13 21/4/13
f 22/3/13 23/4/14 24/3/14
f 19/4/11 24/3/14 23/4/14
f 24/3/14 19/4/11 17/3/11
f 18/3/12 16/4/10 15/3/10
f 16/4/10 18/3/12 20/4/12
f 21/4/13 10/3/8 12/4/8
f 10/3/8 21/4/13 22/3/13
f 13/3/9 11/4/7 9/3/7
f 11/4/7 13/3/9 14/4/9
f 12/4/2 23/4/2 21/4/2
f 23/4/2 12/4/2 19/4/2
f 19/4/2 12/4/2 11/4/2
f 19/4/2 11/4/2 20/4/2
f 20/4/2 11/4/2 14/4/2
f 20/4/2 14/4/2 16/4/2
f 17/3/1 22/3/1 24/3/1
f 22/3/1 17/3/1 10/3/1
f 10/3/1 17/3/1 18/3/1
f 10/3/1 18/3/1 9/3/1
f 9/3/1 18/3/1 15/3/1
f 9/3/1 15/3/1 13/3/1
f 27/7/15 26/6/15 25/5/15
f 26/6/15 27/7/15 28/8/15
f 31/6/16 30/7/16 29/5/16
f 30/7/16 31/6/16 32/8/16
f 28/8/17 31/6/17 26/6/17
f 31/6/17 28/8/17 32/8/17
f 29/5/18 26/6/18 31/6/18
f 26/6/18 29/5/18 25/5/18
f 29/5/19 27/7/19 25/5/19
f 27/7/19 29/5/19 30/7/19
f 28/8/20 30/7/20 32/8/20
f 30/7/20 28/8/20 27/7/20
f 35/10/16 34/9/16 33/9/16
f 34/9/16 35/10/16 36/10/16
f 35/10/21 38/9/21 37/10/21
f 38/9/21 35/10/21 33/9/21
f 34/9/22 40/10/22 39/9/22
f 40/10/22 34/9/22 36/10/22
f 34/9/1 38/9/1 33/9/1
f 38/9/1 34/9/1 39/9/1
f 37/10/2 36/10/2 35/10/2
f 36/10/2 37/10/2 40/10/2
f 40/10/15 38/9/15 39/9/15
f 38/9/15 40/10/15 37/10/15
f 43/12/23 42/11/23 41/11/23
f 42/11/23 43/12/23 44/12/23
f 44/12/15 45/13/15 42/11/15
f 45/13/15 44/12/15 46/14/15
f 45/13/24 48/14/24 47/13/24
f 48/14/24 45/13/24 46/14/24
f 47/13/25 42/11/25 45/13/25
f 42/11/25 47/13/25 41/11/25
f 47/13/16 43/12/16 41/11/16
f 43/12/16 47/13/16 48/14/16
f 44/12/26 48/14/26 46/14/26
f 48/14/26 44/12/26 43/12/26

g sign




usemtl colormap

f 3/1/1 2/1/1 1/1/1
f 2/1/1 3/1/1 4/1/1
f 7/2/2 6/2/2 5/2/2
f 6/2/2 7/2/2 8/2/2
f 6/2/3 3/1/3 1/1/3
f 3/1/3 6/2/3 8/2/3
f 5/2/4 1/1/4 2/1/4
f 1/1/4 5/2/4 6/2/4
f 3/1/5 7/2/5 4/1/5
f 7/2/5 3/1/5 8/2/5
f 7/2/6 2/1/6 4/1/6
f 2/1/6 7/2/6 5/2/6
f 11/4/7 10/3/8 9/3/7
f 10/3/8 11/4/7 12/4/8
f 15/3/10 14/4/9 13/3/9
f 14/4/9 15/3/10 16/4/10
f 19/4/11 18/3/12 17/3/11
f 18/3/12 19/4/11 20/4/12
f 23/4/14 22/3/13 21/4/13
f 22/3/13 23/4/14 24/3/14
f 19/4/11 24/3/14 23/4/14
f 24/3/14 19/4/11 17/3/11
f 18/3/12 16/4/10 15/3/10
f 16/4/10 18/3/12 20/4/12
f 21/4/13 10/3/8 12/4/8
f 10/3/8 21/4/13 22/3/13
f 13/3/9 11/4/7 9/3/7
f 11/4/7 13/3/9 14/4/9
f 12/4/2 23/4/2 21/4/2
f 23/4/2 12/4/2 19/4/2
f 19/4/2 12/4/2 11/4/2
f 19/4/2 11/4/2 20/4/2
f 20/4/2 11/4/2 14/4/2
f 20/4/2 14/4/2 16/4/2
f 17/3/1 22/3/1 24/3/1
f 22/3/1 17/3/1 10/3/1
f 10/3/1 17/3/1 18/3/1
f 10/3/1 18/3/1 9/3/1
f 9/3/1 18/3/1 15/3/1
f 9/3/1 15/3/1 13/3/1
f 27/7/15 26/6/15 25/5/15
f 26/6/15 27/7/15 28/8/15
f 31/6/16 30/7/16 29/5/16
f 30/7/16 31/6/16 32/8/16
f 28/8/17 31/6/17 26/6/17
f 31/6/17 28/8/17 32/8/17
f 29/5/18 26/6/18 31/6/18
f 26/6/18 29/5/18 25/5/18
f 29/5/19 27/7/19 25/5/19
f 27/7/19 29/5/19 30/7/19
f 28/8/20 30/7/20 32/8/20
f 30/7/20 28/8/20 27/7/20
f 35/10/16 34/9/16 33/9/16
f 34/9/16 35/10/16 36/10/16
f 35/10/21 38/9/21 37/10/21
f 38/9/21 35/10/21 33/9/21
f 34/9/22 40/10/22 39/9/22
f 40/10/22 34/9/22 36/10/22
f 34/9/1 38/9/1 33/9/1
f 38/9/1 34/9/1 39/9/1
f 37/10/2 36/10/2 35/10/2
f 36/10/2 37/10/2 40/10/2
f 40/10/15 38/9/15 39/9/15
f 38/9/15 40/10/15 37/10/15
f 43/12/23 42/11/23 41/11/23
f 42/11/23 43/12/23 44/12/23
f 44/12/15 45/13/15 42/11/15
f 45/13/15 44/12/15 46/14/15
f 45/13/24 48/14/24 47/13/24
f 48/14/24 45/13/24 46/14/24
f 47/13/25 42/11/25 45/13/25
f 42/11/25 47/13/25 41/11/25
f 47/13/16 43/12/16 41/11/16
f 43/12/16 47/13/16 48/14/16
f 44/12/26 48/14/26 46/14/26
f 48/14/26 44/12/26 43/12/26

