# Created by Kenney (www.kenney.nl)

mtllib spike-block-wide.mtl

g spike-block-wide

v -0.75 0.95 2.980252E-09 1 1 1
v -0.65 0.85 0.1 1 1 1
v -0.85 0.85 0.1 1 1 1
v -0.65 0.85 -0.1 1 1 1
v -0.85 0.85 -0.1 1 1 1
v -0.85 0.75 -0.1 1 1 1
v -0.85 0.75 0.1 1 1 1
v -0.65 0.75 0.1 1 1 1
v -0.65 0.75 -0.1 1 1 1
v 9.384849E-15 0.95 2.980252E-09 1 1 1
v 0.1 0.85 0.1 1 1 1
v -0.1 0.85 0.1 1 1 1
v 0.1 0.85 -0.1 1 1 1
v -0.1 0.85 -0.1 1 1 1
v -0.1 0.75 -0.1 1 1 1
v -0.1 0.75 0.1 1 1 1
v 0.1 0.75 0.1 1 1 1
v 0.1 0.75 -0.1 1 1 1
v 0.75 0.95 2.980252E-09 1 1 1
v 0.85 0.85 0.1 1 1 1
v 0.65 0.85 0.1 1 1 1
v 0.85 0.85 -0.1 1 1 1
v 0.65 0.85 -0.1 1 1 1
v 0.65 0.75 -0.1 1 1 1
v 0.65 0.75 0.1 1 1 1
v 0.85 0.75 0.1 1 1 1
v 0.85 0.75 -0.1 1 1 1
v 7.941026E-15 0.5 0.45 1 1 1
v 0.1 0.4 0.35 1 1 1
v -0.1 0.4 0.35 1 1 1
v 0.1 0.6 0.35 1 1 1
v -0.1 0.6 0.35 1 1 1
v -0.1 0.6 0.25 1 1 1
v -0.1 0.4 0.25 1 1 1
v 0.1 0.4 0.25 1 1 1
v 0.1 0.6 0.25 1 1 1
v -0.75 0.5 0.45 1 1 1
v -0.65 0.4 0.35 1 1 1
v -0.85 0.4 0.35 1 1 1
v -0.65 0.6 0.35 1 1 1
v -0.85 0.6 0.35 1 1 1
v -0.85 0.6 0.25 1 1 1
v -0.85 0.4 0.25 1 1 1
v -0.65 0.4 0.25 1 1 1
v -0.65 0.6 0.25 1 1 1
v 0.75 0.5 0.45 1 1 1
v 0.85 0.4 0.35 1 1 1
v 0.65 0.4 0.35 1 1 1
v 0.85 0.6 0.35 1 1 1
v 0.65 0.6 0.35 1 1 1
v 0.65 0.6 0.25 1 1 1
v 0.65 0.4 0.25 1 1 1
v 0.85 0.4 0.25 1 1 1
v 0.85 0.6 0.25 1 1 1
v -0.75 0.5 -0.45 1 1 1
v -0.65 0.6 -0.35 1 1 1
v -0.85 0.6 -0.35 1 1 1
v -0.65 0.4 -0.35 1 1 1
v -0.85 0.4 -0.35 1 1 1
v -0.85 0.4 -0.25 1 1 1
v -0.85 0.6 -0.25 1 1 1
v -0.65 0.6 -0.25 1 1 1
v -0.65 0.4 -0.25 1 1 1
v 0.75 0.5 -0.45 1 1 1
v 0.85 0.6 -0.35 1 1 1
v 0.65 0.6 -0.35 1 1 1
v 0.85 0.4 -0.35 1 1 1
v 0.65 0.4 -0.35 1 1 1
v 0.65 0.4 -0.25 1 1 1
v 0.65 0.6 -0.25 1 1 1
v 0.85 0.6 -0.25 1 1 1
v 0.85 0.4 -0.25 1 1 1
v 9.384849E-15 0.5 -0.45 1 1 1
v 0.1 0.6 -0.35 1 1 1
v -0.1 0.6 -0.35 1 1 1
v 0.1 0.4 -0.35 1 1 1
v -0.1 0.4 -0.35 1 1 1
v -0.1 0.4 -0.25 1 1 1
v -0.1 0.6 -0.25 1 1 1
v 0.1 0.6 -0.25 1 1 1
v 0.1 0.4 -0.25 1 1 1
v -1.2 0.5 2.980252E-09 1 1 1
v -1.1 0.6 0.1 1 1 1
v -1.1 0.4 0.1 1 1 1
v -1.1 0.6 -0.1 1 1 1
v -1.1 0.4 -0.1 1 1 1
v -1 0.4 -0.1 1 1 1
v -1 0.4 0.1 1 1 1
v -1 0.6 0.1 1 1 1
v -1 0.6 -0.1 1 1 1
v 1.2 0.5 2.980281E-09 1 1 1
v 1.1 0.6 -0.1 1 1 1
v 1.1 0.4 -0.1 1 1 1
v 1.1 0.6 0.1 1 1 1
v 1.1 0.4 0.1 1 1 1
v 1 0.4 0.1 1 1 1
v 1 0.4 -0.1 1 1 1
v 1 0.6 -0.1 1 1 1
v 1 0.6 0.1 1 1 1
v 0.75 0.05 2.98027E-09 1 1 1
v 0.85 0.15 -0.1 1 1 1
v 0.65 0.15 -0.1 1 1 1
v 0.85 0.15 0.1 1 1 1
v 0.65 0.15 0.1 1 1 1
v 0.65 0.25 0.1 1 1 1
v 0.65 0.25 -0.1 1 1 1
v 0.85 0.25 -0.1 1 1 1
v 0.85 0.25 0.1 1 1 1
v 1.082867E-14 0.05 2.98027E-09 1 1 1
v 0.1 0.15 -0.1 1 1 1
v -0.1 0.15 -0.1 1 1 1
v 0.1 0.15 0.1 1 1 1
v -0.1 0.15 0.1 1 1 1
v -0.1 0.25 0.1 1 1 1
v -0.1 0.25 -0.1 1 1 1
v 0.1 0.25 -0.1 1 1 1
v 0.1 0.25 0.1 1 1 1
v -0.75 0.05 2.98027E-09 1 1 1
v -0.65 0.15 -0.1 1 1 1
v -0.85 0.15 -0.1 1 1 1
v -0.65 0.15 0.1 1 1 1
v -0.85 0.15 0.1 1 1 1
v -0.85 0.25 0.1 1 1 1
v -0.85 0.25 -0.1 1 1 1
v -0.65 0.25 -0.1 1 1 1
v -0.65 0.25 0.1 1 1 1
v 0.9499999 0.3 0.25 1 1 1
v 1 0.3 0.2 1 1 1
v 0.9499999 0.25 0.2 1 1 1
v 0.9499999 0.25 -0.2 1 1 1
v 1 0.3 -0.2 1 1 1
v 0.9499999 0.3 -0.25 1 1 1
v 0.9499999 0.7 -0.25 1 1 1
v 1 0.7 -0.2 1 1 1
v 0.9499999 0.75 -0.2 1 1 1
v -0.9499999 0.7 -0.25 1 1 1
v -0.9499999 0.75 -0.2 1 1 1
v -1 0.7 -0.2 1 1 1
v -0.9499999 0.75 0.2 1 1 1
v -0.9499999 0.7 0.25 1 1 1
v -1 0.7 0.2 1 1 1
v -0.9499999 0.3 0.25 1 1 1
v -0.9499999 0.25 0.2 1 1 1
v -1 0.3 0.2 1 1 1
v 0.9499999 0.75 0.2 1 1 1
v 1 0.7 0.2 1 1 1
v 0.9499999 0.7 0.25 1 1 1
v -0.9499999 0.25 -0.2 1 1 1
v -0.9499999 0.3 -0.25 1 1 1
v -1 0.3 -0.2 1 1 1
v 0.55 0.7 0.25 1 1 1
v -0.55 0.7 0.25 1 1 1
v 0.55 0.75 0.2 1 1 1
v -0.55 0.75 0.2 1 1 1

vn 0 0.7071068 0.7071068
vn 0 0.2879809 0.9576361
vn 0 0.2879809 -0.9576361
vn 0 0.7071068 -0.7071068
vn -0.9576361 0.2879809 0
vn -0.7071068 0.7071068 0
vn 0.7071068 0.7071068 0
vn 0.9576361 0.2879809 0
vn -1 0 0
vn 0 0 1
vn 1 0 0
vn 0 0 -1
vn 0 -0.7071069 0.7071068
vn 0 -0.9576363 0.2879808
vn 0 0.9576362 0.2879811
vn 0 0.7071068 0.7071069
vn -0.9576361 -3.433E-08 0.2879809
vn -0.7071068 -8.42937E-08 0.7071068
vn 0.7071068 -8.42937E-08 0.7071068
vn 0.9576361 -3.433E-08 0.2879809
vn 0 -1 -1.192093E-07
vn 0 1 1.192093E-07
vn 0 0.7071068 -0.7071069
vn 0 0.9576362 -0.2879811
vn 0 -0.9576363 -0.2879808
vn 0 -0.7071069 -0.7071068
vn -0.9576361 -3.433E-08 -0.2879809
vn -0.7071068 -8.42937E-08 -0.7071068
vn 0.7071068 -8.42937E-08 -0.7071068
vn 0.9576361 -3.433E-08 -0.2879809
vn 0 1 -1.192093E-07
vn 0 -1 1.192093E-07
vn -0.7071068 -8.42937E-08 0.7071068
vn -0.2879809 -3.433E-08 0.9576361
vn -0.2879809 -3.433E-08 -0.9576361
vn -0.7071068 -8.42937E-08 -0.7071068
vn -0.2879808 -0.9576363 0
vn -0.7071068 -0.7071069 0
vn -0.7071069 0.7071068 0
vn -0.2879811 0.9576362 0
vn 1.192093E-07 -1 0
vn -1.192093E-07 1 0
vn 0.7071068 -8.42937E-08 -0.7071069
vn 0.2879809 -3.433E-08 -0.9576364
vn 0.2879809 -3.433E-08 0.9576364
vn 0.7071068 -8.42937E-08 0.7071069
vn 0.2879811 -0.9576363 4.053289E-14
vn 0.7071069 -0.7071069 9.952425E-14
vn 0.7071068 0.7071068 9.952425E-14
vn 0.2879808 0.9576362 4.053289E-14
vn 1.407486E-13 0 -1
vn -1.407486E-13 0 1
vn 0 -0.7071068 -0.7071068
vn 0 -0.2879809 -0.9576361
vn 0 -0.2879809 0.9576361
vn 0 -0.7071068 0.7071068
vn -0.9576361 -0.2879809 2.717646E-16
vn -0.7071068 -0.7071068 6.672893E-16
vn 0.7071068 -0.7071068 6.672893E-16
vn 0.9576361 -0.2879809 2.717646E-16
vn 0 -9.436896E-16 -1
vn 0 9.436896E-16 1
vn 0.4605629 -0.4605629 0.758791
vn 0.758791 -0.4605629 0.4605629
vn 0.4605629 -0.758791 0.4605629
vn 0.4605629 -0.758791 -0.4605629
vn 0.758791 -0.4605629 -0.4605629
vn 0.4605629 -0.4605629 -0.758791
vn 0.4605629 0.4605629 -0.758791
vn 0.758791 0.4605629 -0.4605629
vn 0.4605629 0.758791 -0.4605629
vn -0.4605629 0.4605629 -0.758791
vn -0.4605629 0.758791 -0.4605629
vn -0.758791 0.4605629 -0.4605629
vn -0.4605629 0.758791 0.4605629
vn -0.4605629 0.4605629 0.758791
vn -0.758791 0.4605629 0.4605629
vn -0.4605629 -0.4605629 0.758791
vn -0.4605629 -0.758791 0.4605629
vn -0.758791 -0.4605629 0.4605629
vn 0.4605629 0.758791 0.4605629
vn 0.758791 0.4605629 0.4605629
vn 0.4605629 0.4605629 0.758791
vn -0.4605629 -0.758791 -0.4605629
vn -0.4605629 -0.4605629 -0.758791
vn -0.758791 -0.4605629 -0.4605629
vn 0 -1 0
vn 0 1 0

vt 0.46875 0.225
vt 0.46875 0.125
vt 0.46875 0.025
vt 0.71875 0.295
vt 0.71875 0.275
vt 0.71875 0.455
vt 0.71875 0.475

usemtl colormap

f 3/2/2 2/2/2 1/1/1
f 5/2/3 1/1/4 4/2/3
f 3/2/5 1/1/6 5/2/5
f 2/2/8 4/2/8 1/1/7
f 7/3/9 5/2/5 6/3/9
f 5/2/5 7/3/9 3/2/5
f 2/2/2 7/3/10 8/3/10
f 7/3/10 2/2/2 3/2/2
f 2/2/8 9/3/11 4/2/8
f 9/3/11 2/2/8 8/3/11
f 5/2/3 9/3/12 6/3/12
f 9/3/12 5/2/3 4/2/3
f 12/2/2 11/2/2 10/1/1
f 14/2/3 10/1/4 13/2/3
f 12/2/5 10/1/6 14/2/5
f 11/2/8 13/2/8 10/1/7
f 16/3/9 14/2/5 15/3/9
f 14/2/5 16/3/9 12/2/5
f 11/2/2 16/3/10 17/3/10
f 16/3/10 11/2/2 12/2/2
f 11/2/8 18/3/11 13/2/8
f 18/3/11 11/2/8 17/3/11
f 14/2/3 18/3/12 15/3/12
f 18/3/12 14/2/3 13/2/3
f 21/2/2 20/2/2 19/1/1
f 23/2/3 19/1/4 22/2/3
f 21/2/5 19/1/6 23/2/5
f 20/2/8 22/2/8 19/1/7
f 25/3/9 23/2/5 24/3/9
f 23/2/5 25/3/9 21/2/5
f 20/2/2 25/3/10 26/3/10
f 25/3/10 20/2/2 21/2/2
f 20/2/8 27/3/11 22/2/8
f 27/3/11 20/2/8 26/3/11
f 23/2/3 27/3/12 24/3/12
f 27/3/12 23/2/3 22/2/3
f 30/2/14 29/2/14 28/1/13
f 32/2/15 28/1/16 31/2/15
f 30/2/17 28/1/18 32/2/17
f 29/2/20 31/2/20 28/1/19
f 34/3/9 32/2/17 33/3/9
f 32/2/17 34/3/9 30/2/17
f 29/2/14 34/3/21 35/3/21
f 34/3/21 29/2/14 30/2/14
f 29/2/20 36/3/11 31/2/20
f 36/3/11 29/2/20 35/3/11
f 32/2/15 36/3/22 33/3/22
f 36/3/22 32/2/15 31/2/15
f 39/2/14 38/2/14 37/1/13
f 41/2/15 37/1/16 40/2/15
f 39/2/17 37/1/18 41/2/17
f 38/2/20 40/2/20 37/1/19
f 43/3/9 41/2/17 42/3/9
f 41/2/17 43/3/9 39/2/17
f 38/2/14 43/3/21 44/3/21
f 43/3/21 38/2/14 39/2/14
f 38/2/20 45/3/11 40/2/20
f 45/3/11 38/2/20 44/3/11
f 41/2/15 45/3/22 42/3/22
f 45/3/22 41/2/15 40/2/15
f 48/2/14 47/2/14 46/1/13
f 50/2/15 46/1/16 49/2/15
f 48/2/17 46/1/18 50/2/17
f 47/2/20 49/2/20 46/1/19
f 52/3/9 50/2/17 51/3/9
f 50/2/17 52/3/9 48/2/17
f 47/2/14 52/3/21 53/3/21
f 52/3/21 47/2/14 48/2/14
f 47/2/20 54/3/11 49/2/20
f 54/3/11 47/2/20 53/3/11
f 50/2/15 54/3/22 51/3/22
f 54/3/22 50/2/15 49/2/15
f 57/2/24 56/2/24 55/1/23
f 59/2/25 55/1/26 58/2/25
f 57/2/27 55/1/28 59/2/27
f 56/2/30 58/2/30 55/1/29
f 61/3/9 59/2/27 60/3/9
f 59/2/27 61/3/9 57/2/27
f 56/2/24 61/3/31 62/3/31
f 61/3/31 56/2/24 57/2/24
f 56/2/30 63/3/11 58/2/30
f 63/3/11 56/2/30 62/3/11
f 59/2/25 63/3/32 60/3/32
f 63/3/32 59/2/25 58/2/25
f 66/2/24 65/2/24 64/1/23
f 68/2/25 64/1/26 67/2/25
f 66/2/27 64/1/28 68/2/27
f 65/2/30 67/2/30 64/1/29
f 70/3/9 68/2/27 69/3/9
f 68/2/27 70/3/9 66/2/27
f 65/2/24 70/3/31 71/3/31
f 70/3/31 65/2/24 66/2/24
f 65/2/30 72/3/11 67/2/30
f 72/3/11 65/2/30 71/3/11
f 68/2/25 72/3/32 69/3/32
f 72/3/32 68/2/25 67/2/25
f 75/2/24 74/2/24 73/1/23
f 77/2/25 73/1/26 76/2/25
f 75/2/27 73/1/28 77/2/27
f 74/2/30 76/2/30 73/1/29
f 79/3/9 77/2/27 78/3/9
f 77/2/27 79/3/9 75/2/27
f 74/2/24 79/3/31 80/3/31
f 79/3/31 74/2/24 75/2/24
f 74/2/30 81/3/11 76/2/30
f 81/3/11 74/2/30 80/3/11
f 77/2/25 81/3/32 78/3/32
f 81/3/32 77/2/25 76/2/25
f 84/2/34 83/2/34 82/1/33
f 86/2/35 82/1/36 85/2/35
f 84/2/37 82/1/38 86/2/37
f 83/2/40 85/2/40 82/1/39
f 88/3/41 86/2/37 87/3/41
f 86/2/37 88/3/41 84/2/37
f 83/2/34 88/3/10 89/3/10
f 88/3/10 83/2/34 84/2/34
f 83/2/40 90/3/42 85/2/40
f 90/3/42 83/2/40 89/3/42
f 86/2/35 90/3/12 87/3/12
f 90/3/12 86/2/35 85/2/35
f 93/2/44 92/2/44 91/1/43
f 95/2/45 91/1/46 94/2/45
f 93/2/47 91/1/48 95/2/47
f 92/2/50 94/2/50 91/1/49
f 97/3/41 95/2/47 96/3/41
f 95/2/47 97/3/41 93/2/47
f 92/2/44 97/3/51 98/3/51
f 97/3/51 92/2/44 93/2/44
f 92/2/50 99/3/42 94/2/50
f 99/3/42 92/2/50 98/3/42
f 95/2/45 99/3/52 96/3/52
f 99/3/52 95/2/45 94/2/45
f 102/2/54 101/2/54 100/1/53
f 104/2/55 100/1/56 103/2/55
f 102/2/57 100/1/58 104/2/57
f 101/2/60 103/2/60 100/1/59
f 106/3/9 104/2/57 105/3/9
f 104/2/57 106/3/9 102/2/57
f 101/2/54 106/3/61 107/3/61
f 106/3/61 101/2/54 102/2/54
f 101/2/60 108/3/11 103/2/60
f 108/3/11 101/2/60 107/3/11
f 104/2/55 108/3/62 105/3/62
f 108/3/62 104/2/55 103/2/55
f 111/2/54 110/2/54 109/1/53
f 113/2/55 109/1/56 112/2/55
f 111/2/57 109/1/58 113/2/57
f 110/2/60 112/2/60 109/1/59
f 115/3/9 113/2/57 114/3/9
f 113/2/57 115/3/9 111/2/57
f 110/2/54 115/3/61 116/3/61
f 115/3/61 110/2/54 111/2/54
f 110/2/60 117/3/11 112/2/60
f 117/3/11 110/2/60 116/3/11
f 113/2/55 117/3/62 114/3/62
f 117/3/62 113/2/55 112/2/55
f 120/2/54 119/2/54 118/1/53
f 122/2/55 118/1/56 121/2/55
f 120/2/57 118/1/58 122/2/57
f 119/2/60 121/2/60 118/1/59
f 124/3/9 122/2/57 123/3/9
f 122/2/57 124/3/9 120/2/57
f 119/2/54 124/3/61 125/3/61
f 124/3/61 119/2/54 120/2/54
f 119/2/60 126/3/11 121/2/60
f 126/3/11 119/2/60 125/3/11
f 122/2/55 126/3/62 123/3/62
f 126/3/62 122/2/55 121/2/55
f 129/5/65 128/4/64 127/4/63
f 132/4/68 131/4/67 130/5/66
f 135/7/71 134/6/70 133/6/69
f 138/6/74 137/7/73 136/6/72
f 141/6/77 140/6/76 139/7/75
f 144/4/80 143/5/79 142/4/78
f 147/6/83 146/6/82 145/7/81
f 150/4/86 149/4/85 148/5/84
f 143/5/87 130/5/87 129/5/87
f 130/5/87 143/5/87 148/5/87
f 147/6/10 142/4/10 127/4/10
f 142/4/10 147/6/10 140/6/10
f 140/6/10 147/6/10 151/6/10
f 140/6/10 151/6/10 152/6/10
f 129/5/65 131/4/67 128/4/64
f 131/4/67 129/5/65 130/5/66
f 137/7/88 145/7/88 135/7/88
f 145/7/88 137/7/88 153/7/88
f 153/7/88 137/7/88 154/7/88
f 154/7/88 137/7/88 139/7/88
f 150/4/86 136/6/72 149/4/85
f 136/6/72 150/4/86 138/6/74
f 142/4/78 141/6/77 144/4/80
f 141/6/77 142/4/78 140/6/76
f 138/6/74 139/7/75 137/7/73
f 139/7/75 138/6/74 141/6/77
f 144/4/80 148/5/84 143/5/79
f 148/5/84 144/4/80 150/4/86
f 146/6/11 131/4/11 134/6/11
f 131/4/11 146/6/11 128/4/11
f 136/6/12 132/4/12 149/4/12
f 132/4/12 136/6/12 133/6/12
f 135/7/71 146/6/82 134/6/70
f 146/6/82 135/7/71 145/7/81
f 142/4/78 129/5/65 127/4/63
f 129/5/65 142/4/78 143/5/79
f 147/6/83 128/4/64 146/6/82
f 128/4/64 147/6/83 127/4/63
f 153/7/1 147/6/83 145/7/81
f 147/6/83 153/7/1 151/6/1
f 154/7/1 151/6/1 153/7/1
f 151/6/1 154/7/1 152/6/1
f 139/7/75 152/6/1 154/7/1
f 152/6/1 139/7/75 140/6/76
f 134/6/70 132/4/68 133/6/69
f 132/4/68 134/6/70 131/4/67
f 148/5/84 132/4/68 130/5/66
f 132/4/68 148/5/84 149/4/85
f 144/4/9 138/6/9 150/4/9
f 138/6/9 144/4/9 141/6/9
f 136/6/72 135/7/71 133/6/69
f 135/7/71 136/6/72 137/7/73

g spike-block-wide




usemtl colormap

f 3/2/2 2/2/2 1/1/1
f 5/2/3 1/1/4 4/2/3
f 3/2/5 1/1/6 5/2/5
f 2/2/8 4/2/8 1/1/7
f 7/3/9 5/2/5 6/3/9
f 5/2/5 7/3/9 3/2/5
f 2/2/2 7/3/10 8/3/10
f 7/3/10 2/2/2 3/2/2
f 2/2/8 9/3/11 4/2/8
f 9/3/11 2/2/8 8/3/11
f 5/2/3 9/3/12 6/3/12
f 9/3/12 5/2/3 4/2/3
f 12/2/2 11/2/2 10/1/1
f 14/2/3 10/1/4 13/2/3
f 12/2/5 10/1/6 14/2/5
f 11/2/8 13/2/8 10/1/7
f 16/3/9 14/2/5 15/3/9
f 14/2/5 16/3/9 12/2/5
f 11/2/2 16/3/10 17/3/10
f 16/3/10 11/2/2 12/2/2
f 11/2/8 18/3/11 13/2/8
f 18/3/11 11/2/8 17/3/11
f 14/2/3 18/3/12 15/3/12
f 18/3/12 14/2/3 13/2/3
f 21/2/2 20/2/2 19/1/1
f 23/2/3 19/1/4 22/2/3
f 21/2/5 19/1/6 23/2/5
f 20/2/8 22/2/8 19/1/7
f 25/3/9 23/2/5 24/3/9
f 23/2/5 25/3/9 21/2/5
f 20/2/2 25/3/10 26/3/10
f 25/3/10 20/2/2 21/2/2
f 20/2/8 27/3/11 22/2/8
f 27/3/11 20/2/8 26/3/11
f 23/2/3 27/3/12 24/3/12
f 27/3/12 23/2/3 22/2/3
f 30/2/14 29/2/14 28/1/13
f 32/2/15 28/1/16 31/2/15
f 30/2/17 28/1/18 32/2/17
f 29/2/20 31/2/20 28/1/19
f 34/3/9 32/2/17 33/3/9
f 32/2/17 34/3/9 30/2/17
f 29/2/14 34/3/21 35/3/21
f 34/3/21 29/2/14 30/2/14
f 29/2/20 36/3/11 31/2/20
f 36/3/11 29/2/20 35/3/11
f 32/2/15 36/3/22 33/3/22
f 36/3/22 32/2/15 31/2/15
f 39/2/14 38/2/14 37/1/13
f 41/2/15 37/1/16 40/2/15
f 39/2/17 37/1/18 41/2/17
f 38/2/20 40/2/20 37/1/19
f 43/3/9 41/2/17 42/3/9
f 41/2/17 43/3/9 39/2/17
f 38/2/14 43/3/21 44/3/21
f 43/3/21 38/2/14 39/2/14
f 38/2/20 45/3/11 40/2/20
f 45/3/11 38/2/20 44/3/11
f 41/2/15 45/3/22 42/3/22
f 45/3/22 41/2/15 40/2/15
f 48/2/14 47/2/14 46/1/13
f 50/2/15 46/1/16 49/2/15
f 48/2/17 46/1/18 50/2/17
f 47/2/20 49/2/20 46/1/19
f 52/3/9 50/2/17 51/3/9
f 50/2/17 52/3/9 48/2/17
f 47/2/14 52/3/21 53/3/21
f 52/3/21 47/2/14 48/2/14
f 47/2/20 54/3/11 49/2/20
f 54/3/11 47/2/20 53/3/11
f 50/2/15 54/3/22 51/3/22
f 54/3/22 50/2/15 49/2/15
f 57/2/24 56/2/24 55/1/23
f 59/2/25 55/1/26 58/2/25
f 57/2/27 55/1/28 59/2/27
f 56/2/30 58/2/30 55/1/29
f 61/3/9 59/2/27 60/3/9
f 59/2/27 61/3/9 57/2/27
f 56/2/24 61/3/31 62/3/31
f 61/3/31 56/2/24 57/2/24
f 56/2/30 63/3/11 58/2/30
f 63/3/11 56/2/30 62/3/11
f 59/2/25 63/3/32 60/3/32
f 63/3/32 59/2/25 58/2/25
f 66/2/24 65/2/24 64/1/23
f 68/2/25 64/1/26 67/2/25
f 66/2/27 64/1/28 68/2/27
f 65/2/30 67/2/30 64/1/29
f 70/3/9 68/2/27 69/3/9
f 68/2/27 70/3/9 66/2/27
f 65/2/24 70/3/31 71/3/31
f 70/3/31 65/2/24 66/2/24
f 65/2/30 72/3/11 67/2/30
f 72/3/11 65/2/30 71/3/11
f 68/2/25 72/3/32 69/3/32
f 72/3/32 68/2/25 67/2/25
f 75/2/24 74/2/24 73/1/23
f 77/2/25 73/1/26 76/2/25
f 75/2/27 73/1/28 77/2/27
f 74/2/30 76/2/30 73/1/29
f 79/3/9 77/2/27 78/3/9
f 77/2/27 79/3/9 75/2/27
f 74/2/24 79/3/31 80/3/31
f 79/3/31 74/2/24 75/2/24
f 74/2/30 81/3/11 76/2/30
f 81/3/11 74/2/30 80/3/11
f 77/2/25 81/3/32 78/3/32
f 81/3/32 77/2/25 76/2/25
f 84/2/34 83/2/34 82/1/33
f 86/2/35 82/1/36 85/2/35
f 84/2/37 82/1/38 86/2/37
f 83/2/40 85/2/40 82/1/39
f 88/3/41 86/2/37 87/3/41
f 86/2/37 88/3/41 84/2/37
f 83/2/34 88/3/10 89/3/10
f 88/3/10 83/2/34 84/2/34
f 83/2/40 90/3/42 85/2/40
f 90/3/42 83/2/40 89/3/42
f 86/2/35 90/3/12 87/3/12
f 90/3/12 86/2/35 85/2/35
f 93/2/44 92/2/44 91/1/43
f 95/2/45 91/1/46 94/2/45
f 93/2/47 91/1/48 95/2/47
f 92/2/50 94/2/50 91/1/49
f 97/3/41 95/2/47 96/3/41
f 95/2/47 97/3/41 93/2/47
f 92/2/44 97/3/51 98/3/51
f 97/3/51 92/2/44 93/2/44
f 92/2/50 99/3/42 94/2/50
f 99/3/42 92/2/50 98/3/42
f 95/2/45 99/3/52 96/3/52
f 99/3/52 95/2/45 94/2/45
f 102/2/54 101/2/54 100/1/53
f 104/2/55 100/1/56 103/2/55
f 102/2/57 100/1/58 104/2/57
f 101/2/60 103/2/60 100/1/59
f 106/3/9 104/2/57 105/3/9
f 104/2/57 106/3/9 102/2/57
f 101/2/54 106/3/61 107/3/61
f 106/3/61 101/2/54 102/2/54
f 101/2/60 108/3/11 103/2/60
f 108/3/11 101/2/60 107/3/11
f 104/2/55 108/3/62 105/3/62
f 108/3/62 104/2/55 103/2/55
f 111/2/54 110/2/54 109/1/53
f 113/2/55 109/1/56 112/2/55
f 111/2/57 109/1/58 113/2/57
f 110/2/60 112/2/60 109/1/59
f 115/3/9 113/2/57 114/3/9
f 113/2/57 115/3/9 111/2/57
f 110/2/54 115/3/61 116/3/61
f 115/3/61 110/2/54 111/2/54
f 110/2/60 117/3/11 112/2/60
f 117/3/11 110/2/60 116/3/11
f 113/2/55 117/3/62 114/3/62
f 117/3/62 113/2/55 112/2/55
f 120/2/54 119/2/54 118/1/53
f 122/2/55 118/1/56 121/2/55
f 120/2/57 118/1/58 122/2/57
f 119/2/60 121/2/60 118/1/59
f 124/3/9 122/2/57 123/3/9
f 122/2/57 124/3/9 120/2/57
f 119/2/54 124/3/61 125/3/61
f 124/3/61 119/2/54 120/2/54
f 119/2/60 126/3/11 121/2/60
f 126/3/11 119/2/60 125/3/11
f 122/2/55 126/3/62 123/3/62
f 126/3/62 122/2/55 121/2/55
f 129/5/65 128/4/64 127/4/63
f 132/4/68 131/4/67 130/5/66
f 135/7/71 134/6/70 133/6/69
f 138/6/74 137/7/73 136/6/72
f 141/6/77 140/6/76 139/7/75
f 144/4/80 143/5/79 142/4/78
f 147/6/83 146/6/82 145/7/81
f 150/4/86 149/4/85 148/5/84
f 143/5/87 130/5/87 129/5/87
f 130/5/87 143/5/87 148/5/87
f 147/6/10 142/4/10 127/4/10
f 142/4/10 147/6/10 140/6/10
f 140/6/10 147/6/10 151/6/10
f 140/6/10 151/6/10 152/6/10
f 129/5/65 131/4/67 128/4/64
f 131/4/67 129/5/65 130/5/66
f 137/7/88 145/7/88 135/7/88
f 145/7/88 137/7/88 153/7/88
f 153/7/88 137/7/88 154/7/88
f 154/7/88 137/7/88 139/7/88
f 150/4/86 136/6/72 149/4/85
f 136/6/72 150/4/86 138/6/74
f 142/4/78 141/6/77 144/4/80
f 141/6/77 142/4/78 140/6/76
f 138/6/74 139/7/75 137/7/73
f 139/7/75 138/6/74 141/6/77
f 144/4/80 148/5/84 143/5/79
f 148/5/84 144/4/80 150/4/86
f 146/6/11 131/4/11 134/6/11
f 131/4/11 146/6/11 128/4/11
f 136/6/12 132/4/12 149/4/12
f 132/4/12 136/6/12 133/6/12
f 135/7/71 146/6/82 134/6/70
f 146/6/82 135/7/71 145/7/81
f 142/4/78 129/5/65 127/4/63
f 129/5/65 142/4/78 143/5/79
f 147/6/83 128/4/64 146/6/82
f 128/4/64 147/6/83 127/4/63
f 153/7/1 147/6/83 145/7/81
f 147/6/83 153/7/1 151/6/1
f 154/7/1 151/6/1 153/7/1
f 151/6/1 154/7/1 152/6/1
f 139/7/75 152/6/1 154/7/1
f 152/6/1 139/7/75 140/6/76
f 134/6/70 132/4/68 133/6/69
f 132/4/68 134/6/70 131/4/67
f 148/5/84 132/4/68 130/5/66
f 132/4/68 148/5/84 149/4/85
f 144/4/9 138/6/9 150/4/9
f 138/6/9 144/4/9 141/6/9
f 136/6/72 135/7/71 133/6/69
f 135/7/71 136/6/72 137/7/73

